<svg xmlns="http://www.w3.org/2000/svg" viewBox="0 0 220.49 80.95" id="icon-arc-logo" width="100%" height="100%"><g id="Layer_2" data-name="Layer 2"><path class="cls-1" d="M138.86 80h16.65L94.3 1H80.6v79h13.06V21.29zm-77 0h13.05V1h-13.7L0 80h16.65l45.2-58.71zm74.91-32.25a27.34 27.34 0 007.79-19.4c0-15.49-11.8-27.4-28.13-27.4h-15.92l9.91 12.86h6c8.75 0 14.65 6.32 14.65 14.54a14.62 14.62 0 01-2.64 8.54zm73.19-24a26.53 26.53 0 00-21.38-10.86c-15 0-27 12.33-27 27.62s12 27.61 27 27.61A26.52 26.52 0 00210 57.24l10.54 8.22a40.55 40.55 0 11-.11-50z" id="Layer_1-2" data-name="Layer 1"></path></g></svg>