<svg width="175" height="168" viewBox="0 0 175 168" fill="none" xmlns="http://www.w3.org/2000/svg">
<rect x="0.333008" width="173.333" height="168" rx="8" fill="url(#paint0_linear_146_103172)"/>
<path d="M107.75 76.7084H106.817L103.171 67.6084C102.52 65.9904 101.4 64.6039 99.955 63.6268C98.5102 62.6498 96.8064 62.1268 95.0623 62.125H77.5623C75.5361 62.1192 73.5706 62.8168 72.0015 64.0988C70.4323 65.3807 69.3567 67.1675 68.9582 69.1542L67.4415 76.7084H66.9165C64.5959 76.7084 62.3703 77.6302 60.7293 79.2712C59.0884 80.9121 58.1665 83.1377 58.1665 85.4584V94.2084C58.1665 94.9819 58.4738 95.7238 59.0208 96.2708C59.5678 96.8177 60.3096 97.125 61.0832 97.125H63.9998C63.9998 99.4457 64.9217 101.671 66.5627 103.312C68.2036 104.953 70.4292 105.875 72.7498 105.875C75.0705 105.875 77.2961 104.953 78.937 103.312C80.578 101.671 81.4998 99.4457 81.4998 97.125H93.1665C93.1665 99.4457 94.0884 101.671 95.7293 103.312C97.3703 104.953 99.5959 105.875 101.917 105.875C104.237 105.875 106.463 104.953 108.104 103.312C109.745 101.671 110.667 99.4457 110.667 97.125H113.583C114.357 97.125 115.099 96.8177 115.646 96.2708C116.193 95.7238 116.5 94.9819 116.5 94.2084V85.4584C116.5 83.1377 115.578 80.9121 113.937 79.2712C112.296 77.6302 110.07 76.7084 107.75 76.7084ZM90.2498 67.9584H95.0623C95.6415 67.9636 96.206 68.1412 96.6839 68.4684C97.1618 68.7957 97.5314 69.2578 97.7457 69.7959L100.517 76.7084H90.2498V67.9584ZM74.6748 70.2917C74.8112 69.623 75.1777 69.0233 75.7107 68.5969C76.2436 68.1706 76.9092 67.9446 77.5915 67.9584H84.4165V76.7084H73.3915L74.6748 70.2917ZM72.7498 100.042C72.173 100.042 71.6091 99.8706 71.1294 99.5502C70.6498 99.2297 70.2759 98.7741 70.0552 98.2412C69.8344 97.7082 69.7767 97.1218 69.8892 96.556C70.0018 95.9902 70.2795 95.4705 70.6874 95.0626C71.0953 94.6547 71.615 94.377 72.1808 94.2644C72.7466 94.1519 73.333 94.2096 73.866 94.4304C74.3989 94.6511 74.8545 95.025 75.175 95.5046C75.4954 95.9843 75.6665 96.5482 75.6665 97.125C75.6665 97.8986 75.3592 98.6405 74.8122 99.1874C74.2652 99.7344 73.5234 100.042 72.7498 100.042ZM101.917 100.042C101.34 100.042 100.776 99.8706 100.296 99.5502C99.8164 99.2297 99.4426 98.7741 99.2219 98.2412C99.0011 97.7082 98.9433 97.1218 99.0559 96.556C99.1684 95.9902 99.4462 95.4705 99.8541 95.0626C100.262 94.6547 100.782 94.377 101.347 94.2644C101.913 94.1519 102.5 94.2096 103.033 94.4304C103.566 94.6511 104.021 95.025 104.342 95.5046C104.662 95.9843 104.833 96.5482 104.833 97.125C104.833 97.8986 104.526 98.6405 103.979 99.1874C103.432 99.7344 102.69 100.042 101.917 100.042ZM110.667 91.2917H108.391C107.571 90.3894 106.572 89.6685 105.457 89.1752C104.342 88.6818 103.136 88.427 101.917 88.427C100.697 88.427 99.4914 88.6818 98.3763 89.1752C97.2612 89.6685 96.2616 90.3894 95.4415 91.2917H79.2248C78.4047 90.3894 77.4051 89.6685 76.29 89.1752C75.175 88.6818 73.9691 88.427 72.7498 88.427C71.5305 88.427 70.3247 88.6818 69.2096 89.1752C68.0946 89.6685 67.0949 90.3894 66.2748 91.2917H63.9998V85.4584C63.9998 84.6848 64.3071 83.943 64.8541 83.396C65.4011 82.849 66.143 82.5417 66.9165 82.5417H107.75C108.523 82.5417 109.265 82.849 109.812 83.396C110.359 83.943 110.667 84.6848 110.667 85.4584V91.2917Z" fill="white"/>
<defs>
<linearGradient id="paint0_linear_146_103172" x1="63.869" y1="-87.7612" x2="148.487" y2="-66.3531" gradientUnits="userSpaceOnUse">
<stop stop-color="#578BFF"/>
<stop offset="1" stop-color="#944BFF"/>
</linearGradient>
</defs>
</svg>
