<svg width="556" height="510" viewBox="0 0 556 510" fill="none" xmlns="http://www.w3.org/2000/svg">
<rect width="556" height="510" rx="8" fill="#F2F4FF"/>
<g clip-path="url(#clip0_48_73570)">
<path d="M358.454 353L322.199 256.088L417.5 294.527L387.488 307.124L413.213 333.285L394.744 350.187L370.111 323.604L358.466 353H358.454ZM368.53 315.21L395.005 343.775L406.651 333.114L379.516 305.518L405.525 294.607L330.08 264.186L358.579 340.347L368.542 315.21H368.53Z" fill="#0C67E8"/>
<path d="M348.583 313.638H160.381C148.314 313.638 138.5 303.809 138.5 291.725V178.913C138.5 166.829 148.314 157 160.381 157H356.476C368.542 157 378.356 166.829 378.356 178.913V283.639L330.091 264.174L348.594 313.638H348.583ZM160.381 161.556C150.828 161.556 143.049 169.346 143.049 178.913V291.725C143.049 301.292 150.828 309.083 160.381 309.083H342.021L322.199 256.088L373.807 276.896V178.913C373.807 169.346 366.028 161.556 356.476 161.556H160.381Z" fill="#0C67E8"/>
<path d="M336.687 286.02H140.774V290.575H336.687V286.02Z" fill="#0C67E8"/>
<path d="M270.216 295.859H257.319C255.586 295.859 254.18 297.267 254.18 299.003C254.18 300.739 255.586 302.146 257.319 302.146H270.216C271.949 302.146 273.354 300.739 273.354 299.003C273.354 297.267 271.949 295.859 270.216 295.859Z" fill="#0C67E8"/>
<path d="M306.585 350.802H220.95C217.55 350.802 214.786 348.034 214.786 344.629V338.98C214.786 335.574 217.55 332.807 220.95 332.807H306.585C309.985 332.807 312.748 335.574 312.748 338.98V344.629C312.748 348.034 309.985 350.802 306.585 350.802ZM220.95 337.351C220.063 337.351 219.335 338.08 219.335 338.968V344.617C219.335 345.506 220.063 346.235 220.95 346.235H306.585C307.472 346.235 308.2 345.506 308.2 344.617V338.968C308.2 338.08 307.472 337.351 306.585 337.351H220.95Z" fill="#0C67E8"/>
<path d="M246.333 337.327V332.829C246.8 332.829 247.516 332.726 248.346 331.883C252.077 328.057 252.634 315.802 252.531 311.405L257.024 311.303C257.069 313.114 257.274 329.173 251.565 335.027C250.098 336.53 248.289 337.327 246.345 337.327H246.333Z" fill="#0C67E8"/>
<path d="M282.395 337.327C280.439 337.327 278.631 336.53 277.176 335.027C271.467 329.173 271.671 313.114 271.717 311.303L276.209 311.405C276.107 315.802 276.664 328.057 280.394 331.883C281.213 332.726 281.941 332.829 282.407 332.829V337.327H282.395Z" fill="#0C67E8"/>
<path d="M226.716 262.888C224.385 262.888 222.065 262.694 219.733 262.295C206.143 259.995 192.451 250.69 180.135 235.394C170.934 223.97 165.771 213.367 165.555 212.922L169.649 210.941C169.854 211.362 190.165 252.683 220.495 257.808C234.79 260.223 249.279 254.198 263.551 239.904L319.674 183.697L322.893 186.92L266.77 243.127C253.657 256.259 240.204 262.888 226.716 262.888Z" fill="#0C67E8"/>
<path d="M322.438 175.725C318.401 175.725 315.125 178.993 315.125 183.037C315.125 187.08 318.401 190.36 322.438 190.36C326.475 190.36 329.739 187.08 329.739 183.037C329.739 178.993 326.475 175.725 322.438 175.725ZM322.438 185.349C321.164 185.349 320.129 184.312 320.129 183.037C320.129 181.761 321.164 180.725 322.438 180.725C323.712 180.725 324.746 181.761 324.746 183.037C324.746 184.312 323.712 185.349 322.438 185.349Z" fill="#0C67E8"/>
<path d="M164.679 202.536C160.881 203.902 158.902 208.094 160.267 211.898C161.632 215.702 165.828 217.683 169.626 216.317C173.425 214.95 175.392 210.759 174.028 206.955C172.663 203.151 168.478 201.18 164.691 202.547L164.679 202.536ZM167.932 211.579C166.726 212.012 165.396 211.385 164.964 210.189C164.532 208.993 165.157 207.661 166.362 207.228C167.568 206.795 168.887 207.422 169.319 208.618C169.751 209.813 169.126 211.146 167.932 211.579Z" fill="#0C67E8"/>
<path d="M172.801 208.292L172.113 211.639L236.026 224.824L236.714 221.478L172.801 208.292Z" fill="#0C67E8"/>
<path d="M237.281 218.779L231.993 222.23L235.439 227.526L240.727 224.075L237.281 218.779Z" fill="#0C67E8"/>
<path d="M321.038 186.116L315.362 251.221L318.761 251.518L324.437 186.413L321.038 186.116Z" fill="#0C67E8"/>
<path d="M199.434 187.625H177.689C174.46 187.625 171.833 184.994 171.833 181.76V175.803C171.833 172.568 174.46 169.938 177.689 169.938H199.434C202.663 169.938 205.29 172.568 205.29 175.803V181.76C205.29 184.994 202.663 187.625 199.434 187.625ZM177.689 174.493C176.962 174.493 176.382 175.086 176.382 175.803V181.76C176.382 182.489 176.973 183.069 177.689 183.069H199.434C200.161 183.069 200.741 182.477 200.741 181.76V175.803C200.741 175.074 200.15 174.493 199.434 174.493H177.689Z" fill="#0C67E8"/>
<path d="M289.105 276.303H267.35C264.12 276.303 261.493 273.672 261.493 270.437V264.481C261.493 261.246 264.12 258.615 267.35 258.615H289.105C292.335 258.615 294.962 261.246 294.962 264.481V270.437C294.962 273.672 292.335 276.303 289.105 276.303ZM267.35 263.171C266.622 263.171 266.042 263.763 266.042 264.481V270.437C266.042 271.166 266.633 271.747 267.35 271.747H289.105C289.833 271.747 290.413 271.155 290.413 270.437V264.481C290.413 263.752 289.822 263.171 289.105 263.171H267.35Z" fill="#0C67E8"/>
<path d="M269.306 205.769H233.778C230.548 205.769 227.921 203.138 227.921 199.903V175.803C227.921 172.568 230.548 169.938 233.778 169.938H269.306C272.536 169.938 275.163 172.568 275.163 175.803V199.892C275.163 203.126 272.536 205.757 269.306 205.757V205.769ZM233.778 174.505C233.05 174.505 232.47 175.097 232.47 175.814V199.903C232.47 200.632 233.062 201.213 233.778 201.213H269.306C270.034 201.213 270.614 200.621 270.614 199.903V175.814C270.614 175.086 270.022 174.505 269.306 174.505H233.778Z" fill="#0C67E8"/>
<path d="M317.551 244.794L312.78 248.932L316.911 253.71L321.683 249.572L317.551 244.794Z" fill="#0C67E8"/>
</g>
<defs>
<clipPath id="clip0_48_73570">
<rect width="279" height="196" fill="white" transform="translate(138.5 157)"/>
</clipPath>
</defs>
</svg>
