<svg width="24" height="24" viewBox="0 0 24 24" fill="none" xmlns="http://www.w3.org/2000/svg">
<rect x="1" y="1" width="22" height="22" rx="1" fill="#0C67E8" stroke="#0C67E8" stroke-width="2"/>
<path d="M18.7085 7.20986C18.6155 7.11613 18.5049 7.04174 18.3831 6.99097C18.2612 6.9402 18.1305 6.91406 17.9985 6.91406C17.8665 6.91406 17.7358 6.9402 17.6139 6.99097C17.492 7.04174 17.3814 7.11613 17.2885 7.20986L9.83849 14.6699L6.70849 11.5299C6.61196 11.4366 6.49802 11.3633 6.37317 11.3141C6.24831 11.2649 6.11499 11.2408 5.98081 11.2431C5.84663 11.2454 5.71422 11.2741 5.59114 11.3276C5.46806 11.3811 5.35672 11.4583 5.26348 11.5549C5.17025 11.6514 5.09693 11.7653 5.04773 11.8902C4.99852 12.015 4.97439 12.1484 4.97672 12.2825C4.97904 12.4167 5.00776 12.5491 5.06126 12.6722C5.11475 12.7953 5.19196 12.9066 5.28848 12.9999L9.12849 16.8399C9.22145 16.9336 9.33205 17.008 9.45391 17.0588C9.57577 17.1095 9.70647 17.1357 9.83849 17.1357C9.9705 17.1357 10.1012 17.1095 10.2231 17.0588C10.3449 17.008 10.4555 16.9336 10.5485 16.8399L18.7085 8.67986C18.81 8.58622 18.891 8.47257 18.9464 8.34607C19.0018 8.21957 19.0304 8.08296 19.0304 7.94486C19.0304 7.80676 19.0018 7.67015 18.9464 7.54365C18.891 7.41715 18.81 7.3035 18.7085 7.20986Z" fill="white"/>
</svg>
