<svg width="175" height="168" viewBox="0 0 175 168" fill="none" xmlns="http://www.w3.org/2000/svg">
<rect x="0.666504" width="173.333" height="168" rx="8" fill="url(#paint0_linear_146_103158)"/>
<path d="M108.083 57.75H67.25C64.9294 57.75 62.7038 58.6719 61.0628 60.3128C59.4219 61.9538 58.5 64.1794 58.5 66.5V89.8333C58.5 92.154 59.4219 94.3796 61.0628 96.0205C62.7038 97.6615 64.9294 98.5833 67.25 98.5833H84.75V104.417H73.0833C72.3098 104.417 71.5679 104.724 71.0209 105.271C70.474 105.818 70.1667 106.56 70.1667 107.333C70.1667 108.107 70.474 108.849 71.0209 109.396C71.5679 109.943 72.3098 110.25 73.0833 110.25H102.25C103.024 110.25 103.765 109.943 104.312 109.396C104.859 108.849 105.167 108.107 105.167 107.333C105.167 106.56 104.859 105.818 104.312 105.271C103.765 104.724 103.024 104.417 102.25 104.417H90.5833V98.5833H108.083C110.404 98.5833 112.63 97.6615 114.271 96.0205C115.911 94.3796 116.833 92.154 116.833 89.8333V66.5C116.833 64.1794 115.911 61.9538 114.271 60.3128C112.63 58.6719 110.404 57.75 108.083 57.75ZM111 89.8333C111 90.6069 110.693 91.3487 110.146 91.8957C109.599 92.4427 108.857 92.75 108.083 92.75H67.25C66.4765 92.75 65.7346 92.4427 65.1876 91.8957C64.6406 91.3487 64.3333 90.6069 64.3333 89.8333V66.5C64.3333 65.7265 64.6406 64.9846 65.1876 64.4376C65.7346 63.8906 66.4765 63.5833 67.25 63.5833H108.083C108.857 63.5833 109.599 63.8906 110.146 64.4376C110.693 64.9846 111 65.7265 111 66.5V89.8333Z" fill="white"/>
<defs>
<linearGradient id="paint0_linear_146_103158" x1="64.2025" y1="-87.7612" x2="148.82" y2="-66.3531" gradientUnits="userSpaceOnUse">
<stop stop-color="#578BFF"/>
<stop offset="1" stop-color="#944BFF"/>
</linearGradient>
</defs>
</svg>
