<svg width="326" height="94" viewBox="0 0 326 94" fill="none" xmlns="http://www.w3.org/2000/svg">
<path d="M113.128 24.2446C113.128 25.1541 112.302 26.4767 111.061 26.4767C109.903 26.4767 109.077 25.7341 107.918 25.1541C106.264 24.4101 104.527 23.8315 101.55 23.8315C93.1968 23.8315 88.069 32.4334 88.069 39.2162C88.069 47.2395 92.9478 53.6885 100.64 53.6885C104.694 53.6885 106.512 53.1099 108.663 51.7873C109.821 51.1253 110.73 50.2978 111.805 50.2978C112.88 50.2978 113.873 51.7053 113.873 52.6148C113.873 53.1934 113.542 53.8554 113.128 54.267C110.648 56.4186 106.76 58.2363 101.384 58.2363C89.5571 58.2363 83.3543 48.1463 83.4364 39.8768C83.5198 30.1164 90.3832 19.5312 101.963 19.5312C105.024 19.5312 108.331 20.1098 111.805 22.1765C112.715 22.7564 113.128 23.335 113.128 24.2446Z" fill="#151D21"/>
<path d="M123.054 20.9359C122.723 20.3573 122.31 19.6953 121.235 19.6953C120.076 19.6953 118.835 20.5228 118.835 21.8454C118.835 23.0039 119.497 23.997 120.159 25.4851L130.084 48.2297L131.82 51.9277L134.217 47.3382C131.861 41.9504 129.019 35.2135 123.054 20.9359Z" fill="#151D21"/>
<path d="M123.054 20.9359C122.723 20.3573 122.31 19.6953 121.235 19.6953C120.076 19.6953 118.835 20.5228 118.835 21.8454C118.835 23.0039 119.497 23.997 120.159 25.4851L130.084 48.2297L131.82 51.9277L134.217 47.3382C131.861 41.9504 129.019 35.2135 123.054 20.9359Z" fill="#151D21"/>
<path d="M151.588 19.7793C149.851 19.7793 149.52 20.9364 149.025 22.2604C142.573 38.6353 133.697 56.725 133.697 56.725C131.651 60.8959 130.203 63.8513 128.76 66.0946C125.782 70.7259 124.625 71.3879 120.407 71.3879C118.34 71.3879 117.678 72.0499 117.678 73.6201C117.678 75.7716 120.077 76.0191 122.475 76.0191C127.272 76.0191 130.829 72.2154 134.137 66.2587C139.512 54.8461 148.445 36.1542 153.573 23.4175C153.738 23.0031 153.904 22.4245 153.904 21.928C153.904 20.6054 152.827 19.7793 151.588 19.7793Z" fill="#151D21"/>
<path d="M195.338 33.5099L195.346 33.0009C194.876 29.186 193.271 26.0178 190.872 23.705C187.989 20.9248 183.983 19.3672 179.509 19.3672C179.406 19.3672 179.31 19.3741 179.21 19.3755C179.11 19.3741 179.014 19.3672 178.911 19.3672C174.437 19.3672 170.432 20.9248 167.549 23.705C165.151 26.0178 163.545 29.1846 163.075 33.0009L163.083 33.5099C163.083 50.2978 163 53.0279 163 55.758C163 55.8985 163.013 56.025 163.029 56.1516C163.226 57.1863 163.783 57.8247 165.399 57.8247C166.721 57.8247 167.549 56.9972 167.549 55.5091C167.549 49.7193 167.218 43.02 167.3 36.8171C167.318 35.4055 167.244 33.4849 167.627 32.1553C169.001 27.3891 173.026 24.0708 179.209 23.858C185.392 24.0708 189.195 27.1054 190.57 31.8716C190.954 33.2011 191.101 35.4055 191.119 36.8171C191.203 43.02 190.87 49.7193 190.87 55.5091C190.87 56.9972 191.699 57.8247 193.022 57.8247C194.638 57.8247 195.196 57.1863 195.39 56.1516C195.406 56.025 195.42 55.8971 195.42 55.758C195.422 53.0279 195.338 50.2978 195.338 33.5099Z" fill="#151D21"/>
<path d="M235.949 49.4717C234.955 49.4717 234.376 50.1337 233.714 50.4633C230.987 52.2838 227.428 53.5244 223.626 53.5244C215.78 53.5244 210.946 47.7291 210.305 41.5304L210.299 41.529C210.296 41.5012 210.296 41.4789 210.295 41.4525C210.284 41.3413 210.28 41.2272 210.271 41.1132C210.01 37.7114 210.614 35.418 210.614 35.418H210.622C211.696 29.4015 216.826 23.7481 224.119 23.7481C229.579 23.7481 234.873 28.1318 234.873 34.9131C234.873 35.3276 234.542 35.8227 233.881 35.9061C231.952 36.1287 218.95 36.322 217.947 36.3317C217.067 36.507 216.353 37.3289 216.353 38.2412C216.353 39.2718 217.291 40.109 218.399 40.109C218.399 40.109 228.856 40.1828 233.134 40.0423C239.173 39.8768 239.338 37.8087 239.338 34.1691C239.338 26.9732 232.474 19.5312 223.624 19.5312C213.369 19.5312 205.512 29.6213 205.512 40.5374C205.843 50.0489 213.452 58.0708 222.962 58.0708C229.082 58.0708 233.134 56.5827 236.277 54.3477C237.352 53.6037 238.181 52.9417 238.181 51.7025C238.183 50.7123 237.023 49.4717 235.949 49.4717Z" fill="#151D21"/>
<path d="M253.331 12.4779C253.331 11.4028 253.248 8.58789 255.733 8.58789C257.802 8.58789 257.72 9.66295 257.72 11.8159C257.72 13.8853 257.555 17.7753 257.555 20.0937L267.075 20.0103C268.566 20.0103 269.393 20.6737 269.393 22.0797C269.393 23.4858 268.649 24.1492 266.827 24.1492H257.638V42.4433C257.638 50.3916 259.046 53.785 263.763 53.785C266.082 53.785 266.745 52.8755 268.151 52.8755C269.393 52.8755 269.973 54.1174 269.973 55.1091C269.973 56.02 269.393 56.7641 268.566 57.0965C267.24 57.593 266.247 57.9254 264.094 57.9254C256.065 57.9254 253.083 53.785 253.083 43.6032C253.083 37.4783 253.331 12.4779 253.331 12.4779Z" fill="#151D21"/>
<path d="M281.272 19.8613C283.504 19.8613 283.671 20.7709 283.671 24.4105C283.671 30.5299 283.589 54.9281 283.589 54.9281C283.589 56.9142 283.504 57.9892 281.19 57.9892C279.451 57.9892 279.12 56.9962 279.12 55.1785V22.4259C279.205 20.5233 280.28 19.8613 281.272 19.8613Z" fill="#151D21"/>
<path d="M277.632 12.5024C277.963 10.0213 279.37 8.7793 281.602 8.7793C283.917 8.7793 285.159 10.2688 285.159 12.5024C285.159 15.1476 283.423 16.2241 281.106 16.2241C279.039 16.2241 277.632 14.6525 277.632 12.5024Z" fill="#151D21"/>
<path d="M321.053 21.6827C322.213 22.2613 322.954 22.7578 322.954 23.7494C322.954 24.9914 322.375 25.8995 320.89 25.8995C318.904 25.8995 316.587 23.6674 309.889 23.6674C304.845 23.6674 300.379 26.645 300.379 30.6991C300.379 35.08 305.339 35.4945 310.799 36.2385C317.744 37.1481 324.196 39.1341 324.196 46.743C324.196 54.1043 317.744 58.0736 309.724 58.0736C303.685 58.0736 295.414 55.7579 295.414 53.6064C295.414 52.4493 295.911 50.9598 297.484 50.9598C299.219 50.9598 303.603 53.7719 309.971 53.7719C315.184 53.7719 319.815 51.3728 319.815 46.9891C319.815 42.2758 315.678 41.0353 309.889 40.2078C303.437 39.2996 295.995 38.3872 295.995 30.8618C295.995 24.2445 303.106 19.6133 310.222 19.6133C314.932 19.6147 319.152 20.7732 321.053 21.6827Z" fill="#151D21"/>
<path d="M168.868 89.2593C170.354 89.2593 171.803 88.7517 172.82 88.0632C173.219 87.881 173.544 87.6279 174.014 87.6279C174.704 87.6279 175.356 88.3525 175.356 89.0409C175.356 89.6946 174.957 90.0924 174.379 90.4554C173.037 91.3983 171.297 92.0144 168.542 92.0144C164.229 92.0144 160.785 88.461 160.677 84.1844C160.677 79.2555 164.229 75.0137 168.796 75.0137C172.89 75.0137 175.899 78.3126 175.899 81.5378C175.899 83.2776 175.717 84.183 173.145 84.2567C170.462 84.329 167.925 84.2915 163.721 84.329C163.793 86.8658 165.788 89.2593 168.868 89.2593ZM163.793 82.2262C165.896 82.19 171.078 82.19 172.601 82.0454C172.89 82.0092 173.037 81.8284 173.037 81.6824C173.037 79.1804 171.078 77.549 168.941 77.549C166.077 77.5504 164.048 79.8702 163.793 82.2262Z" fill="#151D21"/>
<path d="M180.181 76.4995C180.181 75.5204 180.797 75.0489 181.74 75.0489C182.574 75.0489 183.008 75.5566 183.082 76.4995L183.153 78.021C184.168 75.8111 186.562 74.9043 188.408 74.9043C190.873 74.9043 192.723 76.4634 193.339 78.384C194.316 76.4634 196.311 74.9405 198.992 74.9405C203.306 74.9405 204.902 78.0947 204.902 82.0445V85.488C204.902 87.0819 204.864 88.6785 204.792 90.6353C204.792 91.5782 203.959 91.8675 203.269 91.8675C202.508 91.8675 201.82 91.4683 201.82 90.6353C201.856 88.8954 201.964 85.6688 201.964 82.6244C201.964 79.6885 201.094 77.6594 198.485 77.6594C196.02 77.6594 194.243 79.1809 194.134 82.3713V86.068C194.134 87.0819 194.134 88.4963 194.098 89.9468C194.098 91.0706 193.773 91.9037 192.504 91.8675C191.744 91.8675 191.162 91.4322 191.162 90.5991C191.2 87.1556 191.271 86.068 191.2 82.0083C191.091 79.5439 190.04 77.6232 187.682 77.6232C184.53 77.6232 183.117 79.9792 183.117 83.7482L183.151 90.7076C183.117 91.5782 182.391 91.9037 181.594 91.9037C180.869 91.9037 180.145 91.5407 180.145 90.67C180.145 90.1262 180.145 89.7285 180.179 88.8954L180.288 82.9513C180.289 77.5857 180.181 76.9334 180.181 76.4995Z" fill="#151D21"/>
<path d="M211.323 65.5527C212.047 65.5527 212.847 65.8072 212.847 66.9671C212.737 72.6582 212.773 77.7317 212.773 78.2393C213.968 76.0642 216.288 74.9043 218.755 74.9043C223.357 74.9043 226.475 79.0001 226.475 83.2781C226.475 88.2083 222.961 92.051 218.282 92.051C215.999 92.051 213.716 90.855 212.629 88.8606L212.593 90.6005C212.484 91.5434 212.014 91.905 211.107 91.8688C210.238 91.8688 209.839 91.3612 209.839 90.0928L209.983 82.7718L209.839 67.0033C209.874 65.9505 210.562 65.5527 211.323 65.5527ZM218.32 77.6232C215.385 77.6232 212.737 80.0153 212.737 83.5673C212.737 87.0818 215.312 89.3668 217.957 89.3668C220.858 89.3668 223.466 86.9024 223.466 83.3128C223.466 80.3046 221.146 77.6232 218.32 77.6232Z" fill="#151D21"/>
<path d="M237.932 89.2593C239.418 89.2593 240.868 88.7517 241.885 88.0632C242.284 87.881 242.61 87.6279 243.08 87.6279C243.77 87.6279 244.422 88.3525 244.422 89.0409C244.422 89.6946 244.023 90.0924 243.444 90.4554C242.102 91.3983 240.361 92.0144 237.607 92.0144C233.293 92.0144 229.852 88.461 229.744 84.1844C229.744 79.2555 233.294 75.0137 237.863 75.0137C241.959 75.0137 244.966 78.3126 244.966 81.5378C244.966 83.2776 244.783 84.183 242.212 84.2567C239.53 84.329 236.991 84.2915 232.789 84.329C232.859 86.8658 234.852 89.2593 237.932 89.2593ZM232.859 82.2262C234.962 82.19 240.144 82.19 241.668 82.0454C241.959 82.0092 242.103 81.8284 242.103 81.6824C242.103 79.1804 240.145 77.549 238.008 77.549C235.143 77.5504 233.113 79.8702 232.859 82.2262Z" fill="#151D21"/>
<path d="M264.58 75.8116V82.9142C264.58 84.5456 264.65 86.2493 264.65 90.5621C264.65 91.5412 264.107 91.9765 263.203 91.9765C262.331 91.9765 261.897 91.505 261.823 90.7081L261.788 88.679C260.555 90.7081 258.564 92.0502 255.954 92.0502C251.206 92.0502 248.196 87.9892 248.196 83.9309C248.196 78.9645 251.784 75.087 256.498 75.087C258.673 75.087 260.665 76.1732 261.716 77.913L261.645 67.3307C261.645 66.0971 262.08 65.5547 263.166 65.5547C264.036 65.5547 264.691 65.9177 264.691 66.9691L264.58 75.8116ZM256.314 89.3312C259.178 89.3312 261.715 87.1922 261.715 83.5679C261.715 80.052 259.468 77.7684 256.641 77.7684C253.669 77.7684 251.167 80.269 251.167 83.821C251.167 86.8654 253.487 89.3312 256.314 89.3312Z" fill="#151D21"/>
<path d="M285.208 75.8116V82.9142C285.208 84.5456 285.281 86.2493 285.281 90.5621C285.281 91.5412 284.738 91.9765 283.831 91.9765C282.962 91.9765 282.526 91.505 282.454 90.7081L282.419 88.679C281.185 90.7081 279.193 92.0502 276.582 92.0502C271.834 92.0502 268.827 87.9892 268.827 83.9309C268.827 78.9645 272.415 75.087 277.126 75.087C279.301 75.087 281.295 76.1732 282.347 77.913L282.273 67.3307C282.273 66.0971 282.708 65.5547 283.797 65.5547C284.667 65.5547 285.319 65.9177 285.319 66.9691L285.208 75.8116ZM276.945 89.3312C279.809 89.3312 282.345 87.1922 282.345 83.5679C282.345 80.052 280.099 77.7684 277.272 77.7684C274.3 77.7684 271.798 80.269 271.798 83.821C271.798 86.8654 274.118 89.3312 276.945 89.3312Z" fill="#151D21"/>
<path d="M297.647 89.2593C299.132 89.2593 300.583 88.7517 301.596 88.0632C301.996 87.881 302.321 87.6279 302.794 87.6279C303.481 87.6279 304.133 88.3525 304.133 89.0409C304.133 89.6946 303.737 90.0924 303.156 90.4554C301.813 91.3983 300.075 92.0144 297.321 92.0144C293.007 92.0144 289.564 88.461 289.455 84.1844C289.455 79.2555 293.008 75.0137 297.574 75.0137C301.67 75.0137 304.68 78.3126 304.68 81.5378C304.68 83.2776 304.498 84.183 301.923 84.2567C299.242 84.329 296.705 84.2915 292.501 84.329C292.572 86.8658 294.566 89.2593 297.647 89.2593ZM292.572 82.2262C294.675 82.19 299.857 82.19 301.378 82.0454C301.669 82.0092 301.813 81.8284 301.813 81.6824C301.813 79.1804 299.858 77.549 297.72 77.549C294.854 77.5504 292.825 79.8702 292.572 82.2262Z" fill="#151D21"/>
<path d="M324.291 75.8116V82.9142C324.291 84.5456 324.364 86.2493 324.364 90.5621C324.364 91.5412 323.821 91.9765 322.914 91.9765C322.045 91.9765 321.609 91.505 321.537 90.7081L321.502 88.679C320.269 90.7081 318.276 92.0502 315.665 92.0502C310.917 92.0502 307.91 87.9892 307.91 83.9309C307.91 78.9645 311.498 75.087 316.209 75.087C318.384 75.087 320.378 76.1732 321.43 77.913L321.356 67.3307C321.356 66.0971 321.791 65.5547 322.88 65.5547C323.75 65.5547 324.402 65.9177 324.402 66.9691L324.291 75.8116ZM316.027 89.3312C318.89 89.3312 321.427 87.1922 321.427 83.5679C321.427 80.052 319.181 77.7684 316.354 77.7684C313.381 77.7684 310.879 80.269 310.879 83.821C310.879 86.8654 313.199 89.3312 316.027 89.3312Z" fill="#151D21"/>
<path d="M35.0209 14.8126C21.4094 13.6569 11.6295 23.5341 10.4738 37.1441C10.3667 38.3847 15.4361 21.0404 34.3936 22.1864C45.9203 22.8874 54.0535 33.2611 53.4583 44.792C52.9854 53.9362 46.5267 59.6147 45.6797 60.6495C52.2372 56.6955 56.8768 49.7667 57.5722 41.557C58.7307 27.9456 48.6351 15.9725 35.0209 14.8126Z" fill="#151D21"/>
<path d="M7.87997 38.955C7.01769 24.9459 17.5945 12.8837 31.6078 11.6849C30.8193 11.6153 30.0238 11.5625 29.2171 11.5625C14.0522 11.5625 1.75781 23.8569 1.75781 39.0232C1.75781 54.184 14.0522 66.4783 29.2171 66.4783C36.6494 66.4783 43.3793 63.516 48.3221 58.7165C44.6032 61.2157 40.2 62.8137 35.3935 63.1085C21.0714 63.9861 8.75337 53.1715 7.87997 38.955Z" fill="#151D21"/>
<path d="M30.7959 3.45734C30.7959 3.45734 42.5743 3.62424 51.0399 11.5627C56.3665 16.5584 59.7155 24.508 60.0813 33.6217C60.0813 33.6217 63.0367 21.0645 57.411 11.5627C53.4515 4.87454 44.3781 1.66047 30.7959 3.45734Z" fill="#151D21"/>
</svg>
