<svg width="175" height="168" viewBox="0 0 175 168" fill="none" xmlns="http://www.w3.org/2000/svg">
<rect x="0.666504" width="173.333" height="168" rx="8" fill="url(#paint0_linear_146_103136)"/>
<path d="M108.083 54.834H67.25C64.9294 54.834 62.7038 55.7559 61.0628 57.3968C59.4219 59.0377 58.5 61.2633 58.5 63.584V92.7507C58.5 95.0713 59.4219 97.2969 61.0628 98.9378C62.7038 100.579 64.9294 101.501 67.25 101.501H74.95L73.2583 104.417C72.7464 105.304 72.4768 106.31 72.4768 107.334C72.4768 108.358 72.7464 109.364 73.2583 110.251C73.7747 111.145 74.5194 111.887 75.4161 112.399C76.3129 112.911 77.3297 113.177 78.3625 113.167H97.2042C98.2271 113.166 99.2318 112.896 100.117 112.384C101.003 111.872 101.739 111.137 102.25 110.251C102.762 109.364 103.032 108.358 103.032 107.334C103.032 106.31 102.762 105.304 102.25 104.417L100.529 101.501H108.083C110.404 101.501 112.63 100.579 114.271 98.9378C115.911 97.2969 116.833 95.0713 116.833 92.7507V63.584C116.833 61.2633 115.911 59.0377 114.271 57.3968C112.63 55.7559 110.404 54.834 108.083 54.834ZM78.2458 107.334L81.8333 101.501H93.5L97 107.334H78.2458ZM111 92.7507C111 93.5242 110.693 94.2661 110.146 94.813C109.599 95.36 108.857 95.6673 108.083 95.6673H67.25C66.4765 95.6673 65.7346 95.36 65.1876 94.813C64.6406 94.2661 64.3333 93.5242 64.3333 92.7507V89.834H111V92.7507ZM111 84.0007H64.3333V63.584C64.3333 62.8104 64.6406 62.0686 65.1876 61.5216C65.7346 60.9746 66.4765 60.6673 67.25 60.6673H108.083C108.857 60.6673 109.599 60.9746 110.146 61.5216C110.693 62.0686 111 62.8104 111 63.584V84.0007Z" fill="white"/>
<defs>
<linearGradient id="paint0_linear_146_103136" x1="64.2025" y1="-87.7612" x2="148.82" y2="-66.3531" gradientUnits="userSpaceOnUse">
<stop stop-color="#578BFF"/>
<stop offset="1" stop-color="#944BFF"/>
</linearGradient>
</defs>
</svg>
