<svg width="59" height="58" viewBox="0 0 59 58" fill="none" xmlns="http://www.w3.org/2000/svg">
<path d="M29.4997 5.42969C23.7613 5.42993 18.2102 7.47205 13.8397 11.1907C9.46912 14.9093 6.56437 20.0617 5.64515 25.726C4.72592 31.3904 5.85222 37.197 8.8225 42.1068C11.7928 47.0167 16.4132 50.7095 21.8571 52.5245C23.0654 52.736 23.5185 52.011 23.5185 51.3765C23.5185 50.8026 23.4883 48.8995 23.4883 46.8755C17.4164 47.9932 15.8456 45.3954 15.3622 44.036C14.8259 42.7139 13.9757 41.5423 12.8852 40.6224C12.0393 40.1693 10.831 39.0516 12.8549 39.0214C13.6277 39.1053 14.369 39.3742 15.0158 39.8054C15.6626 40.2366 16.1959 40.8173 16.5706 41.4984C16.9011 42.0922 17.3456 42.6149 17.8784 43.0366C18.4113 43.4583 19.0222 43.7707 19.6761 43.9559C20.3299 44.1412 21.0139 44.1955 21.6888 44.1159C22.3637 44.0364 23.0162 43.8244 23.6091 43.4922C23.7137 42.2636 24.2612 41.1149 25.1497 40.26C19.7727 39.6558 14.1539 37.5713 14.1539 28.3277C14.1199 25.9259 15.0062 23.6021 16.631 21.8329C15.8922 19.7454 15.9786 17.4546 16.8727 15.4287C16.8727 15.4287 18.8965 14.7943 23.5185 17.9058C27.4729 16.8182 31.6475 16.8182 35.6018 17.9058C40.2237 14.7641 42.2477 15.4287 42.2477 15.4287C43.1418 17.4545 43.2283 19.7454 42.4893 21.8329C44.119 23.599 45.006 25.9249 44.9664 28.3277C44.9664 37.6016 39.3174 39.6558 33.9404 40.26C34.5171 40.8445 34.9613 41.5463 35.2428 42.3178C35.5242 43.0892 35.6364 43.9122 35.5716 44.7308C35.5716 47.9631 35.5414 50.561 35.5414 51.3766C35.5414 52.011 35.9945 52.7662 37.2028 52.5246C42.6371 50.6948 47.2443 46.9934 50.2019 42.081C53.1595 37.1686 54.2751 31.3649 53.3495 25.7061C52.4239 20.0472 49.5174 14.9015 45.1488 11.1874C40.7802 7.47334 35.2338 5.43267 29.4997 5.42969Z" fill="#0C67E8"/>
</svg>
