<svg width="40" height="40" viewBox="0 0 40 40" fill="none" xmlns="http://www.w3.org/2000/svg">
<rect width="40" height="40" rx="20" fill="#0C67E8"/>
<path d="M30 13.8002C29.2483 14.1263 28.4534 14.3419 27.64 14.4402C28.4982 13.9275 29.1413 13.121 29.45 12.1702C28.6436 12.6503 27.7608 12.9885 26.84 13.1702C26.2245 12.5028 25.405 12.0585 24.5098 11.9071C23.6147 11.7556 22.6945 11.9056 21.8938 12.3334C21.093 12.7612 20.4569 13.4427 20.0852 14.271C19.7135 15.0994 19.6273 16.0276 19.84 16.9102C18.2094 16.8277 16.6144 16.4032 15.1587 15.6641C13.7029 14.925 12.4188 13.8879 11.39 12.6202C11.0291 13.2504 10.8395 13.964 10.84 14.6902C10.8387 15.3646 11.0042 16.0288 11.3218 16.6238C11.6393 17.2187 12.099 17.7259 12.66 18.1002C12.008 18.0825 11.3699 17.9075 10.8 17.5902V17.6402C10.8049 18.5851 11.136 19.4993 11.7373 20.2282C12.3386 20.957 13.1733 21.4559 14.1 21.6402C13.7433 21.7488 13.3729 21.806 13 21.8102C12.7419 21.8072 12.4844 21.7838 12.23 21.7402C12.4939 22.553 13.0046 23.2634 13.6911 23.7724C14.3775 24.2814 15.2056 24.5638 16.06 24.5802C14.6172 25.7155 12.8359 26.3351 11 26.3402C10.6657 26.3413 10.3317 26.3213 10 26.2802C11.8744 27.4905 14.0588 28.1329 16.29 28.1302C17.8297 28.1462 19.3571 27.8552 20.7831 27.2743C22.2091 26.6934 23.505 25.8341 24.5952 24.7467C25.6854 23.6593 26.548 22.3656 27.1326 20.9411C27.7172 19.5166 28.012 17.9899 28 16.4502C28 16.2802 28 16.1002 28 15.9202C28.7847 15.335 29.4615 14.6176 30 13.8002Z" fill="white"/>
</svg>
