<svg width="7" height="7" viewBox="0 0 7 7" fill="none" xmlns="http://www.w3.org/2000/svg">
<path d="M6.4958 0.778534C6.44446 0.654905 6.34621 0.556661 6.22259 0.50532C6.16176 0.479394 6.09644 0.465643 6.03032 0.464844H0.9708C0.836613 0.464844 0.707922 0.518149 0.613038 0.613034C0.518153 0.707918 0.464848 0.836609 0.464848 0.970796C0.464848 1.10498 0.518153 1.23367 0.613038 1.32856C0.707922 1.42344 0.836613 1.47675 0.9708 1.47675H4.81098L0.611574 5.67109C0.564152 5.71813 0.526512 5.77409 0.500825 5.83574C0.475139 5.8974 0.461914 5.96353 0.461914 6.03032C0.461914 6.09711 0.475139 6.16324 0.500825 6.2249C0.526512 6.28655 0.564152 6.34251 0.611574 6.38955C0.658609 6.43697 0.714568 6.47461 0.776223 6.50029C0.837878 6.52598 0.904008 6.53921 0.9708 6.53921C1.03759 6.53921 1.10372 6.52598 1.16538 6.50029C1.22703 6.47461 1.28299 6.43697 1.33003 6.38955L5.52437 2.19014V6.03032C5.52437 6.16451 5.57768 6.2932 5.67256 6.38808C5.76745 6.48297 5.89614 6.53627 6.03032 6.53627C6.16451 6.53627 6.2932 6.48297 6.38809 6.38808C6.48297 6.2932 6.53628 6.16451 6.53628 6.03032V0.970796C6.53548 0.90468 6.52173 0.839361 6.4958 0.778534Z" fill="#0C67E8"/>
</svg>
