<svg width="40" height="40" viewBox="0 0 40 40" fill="none" xmlns="http://www.w3.org/2000/svg">
<rect width="40" height="40" rx="20" fill="#0C67E8"/>
<g clip-path="url(#clip0_116_100703)">
<path fill-rule="evenodd" clip-rule="evenodd" d="M27.0516 10.5274L27.178 13.0124C29.2429 15.2379 30.0579 18.3898 29.03 21.3521C27.4956 25.7741 22.4362 28.0986 17.7294 26.544C13.0226 24.9897 10.4507 20.1446 11.9851 15.7227C13.0164 12.7505 15.6402 10.7259 18.679 10.1899L20.3209 8.29722C15.1985 8.16196 10.3658 11.264 8.6367 16.2472C6.51223 22.37 9.8775 29.0136 16.1533 31.0864C22.429 33.1591 29.2387 29.8758 31.3633 23.753C33.0895 18.7778 31.1911 13.4586 27.0516 10.5274Z" fill="white"/>
<path fill-rule="evenodd" clip-rule="evenodd" d="M24.1098 17.8586L24.0229 14.3848L23.9532 12.3858L23.906 10.654C23.906 10.654 23.9158 9.81902 23.886 9.62276C23.8797 9.58142 23.8664 9.54779 23.8505 9.51857L23.8445 9.50617L23.8376 9.49548C23.8049 9.44046 23.7532 9.39557 23.6864 9.37347C23.6182 9.35095 23.5475 9.35652 23.4861 9.38231L23.4824 9.38388L23.4612 9.39443C23.4321 9.40826 23.4024 9.42607 23.3735 9.45343C23.2275 9.59169 22.7155 10.2609 22.7155 10.2609L21.5998 11.6085L20.2998 13.1551L18.0679 15.8631C18.0679 15.8631 17.0436 17.1102 17.27 18.6453C17.4963 20.1804 18.666 20.9282 19.5736 21.2279C20.481 21.5277 21.8759 21.6268 23.0115 20.5416C24.147 19.4563 24.1098 17.8586 24.1098 17.8586Z" fill="#FBFDFF"/>
</g>
<defs>
<clipPath id="clip0_116_100703">
<rect width="24" height="24" fill="white" transform="translate(8 8)"/>
</clipPath>
</defs>
</svg>
