<svg width="45" height="44" viewBox="0 0 45 44" fill="none" xmlns="http://www.w3.org/2000/svg">
<path d="M30.9898 17.52C30.9841 17.4936 30.9841 17.4663 30.9898 17.44C30.985 17.4169 30.985 17.393 30.9898 17.37V17.28L30.9298 17.13C30.9054 17.089 30.8751 17.052 30.8398 17.02L30.7498 16.94H30.6998L26.7598 14.45L23.0398 12.15C22.9538 12.0817 22.8553 12.0307 22.7498 12H22.6698C22.5804 11.985 22.4892 11.985 22.3998 12H22.2998C22.1837 12.0257 22.0723 12.0695 21.9698 12.13L14.4998 16.78L14.4098 16.85L14.3198 16.93L14.2198 17L14.1698 17.06L14.1098 17.21V17.3V17.36C14.1001 17.4263 14.1001 17.4936 14.1098 17.56V26.29C14.1095 26.4599 14.1525 26.6271 14.2347 26.7759C14.3169 26.9246 14.4357 27.0499 14.5798 27.14L22.0798 31.78L22.2298 31.84H22.3098C22.479 31.8936 22.6606 31.8936 22.8298 31.84H22.9098L23.0598 31.78L30.4998 27.21C30.6439 27.1199 30.7627 26.9946 30.845 26.8459C30.9272 26.6971 30.9702 26.5299 30.9698 26.36V17.63C30.9698 17.63 30.9898 17.56 30.9898 17.52ZM22.4998 14.17L24.2798 15.27L18.6898 18.73L16.8998 17.63L22.4998 14.17ZM21.4998 29.17L15.9998 25.81V19.42L21.4998 22.82V29.17ZM22.4998 21.06L20.5898 19.91L26.1798 16.44L28.0998 17.63L22.4998 21.06ZM28.9998 25.78L23.4998 29.2V22.82L28.9998 19.42V25.78Z" fill="#ffffff"/>
</svg>
