<svg width="196" height="172" viewBox="0 0 196 172" fill="none" xmlns="http://www.w3.org/2000/svg">
<g clip-path="url(#clip0_57_104438)">
<path d="M0 0V172L55.9961 114.905H196V0H0ZM52.0935 40.9942L52.0607 73.0424C52.0607 73.0424 51.4468 73.1955 50.2762 72.9792C49.1027 72.7571 48.2198 71.7067 46.0999 71.7067C43.9751 71.7067 43.0188 73.0533 40.2839 73.1669C37.55 73.2735 36.2693 71.6909 34.316 71.7067C31.6724 71.7274 30.7389 72.9516 28.7341 73.1669C26.7263 73.3929 25.6688 72.5962 25.6688 72.5962L28.2242 70.2099L29.4027 70.0864C30.5733 69.9768 31.6198 68.7219 34.19 68.7219C36.7553 68.7219 38.2116 70.3214 40.2194 70.2088C42.2311 70.1032 44.1933 68.7713 46.0999 68.7219C47.9907 68.6696 48.9956 69.3855 48.9956 69.3855V48.4861L41.7213 55.6647L47.6534 55.6331L38.8792 64.2711C38.8792 64.2711 39.2274 64.4914 40.3454 64.4322C41.4663 64.3759 41.999 64.0985 43.0624 63.5426C44.1218 62.9877 45.964 62.9729 45.964 62.9729V65.927L45.4879 65.9882C44.979 66.0415 43.7965 66.4314 43.7965 66.4314C42.623 66.7691 40.755 68.3212 37.9595 66.9764C34.6007 65.3642 32.468 66.1175 32.468 66.1175L40.1579 58.6207H34.316L52.0935 40.9942ZM59.2369 41.5985H62.2694V54.717L76.2843 42.0122H80.4685L64.9874 56.0429L81.5845 73.0444H77.2743L62.2694 57.6661V73.0444H59.2369V41.5985ZM126.198 41.5985H129.297L141.195 73.0444H137.62L134.012 64.9366H121.187L117.9 73.0444H114.263L126.198 41.5985ZM147.069 41.5985H157.057C160.272 41.5985 162.749 42.2689 164.488 43.5988C166.23 44.9277 167.106 47.2074 167.111 49.6668C167.107 51.5615 166.664 53.0514 165.765 54.173C164.88 55.2955 163.566 55.9925 161.844 56.268C163.923 56.7123 165.52 57.6513 166.664 59.0651C167.82 60.4681 168.419 62.2601 168.419 64.369C168.419 67.1433 167.464 69.2789 165.575 70.7865C163.681 72.3001 160.968 73.0444 157.47 73.0444H147.069V41.5985ZM86.7855 41.6943H94.7928C100.837 41.6943 105.273 42.962 108.104 45.4738C110.931 47.9677 112.344 52.1835 112.344 57.5091C112.344 62.8623 110.946 66.7839 108.104 69.2956C105.258 71.7994 100.808 73.0444 94.7928 73.0444H86.7855V41.6943ZM89.9093 44.3225V70.0283H95.9724C100.279 70.0283 103.429 68.5986 105.424 66.6546C107.423 64.7146 108.451 61.7002 108.451 57.5081C108.451 53.3475 107.423 49.3666 105.424 47.4414C103.43 45.4983 100.28 44.3225 95.9724 44.3225H89.9093ZM150.099 44.5792V54.7742H157.381C159.438 54.7742 160.996 54.3942 162.001 53.6339C163.019 52.8559 163.693 51.2436 163.693 49.6668C163.693 48.101 163.019 46.5341 162.001 45.7561C160.997 44.9781 159.438 44.5792 157.381 44.5792H150.099ZM127.728 45.7245L122.11 61.8938H133.374L127.728 45.7245ZM150.099 57.8872V70.0568H158.111C160.383 70.0568 162.029 69.5869 163.119 68.6569C164.219 67.715 164.971 66.2991 164.971 64.369C164.971 62.4269 164.219 60.2014 163.119 59.2862C162.029 58.3581 160.383 57.8872 158.111 57.8872H150.099Z" fill="#151D21"/>
</g>
<defs>
<clipPath id="clip0_57_104438">
<rect width="196" height="172" fill="white"/>
</clipPath>
</defs>
</svg>
