<svg width="317" height="249" viewBox="0 0 317 249" fill="none" xmlns="http://www.w3.org/2000/svg">
<path d="M1.27098 156.319C2.68368 162.038 8.46518 165.529 14.1843 164.117C19.9035 162.704 23.3945 156.923 21.9818 151.203C20.5691 145.484 14.7876 141.993 9.06849 143.406C3.34935 144.819 -0.141718 150.6 1.27098 156.319ZM290.448 84.889C291.861 90.6082 297.642 94.0993 303.361 92.6866C309.08 91.2739 312.572 85.4924 311.159 79.7732C309.746 74.0541 303.965 70.563 298.246 71.9757C292.526 73.3884 289.035 79.1699 290.448 84.889ZM10.2122 155.176C27.8225 172.786 42.5848 184.957 55.3274 192.72C68.074 200.485 78.9098 203.906 88.6264 203.846C108.107 203.726 122.127 189.62 137.219 172.01C152.478 154.204 169.164 132.365 194.189 114.88C219.134 97.4506 252.422 84.3311 300.803 84.3311L300.803 80.3311C251.615 80.3311 217.525 93.6947 191.898 111.601C166.35 129.452 149.269 151.802 134.181 169.407C118.925 187.21 106.017 199.738 88.6017 199.846C79.8705 199.9 69.7666 196.832 57.4084 189.304C45.0462 181.773 30.5386 169.845 13.0406 152.347L10.2122 155.176Z" fill="#0DB1FF"/>
<path d="M8.512 150.47C6.7115 152.289 6.7261 155.223 8.5446 157.023C10.3631 158.824 13.2969 158.809 15.0974 156.99C16.8979 155.172 16.8833 152.238 15.0648 150.438C13.2463 148.637 10.3125 148.652 8.512 150.47ZM106.621 248.547L106.621 241.453L99.5275 241.453L99.5275 248.547L106.621 248.547ZM11.1904 154.345L102.46 245.614L103.689 244.386L12.419 153.116L11.1904 154.345Z" fill="white"/>
<path d="M304.339 85.7871C302.538 87.6056 299.604 87.6202 297.786 85.8197C295.967 84.0192 295.953 81.0854 297.753 79.2669C299.554 77.4484 302.487 77.4338 304.306 79.2343C306.124 81.0348 306.139 83.9686 304.339 85.7871ZM130.423 82.527L135.439 77.511L140.455 82.527L135.439 87.543L130.423 82.527ZM301.046 83.3958L135.439 83.3958L135.439 81.6582L301.046 81.6582L301.046 83.3958Z" fill="white"/>
</svg>
