<svg width="174" height="168" viewBox="0 0 174 168" fill="none" xmlns="http://www.w3.org/2000/svg">
<rect x="-0.000488281" width="173.333" height="168" rx="8" fill="url(#paint0_linear_146_103165)"/>
<path d="M113.25 81.0832H101.758C101.555 81.0556 101.349 81.0556 101.146 81.0832H100.65C100.497 81.1701 100.351 81.2676 100.212 81.3748C100.05 81.4821 99.8939 81.5989 99.7455 81.7248C99.6481 81.8441 99.5604 81.9709 99.483 82.104C99.3494 82.2877 99.2322 82.4829 99.133 82.6873L94.4663 95.5498L82.3038 62.5915C82.0995 62.0284 81.7267 61.5419 81.2362 61.1981C80.7457 60.8544 80.1612 60.6699 79.5622 60.6699C78.9632 60.6699 78.3787 60.8544 77.8882 61.1981C77.3976 61.5419 77.0249 62.0284 76.8205 62.5915L70.083 81.0832H60.7497C59.9761 81.0832 59.2343 81.3905 58.6873 81.9374C58.1403 82.4844 57.833 83.2263 57.833 83.9998C57.833 84.7734 58.1403 85.5152 58.6873 86.0622C59.2343 86.6092 59.9761 86.9165 60.7497 86.9165H72.183H72.8538H73.2913C73.4571 86.8367 73.6136 86.7389 73.758 86.6248C73.9204 86.5176 74.0763 86.4007 74.2247 86.2748L74.4872 85.8957C74.6262 85.7155 74.7437 85.5198 74.8372 85.3123L79.5622 72.0998L91.6955 105.408C91.8993 105.972 92.2718 106.459 92.7624 106.804C93.253 107.148 93.8378 107.333 94.4372 107.333C95.0366 107.333 95.6214 107.148 96.1119 106.804C96.6025 106.459 96.975 105.972 97.1788 105.408L103.887 86.9165H113.25C114.023 86.9165 114.765 86.6092 115.312 86.0622C115.859 85.5152 116.166 84.7734 116.166 83.9998C116.166 83.2263 115.859 82.4844 115.312 81.9374C114.765 81.3905 114.023 81.0832 113.25 81.0832Z" fill="white"/>
<defs>
<linearGradient id="paint0_linear_146_103165" x1="63.5356" y1="-87.7612" x2="148.153" y2="-66.3531" gradientUnits="userSpaceOnUse">
<stop stop-color="#578BFF"/>
<stop offset="1" stop-color="#944BFF"/>
</linearGradient>
</defs>
</svg>
