<svg width="650" height="420" viewBox="0 0 650 420" fill="none" xmlns="http://www.w3.org/2000/svg">
<rect width="650" height="420" rx="8" fill="#444A4D"/>
<g clip-path="url(#clip0_234_81963)">
<path d="M175.66 209.638C176.214 208.678 176.558 207.596 176.558 206.624V172.893C176.558 171.922 176.214 170.84 175.66 169.879L141.279 189.759L175.66 209.638Z" fill="#00599C"/>
<path d="M144.334 228.789L173.503 211.924C174.343 211.438 175.107 210.599 175.66 209.639L141.279 189.759L106.897 209.639C107.451 210.599 108.215 211.438 109.055 211.924L138.224 228.789C139.904 229.761 142.654 229.761 144.334 228.789Z" fill="#004482"/>
<path d="M175.661 169.879C175.107 168.919 174.343 168.08 173.503 167.594L144.334 150.729C142.654 149.757 139.904 149.757 138.224 150.729L109.055 167.594C107.375 168.565 106 170.95 106 172.894V206.624C106 207.596 106.344 208.678 106.898 209.638L141.279 189.759L175.661 169.879Z" fill="#659AD2"/>
<path d="M141.279 213.313C128.311 213.313 117.76 202.747 117.76 189.759C117.76 176.771 128.311 166.205 141.279 166.205C149.647 166.205 157.452 170.715 161.647 177.975L151.468 183.873C149.369 180.24 145.464 177.982 141.279 177.982C134.795 177.982 129.519 183.265 129.519 189.759C129.519 196.253 134.795 201.536 141.279 201.536C145.465 201.536 149.369 199.279 151.469 195.644L161.647 201.543C157.453 208.803 149.648 213.313 141.279 213.313Z" fill="white"/>
<path d="M164.798 188.45H162.185V185.833H159.572V188.45H156.958V191.067H159.572V193.684H162.185V191.067H164.798V188.45Z" fill="white"/>
<path d="M174.598 188.45H171.985V185.833H169.372V188.45H166.758V191.067H169.372V193.684H171.985V191.067H174.598V188.45Z" fill="white"/>
</g>
<path d="M127.926 263.048C126.667 263.048 125.497 262.83 124.415 262.394C123.35 261.942 122.406 261.321 121.582 260.53C120.775 259.723 120.146 258.795 119.694 257.745C119.258 256.68 119.04 255.534 119.04 254.307C119.04 253.08 119.258 251.942 119.694 250.893C120.146 249.828 120.775 248.899 121.582 248.108C122.406 247.301 123.358 246.68 124.44 246.244C125.521 245.792 126.683 245.566 127.926 245.566C128.814 245.566 129.678 245.687 130.517 245.929C131.373 246.155 132.156 246.486 132.866 246.922C133.592 247.358 134.222 247.882 134.754 248.496L133.059 250.239C132.43 249.48 131.663 248.907 130.759 248.52C129.855 248.116 128.911 247.915 127.926 247.915C127.022 247.915 126.183 248.076 125.408 248.399C124.649 248.722 123.988 249.174 123.423 249.755C122.858 250.32 122.414 250.99 122.091 251.765C121.784 252.539 121.631 253.387 121.631 254.307C121.631 255.211 121.784 256.05 122.091 256.825C122.414 257.6 122.866 258.278 123.447 258.859C124.028 259.44 124.706 259.892 125.481 260.215C126.256 260.538 127.095 260.699 127.999 260.699C128.984 260.699 129.912 260.506 130.783 260.118C131.671 259.715 132.422 259.15 133.035 258.423L134.706 260.118C134.141 260.716 133.495 261.24 132.769 261.692C132.059 262.128 131.284 262.467 130.444 262.709C129.621 262.935 128.782 263.048 127.926 263.048ZM141.77 259.416V255.106H137.75V253.217H141.77V248.883H143.707V253.217H147.726V255.106H143.707V259.416H141.77ZM156.288 259.416V255.106H152.269V253.217H156.288V248.883H158.225V253.217H162.245V255.106H158.225V259.416H156.288Z" fill="white"/>
<g clip-path="url(#clip1_234_81963)">
<path d="M307.577 152.24H232.539V227.278H307.577V152.24Z" fill="#F7DF1E"/>
<path d="M282.945 210.863C284.457 213.331 286.423 215.145 289.901 215.145C292.823 215.145 294.689 213.685 294.689 211.667C294.689 209.25 292.772 208.393 289.556 206.987L287.793 206.23C282.705 204.062 279.324 201.347 279.324 195.606C279.324 190.317 283.354 186.292 289.651 186.292C294.134 186.292 297.357 187.852 299.68 191.937L294.189 195.463C292.98 193.295 291.676 192.441 289.651 192.441C287.586 192.441 286.277 193.751 286.277 195.463C286.277 197.578 287.587 198.435 290.612 199.745L292.375 200.5C298.366 203.069 301.749 205.688 301.749 211.577C301.749 217.925 296.762 221.403 290.064 221.403C283.516 221.403 279.285 218.283 277.215 214.193L282.945 210.863ZM258.036 211.475C259.144 213.44 260.152 215.101 262.574 215.101C264.891 215.101 266.352 214.195 266.352 210.671V186.694H273.404V210.766C273.404 218.067 269.123 221.39 262.874 221.39C257.229 221.39 253.959 218.469 252.296 214.949L258.036 211.475Z" fill="black"/>
</g>
<path d="M219.746 260.808C218.181 260.808 216.841 260.413 215.727 259.622C214.613 258.815 213.806 257.677 213.306 256.208L215.63 255.288C216.034 256.369 216.574 257.176 217.252 257.709C217.947 258.226 218.778 258.484 219.746 258.484C221.006 258.484 222.006 258.08 222.749 257.273C223.508 256.466 223.887 255.385 223.887 254.029V243.593H226.429V254.077C226.429 255.433 226.155 256.619 225.606 257.636C225.057 258.637 224.282 259.42 223.282 259.985C222.281 260.534 221.102 260.808 219.746 260.808ZM233.165 260.76C232.277 260.76 231.494 260.607 230.817 260.3C230.139 259.977 229.606 259.533 229.218 258.968C228.831 258.403 228.637 257.749 228.637 257.007C228.637 255.845 229.081 254.933 229.969 254.271C230.857 253.593 232.076 253.254 233.625 253.254C234.836 253.254 235.958 253.488 236.991 253.956V252.648C236.991 251.761 236.733 251.099 236.216 250.663C235.716 250.227 234.973 250.009 233.988 250.009C233.424 250.009 232.834 250.098 232.221 250.275C231.607 250.437 230.921 250.695 230.163 251.05L229.267 249.234C230.203 248.798 231.075 248.484 231.882 248.29C232.689 248.08 233.504 247.975 234.327 247.975C235.926 247.975 237.16 248.355 238.032 249.113C238.92 249.872 239.364 250.953 239.364 252.358V260.542H236.991V259.477C236.442 259.912 235.853 260.235 235.223 260.445C234.594 260.655 233.908 260.76 233.165 260.76ZM230.962 256.958C230.962 257.556 231.212 258.04 231.712 258.411C232.229 258.766 232.899 258.944 233.722 258.944C234.368 258.944 234.957 258.855 235.49 258.678C236.039 258.484 236.539 258.185 236.991 257.782V255.699C236.523 255.425 236.03 255.231 235.514 255.118C235.014 254.989 234.449 254.924 233.819 254.924C232.931 254.924 232.229 255.11 231.712 255.481C231.212 255.837 230.962 256.329 230.962 256.958ZM245.486 260.542L240.16 248.217H242.823L246.673 257.443L250.523 248.217H253.089L247.811 260.542H245.486ZM257.993 260.76C257.106 260.76 256.323 260.607 255.645 260.3C254.967 259.977 254.434 259.533 254.047 258.968C253.659 258.403 253.466 257.749 253.466 257.007C253.466 255.845 253.909 254.933 254.797 254.271C255.685 253.593 256.904 253.254 258.454 253.254C259.664 253.254 260.786 253.488 261.819 253.956V252.648C261.819 251.761 261.561 251.099 261.044 250.663C260.544 250.227 259.801 250.009 258.817 250.009C258.252 250.009 257.663 250.098 257.049 250.275C256.436 250.437 255.75 250.695 254.991 251.05L254.095 249.234C255.031 248.798 255.903 248.484 256.71 248.29C257.517 248.08 258.332 247.975 259.156 247.975C260.754 247.975 261.989 248.355 262.86 249.113C263.748 249.872 264.192 250.953 264.192 252.358V260.542H261.819V259.477C261.27 259.912 260.681 260.235 260.052 260.445C259.422 260.655 258.736 260.76 257.993 260.76ZM255.79 256.958C255.79 257.556 256.04 258.04 256.541 258.411C257.057 258.766 257.727 258.944 258.55 258.944C259.196 258.944 259.785 258.855 260.318 258.678C260.867 258.484 261.367 258.185 261.819 257.782V255.699C261.351 255.425 260.859 255.231 260.342 255.118C259.842 254.989 259.277 254.924 258.647 254.924C257.759 254.924 257.057 255.11 256.541 255.481C256.04 255.837 255.79 256.329 255.79 256.958ZM271.219 260.784C270.154 260.784 269.153 260.631 268.217 260.324C267.297 260.001 266.498 259.549 265.82 258.968L267.152 257.37C267.781 257.87 268.427 258.258 269.089 258.532C269.767 258.791 270.453 258.92 271.147 258.92C272.019 258.92 272.729 258.75 273.278 258.411C273.826 258.072 274.101 257.628 274.101 257.079C274.101 256.627 273.939 256.272 273.617 256.014C273.294 255.756 272.793 255.578 272.115 255.481L269.888 255.167C268.661 254.989 267.741 254.61 267.127 254.029C266.514 253.447 266.207 252.673 266.207 251.704C266.207 250.962 266.409 250.316 266.813 249.767C267.216 249.202 267.781 248.766 268.508 248.459C269.234 248.137 270.081 247.975 271.05 247.975C271.938 247.975 272.793 248.104 273.617 248.363C274.44 248.621 275.231 249.024 275.99 249.573L274.755 251.171C274.077 250.719 273.415 250.388 272.769 250.179C272.14 249.969 271.502 249.864 270.856 249.864C270.114 249.864 269.516 250.025 269.065 250.348C268.613 250.655 268.387 251.058 268.387 251.559C268.387 252.011 268.54 252.366 268.847 252.624C269.169 252.866 269.694 253.036 270.42 253.133L272.648 253.447C273.875 253.625 274.803 254.004 275.433 254.585C276.062 255.15 276.377 255.917 276.377 256.886C276.377 257.628 276.151 258.298 275.699 258.895C275.247 259.477 274.634 259.937 273.859 260.276C273.084 260.615 272.204 260.784 271.219 260.784ZM284.143 260.76C282.964 260.76 281.891 260.477 280.922 259.912C279.954 259.347 279.187 258.581 278.622 257.612C278.073 256.644 277.799 255.562 277.799 254.368C277.799 253.173 278.081 252.1 278.646 251.147C279.211 250.179 279.97 249.412 280.922 248.847C281.891 248.266 282.964 247.975 284.143 247.975C285.079 247.975 285.975 248.153 286.831 248.508C287.702 248.863 288.453 249.363 289.082 250.009L287.581 251.68C287.113 251.163 286.588 250.776 286.007 250.518C285.426 250.259 284.821 250.13 284.191 250.13C283.449 250.13 282.771 250.316 282.157 250.687C281.56 251.058 281.084 251.567 280.729 252.213C280.374 252.858 280.196 253.577 280.196 254.368C280.196 255.159 280.374 255.877 280.729 256.523C281.084 257.168 281.568 257.685 282.182 258.072C282.795 258.443 283.481 258.629 284.24 258.629C284.869 258.629 285.458 258.508 286.007 258.266C286.556 258.008 287.073 257.636 287.557 257.152L289.034 258.702C288.388 259.364 287.638 259.872 286.782 260.227C285.943 260.582 285.063 260.76 284.143 260.76ZM290.983 260.542V248.217H293.404V249.791C293.792 249.21 294.268 248.758 294.833 248.435C295.414 248.096 296.068 247.927 296.794 247.927C297.294 247.943 297.706 248.016 298.029 248.145V250.324C297.803 250.227 297.569 250.162 297.327 250.13C297.085 250.082 296.842 250.058 296.6 250.058C295.89 250.058 295.26 250.251 294.712 250.639C294.163 251.01 293.727 251.559 293.404 252.285V260.542H290.983ZM299.968 260.542V248.217H302.39V260.542H299.968ZM301.179 246.232C300.775 246.232 300.428 246.087 300.138 245.796C299.847 245.489 299.702 245.134 299.702 244.731C299.702 244.311 299.847 243.964 300.138 243.689C300.428 243.399 300.775 243.254 301.179 243.254C301.599 243.254 301.954 243.399 302.244 243.689C302.535 243.964 302.68 244.311 302.68 244.731C302.68 245.134 302.535 245.489 302.244 245.796C301.954 246.087 301.599 246.232 301.179 246.232ZM305.241 265.482V248.217H307.638V249.404C308.672 248.484 309.931 248.024 311.416 248.024C312.578 248.024 313.627 248.306 314.563 248.871C315.516 249.436 316.266 250.195 316.815 251.147C317.364 252.1 317.639 253.173 317.639 254.368C317.639 255.562 317.356 256.644 316.791 257.612C316.242 258.565 315.492 259.323 314.539 259.888C313.603 260.453 312.546 260.736 311.367 260.736C310.689 260.736 310.036 260.631 309.406 260.421C308.776 260.195 308.195 259.88 307.663 259.477V265.482H305.241ZM311.101 258.629C311.892 258.629 312.594 258.443 313.208 258.072C313.837 257.701 314.337 257.201 314.709 256.571C315.08 255.925 315.266 255.199 315.266 254.392C315.266 253.585 315.08 252.858 314.709 252.213C314.337 251.567 313.837 251.058 313.208 250.687C312.594 250.316 311.892 250.13 311.101 250.13C310.407 250.13 309.761 250.259 309.164 250.518C308.567 250.776 308.066 251.139 307.663 251.607V257.176C308.066 257.628 308.567 257.983 309.164 258.242C309.777 258.5 310.423 258.629 311.101 258.629ZM324.518 260.76C323.324 260.76 322.412 260.485 321.782 259.937C321.153 259.372 320.838 258.556 320.838 257.491V250.251H318.223V248.217H320.838V245.07L323.235 244.488V248.217H326.867V250.251H323.235V256.934C323.235 257.564 323.372 258.016 323.647 258.29C323.937 258.548 324.405 258.678 325.051 258.678C325.39 258.678 325.689 258.653 325.947 258.605C326.221 258.556 326.512 258.484 326.818 258.387V260.421C326.496 260.534 326.116 260.615 325.68 260.663C325.261 260.728 324.873 260.76 324.518 260.76Z" fill="white"/>
<g clip-path="url(#clip2_234_81963)">
<path d="M395.06 179.494H404.263C409.926 179.494 409.926 185.157 404.263 185.157H395.06V179.494ZM373.115 205.687H401.431V197.9H395.06V192.236H402.139C409.926 192.236 405.678 205.687 412.05 205.687H429.747V192.236H425.5V193.652C425.5 199.315 419.129 198.607 418.421 195.068C417.713 191.528 414.881 188.697 414.173 188.697C424.792 183.034 418.421 171.707 409.926 171.707H376.654V179.494H383.733V197.9H373.115V205.687Z" fill="white" stroke="white" stroke-width="0.833215" stroke-linejoin="round"/>
<path d="M401.077 220.199C417.889 220.199 431.517 206.57 431.517 189.759C431.517 172.947 417.889 159.319 401.077 159.319C384.266 159.319 370.637 172.947 370.637 189.759C370.637 206.57 384.266 220.199 401.077 220.199Z" stroke="white" stroke-width="7.49893"/>
<path d="M433.641 191.883L437.181 189.759L433.641 187.635V191.883Z" fill="white" stroke="white" stroke-width="2.49964" stroke-linejoin="round"/>
<path d="M432.601 198.195L436.486 196.802L433.429 194.029L432.601 198.195Z" fill="white" stroke="white" stroke-width="2.49964" stroke-linejoin="round"/>
<path d="M430.35 204.182L434.432 203.575L431.975 200.258L430.35 204.182Z" fill="white" stroke="white" stroke-width="2.49964" stroke-linejoin="round"/>
<path d="M426.973 209.616L431.096 209.816L429.333 206.084L426.973 209.616Z" fill="white" stroke="white" stroke-width="2.49964" stroke-linejoin="round"/>
<path d="M422.602 214.286L426.606 215.287L425.605 211.283L422.602 214.286Z" fill="white" stroke="white" stroke-width="2.49964" stroke-linejoin="round"/>
<path d="M417.403 218.014L421.135 219.777L420.935 215.654L417.403 218.014Z" fill="white" stroke="white" stroke-width="2.49964" stroke-linejoin="round"/>
<path d="M411.576 220.656L414.893 223.114L415.5 219.031L411.576 220.656Z" fill="white" stroke="white" stroke-width="2.49964" stroke-linejoin="round"/>
<path d="M405.347 222.111L408.121 225.168L409.513 221.282L405.347 222.111Z" fill="white" stroke="white" stroke-width="2.49964" stroke-linejoin="round"/>
<path d="M398.953 222.323L401.077 225.862L403.201 222.323H398.953Z" fill="white" stroke="white" stroke-width="2.49964" stroke-linejoin="round"/>
<path d="M392.641 221.282L394.034 225.168L396.807 222.111L392.641 221.282Z" fill="white" stroke="white" stroke-width="2.49964" stroke-linejoin="round"/>
<path d="M386.654 219.031L387.261 223.114L390.578 220.657L386.654 219.031Z" fill="white" stroke="white" stroke-width="2.49964" stroke-linejoin="round"/>
<path d="M381.22 215.655L381.019 219.778L384.751 218.015L381.22 215.655Z" fill="white" stroke="white" stroke-width="2.49964" stroke-linejoin="round"/>
<path d="M376.549 211.283L375.548 215.288L379.553 214.287L376.549 211.283Z" fill="white" stroke="white" stroke-width="2.49964" stroke-linejoin="round"/>
<path d="M372.821 206.085L371.058 209.817L375.181 209.616L372.821 206.085Z" fill="white" stroke="white" stroke-width="2.49964" stroke-linejoin="round"/>
<path d="M370.179 200.258L367.722 203.575L371.805 204.182L370.179 200.258Z" fill="white" stroke="white" stroke-width="2.49964" stroke-linejoin="round"/>
<path d="M368.725 194.029L365.667 196.802L369.553 198.195L368.725 194.029Z" fill="white" stroke="white" stroke-width="2.49964" stroke-linejoin="round"/>
<path d="M368.514 187.635L364.974 189.759L368.514 191.882V187.635Z" fill="white" stroke="white" stroke-width="2.49964" stroke-linejoin="round"/>
<path d="M369.554 181.323L365.668 182.715L368.725 185.489L369.554 181.323Z" fill="white" stroke="white" stroke-width="2.49964" stroke-linejoin="round"/>
<path d="M371.805 175.335L367.722 175.943L370.18 179.259L371.805 175.335Z" fill="white" stroke="white" stroke-width="2.49964" stroke-linejoin="round"/>
<path d="M375.181 169.901L371.058 169.701L372.821 173.433L375.181 169.901Z" fill="white" stroke="white" stroke-width="2.49964" stroke-linejoin="round"/>
<path d="M379.553 165.231L375.548 164.23L376.549 168.234L379.553 165.231Z" fill="white" stroke="white" stroke-width="2.49964" stroke-linejoin="round"/>
<path d="M384.752 161.503L381.02 159.74L381.22 163.863L384.752 161.503Z" fill="white" stroke="white" stroke-width="2.49964" stroke-linejoin="round"/>
<path d="M390.577 158.861L387.261 156.404L386.653 160.486L390.577 158.861Z" fill="white" stroke="white" stroke-width="2.49964" stroke-linejoin="round"/>
<path d="M396.807 157.406L394.033 154.349L392.641 158.235L396.807 157.406Z" fill="white" stroke="white" stroke-width="2.49964" stroke-linejoin="round"/>
<path d="M403.201 157.195L401.077 153.656L398.954 157.195H403.201Z" fill="white" stroke="white" stroke-width="2.49964" stroke-linejoin="round"/>
<path d="M409.513 158.235L408.121 154.35L405.347 157.407L409.513 158.235Z" fill="white" stroke="white" stroke-width="2.49964" stroke-linejoin="round"/>
<path d="M415.501 160.487L414.893 156.404L411.577 158.861L415.501 160.487Z" fill="white" stroke="white" stroke-width="2.49964" stroke-linejoin="round"/>
<path d="M420.934 163.863L421.135 159.74L417.402 161.503L420.934 163.863Z" fill="white" stroke="white" stroke-width="2.49964" stroke-linejoin="round"/>
<path d="M425.604 168.234L426.606 164.23L422.601 165.231L425.604 168.234Z" fill="white" stroke="white" stroke-width="2.49964" stroke-linejoin="round"/>
<path d="M429.332 173.433L431.096 169.701L426.973 169.902L429.332 173.433Z" fill="white" stroke="white" stroke-width="2.49964" stroke-linejoin="round"/>
<path d="M431.975 179.259L434.432 175.943L430.349 175.335L431.975 179.259Z" fill="white" stroke="white" stroke-width="2.49964" stroke-linejoin="round"/>
<path d="M433.429 185.489L436.486 182.715L432.601 181.323L433.429 185.489Z" fill="white" stroke="white" stroke-width="2.49964" stroke-linejoin="round"/>
<path d="M396.122 160.027L401.077 164.982L406.033 160.027H396.122Z" fill="white" stroke="white" stroke-width="4.99929" stroke-linejoin="round"/>
<path d="M427.823 175.858L424.641 182.102L430.885 185.284L427.823 175.858Z" fill="white" stroke="white" stroke-width="4.99929" stroke-linejoin="round"/>
<path d="M422.562 210.9L415.64 209.804L414.544 216.725L422.562 210.9Z" fill="white" stroke="white" stroke-width="4.99929" stroke-linejoin="round"/>
<path d="M387.61 216.725L386.514 209.803L379.592 210.9L387.61 216.725Z" fill="white" stroke="white" stroke-width="4.99929" stroke-linejoin="round"/>
<path d="M371.269 185.284L377.513 182.103L374.332 175.859L371.269 185.284Z" fill="white" stroke="white" stroke-width="4.99929" stroke-linejoin="round"/>
</g>
<path d="M377.85 260.542V243.593H385.525C386.655 243.593 387.64 243.802 388.48 244.222C389.335 244.642 389.997 245.231 390.465 245.99C390.949 246.732 391.191 247.604 391.191 248.605C391.191 249.719 390.877 250.679 390.247 251.486C389.618 252.293 388.77 252.874 387.705 253.23L391.482 260.542H388.673L385.162 253.593H380.392V260.542H377.85ZM380.392 251.462H385.332C386.333 251.462 387.132 251.212 387.729 250.711C388.342 250.195 388.649 249.501 388.649 248.629C388.649 247.79 388.342 247.112 387.729 246.595C387.132 246.078 386.333 245.82 385.332 245.82H380.392V251.462ZM398.054 260.784C397.101 260.784 396.262 260.582 395.536 260.179C394.809 259.775 394.244 259.21 393.841 258.484C393.437 257.741 393.235 256.894 393.235 255.941V248.217H395.633V255.53C395.633 256.498 395.907 257.265 396.456 257.83C397.021 258.395 397.771 258.678 398.708 258.678C399.369 258.678 399.959 258.54 400.475 258.266C400.992 257.975 401.411 257.572 401.734 257.055V248.217H404.156V260.542H401.734V259.283C400.782 260.284 399.555 260.784 398.054 260.784ZM411.259 260.784C410.194 260.784 409.193 260.631 408.257 260.324C407.337 260.001 406.538 259.549 405.86 258.968L407.192 257.37C407.821 257.87 408.467 258.258 409.129 258.532C409.807 258.791 410.493 258.92 411.187 258.92C412.059 258.92 412.769 258.75 413.318 258.411C413.866 258.072 414.141 257.628 414.141 257.079C414.141 256.627 413.979 256.272 413.657 256.014C413.334 255.756 412.833 255.578 412.155 255.481L409.928 255.167C408.701 254.989 407.781 254.61 407.167 254.029C406.554 253.447 406.247 252.673 406.247 251.704C406.247 250.962 406.449 250.316 406.853 249.767C407.256 249.202 407.821 248.766 408.548 248.459C409.274 248.137 410.121 247.975 411.09 247.975C411.978 247.975 412.833 248.104 413.657 248.363C414.48 248.621 415.271 249.024 416.03 249.573L414.795 251.171C414.117 250.719 413.455 250.388 412.809 250.179C412.18 249.969 411.542 249.864 410.896 249.864C410.154 249.864 409.556 250.025 409.104 250.348C408.652 250.655 408.426 251.058 408.426 251.559C408.426 252.011 408.58 252.366 408.887 252.624C409.209 252.866 409.734 253.036 410.46 253.133L412.688 253.447C413.915 253.625 414.843 254.004 415.473 254.585C416.102 255.15 416.417 255.917 416.417 256.886C416.417 257.628 416.191 258.298 415.739 258.895C415.287 259.477 414.674 259.937 413.899 260.276C413.124 260.615 412.244 260.784 411.259 260.784ZM423.32 260.76C422.125 260.76 421.213 260.485 420.584 259.937C419.954 259.372 419.639 258.556 419.639 257.491V250.251H417.024V248.217H419.639V245.07L422.036 244.488V248.217H425.668V250.251H422.036V256.934C422.036 257.564 422.174 258.016 422.448 258.29C422.739 258.548 423.207 258.678 423.852 258.678C424.191 258.678 424.49 258.653 424.748 258.605C425.023 258.556 425.313 258.484 425.62 258.387V260.421C425.297 260.534 424.918 260.615 424.482 260.663C424.062 260.728 423.675 260.76 423.32 260.76Z" fill="white"/>
<path d="M480.932 217.391V212.662H476.596V211.006H480.932V206.255H482.567V211.006H486.882V212.662H482.567V217.391H480.932ZM494.618 217.391V205.928H496.165L496.339 207.65H496.492C496.782 207.185 497.109 206.807 497.472 206.517C497.836 206.226 498.235 206.016 498.671 205.885C499.107 205.74 499.579 205.667 500.087 205.667C500.828 205.667 501.468 205.82 502.005 206.125C502.543 206.415 502.942 206.924 503.204 207.65H503.334C503.61 207.185 503.93 206.815 504.293 206.539C504.656 206.248 505.063 206.03 505.514 205.885C505.964 205.74 506.443 205.667 506.952 205.667C507.649 205.667 508.259 205.79 508.782 206.037C509.305 206.27 509.712 206.662 510.003 207.214C510.308 207.752 510.46 208.478 510.46 209.393V217.391H508.543V209.698C508.543 209.234 508.485 208.849 508.368 208.544C508.267 208.238 508.114 208.006 507.911 207.846C507.707 207.672 507.468 207.548 507.192 207.476C506.93 207.403 506.647 207.367 506.342 207.367C505.833 207.367 505.361 207.497 504.925 207.759C504.504 208.021 504.162 208.398 503.901 208.892C503.639 209.386 503.509 209.975 503.509 210.657V217.391H501.591V209.698C501.591 209.234 501.533 208.849 501.417 208.544C501.3 208.238 501.148 208.006 500.959 207.846C500.77 207.672 500.538 207.548 500.262 207.476C500 207.403 499.724 207.367 499.434 207.367C498.911 207.367 498.424 207.497 497.974 207.759C497.538 208.021 497.189 208.398 496.928 208.892C496.666 209.386 496.535 209.975 496.535 210.657V217.391H494.618ZM518.074 217.653C516.911 217.653 515.931 217.442 515.132 217.021C514.347 216.585 513.744 215.924 513.323 215.038C512.916 214.151 512.713 213.025 512.713 211.66C512.713 210.28 512.916 209.154 513.323 208.282C513.744 207.396 514.347 206.742 515.132 206.321C515.931 205.885 516.911 205.667 518.074 205.667C519.236 205.667 520.209 205.885 520.994 206.321C521.793 206.742 522.396 207.396 522.802 208.282C523.209 209.154 523.413 210.28 523.413 211.66C523.413 213.025 523.209 214.151 522.802 215.038C522.396 215.924 521.793 216.585 520.994 217.021C520.209 217.442 519.236 217.653 518.074 217.653ZM518.074 216.04C518.814 216.04 519.432 215.895 519.926 215.604C520.42 215.314 520.79 214.863 521.037 214.253C521.299 213.628 521.43 212.844 521.43 211.9V211.42C521.43 210.461 521.299 209.677 521.037 209.067C520.79 208.456 520.42 208.006 519.926 207.715C519.432 207.425 518.814 207.28 518.074 207.28C517.333 207.28 516.708 207.425 516.199 207.715C515.705 208.006 515.335 208.456 515.088 209.067C514.841 209.677 514.718 210.461 514.718 211.42V211.9C514.718 212.844 514.841 213.628 515.088 214.253C515.335 214.863 515.705 215.314 516.199 215.604C516.708 215.895 517.333 216.04 518.074 216.04ZM525.795 217.391V205.928H527.342L527.516 207.824H527.669C527.785 207.461 527.945 207.12 528.148 206.8C528.352 206.466 528.628 206.197 528.976 205.994C529.325 205.776 529.754 205.667 530.262 205.667C530.48 205.667 530.676 205.689 530.851 205.732C531.039 205.761 531.177 205.798 531.265 205.841V207.606H530.545C530.051 207.606 529.623 207.694 529.26 207.868C528.911 208.028 528.62 208.26 528.388 208.565C528.156 208.87 527.981 209.234 527.865 209.655C527.763 210.076 527.712 210.527 527.712 211.006V217.391H525.795ZM537.394 217.653C536.261 217.653 535.302 217.442 534.517 217.021C533.747 216.585 533.159 215.924 532.752 215.038C532.36 214.151 532.164 213.025 532.164 211.66C532.164 210.28 532.36 209.154 532.752 208.282C533.159 207.396 533.755 206.742 534.539 206.321C535.324 205.885 536.304 205.667 537.481 205.667C538.556 205.667 539.457 205.878 540.183 206.299C540.91 206.706 541.455 207.323 541.818 208.151C542.195 208.965 542.384 209.989 542.384 211.224V212.139H534.147C534.176 213.054 534.307 213.81 534.539 214.406C534.786 214.987 535.149 215.415 535.629 215.691C536.108 215.953 536.711 216.084 537.438 216.084C537.931 216.084 538.36 216.025 538.723 215.909C539.101 215.778 539.413 215.597 539.66 215.364C539.922 215.132 540.118 214.856 540.249 214.536C540.379 214.217 540.452 213.868 540.467 213.49H542.341C542.326 214.101 542.21 214.667 541.992 215.19C541.774 215.699 541.455 216.134 541.033 216.498C540.612 216.861 540.096 217.144 539.486 217.348C538.876 217.551 538.178 217.653 537.394 217.653ZM534.19 210.701H540.401C540.401 210.062 540.329 209.524 540.183 209.088C540.038 208.652 539.827 208.297 539.551 208.021C539.29 207.744 538.977 207.548 538.614 207.432C538.266 207.301 537.866 207.236 537.416 207.236C536.747 207.236 536.181 207.359 535.716 207.606C535.251 207.853 534.895 208.231 534.648 208.74C534.401 209.248 534.249 209.902 534.19 210.701Z" fill="white"/>
<defs>
<clipPath id="clip0_234_81963">
<rect width="70.5582" height="79.5179" fill="white" transform="translate(106 150)"/>
</clipPath>
<clipPath id="clip1_234_81963">
<rect width="75.038" height="75.038" fill="white" transform="translate(232.539 152.24)"/>
</clipPath>
<clipPath id="clip2_234_81963">
<rect width="75.038" height="75.038" fill="white" transform="translate(363.558 152.24)"/>
</clipPath>
</defs>
</svg>
