<svg width="61" height="60" viewBox="0 0 61 60" fill="none" xmlns="http://www.w3.org/2000/svg">
<g clip-path="url(#clip0_48_104357)">
<path d="M25.6888 21.7928H33.0473C37.5756 21.7928 37.5756 26.3211 33.0473 26.3211H25.6888V21.7928ZM8.1416 42.7362H30.7831V36.5098H25.6888V31.9815H31.3491C37.5756 31.9815 34.1793 42.7362 39.2737 42.7362H53.4246V31.9815H50.0284V33.1136C50.0284 37.6419 44.9341 37.0758 44.368 34.2456C43.802 31.4155 41.5378 29.1513 40.9718 29.1513C49.4624 24.623 44.368 15.5664 37.5756 15.5664H10.9718V21.7928H16.6322V36.5098H8.1416V42.7362Z" fill="#0C67E8" stroke="#0C67E8" stroke-width="0.833215" stroke-linejoin="round"/>
<path d="M30.5003 54.3394C43.9427 54.3394 54.8399 43.4422 54.8399 29.9998C54.8399 16.5574 43.9427 5.66016 30.5003 5.66016C17.0579 5.66016 6.16064 16.5574 6.16064 29.9998C6.16064 43.4422 17.0579 54.3394 30.5003 54.3394Z" stroke="#0C67E8" stroke-width="7.49893"/>
<path d="M56.5381 31.699L59.3683 30.0008L56.5381 28.3027V31.699Z" fill="#0C67E8" stroke="#0C67E8" stroke-width="2.49964" stroke-linejoin="round"/>
<path d="M55.7066 36.745L58.8137 35.6317L56.3691 33.4141L55.7066 36.745Z" fill="#0C67E8" stroke="#0C67E8" stroke-width="2.49964" stroke-linejoin="round"/>
<path d="M53.9059 41.5342L57.1705 41.0484L55.2056 38.3965L53.9059 41.5342Z" fill="#0C67E8" stroke="#0C67E8" stroke-width="2.49964" stroke-linejoin="round"/>
<path d="M51.2064 45.8785L54.5031 46.039L53.0933 43.0547L51.2064 45.8785Z" fill="#0C67E8" stroke="#0C67E8" stroke-width="2.49964" stroke-linejoin="round"/>
<path d="M47.7108 49.6124L50.9128 50.4129L50.1123 47.2109L47.7108 49.6124Z" fill="#0C67E8" stroke="#0C67E8" stroke-width="2.49964" stroke-linejoin="round"/>
<path d="M43.5541 52.5939L46.5384 54.0037L46.3779 50.707L43.5541 52.5939Z" fill="#0C67E8" stroke="#0C67E8" stroke-width="2.49964" stroke-linejoin="round"/>
<path d="M38.8955 54.7059L41.5474 56.6708L42.0332 53.4062L38.8955 54.7059Z" fill="#0C67E8" stroke="#0C67E8" stroke-width="2.49964" stroke-linejoin="round"/>
<path d="M33.9146 55.8696L36.1323 58.3141L37.2456 55.207L33.9146 55.8696Z" fill="#0C67E8" stroke="#0C67E8" stroke-width="2.49964" stroke-linejoin="round"/>
<path d="M28.802 56.0391L30.5001 58.8693L32.1982 56.0391H28.802Z" fill="#0C67E8" stroke="#0C67E8" stroke-width="2.49964" stroke-linejoin="round"/>
<path d="M23.755 55.2066L24.8683 58.3137L27.0859 55.8691L23.755 55.2066Z" fill="#0C67E8" stroke="#0C67E8" stroke-width="2.49964" stroke-linejoin="round"/>
<path d="M18.9673 53.4074L19.4531 56.6719L22.105 54.707L18.9673 53.4074Z" fill="#0C67E8" stroke="#0C67E8" stroke-width="2.49964" stroke-linejoin="round"/>
<path d="M14.6224 50.7069L14.462 54.0035L17.4463 52.5938L14.6224 50.7069Z" fill="#0C67E8" stroke="#0C67E8" stroke-width="2.49964" stroke-linejoin="round"/>
<path d="M10.8881 47.2118L10.0876 50.4138L13.2896 49.6133L10.8881 47.2118Z" fill="#0C67E8" stroke="#0C67E8" stroke-width="2.49964" stroke-linejoin="round"/>
<path d="M7.9071 43.055L6.49731 46.0393L9.79395 45.8789L7.9071 43.055Z" fill="#0C67E8" stroke="#0C67E8" stroke-width="2.49964" stroke-linejoin="round"/>
<path d="M5.79456 38.3955L3.82965 41.0474L7.09424 41.5332L5.79456 38.3955Z" fill="#0C67E8" stroke="#0C67E8" stroke-width="2.49964" stroke-linejoin="round"/>
<path d="M4.63137 33.4151L2.18685 35.6328L5.29395 36.7461L4.63137 33.4151Z" fill="#0C67E8" stroke="#0C67E8" stroke-width="2.49964" stroke-linejoin="round"/>
<path d="M4.4624 28.303L1.63221 30.0011L4.4624 31.6992V28.303Z" fill="#0C67E8" stroke="#0C67E8" stroke-width="2.49964" stroke-linejoin="round"/>
<path d="M5.29392 23.255L2.18683 24.3683L4.63135 26.5859L5.29392 23.255Z" fill="#0C67E8" stroke="#0C67E8" stroke-width="2.49964" stroke-linejoin="round"/>
<path d="M7.0946 18.4678L3.83001 18.9536L5.79492 21.6055L7.0946 18.4678Z" fill="#0C67E8" stroke="#0C67E8" stroke-width="2.49964" stroke-linejoin="round"/>
<path d="M9.79407 14.1234L6.49743 13.963L7.90723 16.9473L9.79407 14.1234Z" fill="#0C67E8" stroke="#0C67E8" stroke-width="2.49964" stroke-linejoin="round"/>
<path d="M13.2897 10.3876L10.0877 9.58707L10.8882 12.7891L13.2897 10.3876Z" fill="#0C67E8" stroke="#0C67E8" stroke-width="2.49964" stroke-linejoin="round"/>
<path d="M17.4464 7.40808L14.4621 5.99829L14.6226 9.29492L17.4464 7.40808Z" fill="#0C67E8" stroke="#0C67E8" stroke-width="2.49964" stroke-linejoin="round"/>
<path d="M22.105 5.29602L19.4531 3.33111L18.9673 6.5957L22.105 5.29602Z" fill="#0C67E8" stroke="#0C67E8" stroke-width="2.49964" stroke-linejoin="round"/>
<path d="M27.0859 4.13235L24.8682 1.68783L23.7549 4.79492L27.0859 4.13235Z" fill="#0C67E8" stroke="#0C67E8" stroke-width="2.49964" stroke-linejoin="round"/>
<path d="M32.1985 3.96289L30.5004 1.1327L28.8022 3.96289L32.1985 3.96289Z" fill="#0C67E8" stroke="#0C67E8" stroke-width="2.49964" stroke-linejoin="round"/>
<path d="M37.2455 4.79538L36.1322 1.68829L33.9146 4.13281L37.2455 4.79538Z" fill="#0C67E8" stroke="#0C67E8" stroke-width="2.49964" stroke-linejoin="round"/>
<path d="M42.0332 6.5946L41.5474 3.33001L38.8955 5.29492L42.0332 6.5946Z" fill="#0C67E8" stroke="#0C67E8" stroke-width="2.49964" stroke-linejoin="round"/>
<path d="M46.3781 9.29505L46.5385 5.99841L43.5542 7.4082L46.3781 9.29505Z" fill="#0C67E8" stroke="#0C67E8" stroke-width="2.49964" stroke-linejoin="round"/>
<path d="M50.1124 12.7902L50.9129 9.58817L47.7109 10.3887L50.1124 12.7902Z" fill="#0C67E8" stroke="#0C67E8" stroke-width="2.49964" stroke-linejoin="round"/>
<path d="M53.0934 16.9469L54.5032 13.9626L51.2065 14.123L53.0934 16.9469Z" fill="#0C67E8" stroke="#0C67E8" stroke-width="2.49964" stroke-linejoin="round"/>
<path d="M55.2059 21.6045L57.1708 18.9526L53.9062 18.4668L55.2059 21.6045Z" fill="#0C67E8" stroke="#0C67E8" stroke-width="2.49964" stroke-linejoin="round"/>
<path d="M56.3691 26.5868L58.8136 24.3692L55.7065 23.2559L56.3691 26.5868Z" fill="#0C67E8" stroke="#0C67E8" stroke-width="2.49964" stroke-linejoin="round"/>
<path d="M26.5381 6.22656L30.5004 10.1888L34.4626 6.22656H26.5381Z" fill="#0C67E8" stroke="#0C67E8" stroke-width="4.99929" stroke-linejoin="round"/>
<path d="M51.8862 18.8848L49.3423 23.8775L54.335 26.4214L51.8862 18.8848Z" fill="#0C67E8" stroke="#0C67E8" stroke-width="4.99929" stroke-linejoin="round"/>
<path d="M47.6797 46.9043L42.1452 46.0277L41.2686 51.5622L47.6797 46.9043Z" fill="#0C67E8" stroke="#0C67E8" stroke-width="4.99929" stroke-linejoin="round"/>
<path d="M19.7324 51.5625L18.8558 46.028L13.3213 46.9046L19.7324 51.5625Z" fill="#0C67E8" stroke="#0C67E8" stroke-width="4.99929" stroke-linejoin="round"/>
<path d="M6.66602 26.4219L11.6588 23.8779L9.11483 18.8852L6.66602 26.4219Z" fill="#0C67E8" stroke="#0C67E8" stroke-width="4.99929" stroke-linejoin="round"/>
</g>
<defs>
<clipPath id="clip0_48_104357">
<rect width="60" height="60" fill="white" transform="translate(0.5)"/>
</clipPath>
</defs>
</svg>
