<svg width="263" height="83" viewBox="0 0 263 83" fill="none" xmlns="http://www.w3.org/2000/svg">
<path fill-rule="evenodd" clip-rule="evenodd" d="M40.4907 0.311835C40.2132 0.919335 39.9815 1.28084 39.8682 1.28084C39.8037 1.28084 39.7505 1.40758 39.7505 1.56283C39.7505 1.72108 39.572 2.00833 39.3425 2.21908C39.1182 2.42533 38.9525 2.68784 38.975 2.80334C38.9975 2.91884 38.8992 3.07558 38.7575 3.15134C38.6165 3.22708 38.5002 3.36809 38.5002 3.46334C38.5002 3.79559 38.1267 4.02659 37.6422 3.99434C37.193 3.96434 35.75 2.78234 35.75 2.44409C35.75 2.38484 35.63 2.25283 35.483 2.15158C35.336 2.05108 34.9437 1.68883 34.6122 1.34683C33.824 0.536085 32.6255 0.454336 32.6255 1.21184C32.6255 1.37234 32.5407 1.53659 32.438 1.57559C32.3292 1.61759 32.2505 1.80434 32.2505 2.01959C32.2505 2.45459 32.0645 2.61434 31.8072 2.40134C31.6902 2.30383 31.625 2.29709 31.625 2.38259C31.625 2.45609 31.6812 2.55059 31.7502 2.59334C31.9865 2.73884 31.8972 3.49559 31.6355 3.56384C31.4322 3.61709 31.406 3.70634 31.4637 4.13909C31.5207 4.56284 31.4922 4.66634 31.298 4.73984C31.004 4.85158 30.8225 5.03009 30.716 5.31209C30.6125 5.58584 29.969 5.60609 29.75 5.34284C29.6645 5.24009 29.5295 5.15534 29.45 5.15534C29.3705 5.15534 29.2092 5.04284 29.0915 4.90559C28.9737 4.76834 28.793 4.65584 28.6887 4.65584C28.5852 4.65584 28.5005 4.59734 28.5005 4.52684C28.5005 4.45559 28.4015 4.36184 28.2815 4.31758C28.1615 4.27409 27.9072 4.07834 27.7182 3.88409C27.5285 3.68984 27.296 3.53084 27.2022 3.53084C27.1077 3.53084 26.9645 3.45059 26.8835 3.35309C26.6187 3.03359 25.7667 2.97134 25.3925 3.24434C25.211 3.37709 24.962 3.52258 24.8382 3.56833C24.6597 3.63508 24.641 3.70109 24.7445 3.89534C25.0572 4.47959 24.833 5.78084 24.4197 5.78084C24.2637 5.78084 24.2442 5.85134 24.3267 6.12434C24.7025 7.37084 24.2442 8.20559 23.1747 8.22284C22.751 8.23034 22.4405 8.17184 22.3557 8.06984C22.2807 7.97984 22.1157 7.90559 21.989 7.90559C21.863 7.90559 21.7002 7.79534 21.6275 7.66034C21.5472 7.50959 21.4212 7.44359 21.302 7.48934C21.1947 7.53059 20.945 7.44434 20.7462 7.29734C20.5475 7.15034 20.2422 7.03034 20.0675 7.03034C19.8687 7.03034 19.7502 6.96059 19.7502 6.84284C19.7502 6.40784 18.2825 6.59834 18.1842 7.04609C18.134 7.27709 18.002 7.46084 17.8617 7.49759C17.5257 7.58609 17.5212 8.47409 17.8572 8.56184C18.0612 8.61584 18.0965 8.79884 18.1557 10.1076C18.227 11.6856 18.1662 11.9608 17.7192 12.1026C17.5647 12.1521 17.3802 12.2721 17.309 12.3696C17.1275 12.6178 16.0647 12.5421 16.0587 12.2803C16.0565 12.1776 16.1127 12.0471 16.1832 11.9908C16.2545 11.9353 16.172 11.9346 16.0002 11.9893C15.305 12.2128 14.441 12.1168 14.3975 11.8116C14.357 11.5251 14.0772 11.4298 13.9377 11.6556C13.895 11.7246 13.5012 11.7808 13.0625 11.7808C12.0687 11.7808 11.8752 11.9878 11.8752 13.0513C11.8752 13.4443 11.819 13.8006 11.75 13.8433C11.5062 13.9941 11.6067 14.3871 11.8715 14.3181C12.236 14.2221 12.452 14.7553 12.266 15.2893C12.0822 15.8166 12.0882 15.9058 12.308 15.9058C12.752 15.9058 12.8555 17.0751 12.4257 17.2401C12.329 17.2768 12.2502 17.4126 12.2502 17.5408C12.2502 18.0148 11.7972 18.1251 10.1877 18.0441C8.73423 17.9706 8.68773 17.9593 8.69748 17.6871C8.70648 17.4366 8.64723 17.4058 8.16648 17.4058C7.70073 17.4058 7.62498 17.4418 7.62498 17.6661C7.62498 17.8393 7.50348 17.9736 7.26498 18.0636C6.83373 18.2263 6.58923 19.3468 6.93048 19.6011C7.02873 19.6738 7.14798 19.8988 7.19598 20.1006C7.24473 20.3031 7.36773 20.5648 7.47048 20.6826C7.57248 20.8011 7.62873 21.0028 7.59498 21.1318C7.55748 21.2751 7.62498 21.4228 7.76673 21.5121C7.89498 21.5923 7.99998 21.7633 7.99998 21.8931C7.99998 22.0228 8.07723 22.1586 8.17098 22.1946C8.42298 22.2913 8.38173 23.7996 8.12523 23.8843C8.02248 23.9181 7.88148 24.0208 7.81248 24.1123C7.66473 24.3088 6.99423 24.3628 6.36123 24.2293C5.97123 24.1468 5.90073 24.1686 5.84448 24.3853C5.76423 24.6921 4.81923 24.8721 4.21023 24.6973C3.42423 24.4716 2.78148 26.1111 3.44073 26.6586C3.54198 26.7426 3.62523 26.9151 3.62523 27.0418C3.62523 27.1678 3.73773 27.3321 3.87498 27.4056C4.01298 27.4791 4.12548 27.5961 4.12548 27.6651C4.12548 27.7348 4.26573 27.9433 4.43748 28.1286C4.60998 28.3138 4.75023 28.5126 4.75023 28.5711C4.75023 28.6288 4.94748 28.9161 5.18748 29.2101C5.59923 29.7126 5.80473 30.5308 5.51973 30.5308C5.35173 30.5308 4.92873 30.9448 4.83273 31.2028C4.76148 31.3956 4.65723 31.4263 4.25223 31.3716C3.83523 31.3161 3.74673 31.3446 3.67923 31.5576C3.61173 31.7691 3.52173 31.7998 3.12348 31.7458C2.73048 31.6933 2.63673 31.7233 2.58573 31.9191C2.54148 32.0871 2.41098 32.1553 2.13273 32.1553C1.90098 32.1553 1.71348 32.2318 1.67073 32.3428C1.63098 32.4463 1.46973 32.5303 1.31298 32.5303C0.829226 32.5303 0.659726 33.8413 1.09398 34.2231C2.96523 35.8678 4.12548 37.1083 4.12548 37.4646C4.12548 37.9018 3.82323 38.4058 3.55998 38.4058C3.46323 38.4058 3.32148 38.5221 3.24498 38.6653C3.16173 38.8213 3.03123 38.8963 2.91948 38.8536C2.80473 38.8093 2.56773 38.9563 2.30673 39.2331C2.04348 39.5121 1.80873 39.6568 1.69248 39.6118C1.58523 39.5706 1.45473 39.6321 1.38873 39.7543C1.32498 39.8721 1.01523 40.0806 0.700226 40.2178L0.127226 40.4683L0.126475 41.1328C0.124975 41.8498 0.284726 42.2803 0.551726 42.2803C0.643976 42.2803 0.786476 42.3613 0.868226 42.4596C0.949976 42.5586 1.25223 42.7611 1.54023 42.9103C1.82748 43.0596 2.10798 43.2598 2.16273 43.3558C2.21748 43.4518 2.35023 43.5306 2.45748 43.5306C2.56398 43.5306 2.86473 43.6993 3.12498 43.9056C3.38598 44.1118 3.65898 44.2806 3.73248 44.2806C4.17048 44.2806 4.22598 45.6591 3.79923 45.9636C3.66948 46.0566 3.36573 46.3108 3.12498 46.5298C2.88423 46.7481 2.53323 47.0083 2.34423 47.1073C2.15523 47.2063 1.99998 47.3571 1.99998 47.4433C1.99998 47.6158 1.57773 48.0208 1.18923 48.2211C0.655227 48.4963 0.788727 50.2573 1.33773 50.1786C1.50273 50.1553 1.67148 50.2326 1.75773 50.3713C1.86498 50.5431 2.01273 50.5896 2.33373 50.5521C2.69448 50.5101 2.77773 50.5468 2.83698 50.7726C2.89473 50.9946 2.97048 51.0298 3.25473 50.9668C3.51423 50.9098 3.66498 50.9586 3.85248 51.1603C4.02948 51.3501 4.18248 51.4041 4.36998 51.3448C4.68498 51.2443 4.99998 51.4656 4.99998 51.7873C4.99998 51.9261 5.10798 52.0288 5.28123 52.0528C5.62248 52.1016 5.75448 52.7518 5.46648 52.9626C5.36748 53.0346 5.24673 53.2206 5.19723 53.3751C5.14848 53.5296 5.05623 53.6556 4.99173 53.6556C4.92798 53.6556 4.87548 53.7298 4.87548 53.8206C4.87548 53.9113 4.74273 54.1011 4.58073 54.2421C4.41798 54.3831 4.20723 54.6741 4.11198 54.8893C4.01748 55.1046 3.89823 55.2808 3.84873 55.2808C3.26598 55.2808 3.02073 57.3861 3.57348 57.6381C3.73923 57.7131 3.87498 57.8541 3.87498 57.9493C3.87498 58.0881 4.12698 58.1211 5.09373 58.1083C6.29373 58.0933 6.31248 58.0978 6.30198 58.3836C6.29298 58.6213 6.33798 58.6603 6.55173 58.5958C7.85073 58.2058 8.37048 58.4998 8.35698 59.6173C8.35098 60.1281 8.29398 60.3291 8.12448 60.4348C8.00073 60.5128 7.93173 60.6568 7.97073 60.7581C8.00898 60.8593 7.93323 61.0206 7.80198 61.1173C7.66848 61.2148 7.56273 61.4421 7.56273 61.6303C7.56273 61.8853 7.49373 61.9776 7.28148 62.0083C7.04973 62.0406 7.02273 62.0886 7.12473 62.2798C7.26423 62.5401 7.16523 62.9173 6.91923 63.0666C6.72048 63.1866 6.82548 64.2561 7.06023 64.5081C7.17873 64.6348 7.78398 64.6708 9.67248 64.6611C11.9247 64.6498 12.1362 64.6678 12.1992 64.8711C12.2375 64.9933 12.3207 65.1771 12.3845 65.2806C12.8277 65.9946 12.8172 66.6553 12.3627 66.6553C12.137 66.6553 12.1167 66.7056 12.1955 67.0618C12.4115 68.0308 12.1092 68.8086 11.7267 68.2678C11.639 68.1433 11.6277 68.1823 11.6885 68.4058C11.735 68.5776 11.81 69.0838 11.8557 69.5308C11.963 70.5891 12.1602 70.8598 12.8765 70.9318C13.1855 70.9626 13.5365 71.0316 13.6565 71.0848C13.826 71.1606 13.8755 71.1238 13.8755 70.9213C13.8755 70.5756 14.3712 70.4548 15.1437 70.6131C15.6965 70.7263 15.7415 70.7166 15.776 70.4766C15.8225 70.1511 17.21 70.1481 17.453 70.4728C17.5302 70.5756 17.681 70.6266 17.7875 70.5853C18.1422 70.4496 18.2322 70.9161 18.158 72.5196C18.095 73.8823 18.0597 74.0713 17.8557 74.1246C17.5565 74.2026 17.5152 75.1558 17.8107 75.1558C17.9135 75.1558 18.1422 75.3748 18.3192 75.6433C18.68 76.1886 19.6542 76.4803 19.5305 76.0063C19.469 75.7716 19.9962 75.5616 20.2512 75.7191C20.3337 75.7693 20.4207 75.6966 20.4605 75.5428C20.5107 75.3523 20.6285 75.2803 20.894 75.2803C21.1025 75.2803 21.2885 75.2001 21.3297 75.0928C21.3695 74.9901 21.5307 74.9053 21.6875 74.9053C21.845 74.9053 22.0062 74.8213 22.0452 74.7178C22.088 74.6076 22.2755 74.5303 22.5005 74.5303C22.7105 74.5303 22.9122 74.4538 22.9482 74.3601C23.0015 74.2213 23.0945 74.2176 23.4462 74.3383C24.3365 74.6443 24.6252 75.3486 24.3335 76.4991C24.242 76.8598 24.2592 76.9056 24.488 76.9056C24.8877 76.9056 25.022 78.2113 24.6965 78.9366C24.62 79.1076 24.6575 79.1556 24.866 79.1556C25.013 79.1556 25.1652 79.2396 25.205 79.3431C25.31 79.6161 26.6937 79.6086 26.7987 79.3348C26.84 79.2276 26.9742 79.1563 27.098 79.1773C27.2315 79.2006 27.56 78.9771 27.914 78.6231C28.2402 78.2968 28.589 78.0306 28.6902 78.0306C28.7907 78.0306 29.0382 77.8573 29.2407 77.6458C29.8317 77.0271 31.0002 76.9836 31.0002 77.5806C31.0002 77.7763 31.0895 77.9001 31.2642 77.9451C31.4885 78.0043 31.5207 78.0898 31.4802 78.5151C31.442 78.9141 31.4772 79.0281 31.6535 79.0746C31.814 79.1158 31.8755 79.2568 31.8755 79.5816C31.8755 79.8546 31.9677 80.1231 32.111 80.2663C32.267 80.4223 32.3255 80.6113 32.2835 80.8288C32.2377 81.0673 32.273 81.1558 32.4147 81.1558C32.5332 81.1558 32.624 81.2893 32.648 81.4993C32.6855 81.8211 32.7312 81.8458 33.3545 81.8811L34.022 81.9193L35.5632 80.3593L37.1052 78.8001L37.7697 78.8211C38.3262 78.8398 38.4425 78.8841 38.4815 79.0933C38.507 79.2306 38.606 79.3881 38.7012 79.4428C38.7965 79.4976 38.9855 79.7863 39.1212 80.0841C39.257 80.3826 39.4542 80.6593 39.5592 80.6991C39.6642 80.7396 39.7505 80.8521 39.7505 80.9488C39.7505 81.0456 39.8345 81.1948 39.938 81.2803C40.0407 81.3658 40.1255 81.5361 40.1255 81.6576C40.1255 81.7791 40.2057 81.9096 40.304 81.9471C40.4022 81.9853 40.5005 82.1736 40.5222 82.3671C40.5447 82.5598 40.6047 82.7038 40.6565 82.6866C40.7082 82.6693 41.0457 82.6551 41.4065 82.6551C41.996 82.6551 42.0882 82.6169 42.3125 82.2808C42.4505 82.0746 42.6327 81.9058 42.719 81.9058C42.8052 81.9058 42.875 81.7648 42.875 81.5931C42.875 81.4213 42.974 81.1723 43.094 81.0396C43.5282 80.5611 43.625 80.4133 43.625 80.2296C43.625 80.1268 43.6955 79.9978 43.7817 79.9431C43.8672 79.8883 44.0585 79.6183 44.2062 79.3431C44.4695 78.8526 44.4882 78.8428 45.1932 78.8278L45.9117 78.8128L46.55 79.5111C48.9117 82.0963 49.5597 82.4406 50.186 81.4416C50.3247 81.2211 50.5385 81.0381 50.6607 81.0351C50.8482 81.0313 50.8617 80.9886 50.744 80.7688C50.5655 80.4351 50.6945 79.9056 50.9547 79.9056C51.0965 79.9056 51.134 79.8291 51.0852 79.6423C50.9945 79.2928 51.197 78.7806 51.4265 78.7806C51.5675 78.7806 51.5922 78.6748 51.5352 78.3246C51.4827 78.0006 51.515 77.8281 51.6447 77.7306C51.746 77.6548 51.8682 77.4868 51.917 77.3571C52.0145 77.0976 53.2647 77.1373 53.354 77.4036C53.3772 77.4733 53.474 77.5303 53.5685 77.5303C53.6637 77.5303 53.8017 77.6428 53.8752 77.7808C53.9487 77.9181 54.0965 78.0306 54.203 78.0306C54.3792 78.0306 54.647 78.2361 55.4217 78.9673C55.5672 79.1046 55.7495 79.2021 55.8267 79.1848C55.904 79.1668 56.0375 79.2373 56.1237 79.3416C56.4102 79.6866 57.6005 79.5973 57.773 79.2178C57.854 79.0401 58.0205 78.9058 58.1585 78.9058C58.3662 78.9058 58.3872 78.8548 58.2987 78.5616C58.0692 77.7988 58.1637 76.6033 58.4645 76.4713C58.6857 76.3746 58.724 76.2868 58.655 76.0341C58.3947 75.0771 59.1605 73.8433 59.7245 74.3113C59.858 74.4216 59.858 74.4643 59.7252 74.5491C59.4845 74.7013 59.6915 74.6773 60.0597 74.5093C60.3335 74.3841 60.4355 74.4028 60.7482 74.6338C60.95 74.7838 61.1667 74.9053 61.2297 74.9053C61.2927 74.9053 61.415 74.9901 61.5005 75.0928C61.586 75.1963 61.8147 75.2803 62.009 75.2803C62.204 75.2803 62.408 75.3598 62.4627 75.4573C62.5175 75.5541 62.7312 75.6531 62.9375 75.6763C63.2015 75.7056 63.3237 75.7933 63.3492 75.9711C63.3927 76.2748 64.3752 76.2651 64.3752 75.9613C64.3752 75.8683 64.4735 75.7378 64.5942 75.6703C64.793 75.5593 64.8087 75.3268 64.7712 73.1016C64.7322 70.8223 64.745 70.6498 64.9587 70.5711C65.0847 70.5246 65.216 70.4473 65.2505 70.4001C65.471 70.0956 67.001 70.1421 67.121 70.4563C67.2282 70.7398 67.2807 70.7631 67.5672 70.6536C68.186 70.4188 69.0005 70.5313 69.0005 70.8516C69.0005 71.5371 71.048 70.7286 71.075 70.0333C71.081 69.8601 71.1312 69.4993 71.186 69.2316C71.246 68.9346 71.2392 68.7726 71.168 68.8168C70.7772 69.0576 70.5567 68.1913 70.7997 67.3746C70.889 67.0761 70.8672 67.0303 70.6415 67.0303C70.3152 67.0303 70.1855 66.5923 70.3685 66.1108C70.4412 65.9196 70.466 65.6263 70.4247 65.4591C70.382 65.2903 70.403 65.1553 70.472 65.1553C70.5402 65.1553 70.6257 65.0421 70.6617 64.9033C70.7255 64.6603 70.82 64.6513 73.1967 64.6641C75.3312 64.6761 75.6807 64.6506 75.7767 64.4788C75.8375 64.3701 75.9695 64.2808 76.0692 64.2808C76.1862 64.2808 76.25 64.1511 76.25 63.9156C76.25 63.7153 76.283 63.4663 76.322 63.3636C76.3715 63.2346 76.3025 63.1626 76.1037 63.1341C75.878 63.1026 75.8127 63.0141 75.8127 62.7411C75.8127 62.5363 75.7212 62.3376 75.5937 62.2663C75.4632 62.1921 75.3755 61.9956 75.3755 61.7743C75.3755 61.5718 75.32 61.4053 75.2525 61.4053C75.185 61.4053 75.0957 61.2688 75.0537 61.1023C75.0117 60.9351 74.8985 60.7686 74.8017 60.7311C74.6907 60.6883 74.6255 60.4791 74.6255 60.1701C74.6255 59.8971 74.558 59.6541 74.4755 59.6263C74.2977 59.5671 74.6255 58.7893 74.9375 58.5313C75.1242 58.3753 75.9237 58.4128 76.412 58.6003C76.5702 58.6611 76.625 58.6161 76.625 58.4263C76.625 57.9973 77.1087 57.9021 78.4062 58.0768C79.034 58.1616 79.115 58.1488 79.0482 57.9756C78.9935 57.8338 79.0827 57.7386 79.361 57.6418C79.8102 57.4851 79.9415 56.4898 79.5627 56.1111C79.4592 56.0076 79.3752 55.8343 79.3752 55.7248C79.3752 55.6161 79.124 55.2681 78.8165 54.9523C78.5097 54.6358 78.224 54.2706 78.1827 54.1393C78.1407 54.0081 77.942 53.7208 77.741 53.5003C76.91 52.5906 77.4957 51.1356 78.6035 51.3576C78.9177 51.4206 79.0002 51.3951 79.0002 51.2361C79.0002 50.9743 79.5725 50.8311 79.814 51.0321C79.9685 51.1596 80 51.1431 80 50.9346C80 50.6631 80.225 50.5303 80.6825 50.5303C80.8407 50.5303 81.0395 50.4463 81.125 50.3428C81.2105 50.2401 81.35 50.1553 81.434 50.1553C81.7332 50.1553 82.0002 49.6993 82.0002 49.1871C82.0002 48.5721 81.902 48.2803 81.6942 48.2803C81.6095 48.2803 81.2855 48.0133 80.9735 47.6871C80.6622 47.3601 80.0817 46.7878 79.6835 46.4151C78.8742 45.6576 78.5585 44.4651 79.1285 44.3158C79.2545 44.2828 79.388 44.1771 79.4255 44.0811C79.4622 43.9843 79.6085 43.9056 79.7502 43.9056C79.892 43.9056 80.0405 43.8208 80.0802 43.7181C80.1192 43.6153 80.2362 43.5306 80.3397 43.5306C80.4425 43.5306 80.7395 43.3618 81.0005 43.1556C81.2607 42.9493 81.5622 42.7806 81.6695 42.7806C82.1757 42.7806 82.8755 41.7958 82.8755 41.0833C82.8755 40.4938 82.8432 40.4053 82.631 40.4053C82.496 40.4053 82.1727 40.2591 81.9117 40.0806C81.6515 39.9021 81.311 39.7063 81.1565 39.6463C81.002 39.5863 80.8752 39.4806 80.8752 39.4116C80.8752 39.3433 80.6195 39.1701 80.3067 39.0276C79.994 38.8851 79.7067 38.6871 79.6685 38.5873C79.6295 38.4876 79.4697 38.4058 79.313 38.4058C78.053 38.4058 79.2245 36.4078 81.719 34.3011C82.1675 33.9223 82.1397 32.5303 81.6837 32.5303C81.5097 32.5303 81.335 32.4463 81.2952 32.3428C81.251 32.2281 81.062 32.1553 80.8055 32.1553C80.5745 32.1553 80.3427 32.0758 80.288 31.9783C80.2325 31.8801 79.991 31.7818 79.7502 31.7593C79.4037 31.7263 79.304 31.6581 79.2717 31.4293C79.2395 31.2021 79.1952 31.1706 79.061 31.2823C78.8075 31.4923 78.212 31.3791 78.0657 31.0933C77.9952 30.9553 77.825 30.8428 77.6877 30.8428C77.2295 30.8428 77.2692 29.6991 77.7455 29.1793C77.9547 28.9513 78.125 28.6866 78.125 28.5906C78.125 28.4938 78.41 28.1263 78.7587 27.7723C79.1217 27.4033 79.3632 27.0553 79.3257 26.9563C79.289 26.8618 79.37 26.7253 79.505 26.6533C79.8567 26.4651 79.8537 25.4128 79.5005 25.0933C79.3625 24.9688 79.25 24.7993 79.25 24.7161C79.25 24.6021 79.1157 24.5961 78.695 24.6921C77.9532 24.8623 77.0547 24.6778 77.0817 24.3621C77.0982 24.1656 77.0367 24.1498 76.5815 24.2361C75.4805 24.4446 74.6375 24.1581 74.6292 23.5723C74.627 23.4231 74.555 23.2761 74.4687 23.2446C74.3442 23.1996 74.3442 23.1351 74.4687 22.9236C74.555 22.7781 74.6255 22.5156 74.6255 22.3408C74.6255 22.1661 74.7095 21.9906 74.813 21.9508C74.9157 21.9111 75.0005 21.7791 75.0005 21.6576C75.0005 21.5361 75.0845 21.3658 75.188 21.2803C75.2907 21.1948 75.3755 20.9931 75.3755 20.8318C75.3755 20.6668 75.4842 20.4808 75.6267 20.4051C75.8112 20.3061 75.8577 20.1921 75.8022 19.9716C75.7467 19.7511 75.7962 19.6288 75.989 19.5088C76.3122 19.3071 76.3722 18.4056 76.0625 18.4056C75.9597 18.4056 75.875 18.3583 75.875 18.3006C75.875 18.2428 75.7347 18.1318 75.563 18.0531C75.3792 17.9698 75.2502 17.8063 75.2502 17.6586C75.2502 17.2603 74.2842 17.2873 74.228 17.6871C74.1485 18.2436 70.7502 18.2308 70.7502 17.6743C70.7502 17.5431 70.667 17.3668 70.565 17.2828C70.4637 17.1981 70.382 17.0083 70.385 16.8613C70.3872 16.7136 70.3512 16.4383 70.3047 16.2486C70.2087 15.8556 70.4412 15.4813 70.7157 15.5863C70.8365 15.6328 70.8725 15.5856 70.8305 15.4363C70.5687 14.5063 70.6737 13.7803 71.0697 13.7803C71.2317 13.7803 71.252 13.7031 71.1755 13.3746C71.1237 13.1511 71.0772 12.8278 71.072 12.6553C71.0555 12.0943 70.649 11.7808 69.9402 11.7808C69.5945 11.7808 69.1317 11.7291 68.9127 11.6661C68.5572 11.5648 68.5107 11.5813 68.4762 11.8228C68.4357 12.1063 67.4705 12.2136 66.9897 11.9878C66.8382 11.9166 66.794 11.9623 66.8022 12.1813C66.8157 12.5458 65.6817 12.6981 65.5482 12.3501C65.507 12.2428 65.3427 12.1558 65.183 12.1558C64.7615 12.1558 64.7255 11.9151 64.772 9.41459C64.8095 7.36184 64.7937 7.16084 64.5747 6.91934C64.277 6.59009 63.416 6.55184 63.1917 6.85859C63.11 6.97034 62.879 7.06184 62.6787 7.06184C62.4642 7.06184 62.2467 7.15784 62.15 7.29659C62.033 7.46384 61.8972 7.50958 61.6805 7.45483C61.4495 7.39708 61.3752 7.42859 61.3752 7.58309C61.3752 7.85159 61.0445 7.97309 60.821 7.78709C60.6785 7.66934 60.6365 7.69709 60.6035 7.92959C60.566 8.19359 60.4992 8.21834 59.813 8.22209C58.6227 8.22884 58.2485 7.65809 58.6895 6.50909C58.7255 6.41384 58.631 6.28784 58.4705 6.21734C58.1292 6.06734 58.0062 4.86959 58.268 4.23733C58.3977 3.92533 58.3947 3.84959 58.2522 3.80234C58.1577 3.77083 57.9605 3.61633 57.815 3.45883C57.6695 3.30133 57.4017 3.13559 57.2195 3.08984C57.0185 3.03959 56.8692 2.90159 56.837 2.73733C56.7845 2.46883 56.7845 2.46959 56.7672 2.74559C56.7545 2.95259 56.5752 3.10634 56.063 3.34859C55.6842 3.52709 55.3745 3.71159 55.3737 3.75809C55.373 3.80534 55.148 3.95084 54.8735 4.08209C54.5997 4.21334 54.3755 4.36634 54.3755 4.42183C54.3755 4.61684 52.8372 5.54309 52.5755 5.50559C52.4307 5.48533 52.2582 5.34359 52.1915 5.19209C52.1247 5.03984 51.956 4.89959 51.8165 4.87934C51.6207 4.85159 51.554 4.73384 51.5232 4.36634C51.5022 4.10384 51.3792 3.78508 51.2517 3.65683C51.1085 3.51433 51.0447 3.32384 51.0867 3.16559C51.1325 2.98934 51.0597 2.83034 50.8587 2.66684C50.594 2.45309 50.5782 2.38709 50.7057 2.04809C50.8355 1.70309 50.8242 1.66634 50.5805 1.63109C50.375 1.60184 50.318 1.51408 50.336 1.25308C50.3555 0.959085 50.3015 0.902835 49.928 0.833085C49.691 0.788835 49.4495 0.668085 49.3917 0.565335C49.301 0.401835 49.2777 0.404086 49.2102 0.579586C49.1675 0.689836 49.0002 0.780585 48.8375 0.780585C48.6335 0.780585 48.4482 0.925335 48.2397 1.24783C48.0732 1.50433 47.786 1.78709 47.6015 1.87634C47.4162 1.96484 47.2295 2.15009 47.1852 2.28809C47.1417 2.42534 46.8575 2.80184 46.553 3.12359C46.2492 3.44534 46.0002 3.74609 46.0002 3.79109C46.0002 3.90584 45.0507 4.02059 44.75 3.94184C44.6127 3.90584 44.5002 3.80234 44.5002 3.71234C44.5002 3.62234 44.402 3.45059 44.282 3.33059C44.0502 3.09884 43.841 2.76959 43.634 2.31209C43.5635 2.15684 43.4487 2.03084 43.3782 2.03084C43.3077 2.03084 43.25 1.95284 43.25 1.85834C43.25 1.76384 43.166 1.61609 43.0625 1.53059C42.9597 1.44509 42.875 1.26734 42.875 1.13609C42.875 1.00484 42.791 0.865335 42.6875 0.825585C42.5847 0.786585 42.5 0.683835 42.5 0.599085C42.5 0.00658485 40.7442 -0.243915 40.4907 0.311835ZM41.3127 7.16833C41.45 7.16909 41.732 7.13459 41.9397 7.09034C42.4602 6.98009 43.8402 8.25359 43.6295 8.64809C43.4562 8.97209 43.4615 8.99159 43.7502 9.06659C44.0577 9.14759 44.1072 9.87209 43.8125 9.98534C43.7022 10.0281 43.6235 10.2186 43.622 10.4503C43.6197 10.7181 43.4997 10.9596 43.247 11.2078C43.0422 11.4081 42.875 11.6188 42.875 11.6766C42.875 11.8363 42.446 11.8003 42.257 11.6241C42.1505 11.5251 42.1182 11.5213 42.17 11.6128C42.38 11.9886 42.1085 12.1558 41.288 12.1558C40.5987 12.1558 40.4675 12.1206 40.415 11.9203C40.3745 11.7628 40.2762 11.7051 40.1202 11.7456C39.8247 11.8228 39.002 10.9596 39.0005 10.5711C39.0005 10.4211 38.9262 10.2238 38.8355 10.1331C38.4417 9.73859 38.4755 9.03059 38.8887 9.03059C39.1602 9.03059 39.1925 8.89784 38.9742 8.67959C38.8565 8.56184 38.8632 8.48834 39.0057 8.34359C39.1055 8.24159 39.413 7.90708 39.6875 7.60034C40.1367 7.10008 40.232 7.04909 40.625 7.10459C40.8657 7.13834 41.1755 7.16683 41.3127 7.16833ZM36.3755 11.6871C36.7505 12.1168 37.1607 12.5443 37.2875 12.6381C37.415 12.7311 38.0795 13.3641 38.7642 14.0443C39.449 14.7246 40.0602 15.2803 40.1225 15.2803C40.1847 15.2803 40.3175 15.3966 40.4172 15.5391C40.5642 15.7498 40.6782 15.7821 41.036 15.7146C41.2872 15.6681 41.5865 15.6928 41.7372 15.7738C41.9652 15.8953 42.0005 15.8796 42.0005 15.6568C42.0005 15.5091 42.1205 15.3478 42.2817 15.2781C42.7745 15.0643 42.9867 14.8798 44.9187 12.9846C45.9605 11.9631 46.943 11.0766 47.102 11.0158C47.441 10.8868 47.8752 11.0728 47.8752 11.3473C47.8752 11.5656 48.0477 11.5806 48.3965 11.3938C48.7782 11.1898 49.5005 11.3608 49.5005 11.6556C49.5005 11.8678 49.568 11.8858 50.1222 11.8198C50.6285 11.7598 50.7597 11.7846 50.8235 11.9511C50.8745 12.0846 51.0485 12.1558 51.3215 12.1558C51.6012 12.1558 51.7827 12.2323 51.8645 12.3846C51.9515 12.5488 52.0895 12.5991 52.3445 12.5616C52.571 12.5286 52.7622 12.5818 52.8665 12.7071C52.9565 12.8166 53.198 12.9058 53.402 12.9058C53.6735 12.9058 53.792 12.9756 53.8415 13.1653C53.8902 13.3506 53.981 13.4068 54.1542 13.3618C54.4842 13.2756 54.7505 13.3911 54.7505 13.6213C54.7505 13.7488 54.8315 13.7886 55.0017 13.7436C55.1697 13.7001 55.2972 13.7601 55.385 13.9236C55.457 14.0586 55.6107 14.1591 55.727 14.1478C56.1237 14.1081 56.2505 14.1553 56.2505 14.3428C56.2505 14.4606 56.369 14.5303 56.567 14.5303C56.741 14.5303 56.9157 14.6151 56.9547 14.7178C56.9945 14.8213 57.1527 14.9053 57.3065 14.9053C57.4685 14.9053 57.842 15.1513 58.199 15.4941C58.5365 15.8173 58.886 16.0671 58.976 16.0491C59.066 16.0311 59.3457 16.2163 59.5977 16.4608C59.8497 16.7053 60.119 16.9056 60.1955 16.9056C60.3357 16.9056 62.189 18.6073 63.1692 19.6371C63.4542 19.9363 64.127 20.6331 64.6632 21.1858C65.1995 21.7386 65.6127 22.2576 65.5812 22.3401C65.5497 22.4218 65.7207 22.6528 65.9607 22.8531C66.2007 23.0533 66.503 23.4501 66.6327 23.7343C66.7617 24.0186 66.9537 24.2841 67.0595 24.3246C67.1645 24.3651 67.25 24.4836 67.25 24.5893C67.25 24.6943 67.3062 24.7806 67.3752 24.7806C67.4442 24.7806 67.5005 24.8908 67.5005 25.0258C67.5005 25.1616 67.613 25.3318 67.7502 25.4053C68.093 25.5891 68.105 26.4658 67.7667 26.6466C67.6002 26.7358 67.5507 26.8648 67.595 27.0958C67.6437 27.3501 67.5995 27.4356 67.3925 27.4896C67.1832 27.5443 67.1435 27.6238 67.2042 27.8653C67.2657 28.1083 67.2252 28.1856 67.0092 28.2418C66.827 28.2898 66.7437 28.4016 66.7572 28.5778C66.794 29.0541 66.7535 29.1553 66.5255 29.1553C66.3417 29.1553 66.3095 29.2363 66.3515 29.5918C66.3882 29.9106 66.3477 30.0486 66.2015 30.1048C66.0732 30.1543 66.0005 30.3306 66.0005 30.5916C66.0005 30.8968 65.936 31.0183 65.75 31.0671C65.5722 31.1136 65.5235 31.1961 65.5827 31.3498C65.636 31.4886 65.5827 31.6273 65.4357 31.7353C65.2865 31.8441 65.2025 32.0691 65.1965 32.3736C65.189 32.7621 65.1395 32.8498 64.9062 32.8828C64.511 32.9391 64.4727 34.1556 64.8665 34.1556C65.0075 34.1556 65.1455 34.2726 65.1965 34.4368C65.3052 34.7826 65.8227 35.2806 66.0732 35.2806C66.1745 35.2806 66.2907 35.3646 66.3297 35.4681C66.3717 35.5768 66.5585 35.6556 66.7752 35.6556C67.043 35.6556 67.1667 35.7261 67.214 35.9046C67.2627 36.0928 67.349 36.1356 67.5687 36.0801C67.7742 36.0291 67.9032 36.0786 68.0112 36.2526C68.105 36.4026 68.2535 36.4738 68.3952 36.4363C68.5227 36.4033 68.708 36.4438 68.8077 36.5263C69.0987 36.7678 69.869 37.1346 70.271 37.2223C70.475 37.2673 70.6722 37.3836 70.7097 37.4796C70.7465 37.5763 70.931 37.6558 71.1192 37.6558C71.8197 37.6558 71.8595 37.8283 71.8347 40.7803L71.813 43.4683L70.1255 43.5306L68.438 43.5928L68.4072 44.9683C68.3705 46.5943 68.3127 46.9056 68.0465 46.9056C67.8875 46.9056 67.8635 46.9918 67.928 47.3361C67.9947 47.6901 67.964 47.7913 67.7547 47.9031C67.6145 47.9781 67.5005 48.1498 67.5005 48.2848C67.5005 48.4356 67.4157 48.5308 67.2807 48.5308C67.16 48.5308 66.8802 48.7273 66.6597 48.9681C66.2555 49.4083 65.8647 49.5141 65.5002 49.2823C65.3577 49.1916 65.2962 49.2291 65.246 49.4361C65.1065 50.0031 63.3552 49.9993 63.2727 49.4316C63.2307 49.1421 63.0687 49.0686 62.9375 49.2808C62.5827 49.8553 60.875 48.4153 60.875 47.5408C60.875 47.2686 60.9312 47.0106 61.0002 46.9678C61.226 46.8283 61.1307 46.5486 60.8442 46.5081C60.593 46.4721 60.563 46.3986 60.5675 45.8196C60.5712 45.2991 60.5285 45.1596 60.3492 45.1123C60.197 45.0726 60.125 44.9346 60.125 44.6803C60.125 44.4643 60.0462 44.2768 59.9375 44.2356C59.8295 44.1936 59.75 44.0068 59.75 43.7916C59.75 43.5403 59.6082 43.2651 59.3135 42.9441C59.0727 42.6823 58.8762 42.4011 58.8755 42.3193C58.8747 42.1258 57.1512 40.4053 56.9585 40.4053C56.7537 40.4053 56.1252 39.8061 56.1252 39.6103C56.1252 39.3801 56.7095 38.9053 56.993 38.9053C57.125 38.9053 57.2652 38.8071 57.3035 38.6871C57.3417 38.5663 57.6695 38.2723 58.031 38.0331C58.838 37.4991 60.5 35.8663 60.5 35.6076C60.5 35.5033 60.575 35.3728 60.6657 35.3181C60.7572 35.2633 60.8675 35.1193 60.9117 34.9993C60.956 34.8793 61.0707 34.7803 61.1667 34.7803C61.2837 34.7803 61.3212 34.6806 61.2822 34.4736C61.2342 34.2253 61.2845 34.1518 61.547 34.0858C61.826 34.0161 61.8515 33.9703 61.7345 33.7521C61.565 33.4348 61.7765 32.9053 62.0735 32.9053C62.2227 32.9053 62.2497 32.8468 62.1755 32.6871C62.0457 32.4051 62.048 29.3263 62.1785 28.8726C62.2602 28.5906 62.243 28.5411 62.0862 28.6011C61.8365 28.6971 61.5807 28.2261 61.676 27.8458C61.73 27.6298 61.6865 27.5428 61.499 27.4941C61.3355 27.4513 61.25 27.3231 61.25 27.1198C61.25 26.9503 61.166 26.7411 61.0625 26.6556C60.9597 26.5701 60.8742 26.4081 60.8735 26.2963C60.872 26.0698 57.9762 23.1553 57.7527 23.1553C57.6747 23.1553 57.4032 22.9933 57.149 22.7953C56.8955 22.5973 56.5332 22.3993 56.3442 22.3551C56.1552 22.3116 56 22.2208 56 22.1533C56 22.0858 55.8597 22.0303 55.688 22.0303C55.5162 22.0303 55.2612 21.9163 55.121 21.7768C54.9815 21.6366 54.7422 21.5331 54.59 21.5458C54.0342 21.5931 53.8752 21.5316 53.8752 21.2706C53.8752 21.0411 53.828 21.0216 53.4687 21.1078C53.0495 21.2076 48.5127 21.1776 48.3447 21.0741C48.1055 20.9263 48.2832 20.6668 48.6567 20.6196C48.8802 20.5903 42.2472 20.5731 33.917 20.5798C20.474 20.5918 18.7872 20.5723 18.9117 20.4058C19.1712 20.0593 20.369 18.9058 20.4687 18.9058C20.5235 18.9058 21.044 18.4273 21.6252 17.8431C22.2065 17.2588 22.754 16.7803 22.841 16.7803C22.9287 16.7803 23 16.7241 23 16.6558C23 16.5868 23.0877 16.5306 23.1942 16.5306C23.3007 16.5306 23.5902 16.3333 23.8377 16.0933C24.086 15.8526 24.3515 15.6553 24.4287 15.6553C24.506 15.6553 24.7542 15.4866 24.98 15.2803C25.2057 15.0741 25.5012 14.9053 25.637 14.9053C25.772 14.9053 25.9152 14.8213 25.955 14.7178C25.9947 14.6151 26.1387 14.5303 26.2745 14.5303C26.411 14.5303 26.6202 14.4096 26.7402 14.2626C26.9127 14.0488 27.005 14.0203 27.1917 14.1253C27.3822 14.2318 27.452 14.2056 27.5607 13.9873C27.635 13.8396 27.7775 13.7181 27.8787 13.7181C27.98 13.7181 28.1577 13.6056 28.2732 13.4683C28.4532 13.2546 28.5215 13.2411 28.742 13.3753C28.9685 13.5133 29 13.5028 29 13.2898C29 13.0483 29.3997 12.8286 29.6075 12.9568C29.6675 12.9943 29.8175 12.9133 29.9405 12.7776C30.191 12.5008 30.6852 12.4498 30.8315 12.6853C30.896 12.7903 30.9507 12.7393 30.9995 12.5293C31.0565 12.2878 31.1645 12.2091 31.4825 12.1783C31.7082 12.1566 32 12.0313 32.1312 11.9001C32.2625 11.7688 32.441 11.6833 32.5287 11.7103C33.131 11.8971 33.3755 11.9008 33.3755 11.7246C33.3755 11.3893 33.8457 11.2438 34.4435 11.3938C35.141 11.5693 35.1252 11.5723 35.1252 11.2911C35.1252 11.0653 35.2745 10.9378 35.5662 10.9153C35.6367 10.9101 36.0012 11.2573 36.3755 11.6871ZM93.6252 25.4683V36.6553H96.938H100.25V33.3433V30.0306H101.063C101.849 30.0306 101.875 30.0411 101.875 30.3471C101.875 30.5211 101.959 30.6958 102.063 30.7356C102.165 30.7746 102.25 30.8856 102.25 30.9816C102.25 31.0776 102.334 31.1556 102.438 31.1556C102.563 31.1556 102.625 31.2808 102.625 31.5306C102.625 31.7713 102.689 31.9056 102.803 31.9056C102.9 31.9056 103.018 32.0781 103.065 32.2888C103.111 32.4996 103.228 32.7028 103.324 32.7396C103.421 32.7771 103.5 32.9698 103.5 33.1686C103.5 33.4071 103.564 33.5308 103.688 33.5308C103.791 33.5308 103.875 33.6148 103.875 33.7183C103.875 33.8211 103.959 33.9058 104.063 33.9058C104.187 33.9058 104.25 34.0303 104.25 34.2808C104.25 34.5306 104.313 34.6558 104.438 34.6558C104.561 34.6558 104.625 34.7788 104.625 35.0173C104.625 35.2236 104.706 35.4096 104.813 35.4508C104.916 35.4906 105 35.6668 105 35.8431C105 36.0193 105.084 36.1956 105.188 36.2353C105.291 36.2751 105.375 36.3853 105.375 36.4813C105.375 36.6261 106.003 36.6553 109.125 36.6553H112.875V35.9053C112.875 35.3226 112.833 35.1553 112.688 35.1553C112.584 35.1553 112.5 35.0691 112.5 34.9641C112.5 34.8591 112.416 34.7406 112.313 34.7008C112.209 34.6611 112.125 34.4893 112.125 34.3183C112.125 34.1121 112.041 33.9853 111.875 33.9418C111.698 33.8953 111.625 33.7716 111.625 33.5158C111.625 33.2788 111.561 33.1558 111.438 33.1558C111.312 33.1558 111.25 33.0306 111.25 32.7808C111.25 32.5303 111.188 32.4058 111.063 32.4058C110.958 32.4058 110.875 32.2948 110.875 32.1553C110.875 32.0166 110.792 31.9056 110.688 31.9056C110.562 31.9056 110.5 31.7803 110.5 31.5306C110.5 31.2808 110.438 31.1556 110.313 31.1556C110.187 31.1556 110.125 31.0303 110.125 30.7806C110.125 30.5308 110.063 30.4056 109.938 30.4056C109.821 30.4056 109.75 30.2871 109.75 30.0891C109.75 29.9151 109.665 29.7403 109.563 29.7006C109.459 29.6616 109.375 29.5536 109.375 29.4606C109.375 29.3683 109.289 29.2446 109.184 29.1861C108.846 28.9971 108.789 28.1548 109.107 28.0716C109.254 28.0326 109.375 27.9238 109.375 27.8286C109.375 27.7333 109.459 27.6553 109.563 27.6553C109.665 27.6553 109.75 27.5713 109.75 27.4678C109.75 27.3651 109.834 27.2803 109.938 27.2803C110.04 27.2803 110.125 27.2023 110.125 27.1063C110.125 27.0103 110.209 26.9001 110.313 26.8603C110.422 26.8183 110.5 26.6308 110.5 26.4096C110.5 26.1561 110.562 26.0308 110.688 26.0308C110.813 26.0308 110.875 25.9056 110.875 25.6558C110.875 25.4053 110.937 25.2808 111.063 25.2808C111.21 25.2808 111.25 25.1068 111.25 24.4678C111.25 23.8288 111.29 23.6556 111.438 23.6556C111.594 23.6556 111.625 23.4058 111.625 22.1556C111.625 20.9053 111.594 20.6556 111.438 20.6556C111.29 20.6556 111.25 20.4823 111.25 19.8433C111.25 19.2043 111.21 19.0303 111.063 19.0303C110.937 19.0303 110.875 18.9058 110.875 18.6553C110.875 18.4056 110.813 18.2803 110.688 18.2803C110.564 18.2803 110.5 18.1573 110.5 17.9188C110.5 17.7126 110.42 17.5266 110.313 17.4853C110.209 17.4456 110.125 17.3271 110.125 17.2221C110.125 17.1171 110.04 17.0308 109.938 17.0308C109.834 17.0308 109.75 16.9461 109.75 16.8433C109.75 16.7398 109.665 16.6558 109.563 16.6558C109.459 16.6558 109.375 16.5711 109.375 16.4683C109.375 16.3648 109.289 16.2808 109.184 16.2808C109.078 16.2808 108.96 16.1961 108.921 16.0933C108.881 15.9898 108.77 15.9058 108.675 15.9058C108.579 15.9058 108.5 15.8211 108.5 15.7183C108.5 15.6148 108.416 15.5308 108.312 15.5308C108.21 15.5308 108.125 15.4461 108.125 15.3433C108.125 15.2181 108 15.1558 107.75 15.1558C107.514 15.1558 107.375 15.0913 107.375 14.9826C107.375 14.8011 107.008 14.6601 106.527 14.6571C106.371 14.6563 106.21 14.5708 106.17 14.4681C106.107 14.3046 105.29 14.2806 99.8622 14.2806H93.6252V25.4683ZM149.085 14.7366C149.039 14.7838 149 15.9381 149 17.3016V19.7803H148H147V22.3431V24.9058H148H149V28.9723C149 32.4711 149.026 33.0486 149.187 33.1101C149.325 33.1633 149.375 33.3793 149.375 33.9186C149.375 34.4901 149.417 34.6558 149.562 34.6558C149.666 34.6558 149.75 34.7398 149.75 34.8433C149.75 34.9461 149.835 35.0308 149.937 35.0308C150.058 35.0308 150.126 35.1531 150.127 35.3743C150.13 35.7726 150.603 36.2803 150.973 36.2803C151.111 36.2803 151.256 36.3651 151.296 36.4678C151.344 36.5968 151.545 36.6553 151.934 36.6553C152.354 36.6553 152.5 36.7041 152.5 36.8428C152.5 37.0018 152.799 37.0303 154.437 37.0303C156.077 37.0303 156.375 37.0018 156.375 36.8428C156.375 36.6973 156.542 36.6553 157.129 36.6553C157.684 36.6553 157.902 36.6058 157.955 36.4678C158.004 36.3411 158.203 36.2803 158.576 36.2803C158.981 36.2803 159.125 36.2316 159.125 36.0928C159.125 35.9683 159.25 35.9053 159.5 35.9053H159.875V34.7181C159.875 33.7461 159.841 33.5308 159.687 33.5308C159.54 33.5308 159.5 33.3568 159.5 32.7178C159.5 32.0788 159.46 31.9056 159.312 31.9056C159.167 31.9056 159.125 31.7391 159.125 31.1556V30.4056H158.375C157.792 30.4056 157.625 30.4476 157.625 30.5931C157.625 30.7408 157.452 30.7806 156.813 30.7806C156.174 30.7806 156 30.7408 156 30.5931C156 30.4896 155.916 30.4056 155.813 30.4056C155.652 30.4056 155.625 30.0163 155.625 27.6553V24.9058H157.188H158.75V22.3431V19.7803H157.19H155.631L155.596 17.2491L155.562 14.7178L152.367 14.6848C150.609 14.6661 149.133 14.6901 149.085 14.7366ZM137.625 19.5928C137.625 19.7406 137.451 19.7803 136.812 19.7803C136.173 19.7803 136 19.8208 136 19.9678C136 20.0931 135.875 20.1553 135.625 20.1553C135.375 20.1553 135.25 20.2183 135.25 20.3428C135.25 20.4478 135.139 20.5303 134.999 20.5303C134.861 20.5303 134.652 20.6428 134.534 20.7808C134.416 20.9181 134.247 21.0306 134.16 21.0306C134.072 21.0306 134 21.1146 134 21.2181C134 21.3208 133.916 21.4056 133.812 21.4056C133.71 21.4056 133.625 21.4896 133.625 21.5931C133.625 21.6958 133.541 21.7806 133.437 21.7806C133.335 21.7806 133.25 21.8586 133.25 21.9546C133.25 22.0506 133.166 22.1616 133.062 22.2006C132.96 22.2403 132.875 22.4091 132.875 22.5756C132.875 22.7428 132.791 22.9116 132.687 22.9506C132.531 23.0113 132.5 23.3953 132.5 25.3393C132.5 27.3148 132.528 27.6553 132.687 27.6553C132.791 27.6553 132.875 27.7401 132.875 27.8428C132.875 27.9463 132.96 28.0303 133.062 28.0303C133.166 28.0303 133.25 28.1151 133.25 28.2178C133.25 28.3213 133.335 28.4053 133.437 28.4053C133.541 28.4053 133.625 28.4901 133.625 28.5928C133.625 28.6963 133.71 28.7803 133.812 28.7803C133.916 28.7803 134 28.8651 134 28.9678C134 29.0976 134.13 29.1553 134.423 29.1553C134.741 29.1553 134.862 29.2176 134.911 29.4058C134.955 29.5708 135.082 29.6556 135.288 29.6556C135.459 29.6556 135.631 29.7396 135.67 29.8431C135.718 29.9668 135.914 30.0306 136.246 30.0306C136.611 30.0306 136.75 30.0823 136.75 30.2181C136.75 30.3598 136.903 30.4056 137.375 30.4056C137.847 30.4056 138 30.4513 138 30.5931C138 30.7318 138.146 30.7806 138.563 30.7806C138.979 30.7806 139.125 30.8293 139.125 30.9681C139.125 31.0933 139.251 31.1556 139.504 31.1556C139.725 31.1556 139.913 31.2336 139.955 31.3431C139.995 31.4458 140.105 31.5306 140.201 31.5306C140.297 31.5306 140.375 31.6146 140.375 31.7181C140.375 31.8688 140.182 31.9056 139.389 31.9056C138.627 31.9056 138.385 31.8628 138.33 31.7181C138.281 31.5898 138.08 31.5306 137.691 31.5306C137.271 31.5306 137.125 31.4818 137.125 31.3431C137.125 31.2178 137 31.1556 136.75 31.1556C136.5 31.1556 136.375 31.0933 136.375 30.9681C136.375 30.8428 136.25 30.7806 136 30.7806C135.75 30.7806 135.625 30.7183 135.625 30.5931C135.625 30.4896 135.547 30.4056 135.451 30.4056C135.355 30.4056 135.244 30.3208 135.205 30.2181C135.156 30.0898 134.955 30.0306 134.567 30.0306C134.146 30.0306 134 30.0793 134 30.2181C134 30.3208 133.916 30.4056 133.812 30.4056C133.71 30.4056 133.625 30.4836 133.625 30.5796C133.625 30.6756 133.541 30.7866 133.437 30.8256C133.335 30.8653 133.25 31.0341 133.25 31.2006C133.25 31.3678 133.166 31.5366 133.062 31.5756C132.953 31.6176 132.875 31.8051 132.875 32.0263C132.875 32.2798 132.813 32.4058 132.687 32.4058C132.563 32.4058 132.5 32.5303 132.5 32.7808C132.5 33.0306 132.438 33.1558 132.312 33.1558C132.167 33.1558 132.125 33.3223 132.125 33.9058V34.6558H132.5C132.75 34.6558 132.875 34.7181 132.875 34.8433C132.875 34.9461 132.96 35.0308 133.062 35.0308C133.166 35.0308 133.25 35.1163 133.25 35.2213C133.25 35.3323 133.404 35.4426 133.617 35.4853C133.819 35.5258 134.014 35.6368 134.051 35.7321C134.088 35.8273 134.288 35.9053 134.496 35.9053C134.75 35.9053 134.875 35.9676 134.875 36.0928C134.875 36.2323 135.021 36.2803 135.438 36.2803C135.855 36.2803 136 36.3291 136 36.4678C136 36.6193 136.194 36.6553 137 36.6553C137.805 36.6553 138 36.6921 138 36.8428C138 37.0018 138.299 37.0303 139.938 37.0303C141.576 37.0303 141.875 37.0018 141.875 36.8428C141.875 36.6973 142.042 36.6553 142.629 36.6553C143.184 36.6553 143.402 36.6058 143.455 36.4678C143.496 36.3613 143.682 36.2803 143.889 36.2803C144.126 36.2803 144.25 36.2166 144.25 36.0928C144.25 35.9683 144.375 35.9053 144.625 35.9053C144.875 35.9053 145 35.8431 145 35.7178C145 35.6151 145.084 35.5303 145.188 35.5303C145.292 35.5303 145.375 35.4193 145.375 35.2806C145.375 35.1418 145.458 35.0308 145.563 35.0308C145.665 35.0308 145.75 34.9461 145.75 34.8433C145.75 34.7398 145.821 34.6543 145.906 34.6536C146.22 34.6491 146.625 34.0671 146.625 33.6201C146.625 33.3463 146.695 33.1551 146.813 33.1101C146.968 33.0508 147 32.7141 147 31.1593C147 29.5723 146.971 29.2806 146.813 29.2806C146.699 29.2806 146.625 29.1643 146.625 28.9866C146.625 28.6851 146.116 28.0303 145.881 28.0303C145.809 28.0303 145.75 27.9463 145.75 27.8428C145.75 27.7401 145.665 27.6553 145.563 27.6553C145.459 27.6553 145.375 27.5713 145.375 27.4678C145.375 27.3433 145.25 27.2803 145 27.2803C144.75 27.2803 144.625 27.2181 144.625 27.0928C144.625 26.9683 144.5 26.9053 144.25 26.9053C144 26.9053 143.875 26.8431 143.875 26.7178C143.875 26.5971 143.753 26.5303 143.532 26.5288C142.996 26.5266 142.625 26.3931 142.625 26.2033C142.625 26.0826 142.46 26.0308 142.076 26.0308C141.703 26.0308 141.504 25.9701 141.455 25.8433C141.402 25.7053 141.184 25.6558 140.629 25.6558C140.042 25.6558 139.875 25.6138 139.875 25.4683C139.875 25.3431 139.75 25.2808 139.5 25.2808C139.25 25.2808 139.125 25.2178 139.125 25.0933C139.125 24.9898 139.041 24.9058 138.938 24.9058C138.598 24.9058 138.738 24.5488 139.094 24.5076C139.82 24.4243 140.75 24.5488 140.75 24.7296C140.75 24.8421 140.886 24.9058 141.125 24.9058C141.375 24.9058 141.5 24.9681 141.5 25.0933C141.5 25.2178 141.625 25.2808 141.875 25.2808C142.125 25.2808 142.25 25.3431 142.25 25.4683C142.25 25.5936 142.376 25.6558 142.629 25.6558C142.851 25.6558 143.038 25.7338 143.08 25.8433C143.236 26.2498 144.25 26.0871 144.25 25.6558C144.25 25.4053 144.312 25.2808 144.438 25.2808C144.54 25.2808 144.625 25.2021 144.625 25.1061C144.625 25.0108 144.709 24.8998 144.813 24.8601C144.915 24.8211 145 24.6463 145 24.4723C145 24.2743 145.071 24.1558 145.188 24.1558C145.292 24.1558 145.375 24.0448 145.375 23.9053C145.375 23.7666 145.458 23.6556 145.563 23.6556C145.686 23.6556 145.75 23.5318 145.75 23.2948C145.75 23.0398 145.823 22.9153 146 22.8696C146.199 22.8171 146.25 22.6986 146.25 22.2921C146.25 21.8638 146.209 21.7806 146 21.7806C145.861 21.7806 145.75 21.6973 145.75 21.5931C145.75 21.4896 145.665 21.4056 145.563 21.4056C145.459 21.4056 145.375 21.3208 145.375 21.2181C145.375 21.1146 145.29 21.0306 145.188 21.0306C145.084 21.0306 145 20.9526 145 20.8566C145 20.7613 144.852 20.6458 144.672 20.6008C144.492 20.5551 144.264 20.4366 144.164 20.3368C144.064 20.2371 143.761 20.1553 143.491 20.1553C143.138 20.1553 143 20.1028 143 19.9678C143 19.8223 142.835 19.7803 142.263 19.7803C141.724 19.7803 141.507 19.7301 141.455 19.5928C141.396 19.4376 141.059 19.4053 139.504 19.4053C137.917 19.4053 137.625 19.4346 137.625 19.5928ZM113.25 26.2221C113.25 31.8321 113.274 32.6728 113.438 32.7351C113.575 32.7883 113.625 33.0043 113.625 33.5436C113.625 34.1151 113.667 34.2808 113.813 34.2808C113.93 34.2808 114 34.3993 114 34.5973C114 34.7713 114.082 34.9453 114.183 34.9836C114.283 35.0218 114.399 35.1613 114.441 35.2918C114.483 35.4231 114.597 35.5303 114.696 35.5303C114.795 35.5303 114.875 35.6151 114.875 35.7178C114.875 35.8213 114.96 35.9053 115.062 35.9053C115.166 35.9053 115.25 35.9901 115.25 36.0928C115.25 36.2181 115.375 36.2803 115.625 36.2803C115.875 36.2803 116 36.3433 116 36.4678C116 36.6066 116.145 36.6553 116.55 36.6553C116.922 36.6553 117.121 36.7161 117.171 36.8428C117.229 36.9966 117.544 37.0303 118.92 37.0303C120.297 37.0303 120.612 36.9966 120.67 36.8428C120.723 36.7048 120.942 36.6553 121.496 36.6553C122.083 36.6553 122.25 36.6141 122.25 36.4678C122.25 36.3433 122.375 36.2803 122.625 36.2803C122.875 36.2803 123 36.2181 123 36.0928C123 35.9721 123.123 35.9046 123.344 35.9031C123.685 35.9016 124.25 35.4433 124.25 35.1696C124.25 35.0931 124.419 35.0308 124.625 35.0308C124.959 35.0308 125 35.0721 125 35.4096C125 35.6308 125.078 35.8183 125.187 35.8603C125.291 35.9001 125.375 36.0103 125.375 36.1063C125.375 36.2023 125.461 36.2803 125.567 36.2803C125.672 36.2803 125.79 36.3651 125.83 36.4678C125.879 36.5953 126.078 36.6553 126.451 36.6553C126.856 36.6553 127 36.7048 127 36.8428C127 36.9996 127.257 37.0303 128.562 37.0303C129.868 37.0303 130.125 36.9996 130.125 36.8428C130.125 36.7041 130.271 36.6553 130.688 36.6553H131.25V33.7183V30.7806H130.875C130.625 30.7806 130.5 30.7183 130.5 30.5931C130.5 30.4896 130.416 30.4056 130.313 30.4056C130.149 30.4056 130.125 29.7321 130.125 25.0933V19.7803H127H123.875V24.7183C123.875 29.0233 123.851 29.6556 123.687 29.6556C123.585 29.6556 123.5 29.7396 123.5 29.8431C123.5 29.9458 123.416 30.0306 123.312 30.0306C123.21 30.0306 123.125 30.1146 123.125 30.2181C123.125 30.3208 123.047 30.4056 122.951 30.4056C122.855 30.4056 122.745 30.4896 122.705 30.5931C122.665 30.6958 122.547 30.7806 122.442 30.7806C122.337 30.7806 122.25 30.8646 122.25 30.9681C122.25 31.1136 122.085 31.1556 121.513 31.1556C120.974 31.1556 120.758 31.1053 120.705 30.9681C120.666 30.8646 120.547 30.7806 120.441 30.7806C120.336 30.7806 120.25 30.6958 120.25 30.5931C120.25 30.4896 120.165 30.4056 120.063 30.4056C119.899 30.4056 119.875 29.7321 119.875 25.0933V19.7803H116.562H113.25V26.2221ZM103.875 20.3428C103.875 20.4463 103.959 20.5303 104.063 20.5303C104.167 20.5303 104.25 20.6413 104.25 20.7808C104.25 20.9196 104.334 21.0306 104.438 21.0306C104.59 21.0306 104.625 21.2391 104.625 22.1556C104.625 23.0721 104.59 23.2806 104.438 23.2806C104.334 23.2806 104.25 23.3916 104.25 23.5303C104.25 23.6698 104.167 23.7808 104.063 23.7808C103.959 23.7808 103.875 23.8648 103.875 23.9683C103.875 24.1258 103.59 24.1558 102.063 24.1558H100.25V22.1556V20.1553H102.063C103.59 20.1553 103.875 20.1853 103.875 20.3428ZM51.3455 20.6188C51.5007 20.6488 51.7257 20.6481 51.8457 20.6166C51.965 20.5851 51.8375 20.5611 51.563 20.5618C51.2877 20.5633 51.1902 20.5888 51.3455 20.6188ZM13.559 30.0838C14.2152 30.7146 14.2595 30.7926 14.1845 31.1916C14.1147 31.5628 14.141 31.6303 14.378 31.6926C14.7192 31.7818 14.6412 32.0788 14.2625 32.1343C14.054 32.1651 14.0037 32.2296 14.069 32.3841C14.2932 32.9151 14.2497 33.1056 13.784 33.6246C13.5215 33.9163 13.2447 34.1556 13.169 34.1556C13.0932 34.1556 12.9605 34.2396 12.875 34.3431C12.7632 34.4781 12.4715 34.5298 11.8287 34.5268L10.9377 34.5231L10.2125 33.8571C9.59673 33.2916 9.49848 33.1431 9.56523 32.8776C9.62748 32.6293 9.58998 32.5506 9.38448 32.4966C9.00873 32.3983 9.00498 31.4661 9.37998 31.3678C9.58548 31.3146 9.61923 31.2373 9.55248 30.9711C9.49023 30.7236 9.53598 30.5781 9.73473 30.3928C9.88098 30.2571 10.0002 30.0921 10.0002 30.0261C10.0002 29.9593 10.085 29.9053 10.1892 29.9053C10.2927 29.9053 10.4742 29.7928 10.592 29.6556C10.7735 29.4433 10.9602 29.4058 11.8295 29.4058H12.8525L13.559 30.0838ZM71.585 29.6413C71.6255 29.7958 71.7252 29.8558 71.8737 29.8168C72.2495 29.7186 73.2147 30.7333 73.0287 31.0318C72.9042 31.2306 72.9237 31.2703 73.1607 31.3033C73.565 31.3611 73.6355 32.4943 73.256 32.8378C73.115 32.9653 73.0002 33.1723 73.0002 33.2991C73.0002 33.5428 72.5307 34.1556 72.344 34.1556C72.2825 34.1556 72.143 34.2448 72.0335 34.3543C71.888 34.4998 71.7297 34.5283 71.4485 34.4601C70.982 34.3476 70.5552 34.3513 70.088 34.4713C69.494 34.6251 68.2332 33.2901 68.4005 32.6848C68.4665 32.4441 68.486 31.9318 68.4425 31.5456C68.3555 30.7641 69.077 29.6391 69.5487 29.8206C69.6717 29.8678 69.7962 29.8041 69.878 29.6511C70.0685 29.2941 71.4927 29.2858 71.585 29.6413ZM20.9442 29.9166C20.9907 29.9916 20.966 30.1153 20.8895 30.1918C20.7897 30.2908 20.75 32.9983 20.75 39.7431V49.1556H16.6325C14.0225 49.1556 12.4865 49.2013 12.4377 49.2808C12.1602 49.7301 11.8422 49.3941 11.9202 48.7326C11.9922 48.1161 11.9765 48.0538 11.7305 47.9893C11.4762 47.9226 11.4657 47.8678 11.5385 46.9258C11.6082 46.0221 11.594 45.9268 11.3802 45.8706C11.0607 45.7873 10.9392 44.9173 11.1147 43.9686C11.2745 43.1031 11.2917 38.9211 11.1372 38.2588C11.0112 37.7151 11.165 37.4758 11.5197 37.6656C11.7065 37.7661 11.75 37.7443 11.75 37.5486C11.75 37.2538 12.095 37.1001 12.3267 37.2921C12.4595 37.4023 12.524 37.3603 12.6252 37.0933C12.7295 36.8188 12.8097 36.7686 13.0505 36.8286C13.2815 36.8871 13.3617 36.8451 13.4157 36.6388C13.4712 36.4281 13.5485 36.3906 13.7997 36.4536C14.0382 36.5136 14.1477 36.4716 14.2497 36.2818C14.3435 36.1071 14.5115 36.0306 14.804 36.0306C15.0755 36.0306 15.251 35.9593 15.3012 35.8281C15.359 35.6773 15.476 35.6443 15.752 35.6998C16.0137 35.7523 16.1255 35.7253 16.1255 35.6113C16.1255 35.5213 16.3782 35.2663 16.6872 35.0443C16.9962 34.8223 17.3075 34.5313 17.3795 34.3978C17.4507 34.2651 17.5872 34.1556 17.6832 34.1556C17.8107 34.1556 17.8527 33.9958 17.8385 33.5616C17.828 33.2353 17.867 32.8671 17.9255 32.7441C17.984 32.6188 17.9825 32.5288 17.9217 32.5401C17.5265 32.6128 17.375 32.5101 17.375 32.1688C17.375 31.9626 17.2947 31.7766 17.1875 31.7353C17.0847 31.6956 17 31.5156 17 31.3356C17 31.1548 16.8875 30.8646 16.7502 30.6898C16.499 30.3703 16.4285 30.0193 16.5837 29.8641C16.73 29.7178 20.852 29.7673 20.9442 29.9166ZM40.028 30.3606C42.866 30.3328 45.4497 30.2698 45.7692 30.2211C46.2905 30.1416 46.3595 30.1596 46.4337 30.3943C46.4885 30.5653 46.6227 30.6553 46.8215 30.6553C46.9887 30.6553 47.1252 30.7116 47.1252 30.7806C47.1252 30.8496 47.1882 30.9058 47.2647 30.9058C47.4807 30.9058 48.3755 31.8508 48.3755 32.0781C48.3755 32.1898 48.3192 32.2806 48.2502 32.2806C48.1812 32.2806 48.125 32.3271 48.125 32.3841C48.125 32.4411 48.2517 32.4838 48.4062 32.4778C48.767 32.4651 48.9155 33.7251 48.569 33.8578C48.4625 33.8991 48.3755 34.0273 48.3755 34.1428C48.3755 34.4293 47.4582 35.2806 47.15 35.2806C47.0135 35.2806 46.868 35.3698 46.826 35.4793C46.7675 35.6316 46.6355 35.6616 46.2552 35.6083C45.8577 35.5528 45.7752 35.5746 45.8307 35.7208C45.9777 36.1026 45.2592 36.1558 39.971 36.1558C35.2482 36.1558 34.6842 36.1341 34.4787 35.9488C34.271 35.7606 34.25 35.4988 34.25 33.0321C34.25 30.1971 34.2657 30.0883 34.6385 30.2878C34.784 30.3651 36.7745 30.3921 40.028 30.3606ZM177.611 46.6866C177.603 48.7663 177.57 50.3698 177.539 50.2491C177.507 50.1291 177.402 50.0308 177.303 50.0308C177.205 50.0308 177.125 49.9461 177.125 49.8433C177.125 49.7196 177.002 49.6558 176.765 49.6558C176.509 49.6558 176.385 49.5823 176.339 49.4053C176.295 49.2403 176.169 49.1556 175.962 49.1556C175.791 49.1556 175.62 49.0716 175.58 48.9681C175.519 48.8106 175.121 48.7806 173.063 48.7806C171.004 48.7806 170.606 48.8106 170.545 48.9681C170.505 49.0723 170.319 49.1556 170.127 49.1556C169.884 49.1556 169.759 49.2313 169.714 49.4053C169.67 49.5748 169.543 49.6558 169.324 49.6558C169.119 49.6558 169 49.7248 169 49.8433C169 49.9476 168.889 50.0308 168.75 50.0308C168.611 50.0308 168.5 50.1141 168.5 50.2183C168.5 50.3211 168.416 50.4058 168.312 50.4058C168.21 50.4058 168.125 50.4898 168.125 50.5933C168.125 50.6961 168.041 50.7808 167.937 50.7808C167.835 50.7808 167.75 50.8648 167.75 50.9683C167.75 51.0711 167.666 51.1558 167.562 51.1558C167.46 51.1558 167.375 51.2338 167.375 51.3298C167.375 51.4258 167.291 51.5361 167.187 51.5758C167.085 51.6156 167 51.7918 167 51.9681C167 52.1443 166.916 52.3206 166.812 52.3603C166.706 52.4016 166.625 52.5876 166.625 52.7938C166.625 53.0323 166.561 53.1553 166.437 53.1553C166.299 53.1553 166.25 53.3016 166.25 53.7178C166.25 54.1123 166.199 54.2803 166.078 54.2803C165.642 54.2803 165.565 60.0058 166 60.1191C166.203 60.1723 166.25 60.2901 166.25 60.7363C166.25 61.1121 166.31 61.3116 166.437 61.3603C166.545 61.4016 166.625 61.5876 166.625 61.7938C166.625 62.0323 166.689 62.1553 166.812 62.1553C166.938 62.1553 167 62.2806 167 62.5303C167 62.7808 167.063 62.9053 167.187 62.9053C167.291 62.9053 167.375 62.9901 167.375 63.0928C167.375 63.1963 167.46 63.2803 167.562 63.2803C167.688 63.2803 167.75 63.4056 167.75 63.6553C167.75 63.9853 167.793 64.0303 168.111 64.0303C168.366 64.0303 168.49 64.1038 168.537 64.2808C168.573 64.4181 168.691 64.5306 168.801 64.5306C168.91 64.5306 169 64.6146 169 64.7181C169 64.8216 169.084 64.9056 169.188 64.9056C169.29 64.9056 169.375 64.9896 169.375 65.0931C169.375 65.2183 169.5 65.2806 169.75 65.2806C170 65.2806 170.125 65.3428 170.125 65.4681C170.125 65.6061 170.269 65.6556 170.674 65.6556C171.047 65.6556 171.246 65.7156 171.295 65.8431C171.356 66.0006 171.74 66.0306 173.684 66.0306C175.659 66.0306 176 66.0028 176 65.8431C176 65.7178 176.125 65.6556 176.375 65.6556C176.625 65.6556 176.75 65.5933 176.75 65.4681C176.75 65.3428 176.876 65.2806 177.129 65.2806C177.351 65.2806 177.538 65.2026 177.58 65.0931C177.619 64.9896 177.73 64.9056 177.826 64.9056C177.922 64.9056 178 64.8216 178 64.7181C178 64.6146 178.084 64.5306 178.188 64.5306C178.292 64.5306 178.375 64.4196 178.375 64.2808C178.375 64.1413 178.458 64.0303 178.563 64.0303C178.688 64.0303 178.75 64.1563 178.75 64.4098C178.75 64.6311 178.828 64.8186 178.938 64.8606C179.04 64.8996 179.125 65.0106 179.125 65.1066C179.125 65.2026 179.209 65.2806 179.313 65.2806C179.415 65.2806 179.5 65.3646 179.5 65.4681C179.5 65.5993 179.632 65.6556 179.937 65.6556C180.243 65.6556 180.375 65.7118 180.375 65.8431C180.375 66.0028 180.715 66.0306 182.688 66.0306C184.66 66.0306 185 66.0028 185 65.8431C185 65.7396 185.085 65.6556 185.187 65.6556C185.349 65.6556 185.375 65.2663 185.375 62.9053V60.1558H185C184.75 60.1558 184.625 60.0928 184.625 59.9683C184.625 59.8648 184.541 59.7808 184.437 59.7808C184.273 59.7808 184.25 58.7601 184.25 51.3433V42.9058H180.938H177.625L177.611 46.6866ZM218 45.6553V48.4056H221.125H224.25V45.6553V42.9058H221.125H218V45.6553ZM93.6252 54.4671V65.6556H96.938H100.25V61.7181V57.7806H103.812H107.375V55.0303V52.2808H103.812H100.25V50.7178V49.1556H104.815H109.38L109.346 46.2493L109.313 43.3431L101.469 43.3108L93.6252 43.2786V54.4671ZM43.229 44.2588C43.2597 44.4771 43.3227 44.5273 43.4787 44.4598C43.9572 44.2543 44.372 44.2521 44.45 44.4538C44.492 44.5648 44.6405 44.6556 44.78 44.6556C45.0912 44.6556 46.7502 46.3296 46.7502 46.6446C46.7502 46.7668 46.8665 47.0016 47.009 47.1651C47.1972 47.3833 47.2482 47.5663 47.1957 47.8438C47.1417 48.1333 47.1875 48.2781 47.3877 48.4498C47.651 48.6748 47.6607 48.9096 47.435 49.6243C47.3622 49.8546 47.3937 49.9056 47.6082 49.9056C48.014 49.9056 48.1325 50.8378 47.819 51.5608C47.7522 51.7146 47.7927 51.8038 47.9562 51.8638C48.371 52.0176 48.551 52.9348 48.257 53.3983C48.1745 53.5288 48.2187 53.6166 48.4152 53.7141C48.6132 53.8123 48.6987 53.9848 48.728 54.3456C48.7505 54.6193 48.8487 54.8878 48.947 54.9433C49.0452 54.9981 49.1255 55.1751 49.1255 55.3356C49.1255 55.4968 49.2095 55.6611 49.313 55.7008C49.4157 55.7406 49.5005 55.8853 49.5005 56.0226C49.5005 56.1598 49.613 56.3323 49.7502 56.4058C49.8875 56.4793 50 56.6496 50 56.7853C50 56.9203 50.0472 57.0306 50.105 57.0306C50.1627 57.0306 50.2745 57.1716 50.3525 57.3433C50.4305 57.5151 50.5685 57.6553 50.6585 57.6553C50.7485 57.6553 51.0897 57.9088 51.4175 58.2178L52.013 58.7803H57.6215C63.497 58.7803 63.6252 58.7886 63.6252 59.1688C63.6252 59.4531 65.3277 59.5281 65.6 59.2558C65.7125 59.1433 65.786 59.1411 65.8932 59.2483C66.0005 59.3556 65.876 59.5551 65.393 60.0486C65.0397 60.4093 64.7502 60.7491 64.7502 60.8023C64.7502 61.1443 63.3462 62.3316 63.1917 62.1201C63.059 61.9378 63.0177 61.9303 62.9607 62.0773C62.7927 62.5153 61.625 62.4591 61.625 62.0136C61.625 61.8366 61.562 61.7811 61.4067 61.8231C60.4032 62.0953 59.75 62.0353 59.75 61.6723C59.75 61.4796 59.5925 61.4638 58.094 61.5103L56.4387 61.5621L56.0045 61.9836C55.7652 62.2161 55.5372 62.4058 55.4967 62.4058C55.4562 62.4058 55.4232 62.6908 55.4232 63.0396C55.4232 63.6441 55.229 63.9846 54.9747 63.8278C54.845 63.7476 54.8487 63.8151 55.0077 64.4466C55.1772 65.1201 54.9897 65.7148 54.6372 65.6226C54.4272 65.5678 54.416 65.6046 54.5217 65.9878C54.722 66.7131 54.6087 67.4466 54.2855 67.5253C54.074 67.5771 54.0365 67.6378 54.1272 67.7803C54.362 68.1493 54.2652 68.6173 53.9067 68.8483C53.7177 68.9706 53.5175 69.1453 53.4627 69.2376C53.408 69.3298 53.1747 69.4056 52.9452 69.4056C52.6887 69.4056 52.499 69.4783 52.4547 69.5931C52.3655 69.8256 51.4955 69.8488 51.2645 69.6246C51.1347 69.4978 51.1115 69.5278 51.146 69.7806C51.1857 70.0761 51.155 70.0933 50.5925 70.0933C50.1192 70.0933 49.9812 70.1413 49.9227 70.3273C49.859 70.5283 49.7615 70.5516 49.2432 70.4908C48.7505 70.4323 48.6507 70.4518 48.707 70.5981C48.8532 70.9798 47.9622 71.1043 47.0315 70.8336C46.8237 70.7728 46.7502 70.8028 46.7502 70.9491C46.7502 71.3038 46.2762 71.4373 45.3275 71.3496C42.7452 71.1111 42.8997 71.1058 42.854 71.4268C42.8142 71.7066 42.764 71.7193 41.5812 71.7538C40.313 71.7913 39.9177 71.6758 40.0587 71.3091C40.1315 71.1201 39.8495 71.1253 37.661 71.3541C36.7677 71.4471 36.2502 71.3533 36.2502 71.0983C36.2502 70.8126 36.0267 70.7526 35.552 70.9093C34.9512 71.1073 34.25 70.9708 34.25 70.6558C34.25 70.4428 34.1825 70.4256 33.6252 70.4916C33.0597 70.5583 33.0005 70.5418 33.0005 70.3161C33.0005 70.0918 32.9367 70.0731 32.357 70.1293C31.718 70.1908 31.715 70.1886 31.7772 69.8608C31.8125 69.6793 31.7922 69.5308 31.733 69.5308C31.6737 69.5308 31.625 69.5871 31.625 69.6553C31.625 69.8638 30.6275 69.8061 30.5457 69.5931C30.5015 69.4776 30.3117 69.4056 30.0537 69.4056C29.765 69.4056 29.5932 69.3291 29.5025 69.1603C29.423 69.0103 29.2962 68.9436 29.1785 68.9893C28.9325 69.0831 28.2567 68.4516 28.3062 68.1726C28.3257 68.0601 28.3805 67.7571 28.427 67.4991C28.5012 67.0858 28.4825 67.0303 28.2612 67.0303C27.9462 67.0303 27.7752 66.2871 27.9845 65.8273C28.1915 65.3736 28.157 65.1553 27.878 65.1553C27.4827 65.1553 27.389 64.4548 27.6882 63.7416C27.7595 63.5721 27.716 63.4986 27.515 63.4453C27.2375 63.3733 27.0387 62.8971 27.1865 62.6578C27.2735 62.5161 26.3457 61.5306 26.1252 61.5306C26.0562 61.5306 26 61.4023 26 61.2448C26 60.9801 25.9422 60.9576 25.1877 60.9306C24.3837 60.9013 24.3755 60.9043 24.3755 61.2336V61.5666L23.375 61.4976C22.5597 61.4421 22.3752 61.4623 22.3752 61.6078C22.3752 61.9078 21.761 62.0631 21.1662 61.9131C20.4987 61.7451 20.5002 61.7451 20.5002 61.9633C20.5002 62.1643 20.1297 62.4058 19.8207 62.4058C19.5845 62.4058 18.125 61.0348 18.125 60.8128C18.125 60.7266 18.0725 60.6553 18.0087 60.6553C17.9442 60.6553 17.8535 60.5338 17.8062 60.3846C17.759 60.2361 17.558 59.9781 17.36 59.8116C17.162 59.6443 17 59.4291 17 59.3323C17 59.1306 17.3217 59.0923 17.438 59.2806C17.5715 59.4966 21.0072 59.4441 20.924 59.2273C20.759 58.7983 21.23 58.7788 31.5792 58.7818C38.6615 58.7841 41.8362 58.7443 41.9285 58.6521C42.0897 58.4916 42.1947 52.5643 42.0672 50.8603L41.9817 49.7181L38.3037 49.7593C34.6827 49.7998 34.625 49.7961 34.625 49.5478C34.625 49.4091 34.6812 49.2606 34.7502 49.2178C34.826 49.1713 34.8755 48.2398 34.8755 46.8433C34.8755 45.4461 34.826 44.5153 34.7502 44.4681C34.6812 44.4253 34.625 44.2806 34.625 44.1463C34.625 43.9086 34.7307 43.9033 38.9067 43.9348L43.1877 43.9678L43.229 44.2588ZM206.25 46.4631V48.7708L205.094 48.8068L203.937 48.8428L203.904 51.5616L203.87 54.2803H205.06H206.25V58.9678C206.25 63.0516 206.274 63.6553 206.438 63.6553C206.561 63.6553 206.625 63.7791 206.625 64.0176C206.625 64.2231 206.706 64.4098 206.813 64.4511C206.916 64.4901 207 64.6086 207 64.7143C207 64.8193 207.084 64.9056 207.188 64.9056C207.291 64.9056 207.375 64.9896 207.375 65.0931C207.375 65.1966 207.453 65.2806 207.549 65.2806C207.645 65.2806 207.756 65.3646 207.795 65.4681C207.845 65.5963 208.046 65.6556 208.434 65.6556C208.854 65.6556 209 65.7043 209 65.8431C209 66.0036 209.361 66.0306 211.5 66.0306C213.639 66.0306 214 66.0036 214 65.8431C214 65.6968 214.167 65.6556 214.754 65.6556C215.309 65.6556 215.527 65.6061 215.58 65.4681C215.621 65.3608 215.808 65.2806 216.013 65.2806C216.252 65.2806 216.375 65.2168 216.375 65.0931C216.375 64.9896 216.459 64.9056 216.563 64.9056C216.716 64.9056 216.75 64.6903 216.75 63.7183C216.75 62.7456 216.716 62.5303 216.563 62.5303C216.417 62.5303 216.375 62.3638 216.375 61.7766C216.375 61.2216 216.326 61.0041 216.188 60.9508C216.051 60.8983 216 60.6816 216 60.1423V59.4058H215.438C215.038 59.4058 214.875 59.4561 214.875 59.5813C214.875 59.7006 214.687 59.7703 214.281 59.7996C213.375 59.8656 212.875 59.7898 212.875 59.5851C212.875 59.4861 212.79 59.4058 212.688 59.4058C212.527 59.4058 212.5 59.0376 212.5 56.8431V54.2803H214.062H215.625V51.5308V48.7806H214.062H212.5V46.4683V44.1553H209.375H206.25V46.4631ZM114.546 48.9681C114.504 49.0738 114.318 49.1556 114.118 49.1556C113.922 49.1556 113.713 49.2441 113.652 49.3521C113.592 49.4601 113.308 49.5801 113.022 49.6183C112.698 49.6618 112.5 49.7533 112.5 49.8598C112.5 49.9536 112.416 50.0308 112.313 50.0308C112.209 50.0308 112.125 50.1148 112.125 50.2183C112.125 50.3346 112.008 50.4058 111.816 50.4058C111.425 50.4058 110.125 51.6306 110.125 51.9981C110.125 52.1391 110.04 52.2861 109.938 52.3258C109.828 52.3678 109.75 52.5553 109.75 52.7766C109.75 53.0301 109.688 53.1553 109.563 53.1553C109.437 53.1553 109.375 53.2806 109.375 53.5303C109.375 53.7808 109.313 53.9053 109.188 53.9053C109.05 53.9053 109 54.0478 109 54.4378C109 54.8353 108.936 55.0101 108.75 55.1263C108.321 55.3948 108.393 59.7808 108.827 59.7808C108.949 59.7808 109 59.9473 109 60.3433C109 60.7596 109.049 60.9058 109.188 60.9058C109.319 60.9058 109.375 61.0378 109.375 61.3431C109.375 61.6483 109.431 61.7803 109.563 61.7803C109.688 61.7803 109.75 61.9056 109.75 62.1553C109.75 62.4058 109.812 62.5303 109.938 62.5303C110.04 62.5303 110.125 62.6151 110.125 62.7178C110.125 62.8213 110.209 62.9053 110.313 62.9053C110.415 62.9053 110.5 62.9901 110.5 63.0928C110.5 63.1963 110.584 63.2803 110.688 63.2803C110.79 63.2803 110.875 63.3651 110.875 63.4678C110.875 63.5713 110.959 63.6553 111.063 63.6553C111.165 63.6553 111.25 63.7401 111.25 63.8428C111.25 63.9471 111.361 64.0303 111.5 64.0303C111.667 64.0303 111.75 64.1136 111.75 64.2808C111.75 64.4196 111.834 64.5306 111.938 64.5306C112.041 64.5306 112.125 64.6146 112.125 64.7181C112.125 64.8433 112.25 64.9056 112.5 64.9056C112.75 64.9056 112.875 64.9678 112.875 65.0931C112.875 65.2183 113 65.2806 113.25 65.2806C113.5 65.2806 113.625 65.3428 113.625 65.4681C113.625 65.6098 113.778 65.6556 114.25 65.6556C114.723 65.6556 114.875 65.7013 114.875 65.8431C114.875 66.0036 115.257 66.0306 117.563 66.0306C119.868 66.0306 120.25 66.0036 120.25 65.8431C120.25 65.6968 120.417 65.6556 121.004 65.6556C121.559 65.6556 121.777 65.6061 121.83 65.4681C121.871 65.3608 122.058 65.2806 122.263 65.2806C122.502 65.2806 122.625 65.2168 122.625 65.0931C122.625 64.9776 122.742 64.9056 122.931 64.9056C123.1 64.9056 123.282 64.8313 123.338 64.7398C123.393 64.6491 123.536 64.5381 123.657 64.4938C123.777 64.4496 123.875 64.3273 123.875 64.2223C123.875 64.1166 123.96 64.0303 124.062 64.0303C124.166 64.0303 124.25 63.9463 124.25 63.8428C124.25 63.7401 124.335 63.6553 124.437 63.6553C124.541 63.6553 124.625 63.5713 124.625 63.4678C124.625 63.3651 124.71 63.2803 124.812 63.2803C124.916 63.2803 125 63.1963 125 63.0928C125 62.9901 125.085 62.9053 125.187 62.9053C125.291 62.9053 125.375 62.8213 125.375 62.7178C125.375 62.6151 125.46 62.5303 125.562 62.5303C125.688 62.5303 125.75 62.4058 125.75 62.1553C125.75 61.9108 125.814 61.7803 125.932 61.7803C126.04 61.7803 126.147 61.6071 126.194 61.3521C126.238 61.1158 126.354 60.8923 126.45 60.8556C126.57 60.8091 126.625 60.5766 126.625 60.1101C126.625 59.6233 126.678 59.4118 126.813 59.3601C126.968 59.3008 127 58.9641 127 57.4093C127 55.8223 126.971 55.5306 126.813 55.5306C126.666 55.5306 126.625 55.3633 126.625 54.7768C126.625 54.2218 126.576 54.0036 126.438 53.9511C126.334 53.9113 126.25 53.7388 126.25 53.5678C126.25 53.3623 126.165 53.2348 126 53.1921C125.823 53.1456 125.75 53.0211 125.75 52.7623C125.75 52.5538 125.67 52.3671 125.562 52.3258C125.46 52.2861 125.375 52.1758 125.375 52.0798C125.375 51.9838 125.291 51.9058 125.187 51.9058C125.085 51.9058 125 51.8211 125 51.7183C125 51.6148 124.92 51.5308 124.821 51.5308C124.719 51.5308 124.625 51.3838 124.602 51.1866C124.571 50.9166 124.489 50.8348 124.219 50.8033C124.022 50.7808 123.875 50.6871 123.875 50.5851C123.875 50.4861 123.797 50.4058 123.701 50.4058C123.605 50.4058 123.495 50.3211 123.455 50.2183C123.413 50.1088 123.225 50.0308 123.004 50.0308C122.766 50.0308 122.625 49.9671 122.625 49.8591C122.625 49.7638 122.457 49.6528 122.25 49.6116C122.03 49.5681 121.875 49.4578 121.875 49.3461C121.875 49.2043 121.735 49.1556 121.326 49.1556C120.953 49.1556 120.754 49.0956 120.705 48.9681C120.644 48.8083 120.183 48.7806 117.625 48.7806C115.067 48.7806 114.606 48.8083 114.546 48.9681ZM128.208 48.8638C128.013 49.0588 128.115 62.7846 128.313 62.8603C128.42 62.9016 128.5 63.0876 128.5 63.2938C128.5 63.5721 128.558 63.6553 128.75 63.6553C128.952 63.6553 129 63.7386 129 64.0933C129 64.3986 129.057 64.5306 129.188 64.5306C129.291 64.5306 129.375 64.6146 129.375 64.7181C129.375 64.8216 129.459 64.9056 129.563 64.9056C129.666 64.9056 129.75 64.9896 129.75 65.0931C129.75 65.2183 129.875 65.2806 130.125 65.2806C130.375 65.2806 130.5 65.3428 130.5 65.4681C130.5 65.5918 130.623 65.6556 130.862 65.6556C131.068 65.6556 131.254 65.7358 131.295 65.8431C131.355 66.0006 131.74 66.0306 133.683 66.0306C135.66 66.0306 136 66.0028 136 65.8431C136 65.7043 136.146 65.6556 136.563 65.6556C136.98 65.6556 137.125 65.6068 137.125 65.4681C137.125 65.3368 137.257 65.2806 137.562 65.2806C137.868 65.2806 138 65.2243 138 65.0931C138 64.9828 138.116 64.9048 138.282 64.9033C138.57 64.9011 139.125 64.4181 139.125 64.1691C139.125 64.0933 139.209 64.0303 139.313 64.0303C139.434 64.0303 139.501 64.1533 139.503 64.3746C139.504 64.7151 139.962 65.2806 140.236 65.2806C140.313 65.2806 140.375 65.3646 140.375 65.4681C140.375 65.5933 140.5 65.6556 140.75 65.6556C141 65.6556 141.125 65.7178 141.125 65.8431C141.125 66.0028 141.465 66.0306 143.438 66.0306C145.323 66.0306 145.75 65.9983 145.75 65.8573C145.75 65.7628 145.863 65.6556 146 65.6196C146.24 65.5566 146.25 65.4486 146.25 63.0523C146.25 60.2233 146.238 60.1558 145.737 60.1558C145.499 60.1558 145.375 60.0913 145.375 59.9683C145.375 59.8648 145.29 59.7808 145.188 59.7808C145.024 59.7808 145 59.0863 145 54.2803V48.7806H141.687H138.375V53.9053C138.375 58.3776 138.351 59.0308 138.188 59.0308C138.084 59.0308 138 59.1148 138 59.2183C138 59.3211 137.916 59.4058 137.813 59.4058C137.709 59.4058 137.625 59.4898 137.625 59.5933C137.625 59.6961 137.544 59.7808 137.444 59.7808C137.344 59.7808 137.214 59.8671 137.155 59.9721C136.828 60.5571 134.879 60.0996 134.874 59.4366C134.87 59.0166 134.72 58.6558 134.548 58.6558C134.403 58.6558 134.375 57.8383 134.375 53.7178V48.7806H131.334C129.66 48.7806 128.254 48.8181 128.208 48.8638ZM147.75 57.2181V65.6556H150.875H154V61.1556C154 57.2391 154.024 56.6556 154.188 56.6556C154.311 56.6556 154.375 56.5318 154.375 56.2948C154.375 56.0398 154.448 55.9153 154.625 55.8696C154.763 55.8336 154.875 55.7143 154.875 55.6048C154.875 55.4953 154.959 55.4053 155.063 55.4053C155.166 55.4053 155.25 55.3213 155.25 55.2178C155.25 55.1151 155.334 55.0303 155.438 55.0303C155.541 55.0303 155.625 54.9463 155.625 54.8428C155.625 54.6973 155.79 54.6553 156.362 54.6553C156.901 54.6553 157.118 54.7056 157.17 54.8428C157.21 54.9463 157.329 55.0303 157.434 55.0303C157.539 55.0303 157.625 55.1151 157.625 55.2178C157.625 55.3213 157.71 55.4053 157.812 55.4053C157.976 55.4053 158 56.0586 158 60.5308V65.6556H161.313H164.625V59.4058C164.625 53.9331 164.602 53.1553 164.438 53.1553C164.29 53.1553 164.25 52.9821 164.25 52.3431C164.25 51.7041 164.21 51.5308 164.063 51.5308C163.938 51.5308 163.875 51.4056 163.875 51.1558C163.875 50.9151 163.812 50.7808 163.698 50.7808C163.6 50.7808 163.483 50.6121 163.437 50.4058C163.392 50.1996 163.275 50.0308 163.178 50.0308C163.08 50.0308 163 49.9461 163 49.8433C163 49.7248 162.881 49.6558 162.676 49.6558C162.457 49.6558 162.33 49.5748 162.286 49.4053C162.25 49.2681 162.149 49.1556 162.061 49.1556C161.973 49.1556 161.869 49.0716 161.83 48.9681C161.769 48.8091 161.343 48.7806 159.066 48.7806C156.758 48.7806 156.375 48.8076 156.375 48.9681C156.375 49.1068 156.229 49.1556 155.813 49.1556C155.392 49.1556 155.25 49.2036 155.25 49.3461C155.25 49.4593 155.093 49.5681 154.864 49.6138C154.652 49.6566 154.449 49.7676 154.413 49.8606C154.377 49.9543 154.27 50.0308 154.174 50.0308C154.078 50.0308 154 50.1148 154 50.2183C154 50.3211 153.915 50.4058 153.813 50.4058C153.665 50.4058 153.625 50.2318 153.625 49.5928V48.7806H150.687H147.75V57.2181ZM190.875 48.9681C190.875 49.1113 190.719 49.1556 190.215 49.1556C189.711 49.1556 189.505 49.2141 189.342 49.4053C189.224 49.5433 188.986 49.6558 188.814 49.6558C188.619 49.6558 188.5 49.7263 188.5 49.8433C188.5 49.9678 188.375 50.0308 188.125 50.0308C187.875 50.0308 187.75 50.0931 187.75 50.2183C187.75 50.3428 187.625 50.4058 187.375 50.4058C187.125 50.4058 187 50.4681 187 50.5933C187 50.6961 186.915 50.7808 186.813 50.7808C186.687 50.7808 186.625 50.9053 186.625 51.1558C186.625 51.4056 186.687 51.5308 186.813 51.5308C186.951 51.5308 187 51.6763 187 52.0933C187 52.5096 187.049 52.6558 187.188 52.6558C187.319 52.6558 187.375 52.7878 187.375 53.0931C187.375 53.3983 187.431 53.5303 187.563 53.5303C187.688 53.5303 187.75 53.6556 187.75 53.9053C187.75 54.1558 187.812 54.2803 187.938 54.2803C188.063 54.2803 188.125 54.4056 188.125 54.6553C188.125 55.0221 188.139 55.0303 188.75 55.0303C189.222 55.0303 189.375 54.9846 189.375 54.8428C189.375 54.7183 189.5 54.6553 189.75 54.6553C190 54.6553 190.125 54.5931 190.125 54.4678C190.125 54.3433 190.25 54.2803 190.5 54.2803C190.75 54.2803 190.875 54.2181 190.875 54.0928C190.875 53.9683 191 53.9053 191.25 53.9053C191.5 53.9053 191.625 53.8431 191.625 53.7178C191.625 53.5603 191.91 53.5303 193.437 53.5303C194.965 53.5303 195.25 53.5603 195.25 53.7178C195.25 53.8213 195.334 53.9053 195.438 53.9053C195.54 53.9053 195.625 53.9901 195.625 54.0928C195.625 54.1963 195.709 54.2803 195.813 54.2803C195.938 54.2803 196 54.4056 196 54.6553C196 55.0536 195.711 55.1833 195.58 54.8428C195.519 54.6861 195.142 54.6553 193.25 54.6553C191.358 54.6553 190.98 54.6861 190.92 54.8428C190.872 54.9696 190.673 55.0303 190.309 55.0303C189.651 55.0303 189.375 55.1271 189.375 55.3566C189.375 55.4653 189.24 55.5306 189.013 55.5306C188.808 55.5306 188.621 55.6108 188.58 55.7181C188.541 55.8216 188.422 55.9056 188.316 55.9056C188.211 55.9056 188.125 55.9896 188.125 56.0931C188.125 56.1966 188.04 56.2806 187.938 56.2806C187.834 56.2806 187.75 56.3646 187.75 56.4681C187.75 56.5716 187.665 56.6556 187.563 56.6556C187.459 56.6556 187.375 56.7396 187.375 56.8431C187.375 56.9466 187.29 57.0306 187.188 57.0306C187.084 57.0306 187 57.1146 187 57.2181C187 57.3216 186.915 57.4056 186.813 57.4056C186.689 57.4056 186.625 57.5293 186.625 57.7671C186.625 57.9733 186.545 58.1601 186.438 58.2006C186.31 58.2493 186.25 58.4496 186.25 58.8246C186.25 59.2716 186.203 59.3886 186 59.4418C185.589 59.5498 185.662 61.7803 186.077 61.7803C186.199 61.7803 186.25 61.9476 186.25 62.3428C186.25 62.7598 186.299 62.9053 186.438 62.9053C186.563 62.9053 186.625 63.0306 186.625 63.2803C186.625 63.5308 186.687 63.6553 186.813 63.6553C186.915 63.6553 187 63.7401 187 63.8428C187 63.9463 187.084 64.0303 187.188 64.0303C187.292 64.0303 187.375 64.1413 187.375 64.2808C187.375 64.4196 187.458 64.5306 187.563 64.5306C187.665 64.5306 187.75 64.6146 187.75 64.7181C187.75 64.8216 187.834 64.9056 187.938 64.9056C188.04 64.9056 188.125 64.9896 188.125 65.0931C188.125 65.2243 188.257 65.2806 188.562 65.2806C188.868 65.2806 189 65.3368 189 65.4681C189 65.5933 189.125 65.6556 189.375 65.6556C189.625 65.6556 189.75 65.7178 189.75 65.8431C189.75 66.0021 190.07 66.0306 191.875 66.0306C193.68 66.0306 194 66.0021 194 65.8431C194 65.7043 194.146 65.6556 194.567 65.6556C194.955 65.6556 195.156 65.5963 195.205 65.4681C195.244 65.3646 195.413 65.2806 195.58 65.2806C195.747 65.2806 195.915 65.1966 195.955 65.0931C195.994 64.9896 196.105 64.9056 196.201 64.9056C196.297 64.9056 196.375 64.8216 196.375 64.7181C196.375 64.6146 196.459 64.5306 196.563 64.5306C196.667 64.5306 196.75 64.4196 196.75 64.2808C196.75 64.1413 196.833 64.0303 196.938 64.0303C197.04 64.0303 197.125 64.1203 197.125 64.2298C197.125 64.3393 197.238 64.4586 197.375 64.4946C197.552 64.5403 197.625 64.6648 197.625 64.9198C197.625 65.1568 197.689 65.2806 197.813 65.2806C197.916 65.2806 198 65.3646 198 65.4681C198 65.5933 198.125 65.6556 198.375 65.6556C198.625 65.6556 198.75 65.7178 198.75 65.8431C198.75 66.0028 199.091 66.0306 201.066 66.0306C203.01 66.0306 203.394 66.0006 203.455 65.8431C203.494 65.7396 203.605 65.6556 203.701 65.6556C203.844 65.6556 203.875 65.1726 203.875 62.9053V60.1558H203.438C203.132 60.1558 203 60.0988 203 59.9683C203 59.8648 202.916 59.7808 202.812 59.7808C202.651 59.7808 202.625 59.3503 202.625 56.6556C202.625 53.9608 202.599 53.5303 202.437 53.5303C202.299 53.5303 202.25 53.3841 202.25 52.9641C202.25 52.5763 202.191 52.3753 202.062 52.3258C201.956 52.2846 201.875 52.0986 201.875 51.8923C201.875 51.6538 201.811 51.5308 201.687 51.5308C201.585 51.5308 201.5 51.4461 201.5 51.3433C201.5 51.2398 201.416 51.1558 201.312 51.1558C201.21 51.1558 201.125 51.0711 201.125 50.9683C201.125 50.8648 201.041 50.7808 200.937 50.7808C200.835 50.7808 200.75 50.6961 200.75 50.5933C200.75 50.4891 200.639 50.4058 200.5 50.4058C200.361 50.4058 200.25 50.3226 200.25 50.2183C200.25 50.1148 200.166 50.0308 200.063 50.0308C199.959 50.0308 199.875 49.9461 199.875 49.8433C199.875 49.7323 199.76 49.6551 199.594 49.6536C199.116 49.6513 198.75 49.5096 198.75 49.3288C198.75 49.2066 198.582 49.1556 198.183 49.1556C197.796 49.1556 197.595 49.0963 197.545 48.9681C197.484 48.8083 196.992 48.7806 194.175 48.7806C191.325 48.7806 190.875 48.8061 190.875 48.9681ZM218 57.2181V65.6556H221.125H224.25V57.2181V48.7806H221.125H218V57.2181ZM231.75 48.9681C231.75 49.1068 231.605 49.1556 231.192 49.1556C230.762 49.1556 230.604 49.2126 230.5 49.4053C230.422 49.5516 230.238 49.6558 230.058 49.6558C229.868 49.6558 229.75 49.7271 229.75 49.8433C229.75 49.9678 229.625 50.0308 229.375 50.0308C229.125 50.0308 229 50.0931 229 50.2183C229 50.3211 228.914 50.4058 228.809 50.4058C228.703 50.4058 228.585 50.4898 228.546 50.5933C228.506 50.6961 228.395 50.7808 228.3 50.7808C228.204 50.7808 228.125 50.8648 228.125 50.9683C228.125 51.0711 228.041 51.1558 227.937 51.1558C227.835 51.1558 227.75 51.2398 227.75 51.3433C227.75 51.4461 227.666 51.5308 227.562 51.5308C227.46 51.5308 227.375 51.6088 227.375 51.7048C227.375 51.8008 227.291 51.9111 227.187 51.9508C227.078 51.9928 227 52.1803 227 52.4016C227 52.6551 226.938 52.7803 226.812 52.7803C226.688 52.7803 226.625 52.9056 226.625 53.1553C226.625 53.4058 226.563 53.5303 226.437 53.5303C226.313 53.5303 226.25 53.6556 226.25 53.9053C226.25 54.1401 226.186 54.2803 226.078 54.2803C225.642 54.2803 225.565 60.0058 226 60.1191C226.203 60.1723 226.25 60.2901 226.25 60.7363C226.25 61.1121 226.31 61.3116 226.437 61.3603C226.545 61.4016 226.625 61.5876 226.625 61.7938C226.625 62.0323 226.689 62.1553 226.812 62.1553C226.938 62.1553 227 62.2806 227 62.5303C227 62.7808 227.063 62.9053 227.187 62.9053C227.291 62.9053 227.375 62.9901 227.375 63.0928C227.375 63.1963 227.46 63.2803 227.562 63.2803C227.666 63.2803 227.75 63.3651 227.75 63.4678C227.75 63.5713 227.835 63.6553 227.937 63.6553C228.041 63.6553 228.125 63.7401 228.125 63.8428C228.125 63.9463 228.197 64.0303 228.285 64.0303C228.372 64.0303 228.541 64.1428 228.659 64.2808C228.777 64.4181 228.986 64.5306 229.124 64.5306C229.264 64.5306 229.375 64.6138 229.375 64.7181C229.375 64.8216 229.453 64.9056 229.549 64.9056C229.645 64.9056 229.756 64.9896 229.795 65.0931C229.843 65.2168 230.039 65.2806 230.371 65.2806C230.736 65.2806 230.875 65.3323 230.875 65.4681C230.875 65.6098 231.028 65.6556 231.5 65.6556C231.972 65.6556 232.125 65.7013 232.125 65.8431C232.125 66.0036 232.507 66.0306 234.813 66.0306C237.118 66.0306 237.5 66.0036 237.5 65.8431C237.5 65.7013 237.653 65.6556 238.125 65.6556C238.597 65.6556 238.75 65.6098 238.75 65.4681C238.75 65.3428 238.875 65.2806 239.125 65.2806C239.375 65.2806 239.5 65.2183 239.5 65.0931C239.5 64.9678 239.625 64.9056 239.875 64.9056C240.125 64.9056 240.25 64.8433 240.25 64.7181C240.25 64.6138 240.361 64.5306 240.5 64.5306C240.638 64.5306 240.863 64.4181 241 64.2808C241.137 64.1428 241.306 64.0303 241.375 64.0303C241.444 64.0303 241.5 63.9463 241.5 63.8428C241.5 63.7401 241.584 63.6553 241.688 63.6553C241.791 63.6553 241.875 63.5713 241.875 63.4678C241.875 63.3651 241.959 63.2803 242.063 63.2803C242.187 63.2803 242.25 63.1558 242.25 62.9053C242.25 62.6556 242.313 62.5303 242.438 62.5303C242.541 62.5303 242.625 62.4463 242.625 62.3428C242.625 62.2401 242.709 62.1553 242.813 62.1553C242.943 62.1553 243 62.0256 243 61.7323C243 61.4151 243.063 61.2936 243.25 61.2441C243.449 61.1923 243.5 61.0738 243.5 60.6673C243.5 60.2961 243.552 60.1558 243.687 60.1558C243.849 60.1558 243.875 59.7733 243.875 57.4641C243.875 55.1871 243.846 54.7618 243.687 54.7011C243.564 54.6538 243.5 54.4581 243.5 54.1303C243.5 53.7373 243.447 53.6181 243.25 53.5671C243.073 53.5206 243 53.3961 243 53.1411C243 52.9041 242.936 52.7803 242.813 52.7803C242.687 52.7803 242.625 52.6551 242.625 52.4016C242.625 52.1803 242.547 51.9928 242.438 51.9508C242.334 51.9111 242.25 51.8008 242.25 51.7048C242.25 51.6088 242.166 51.5308 242.063 51.5308C241.959 51.5308 241.875 51.4461 241.875 51.3433C241.875 51.2398 241.791 51.1558 241.688 51.1558C241.584 51.1558 241.5 51.0711 241.5 50.9683C241.5 50.8648 241.416 50.7808 241.313 50.7808C241.209 50.7808 241.125 50.6961 241.125 50.5933C241.125 50.4898 241.039 50.4058 240.933 50.4058C240.828 50.4058 240.71 50.3211 240.67 50.2183C240.63 50.1111 240.443 50.0308 240.237 50.0308C239.999 50.0308 239.875 49.9663 239.875 49.8433C239.875 49.7271 239.757 49.6558 239.567 49.6558C239.387 49.6558 239.203 49.5516 239.125 49.4053C239.027 49.2216 238.863 49.1556 238.509 49.1556C238.196 49.1556 238.002 49.0896 237.955 48.9681C237.894 48.8083 237.427 48.7806 234.816 48.7806C232.174 48.7806 231.75 48.8068 231.75 48.9681ZM245.458 48.8638C245.412 48.9096 245.375 52.7068 245.375 57.3013V65.6556H248.5H251.625V61.1698C251.625 56.7898 251.631 56.6833 251.875 56.6196C252.041 56.5761 252.125 56.4486 252.125 56.2431C252.125 56.0721 252.21 55.8996 252.312 55.8606C252.416 55.8208 252.5 55.7023 252.5 55.5973C252.5 55.4916 252.585 55.4053 252.687 55.4053C252.791 55.4053 252.875 55.3213 252.875 55.2178C252.875 55.1151 252.96 55.0303 253.062 55.0303C253.166 55.0303 253.25 54.9463 253.25 54.8428C253.25 54.6958 253.424 54.6553 254.063 54.6553C254.702 54.6553 254.875 54.6958 254.875 54.8428C254.875 54.9463 254.96 55.0303 255.063 55.0303C255.165 55.0303 255.25 55.1151 255.25 55.2178C255.25 55.3213 255.335 55.4053 255.438 55.4053C255.601 55.4053 255.625 56.0586 255.625 60.5308V65.6556H258.938H262.25V59.4058C262.25 53.9331 262.227 53.1553 262.062 53.1553C261.915 53.1553 261.875 52.9821 261.875 52.3431C261.875 51.7041 261.835 51.5308 261.687 51.5308C261.563 51.5308 261.5 51.4056 261.5 51.1558C261.5 50.9053 261.438 50.7808 261.312 50.7808C261.204 50.7808 261.125 50.6676 261.125 50.5138C261.125 50.1906 260.643 49.7188 260.199 49.6071C260.021 49.5621 259.875 49.4428 259.875 49.3408C259.875 49.2388 259.797 49.1556 259.701 49.1556C259.605 49.1556 259.494 49.0716 259.455 48.9681C259.394 48.8091 258.954 48.7806 256.563 48.7806C254.171 48.7806 253.731 48.8091 253.671 48.9681C253.629 49.0753 253.443 49.1556 253.237 49.1556C252.996 49.1556 252.875 49.2193 252.875 49.3461C252.875 49.4578 252.72 49.5681 252.5 49.6116C252.294 49.6528 252.125 49.7638 252.125 49.8591C252.125 49.9536 252.041 50.0308 251.937 50.0308C251.835 50.0308 251.75 50.1148 251.75 50.2183C251.75 50.3226 251.639 50.4058 251.5 50.4058C251.276 50.4058 251.25 50.3226 251.25 49.5928V48.7806H248.396C246.826 48.7806 245.505 48.8181 245.458 48.8638ZM118.375 54.4678C118.375 54.5931 118.5 54.6553 118.75 54.6553C119 54.6553 119.125 54.7183 119.125 54.8428C119.125 54.9463 119.209 55.0303 119.313 55.0303C119.427 55.0303 119.5 55.1466 119.5 55.3281C119.5 55.4916 119.584 55.6948 119.688 55.7803C119.796 55.8711 119.875 56.1441 119.875 56.4328C119.875 56.8236 119.928 56.9428 120.125 56.9946C120.299 57.0396 120.375 57.1648 120.375 57.4056C120.375 57.6463 120.299 57.7716 120.125 57.8166C119.921 57.8706 119.875 57.9876 119.875 58.4563C119.875 58.8831 119.827 59.0308 119.688 59.0308C119.584 59.0308 119.5 59.0848 119.5 59.1516C119.5 59.4058 118.611 60.1558 118.308 60.1558C118.118 60.1558 118 60.2271 118 60.3433C118 60.4476 117.889 60.5308 117.75 60.5308C117.611 60.5308 117.5 60.4476 117.5 60.3433C117.5 60.2038 117.354 60.1558 116.937 60.1558C116.521 60.1558 116.375 60.1071 116.375 59.9683C116.375 59.8648 116.291 59.7808 116.187 59.7808C116.063 59.7808 116 59.6556 116 59.4058C116 59.1553 115.938 59.0308 115.812 59.0308C115.688 59.0308 115.625 58.9056 115.625 58.6558C115.625 58.4053 115.563 58.2808 115.437 58.2808C115.29 58.2808 115.25 58.1083 115.25 57.4813C115.25 56.8866 115.298 56.6638 115.437 56.6106C115.566 56.5611 115.625 56.3601 115.625 55.9723C115.625 55.5516 115.674 55.4053 115.812 55.4053C115.916 55.4053 116 55.3213 116 55.2178C116 55.1151 116.085 55.0303 116.187 55.0303C116.291 55.0303 116.375 54.9463 116.375 54.8428C116.375 54.7183 116.5 54.6553 116.75 54.6553C117 54.6553 117.125 54.5931 117.125 54.4678C117.125 54.3261 117.278 54.2803 117.75 54.2803C118.222 54.2803 118.375 54.3261 118.375 54.4678ZM175.625 54.4678C175.625 54.5931 175.75 54.6553 176 54.6553C176.25 54.6553 176.375 54.7183 176.375 54.8428C176.375 54.9463 176.46 55.0303 176.562 55.0303C176.666 55.0303 176.75 55.1151 176.75 55.2178C176.75 55.3213 176.835 55.4053 176.937 55.4053C177.064 55.4053 177.125 55.5321 177.125 55.7923C177.125 56.0736 177.193 56.1966 177.375 56.2446C177.686 56.3256 177.771 59.0308 177.463 59.0308C177.374 59.0308 177.163 59.1966 176.994 59.4006C176.826 59.6038 176.617 59.7726 176.532 59.7756C176.445 59.7778 176.375 59.8648 176.375 59.9683C176.375 60.0928 176.25 60.1558 176 60.1558C175.75 60.1558 175.625 60.2181 175.625 60.3433C175.625 60.4663 175.502 60.5308 175.263 60.5308C175.057 60.5308 174.871 60.4498 174.83 60.3433C174.788 60.2338 174.6 60.1558 174.379 60.1558C174.126 60.1558 174 60.0936 174 59.9683C174 59.8431 173.875 59.7808 173.625 59.7808C173.375 59.7808 173.25 59.7178 173.25 59.5933C173.25 59.4898 173.166 59.4058 173.063 59.4058C172.938 59.4058 172.875 59.2806 172.875 59.0308C172.875 58.7803 172.812 58.6558 172.688 58.6558C172.537 58.6558 172.5 58.4623 172.5 57.6688C172.5 56.9076 172.543 56.6661 172.688 56.6106C172.791 56.5708 172.875 56.3946 172.875 56.2183C172.875 56.0421 172.959 55.8651 173.063 55.8261C173.169 55.7848 173.25 55.5981 173.25 55.3926C173.25 55.0738 173.295 55.0303 173.625 55.0303C173.875 55.0303 174 54.9681 174 54.8428C174 54.7401 174.084 54.6553 174.188 54.6553C174.291 54.6553 174.375 54.5713 174.375 54.4678C174.375 54.3261 174.528 54.2803 175 54.2803C175.473 54.2803 175.625 54.3261 175.625 54.4678ZM235.25 54.4678C235.25 54.5931 235.375 54.6553 235.625 54.6553C235.875 54.6553 236 54.7183 236 54.8428C236 54.9463 236.085 55.0303 236.187 55.0303C236.291 55.0303 236.375 55.1151 236.375 55.2178C236.375 55.3213 236.46 55.4053 236.562 55.4053C236.678 55.4053 236.75 55.5223 236.75 55.7091C236.75 55.8763 236.835 56.0968 236.937 56.2003C237.077 56.3391 237.125 56.6803 237.125 57.5218C237.125 58.4466 237.09 58.6558 236.937 58.6558C236.813 58.6558 236.75 58.7803 236.75 59.0308C236.75 59.2806 236.688 59.4058 236.562 59.4058C236.46 59.4058 236.375 59.4898 236.375 59.5933C236.375 59.6961 236.291 59.7808 236.187 59.7808C236.085 59.7808 236 59.8648 236 59.9683C236 60.0928 235.875 60.1558 235.625 60.1558C235.375 60.1558 235.25 60.2181 235.25 60.3433C235.25 60.4738 235.118 60.5308 234.813 60.5308C234.507 60.5308 234.375 60.4738 234.375 60.3433C234.375 60.2181 234.25 60.1558 234 60.1558C233.75 60.1558 233.625 60.0928 233.625 59.9683C233.625 59.8648 233.541 59.7808 233.438 59.7808C233.334 59.7808 233.25 59.6961 233.25 59.5933C233.25 59.4898 233.166 59.4058 233.063 59.4058C232.938 59.4058 232.875 59.2806 232.875 59.0308C232.875 58.7803 232.812 58.6558 232.688 58.6558C232.534 58.6558 232.5 58.4421 232.5 57.4813C232.5 56.5528 232.539 56.2926 232.688 56.2356C232.797 56.1936 232.875 56.0061 232.875 55.7848C232.875 55.5313 232.937 55.4053 233.063 55.4053C233.166 55.4053 233.25 55.3213 233.25 55.2178C233.25 55.1151 233.334 55.0303 233.438 55.0303C233.541 55.0303 233.625 54.9463 233.625 54.8428C233.625 54.7183 233.75 54.6553 234 54.6553C234.25 54.6553 234.375 54.5931 234.375 54.4678C234.375 54.3373 234.507 54.2803 234.813 54.2803C235.118 54.2803 235.25 54.3373 235.25 54.4678ZM195.295 58.8433C195.335 58.9461 195.51 59.0308 195.684 59.0308C195.975 59.0308 196 59.0743 196 59.5933C196 60.0096 195.951 60.1558 195.813 60.1558C195.709 60.1558 195.625 60.2398 195.625 60.3433C195.625 60.4678 195.5 60.5308 195.25 60.5308C195 60.5308 194.875 60.5931 194.875 60.7183C194.875 61.0071 193.095 60.9838 192.752 60.6906C192.613 60.5721 192.5 60.4033 192.5 60.3156C192.5 60.2271 192.416 60.1558 192.312 60.1558C192.21 60.1558 192.125 60.0711 192.125 59.9683C192.125 59.8648 192.21 59.7808 192.312 59.7808C192.416 59.7808 192.5 59.6961 192.5 59.5933C192.5 59.4898 192.585 59.4058 192.687 59.4058C192.791 59.4058 192.875 59.3211 192.875 59.2183C192.875 59.1006 192.993 59.0308 193.191 59.0308C193.365 59.0308 193.54 58.9461 193.58 58.8433C193.633 58.7038 193.854 58.6558 194.438 58.6558C195.021 58.6558 195.242 58.7038 195.295 58.8433ZM22.6572 64.3941C22.8477 64.4668 23.15 64.4563 23.4897 64.3648C23.9547 64.2411 24.044 64.2508 24.182 64.4391C24.269 64.5583 24.422 64.6558 24.5217 64.6558C24.755 64.6558 25.25 65.3226 25.25 65.6368C25.25 65.7703 25.3347 65.9113 25.4375 65.9511C25.5725 66.0028 25.625 66.2128 25.625 66.6988C25.625 67.1473 25.562 67.4271 25.4375 67.5306C25.3347 67.6161 25.25 67.7781 25.25 67.8898C25.25 68.1321 24.3282 69.0306 24.08 69.0306C23.984 69.0306 23.8355 69.1146 23.75 69.2181C23.267 69.8001 21.431 69.0666 20.9022 68.0796C20.8145 67.9153 20.6937 67.7803 20.6345 67.7803C20.4627 67.7803 20.5407 65.8153 20.7192 65.6368C20.8047 65.5506 20.8752 65.4268 20.8752 65.3608C20.8752 64.8178 22.0692 64.1706 22.6572 64.3941ZM60.5802 64.4683C60.6192 64.5711 60.7647 64.6558 60.902 64.6558C61.2102 64.6558 61.745 65.1433 61.748 65.4261C61.7495 65.5408 61.8162 65.6563 61.8957 65.6833C62.141 65.7651 62.135 67.8538 61.889 68.1501C61.778 68.2836 61.5755 68.5341 61.4375 68.7058C61.3002 68.8783 61.1412 69.0216 61.085 69.0246C61.0287 69.0283 60.8982 69.1146 60.7947 69.2181C60.6612 69.3523 60.3342 69.4056 59.6517 69.4056H58.6955L58.0355 68.7538C57.4047 68.1313 57.1955 67.6701 57.5315 67.6431C57.6177 67.6363 57.551 67.5928 57.3845 67.5456C56.993 67.4368 56.792 66.8751 56.9892 66.4423C57.0965 66.2076 57.1992 66.1453 57.3965 66.1971C57.5952 66.2496 57.6252 66.2308 57.518 66.1236C57.341 65.9458 57.329 65.4058 57.503 65.4058C57.5735 65.4058 57.695 65.2648 57.773 65.0931C57.851 64.9213 57.9845 64.7803 58.0692 64.7803C58.1532 64.7803 58.355 64.6701 58.5177 64.5351C58.8995 64.2163 60.464 64.1661 60.5802 64.4683Z" fill="#151D21"/>
</svg>
