<svg width="323" height="150" viewBox="0 0 323 150" fill="none" xmlns="http://www.w3.org/2000/svg">
<rect x="0.333008" width="322.667" height="150" rx="8" fill="url(#paint0_linear_57_66583)"/>
<g clip-path="url(#clip0_57_66583)">
<g clip-path="url(#clip1_57_66583)">
<path d="M105.863 83.4737L127.863 68.1303C127.863 68.1303 128.855 67.5564 128.855 66.6507C128.855 65.4445 127.6 65.0522 127.6 65.0522L115.497 60.2322C115.065 60.0618 114.471 60.5393 115.027 61.1446L119.034 65.18C119.034 65.18 120.147 66.2807 120.147 67.0026C120.147 67.7245 119.464 68.3679 119.464 68.3679L104.883 82.5456C104.365 83.05 105.066 83.9647 105.863 83.4737Z" fill="white"/>
<path d="M123.633 44.5751L101.633 59.9163C101.633 59.9163 100.641 60.4902 100.641 61.3959C100.641 62.6021 101.896 62.9944 101.896 62.9944L113.999 67.8167C114.431 67.9848 115.027 67.5073 114.469 66.9042L110.462 62.8554C110.462 62.8554 109.349 61.7569 109.349 61.0328C109.349 60.3086 110.032 59.6675 110.032 59.6675L124.604 45.501C125.131 44.9966 124.432 44.0819 123.633 44.5751Z" fill="white"/>
<path d="M157.146 66.3072C155.944 65.3984 154.26 64.8006 152.093 64.5137L148.1 64.0003C147.028 63.8672 146.206 63.6236 145.633 63.2694C145.362 63.1146 145.138 62.8876 144.986 62.6131C144.834 62.3387 144.76 62.0275 144.772 61.7135C144.772 60.1084 146.286 59.3065 149.313 59.308C151.034 59.2839 152.746 59.5709 154.366 60.1554C154.863 60.3313 155.342 60.5566 155.795 60.828C156.037 60.9712 156.266 61.1363 156.479 61.3212C156.607 61.2638 156.726 61.1883 156.833 61.097C156.999 60.9669 157.149 60.8162 157.278 60.6487C157.429 60.4515 157.56 60.2397 157.67 60.0164C157.792 59.7585 157.852 59.475 157.845 59.1892C157.845 58.2162 157.095 57.4271 155.595 56.8218C154.095 56.2165 151.987 55.9175 149.271 55.925C147.878 55.8965 146.487 56.0625 145.139 56.4182C144.137 56.6797 143.199 57.1426 142.379 57.779C141.708 58.3068 141.174 58.9897 140.821 59.7698C140.493 60.5216 140.327 61.3343 140.331 62.1552C140.307 63.0205 140.489 63.8791 140.861 64.6594C141.208 65.351 141.71 65.952 142.328 66.4148C143.01 66.9145 143.772 67.2936 144.581 67.5357C145.518 67.8251 146.482 68.0167 147.459 68.1074L150.513 68.4638C151.923 68.6133 152.901 68.8823 153.449 69.2709C153.717 69.4561 153.934 69.7076 154.077 70.0012C154.221 70.2949 154.288 70.6209 154.27 70.9478C154.27 71.8162 153.84 72.4275 152.979 72.7817C152.119 73.1359 151.006 73.313 149.64 73.313C148.671 73.3188 147.703 73.24 146.746 73.0776C145.945 72.9397 145.154 72.7488 144.378 72.5059C143.786 72.3196 143.204 72.1018 142.635 71.8536C142.294 71.7138 141.966 71.5427 141.656 71.3424L139.973 74.3779C140.292 74.6076 140.633 74.8057 140.99 74.9698C141.656 75.2884 142.343 75.5589 143.047 75.7791C144.028 76.0873 145.028 76.3306 146.041 76.5077C147.308 76.7284 148.592 76.8342 149.878 76.8238C152.801 76.8238 155.039 76.2319 156.594 75.0482C157.337 74.5113 157.938 73.7992 158.345 72.9741C158.751 72.149 158.95 71.2362 158.925 70.3156C158.94 68.552 158.347 67.2159 157.146 66.3072Z" fill="white"/>
<path d="M166.23 47.1994C165.473 47.1994 164.895 47.3721 164.467 47.7128C164.04 48.0536 163.842 48.5804 163.842 49.2821V76.2654H168.305V47.6344C168.174 47.5828 167.913 47.4954 167.521 47.3788C167.102 47.2555 166.667 47.1951 166.23 47.1994Z" fill="white"/>
<path d="M176.543 47.5943C176.187 47.5901 175.834 47.6576 175.504 47.7929C175.175 47.9282 174.875 48.1285 174.623 48.382C174.371 48.6356 174.173 48.9373 174.038 49.2694C173.904 49.6015 173.837 49.9573 173.841 50.3159C173.843 50.7626 173.955 51.2018 174.165 51.5948C174.376 51.9879 174.679 52.3226 175.049 52.5697C175.418 52.8167 175.843 52.9683 176.284 53.0112C176.725 53.054 177.171 52.9868 177.58 52.8155C177.99 52.6441 178.351 52.3739 178.632 52.0286C178.914 51.6834 179.106 51.2737 179.193 50.8357C179.28 50.3977 179.259 49.9449 179.131 49.5173C179.003 49.0896 178.773 48.7002 178.46 48.3834C178.211 48.1271 177.912 47.9249 177.583 47.7891C177.253 47.6534 176.899 47.5871 176.543 47.5943Z" fill="white"/>
<path d="M176.692 56.4731C175.936 56.4731 175.357 56.639 174.929 56.9663C174.502 57.2936 174.311 57.8182 174.311 58.558V76.2689H178.774V56.9035C178.642 56.8497 178.382 56.7645 177.99 56.6457C177.568 56.5253 177.131 56.4671 176.692 56.4731Z" fill="white"/>
<path d="M200.972 58.1451C200.079 57.3966 199.048 56.8335 197.938 56.4884C196.696 56.0973 195.402 55.9044 194.101 55.9167C192.806 55.9031 191.518 56.0961 190.283 56.4884C189.18 56.8366 188.155 57.3995 187.267 58.1451C186.415 58.8676 185.732 59.769 185.263 60.786C184.768 61.896 184.523 63.1026 184.546 64.3192V76.2685H189.01V65.4626C189.01 63.6691 189.434 62.3083 190.283 61.3801C191.132 60.452 192.404 59.9857 194.101 59.9812C195.77 59.9812 197.036 60.4475 197.898 61.3801C198.76 62.3128 199.191 63.6736 199.191 65.4626V76.2685H203.655V64.3192C203.679 63.1049 203.442 61.8997 202.96 60.786C202.502 59.7668 201.823 58.8643 200.972 58.1451Z" fill="white"/>
<path d="M220.06 71.8093C219.621 72.0941 219.148 72.3202 218.651 72.4818C217.972 72.7225 217.258 72.8431 216.538 72.8383C216.083 72.8403 215.63 72.7877 215.187 72.6814C214.773 72.5838 214.385 72.3955 214.052 72.1298C213.714 71.8511 213.451 71.491 213.288 71.0829C213.088 70.5484 212.995 69.9792 213.015 69.4082V60.6088H220.532C220.652 60.346 220.756 60.0766 220.846 59.8018C220.979 59.4007 221.045 58.9803 221.042 58.5575C221.042 57.885 220.866 57.3559 220.512 57.0017C220.158 56.6474 219.55 56.4726 218.689 56.4726H213.012V51.3162C212.881 51.2624 212.614 51.1773 212.209 51.0584C211.782 50.9381 211.341 50.8785 210.898 50.8813C210.285 50.8465 209.678 51.0202 209.175 51.3745C208.747 51.6906 208.547 52.213 208.547 52.9595V70.3094C208.547 72.2524 209.135 73.8217 210.31 75.0174C211.485 76.2131 213.222 76.8109 215.519 76.8109C216.266 76.8135 217.012 76.7384 217.745 76.5867C218.371 76.4565 218.986 76.2788 219.586 76.0554C220.069 75.8751 220.534 75.65 220.975 75.3828C221.353 75.1452 221.65 74.9479 221.865 74.791L220.06 71.8093Z" fill="white"/>
</g>
</g>
<rect x="130.166" y="84.3672" width="63" height="22" fill="#0C67E8"/>
<path d="M137.509 99.3672V91.1352H141.757C142.229 91.1352 142.637 91.2192 142.981 91.3872C143.325 91.5472 143.589 91.7752 143.773 92.0712C143.965 92.3672 144.061 92.7192 144.061 93.1272C144.061 93.4392 144.005 93.7272 143.893 93.9912C143.781 94.2552 143.625 94.4752 143.425 94.6512C143.225 94.8272 142.997 94.9592 142.741 95.0472V95.0952C143.029 95.1592 143.289 95.2752 143.521 95.4432C143.753 95.6112 143.937 95.8352 144.073 96.1152C144.217 96.3872 144.289 96.7232 144.289 97.1232C144.289 97.6592 144.177 98.0912 143.953 98.4192C143.729 98.7472 143.429 98.9872 143.053 99.1392C142.677 99.2912 142.245 99.3672 141.757 99.3672H137.509ZM138.649 98.3832H141.745C142.153 98.3832 142.485 98.2792 142.741 98.0712C142.997 97.8552 143.125 97.4992 143.125 97.0032C143.125 96.6992 143.069 96.4472 142.957 96.2472C142.845 96.0392 142.681 95.8872 142.465 95.7912C142.249 95.6872 141.977 95.6352 141.649 95.6352H138.649V98.3832ZM138.649 94.6632H141.541C141.813 94.6632 142.049 94.6112 142.249 94.5072C142.449 94.3952 142.605 94.2432 142.717 94.0512C142.837 93.8512 142.897 93.6272 142.897 93.3792C142.897 92.9472 142.781 92.6312 142.549 92.4312C142.317 92.2232 142.009 92.1192 141.625 92.1192H138.649V94.6632ZM149.223 99.5112C148.527 99.5112 147.927 99.3992 147.423 99.1752C146.919 98.9512 146.531 98.5992 146.259 98.1192C145.995 97.6312 145.863 97.0072 145.863 96.2472V91.1352H147.003V96.3672C147.003 97.0872 147.195 97.6272 147.579 97.9872C147.971 98.3472 148.519 98.5272 149.223 98.5272C149.935 98.5272 150.491 98.3472 150.891 97.9872C151.291 97.6272 151.491 97.0872 151.491 96.3672V91.1352H152.619V96.2472C152.619 97.0072 152.483 97.6312 152.211 98.1192C151.939 98.5992 151.547 98.9512 151.035 99.1752C150.531 99.3992 149.927 99.5112 149.223 99.5112ZM156.993 99.3672V95.9472L153.753 91.1352H155.061L157.569 94.9392H157.629L160.125 91.1352H161.373L158.145 95.9472V99.3672H156.993ZM166.072 99.5112C165.216 99.5112 164.48 99.3552 163.864 99.0432C163.256 98.7312 162.784 98.2592 162.448 97.6272C162.12 96.9952 161.956 96.2032 161.956 95.2512C161.956 94.2912 162.12 93.4992 162.448 92.8752C162.784 92.2432 163.256 91.7712 163.864 91.4592C164.48 91.1472 165.216 90.9912 166.072 90.9912C166.928 90.9912 167.66 91.1472 168.268 91.4592C168.884 91.7712 169.356 92.2432 169.684 92.8752C170.02 93.4992 170.188 94.2912 170.188 95.2512C170.188 96.2032 170.02 96.9952 169.684 97.6272C169.356 98.2592 168.884 98.7312 168.268 99.0432C167.66 99.3552 166.928 99.5112 166.072 99.5112ZM166.072 98.5272C166.52 98.5272 166.924 98.4672 167.284 98.3472C167.652 98.2272 167.96 98.0392 168.208 97.7832C168.464 97.5192 168.66 97.1912 168.796 96.7992C168.932 96.3992 169 95.9272 169 95.3832V95.1312C169 94.5792 168.932 94.1072 168.796 93.7152C168.66 93.3152 168.464 92.9872 168.208 92.7312C167.96 92.4672 167.652 92.2752 167.284 92.1552C166.924 92.0352 166.52 91.9752 166.072 91.9752C165.616 91.9752 165.208 92.0352 164.848 92.1552C164.488 92.2752 164.18 92.4672 163.924 92.7312C163.668 92.9872 163.472 93.3152 163.336 93.7152C163.208 94.1072 163.144 94.5792 163.144 95.1312V95.3832C163.144 95.9272 163.208 96.3992 163.336 96.7992C163.472 97.1912 163.668 97.5192 163.924 97.7832C164.18 98.0392 164.488 98.2272 164.848 98.3472C165.208 98.4672 165.616 98.5272 166.072 98.5272ZM175.169 99.5112C174.473 99.5112 173.873 99.3992 173.369 99.1752C172.865 98.9512 172.477 98.5992 172.205 98.1192C171.941 97.6312 171.809 97.0072 171.809 96.2472V91.1352H172.949V96.3672C172.949 97.0872 173.141 97.6272 173.525 97.9872C173.917 98.3472 174.465 98.5272 175.169 98.5272C175.881 98.5272 176.437 98.3472 176.837 97.9872C177.237 97.6272 177.437 97.0872 177.437 96.3672V91.1352H178.565V96.2472C178.565 97.0072 178.429 97.6312 178.157 98.1192C177.885 98.5992 177.493 98.9512 176.981 99.1752C176.477 99.3992 175.873 99.5112 175.169 99.5112ZM182.626 99.3672V92.1312H179.806V91.1352H186.61V92.1312H183.766V99.3672H182.626Z" fill="white"/>
<rect x="130.166" y="84.3672" width="63" height="22" stroke="white"/>
<defs>
<linearGradient id="paint0_linear_57_66583" x1="118.608" y1="-78.3582" x2="249.727" y2="-9.19513" gradientUnits="userSpaceOnUse">
<stop stop-color="#0C67E8"/>
<stop offset="1" stop-color="#6B0DFF"/>
</linearGradient>
<clipPath id="clip0_57_66583">
<rect width="122.2" height="40.7333" fill="white" transform="translate(100.566 43.6328)"/>
</clipPath>
<clipPath id="clip1_57_66583">
<rect width="121.495" height="39.486" fill="white" transform="translate(100.566 44.418)"/>
</clipPath>
</defs>
</svg>
