<svg width="323" height="150" viewBox="0 0 323 150" fill="none" xmlns="http://www.w3.org/2000/svg">
<rect width="322.667" height="150" rx="8" fill="#F2F4FF"/>
<g clip-path="url(#clip0_57_66529)">
<g clip-path="url(#clip1_57_66529)">
<path d="M105.53 83.4737L127.53 68.1303C127.53 68.1303 128.522 67.5564 128.522 66.6507C128.522 65.4445 127.267 65.0522 127.267 65.0522L115.164 60.2322C114.732 60.0618 114.138 60.5393 114.694 61.1446L118.701 65.18C118.701 65.18 119.814 66.2807 119.814 67.0026C119.814 67.7245 119.131 68.3679 119.131 68.3679L104.55 82.5456C104.032 83.05 104.733 83.9647 105.53 83.4737Z" fill="#0C67E8"/>
<path d="M123.3 44.5751L101.3 59.9163C101.3 59.9163 100.308 60.4902 100.308 61.3959C100.308 62.6021 101.563 62.9944 101.563 62.9944L113.666 67.8167C114.098 67.9848 114.694 67.5073 114.136 66.9042L110.129 62.8554C110.129 62.8554 109.016 61.7569 109.016 61.0328C109.016 60.3086 109.699 59.6675 109.699 59.6675L124.271 45.501C124.798 44.9966 124.099 44.0819 123.3 44.5751Z" fill="#0C67E8"/>
<path d="M156.813 66.3072C155.611 65.3984 153.927 64.8006 151.76 64.5137L147.767 64.0003C146.695 63.8672 145.873 63.6236 145.3 63.2694C145.029 63.1146 144.805 62.8876 144.653 62.6131C144.501 62.3387 144.427 62.0275 144.439 61.7135C144.439 60.1084 145.953 59.3065 148.98 59.308C150.701 59.2839 152.413 59.5709 154.033 60.1554C154.53 60.3313 155.009 60.5566 155.462 60.828C155.704 60.9712 155.933 61.1363 156.146 61.3212C156.274 61.2638 156.393 61.1883 156.5 61.097C156.666 60.9669 156.816 60.8162 156.945 60.6487C157.096 60.4515 157.227 60.2397 157.337 60.0164C157.459 59.7585 157.519 59.475 157.512 59.1892C157.512 58.2162 156.762 57.4271 155.262 56.8218C153.762 56.2165 151.654 55.9175 148.938 55.925C147.545 55.8965 146.154 56.0625 144.806 56.4182C143.804 56.6797 142.866 57.1426 142.046 57.779C141.375 58.3068 140.841 58.9897 140.488 59.7698C140.16 60.5216 139.994 61.3343 139.998 62.1552C139.974 63.0205 140.156 63.8791 140.528 64.6594C140.875 65.351 141.377 65.952 141.995 66.4148C142.677 66.9145 143.439 67.2936 144.248 67.5357C145.185 67.8251 146.149 68.0167 147.126 68.1074L150.18 68.4638C151.59 68.6133 152.568 68.8823 153.116 69.2709C153.384 69.4561 153.601 69.7076 153.744 70.0012C153.888 70.2949 153.955 70.6209 153.937 70.9478C153.937 71.8162 153.507 72.4275 152.646 72.7817C151.786 73.1359 150.673 73.313 149.307 73.313C148.338 73.3188 147.37 73.24 146.413 73.0776C145.612 72.9397 144.821 72.7488 144.045 72.5059C143.453 72.3196 142.871 72.1018 142.302 71.8536C141.961 71.7138 141.633 71.5427 141.323 71.3424L139.64 74.3779C139.959 74.6076 140.3 74.8057 140.657 74.9698C141.323 75.2884 142.01 75.5589 142.714 75.7791C143.695 76.0873 144.695 76.3306 145.708 76.5077C146.975 76.7284 148.259 76.8342 149.545 76.8238C152.468 76.8238 154.706 76.2319 156.261 75.0482C157.004 74.5113 157.605 73.7992 158.012 72.9741C158.418 72.149 158.617 71.2362 158.592 70.3156C158.607 68.552 158.014 67.2159 156.813 66.3072Z" fill="black"/>
<path d="M165.897 47.1994C165.14 47.1994 164.562 47.3721 164.134 47.7128C163.707 48.0536 163.509 48.5804 163.509 49.2821V76.2654H167.972V47.6344C167.841 47.5828 167.58 47.4954 167.188 47.3788C166.769 47.2555 166.334 47.1951 165.897 47.1994Z" fill="black"/>
<path d="M176.21 47.5943C175.854 47.5901 175.501 47.6576 175.171 47.7929C174.842 47.9282 174.542 48.1285 174.29 48.382C174.038 48.6356 173.84 48.9373 173.705 49.2694C173.571 49.6015 173.504 49.9573 173.508 50.3159C173.51 50.7626 173.622 51.2018 173.832 51.5948C174.043 51.9879 174.346 52.3226 174.716 52.5697C175.085 52.8167 175.51 52.9683 175.951 53.0112C176.392 53.054 176.838 52.9868 177.247 52.8155C177.657 52.6441 178.018 52.3739 178.299 52.0286C178.581 51.6834 178.773 51.2737 178.86 50.8357C178.947 50.3977 178.926 49.9449 178.798 49.5173C178.67 49.0896 178.44 48.7002 178.127 48.3834C177.878 48.1271 177.579 47.9249 177.25 47.7891C176.92 47.6534 176.566 47.5871 176.21 47.5943V47.5943Z" fill="black"/>
<path d="M176.359 56.4731C175.603 56.4731 175.024 56.639 174.596 56.9663C174.169 57.2936 173.978 57.8182 173.978 58.558V76.2689H178.441V56.9035C178.309 56.8497 178.049 56.7645 177.657 56.6457C177.235 56.5253 176.798 56.4671 176.359 56.4731Z" fill="black"/>
<path d="M200.639 58.1451C199.746 57.3966 198.715 56.8335 197.605 56.4884C196.363 56.0973 195.069 55.9044 193.768 55.9167C192.473 55.9031 191.185 56.0961 189.95 56.4884C188.847 56.8366 187.822 57.3995 186.934 58.1451C186.082 58.8676 185.399 59.769 184.93 60.786C184.435 61.896 184.19 63.1026 184.213 64.3192V76.2685H188.677V65.4626C188.677 63.6691 189.101 62.3083 189.95 61.3801C190.799 60.452 192.071 59.9857 193.768 59.9812C195.437 59.9812 196.703 60.4475 197.565 61.3801C198.427 62.3128 198.858 63.6736 198.858 65.4626V76.2685H203.322V64.3192C203.346 63.1049 203.109 61.8997 202.627 60.786C202.169 59.7668 201.49 58.8643 200.639 58.1451V58.1451Z" fill="black"/>
<path d="M219.727 71.8093C219.288 72.0941 218.815 72.3202 218.318 72.4818C217.639 72.7225 216.925 72.8431 216.205 72.8383C215.75 72.8403 215.297 72.7877 214.854 72.6814C214.44 72.5838 214.052 72.3955 213.719 72.1298C213.381 71.8511 213.118 71.491 212.955 71.0829C212.755 70.5484 212.662 69.9792 212.682 69.4082V60.6088H220.199C220.319 60.346 220.423 60.0766 220.513 59.8018C220.646 59.4007 220.712 58.9803 220.709 58.5575C220.709 57.885 220.533 57.3559 220.179 57.0017C219.825 56.6474 219.217 56.4726 218.356 56.4726H212.679V51.3162C212.548 51.2624 212.281 51.1773 211.876 51.0584C211.449 50.9381 211.008 50.8785 210.565 50.8813C209.952 50.8465 209.345 51.0202 208.842 51.3745C208.414 51.6906 208.214 52.213 208.214 52.9595V70.3094C208.214 72.2524 208.802 73.8217 209.977 75.0174C211.152 76.2131 212.889 76.8109 215.186 76.8109C215.933 76.8135 216.679 76.7384 217.412 76.5867C218.038 76.4565 218.653 76.2788 219.253 76.0554C219.735 75.8751 220.201 75.65 220.642 75.3828C221.02 75.1452 221.317 74.9479 221.532 74.791L219.727 71.8093Z" fill="black"/>
</g>
</g>
<rect x="138.833" y="84.3672" width="45" height="22" fill="#0C67E8"/>
<path d="M146.211 99.3672V91.1352H152.043V92.1192H147.351V94.7592H151.623V95.7312H147.351V99.3672H146.211ZM153.558 99.3672V91.1352H157.89C158.45 91.1352 158.914 91.2392 159.282 91.4472C159.658 91.6472 159.938 91.9312 160.122 92.2992C160.306 92.6592 160.398 93.0752 160.398 93.5472C160.398 94.1152 160.27 94.6032 160.014 95.0112C159.758 95.4192 159.406 95.7112 158.958 95.8872L160.686 99.3672H159.438L157.83 96.0912H154.698V99.3672H153.558ZM154.698 95.1192H157.782C158.238 95.1192 158.594 94.9792 158.85 94.6992C159.114 94.4192 159.246 94.0352 159.246 93.5472C159.246 93.2432 159.19 92.9872 159.078 92.7792C158.966 92.5712 158.802 92.4112 158.586 92.2992C158.37 92.1792 158.102 92.1192 157.782 92.1192H154.698V95.1192ZM162.277 99.3672V91.1352H168.613V92.1192H163.417V94.6632H168.085V95.6472H163.417V98.3832H168.685V99.3672H162.277ZM170.398 99.3672V91.1352H176.734V92.1192H171.538V94.6632H176.206V95.6472H171.538V98.3832H176.806V99.3672H170.398Z" fill="white"/>
<rect x="138.833" y="84.3672" width="45" height="22" stroke="white"/>
<defs>
<clipPath id="clip0_57_66529">
<rect width="122.2" height="40.7333" fill="white" transform="translate(100.233 43.6328)"/>
</clipPath>
<clipPath id="clip1_57_66529">
<rect width="121.495" height="39.486" fill="white" transform="translate(100.233 44.418)"/>
</clipPath>
</defs>
</svg>
