<svg width="66" height="32" viewBox="0 0 66 32" fill="none" xmlns="http://www.w3.org/2000/svg">
<rect width="66" height="32" rx="16" fill="#151D21"/>
<rect x="3" y="3" width="26" height="26" rx="13" fill="#151D21"/>
<path fill-rule="evenodd" clip-rule="evenodd" d="M16 13C14.3431 13 13 14.3431 13 16C13 17.6569 14.3431 19 16 19C17.6569 19 19 17.6569 19 16C19 14.3431 17.6569 13 16 13ZM11 16C11 13.2386 13.2386 11 16 11C18.7614 11 21 13.2386 21 16C21 18.7614 18.7614 21 16 21C13.2386 21 11 18.7614 11 16Z" fill="#73777A"/>
<path fill-rule="evenodd" clip-rule="evenodd" d="M16 5C16.5523 5 17 5.44772 17 6V8C17 8.55228 16.5523 9 16 9C15.4477 9 15 8.55228 15 8V6C15 5.44772 15.4477 5 16 5Z" fill="#73777A"/>
<path fill-rule="evenodd" clip-rule="evenodd" d="M16 23C16.5523 23 17 23.4477 17 24V26C17 26.5523 16.5523 27 16 27C15.4477 27 15 26.5523 15 26V24C15 23.4477 15.4477 23 16 23Z" fill="#73777A"/>
<path fill-rule="evenodd" clip-rule="evenodd" d="M8.29289 8.29289C8.68342 7.90237 9.31658 7.90237 9.70711 8.29289L11.2071 9.79289C11.5976 10.1834 11.5976 10.8166 11.2071 11.2071C10.8166 11.5976 10.1834 11.5976 9.79289 11.2071L8.29289 9.70711C7.90237 9.31658 7.90237 8.68342 8.29289 8.29289Z" fill="#73777A"/>
<path fill-rule="evenodd" clip-rule="evenodd" d="M20.7929 20.7929C21.1834 20.4024 21.8166 20.4024 22.2071 20.7929L23.7071 22.2929C24.0976 22.6834 24.0976 23.3166 23.7071 23.7071C23.3166 24.0976 22.6834 24.0976 22.2929 23.7071L20.7929 22.2071C20.4024 21.8166 20.4024 21.1834 20.7929 20.7929Z" fill="#73777A"/>
<path fill-rule="evenodd" clip-rule="evenodd" d="M5 16C5 15.4477 5.44772 15 6 15H8C8.55228 15 9 15.4477 9 16C9 16.5523 8.55228 17 8 17H6C5.44772 17 5 16.5523 5 16Z" fill="#73777A"/>
<path fill-rule="evenodd" clip-rule="evenodd" d="M23 16C23 15.4477 23.4477 15 24 15H26C26.5523 15 27 15.4477 27 16C27 16.5523 26.5523 17 26 17H24C23.4477 17 23 16.5523 23 16Z" fill="#73777A"/>
<path fill-rule="evenodd" clip-rule="evenodd" d="M11.2071 20.7929C11.5976 21.1834 11.5976 21.8166 11.2071 22.2071L9.70711 23.7071C9.31658 24.0976 8.68342 24.0976 8.29289 23.7071C7.90237 23.3166 7.90237 22.6834 8.29289 22.2929L9.79289 20.7929C10.1834 20.4024 10.8166 20.4024 11.2071 20.7929Z" fill="#73777A"/>
<path fill-rule="evenodd" clip-rule="evenodd" d="M23.7071 8.29289C24.0976 8.68342 24.0976 9.31658 23.7071 9.70711L22.2071 11.2071C21.8166 11.5976 21.1834 11.5976 20.7929 11.2071C20.4024 10.8166 20.4024 10.1834 20.7929 9.79289L22.2929 8.29289C22.6834 7.90237 23.3166 7.90237 23.7071 8.29289Z" fill="#73777A"/>
<rect x="3" y="3" width="26" height="26" rx="13" stroke="#151D21" stroke-width="2"/>
<rect x="37" y="3" width="26" height="26" rx="13" fill="#E8E9E9"/>
<path fill-rule="evenodd" clip-rule="evenodd" d="M50.0811 6.50904C50.2746 6.85242 50.2484 7.27745 50.0141 7.59442C49.1598 8.75008 48.7488 10.174 48.8557 11.6071C48.9625 13.0402 49.5802 14.3873 50.5964 15.4035C51.6126 16.4197 52.9597 17.0374 54.3929 17.1443C55.826 17.2511 57.2498 16.8401 58.4055 15.9859L58.9999 16.79L59.9957 16.882C59.8209 18.7734 59.1111 20.5758 57.9493 22.0785C56.7875 23.5811 55.2218 24.7218 53.4353 25.3671C51.6489 26.0124 49.7156 26.1355 47.8618 25.7221C46.0079 25.3088 44.3101 24.376 42.967 23.0329C41.6239 21.6898 40.6911 19.992 40.2778 18.1381C39.8644 16.2843 39.9876 14.351 40.6328 12.5646C41.2781 10.7782 42.4188 9.21244 43.9215 8.05065C45.4241 6.88886 47.2265 6.17904 49.1179 6.00426C49.5104 5.96799 49.8876 6.16566 50.0811 6.50904ZM57.5608 18.6836C56.5077 19.0646 55.3781 19.2233 54.2441 19.1387C52.3333 18.9962 50.5371 18.1726 49.1822 16.8177C47.8273 15.4628 47.0037 13.6666 46.8612 11.7558C46.7766 10.6218 46.9353 9.4922 47.3163 8.43908C46.5387 8.72043 45.8055 9.12204 45.1448 9.63289C43.9427 10.5623 43.0301 11.8149 42.5139 13.244C41.9977 14.6732 41.8991 16.2198 42.2298 17.7029C42.5605 19.186 43.3068 20.5442 44.3812 21.6187C45.4557 22.6931 46.8139 23.4394 48.297 23.7701C49.7801 24.1008 51.3267 24.0022 52.7559 23.486C54.185 22.9698 55.4376 22.0573 56.367 20.8551C56.8779 20.1944 57.2795 19.4612 57.5608 18.6836Z" fill="#151D21"/>
<rect x="37" y="3" width="26" height="26" rx="13" stroke="#E8E9E9" stroke-width="2"/>
</svg>
