<svg width="32" height="32" viewBox="0 0 32 32" fill="none" xmlns="http://www.w3.org/2000/svg">
<path fill-rule="evenodd" clip-rule="evenodd" d="M16 12.9999C14.3431 12.9999 13 14.3431 13 15.9999C13 17.6568 14.3431 18.9999 16 18.9999C17.6569 18.9999 19 17.6568 19 15.9999C19 14.3431 17.6569 12.9999 16 12.9999ZM11 15.9999C11 13.2385 13.2386 10.9999 16 10.9999C18.7614 10.9999 21 13.2385 21 15.9999C21 18.7614 18.7614 20.9999 16 20.9999C13.2386 20.9999 11 18.7614 11 15.9999Z" fill="#F3F3F4"/>
<path fill-rule="evenodd" clip-rule="evenodd" d="M16 4.99994C16.5523 4.99994 17 5.44765 17 5.99994V7.99994C17 8.55222 16.5523 8.99994 16 8.99994C15.4477 8.99994 15 8.55222 15 7.99994V5.99994C15 5.44765 15.4477 4.99994 16 4.99994Z" fill="#F3F3F4"/>
<path fill-rule="evenodd" clip-rule="evenodd" d="M16 22.9999C16.5523 22.9999 17 23.4477 17 23.9999V25.9999C17 26.5522 16.5523 26.9999 16 26.9999C15.4477 26.9999 15 26.5522 15 25.9999V23.9999C15 23.4477 15.4477 22.9999 16 22.9999Z" fill="#F3F3F4"/>
<path fill-rule="evenodd" clip-rule="evenodd" d="M8.29289 8.29283C8.68342 7.90231 9.31658 7.90231 9.70711 8.29283L11.2071 9.79283C11.5976 10.1834 11.5976 10.8165 11.2071 11.207C10.8166 11.5976 10.1834 11.5976 9.79289 11.207L8.29289 9.70705C7.90237 9.31652 7.90237 8.68336 8.29289 8.29283Z" fill="#F3F3F4"/>
<path fill-rule="evenodd" clip-rule="evenodd" d="M20.7929 20.7928C21.1834 20.4023 21.8166 20.4023 22.2071 20.7928L23.7071 22.2928C24.0976 22.6834 24.0976 23.3165 23.7071 23.707C23.3166 24.0976 22.6834 24.0976 22.2929 23.707L20.7929 22.207C20.4024 21.8165 20.4024 21.1834 20.7929 20.7928Z" fill="#F3F3F4"/>
<path fill-rule="evenodd" clip-rule="evenodd" d="M5 15.9999C5 15.4477 5.44772 14.9999 6 14.9999H8C8.55228 14.9999 9 15.4477 9 15.9999C9 16.5522 8.55228 16.9999 8 16.9999H6C5.44772 16.9999 5 16.5522 5 15.9999Z" fill="#F3F3F4"/>
<path fill-rule="evenodd" clip-rule="evenodd" d="M23 15.9999C23 15.4477 23.4477 14.9999 24 14.9999H26C26.5523 14.9999 27 15.4477 27 15.9999C27 16.5522 26.5523 16.9999 26 16.9999H24C23.4477 16.9999 23 16.5522 23 15.9999Z" fill="#F3F3F4"/>
<path fill-rule="evenodd" clip-rule="evenodd" d="M11.2071 20.7928C11.5976 21.1834 11.5976 21.8165 11.2071 22.207L9.70711 23.707C9.31658 24.0976 8.68342 24.0976 8.29289 23.707C7.90237 23.3165 7.90237 22.6834 8.29289 22.2928L9.79289 20.7928C10.1834 20.4023 10.8166 20.4023 11.2071 20.7928Z" fill="#F3F3F4"/>
<path fill-rule="evenodd" clip-rule="evenodd" d="M23.7071 8.29283C24.0976 8.68336 24.0976 9.31652 23.7071 9.70705L22.2071 11.207C21.8166 11.5976 21.1834 11.5976 20.7929 11.207C20.4024 10.8165 20.4024 10.1834 20.7929 9.79283L22.2929 8.29283C22.6834 7.90231 23.3166 7.90231 23.7071 8.29283Z" fill="#F3F3F4"/>
</svg>
