<svg width="336" height="74" viewBox="0 0 336 74" fill="none" xmlns="http://www.w3.org/2000/svg">
<path fill-rule="evenodd" clip-rule="evenodd" d="M110.098 8.28792V13.8853L108.145 13.926L106.193 13.9675L106.154 17.4663L106.115 20.9652H108.106H110.098V32.8839C110.098 43.6155 110.121 44.8107 110.33 44.8911C110.635 45.0078 117.664 45.0078 117.968 44.8911C118.178 44.8107 118.201 43.6155 118.201 32.8875V20.9731L120.417 20.9325L122.633 20.8918V17.4292V13.9675L120.419 13.9269L118.204 13.8862L118.166 8.3277L118.127 2.77008L114.112 2.73119L110.098 2.69141V8.28792Z" fill="#151D21"/>
<path fill-rule="evenodd" clip-rule="evenodd" d="M295.556 57.6076L295.514 59.0512L295.035 59.0971C294.561 59.1431 294.556 59.1493 294.556 59.9351C294.556 60.7201 294.561 60.7272 295.035 60.7723L295.514 60.8191L295.554 63.8026L295.594 66.786H296.549H297.503V63.7655V60.7449H298.092H298.682V59.9351V59.1245H298.097H297.514L297.472 57.6881L297.429 56.2516L296.514 56.2083L295.598 56.1641L295.556 57.6076Z" fill="white"/>
<path fill-rule="evenodd" clip-rule="evenodd" d="M261.625 0.839129C261.299 0.940787 260.863 1.13526 260.656 1.2714C260.449 1.40753 260.223 1.46852 260.156 1.40753C260.089 1.34653 260.071 1.36245 260.117 1.44377C260.163 1.5251 259.974 1.82035 259.698 2.10057C258.501 3.31429 258.6 -0.00861359 258.644 37.2912L258.682 70.3947L259.081 71.1513C259.582 72.1025 260.479 72.8787 261.377 73.1394C262.359 73.425 332.311 73.4417 333.248 73.1571C334.071 72.9061 335.115 71.9513 335.576 71.0267L335.957 70.2629V37.1647C335.957 1.99891 335.989 3.55827 335.237 2.54876C335.025 2.265 334.853 1.983 334.852 1.92289C334.852 1.8619 334.799 1.81593 334.734 1.81947C334.671 1.82389 334.419 1.65947 334.175 1.45527C333.137 0.581888 335.448 0.632276 297.219 0.642884C269.504 0.65084 262.094 0.691503 261.625 0.839129ZM145.237 2.26146C144.464 2.364 142.315 2.83693 140.743 3.25064C138.84 3.75274 134.312 6.34547 133.397 7.45753C133.286 7.59189 133.135 7.66438 133.062 7.6193C132.988 7.57333 132.943 7.59101 132.963 7.65731C132.982 7.72449 132.637 8.1435 132.193 8.58903C118.175 22.6868 128.76 46.6543 148.699 45.9639C152.45 45.834 157.431 44.4382 159.105 43.0486C159.239 42.9381 159.569 43.2563 160.371 44.2711C160.969 45.0251 161.914 46.2229 162.474 46.9319L163.491 48.2216H166.105C169.192 48.2216 169.132 48.2676 167.963 46.7967C166.509 44.9686 165.654 43.8848 164.044 41.826L162.814 40.2543L163.902 39.1148C166.249 36.6591 167.667 34.3121 168.893 30.8584C170.878 25.261 169.632 16.468 166.178 11.7086C164.524 9.42881 160.646 5.6427 159.965 5.6427C159.916 5.6427 159.598 5.45176 159.26 5.21928C158.576 4.749 156.436 3.72092 155.539 3.43097C155.221 3.32843 154.828 3.19406 154.666 3.13307C152.681 2.37991 147.769 1.92554 145.237 2.26146ZM195.919 2.25704C194.692 2.39582 192.01 2.93241 191.499 3.14191C191.337 3.20821 191.006 3.30633 190.764 3.35937C187.725 4.02678 182.701 7.62548 180.31 10.8476C178.952 12.6775 177.449 15.4196 177.208 16.5034C177.175 16.6483 176.985 17.3626 176.784 18.0919C174.967 24.6891 176.493 32.4522 180.664 37.826C181.045 38.3175 181.367 38.7851 181.382 38.8655C181.395 38.9469 181.457 39.0158 181.517 39.0185C181.578 39.022 181.959 39.3561 182.365 39.7619C190.979 48.3852 207.074 48.1032 215.548 39.1811C217.23 37.4114 217.347 37.7667 214.335 35.5011L213.451 34.8363L212.493 35.8246C210.184 38.2078 207.223 40.1199 204.802 40.7891C196.527 43.0777 189.232 40.957 184.276 34.8222C183.832 34.2732 183.469 33.78 183.469 33.7269C183.469 33.673 183.298 33.3707 183.088 33.0542C181.249 30.2741 180.448 25.7074 181.031 21.3237C181.414 18.4525 182.776 15.1765 184.261 13.5553C184.536 13.2547 184.721 13.009 184.673 13.009C184.472 13.009 186.419 11.1535 187.447 10.3658C193.933 5.3943 203.532 5.40845 210.077 10.3994C211.043 11.1367 212.791 12.9011 213.064 13.4147C213.319 13.8938 213.382 13.8664 215.144 12.5307C217.125 11.0271 217.078 11.1685 216.033 9.86993C214.984 8.56516 211.685 5.6427 211.263 5.6427C211.227 5.6427 210.777 5.39165 210.261 5.08403C206.574 2.88379 200.677 1.72134 195.919 2.25704ZM231.572 2.27561C223.332 3.79694 220.272 13.2786 226.063 19.3445C226.411 19.7096 226.68 20.0623 226.663 20.1286C226.644 20.1958 226.692 20.2117 226.768 20.1648C226.844 20.118 227.188 20.3947 227.532 20.7801C227.876 21.1655 228.105 21.39 228.041 21.2795C227.977 21.1681 228.387 21.4669 228.954 21.9425C229.521 22.4181 230.64 23.303 231.442 23.9103C233.704 25.6225 235.053 26.7337 235.138 26.9529C235.179 27.0634 235.297 27.1527 235.398 27.1527C235.769 27.1527 238.527 30.1892 239.183 31.3198C241.039 34.5163 240.241 38.1575 237.231 40.2233C235.281 41.5617 232.226 41.9436 230.321 41.0879C228.738 40.3763 226.459 38.4722 226.612 37.9895C226.64 37.9038 226.614 37.8817 226.556 37.94C226.426 38.07 225.714 37.1347 224.936 35.8114C224.254 34.6498 224.208 34.6392 223.038 35.3817C222.546 35.6947 221.845 36.1225 221.481 36.3347C221.116 36.546 220.729 36.7793 220.62 36.8518C220.407 36.995 221.204 38.5659 222.045 39.6611C222.269 39.9528 222.562 40.3665 222.696 40.5814C222.83 40.7953 223.474 41.5051 224.128 42.1593C225.178 43.2077 225.788 43.6815 227.237 44.5725C229.121 45.7297 232.975 46.306 235.463 45.8022C244.426 43.9856 248.081 33.7402 242.127 27.1165C241.854 26.8124 241.66 26.564 241.697 26.564C242.182 26.564 238.049 23.0307 233.977 19.965C230.673 17.4775 229.537 16.4485 228.816 15.2914C225.987 10.7468 229.188 6.03431 234.477 6.95985C236.022 7.23034 238.941 8.99301 238.643 9.47567C238.601 9.54373 238.643 9.64804 238.739 9.70727C238.856 9.77887 238.872 9.74705 238.791 9.6065C238.592 9.26439 239.944 10.8096 240.307 11.3391C240.753 11.9897 240.712 12.003 242.468 10.6646C243.309 10.0229 244.037 9.53666 244.083 9.58351C244.178 9.67898 244.202 9.59235 244.244 8.99478C244.26 8.77201 244.228 8.58903 244.174 8.58903C244.119 8.58903 243.794 8.24162 243.451 7.81554C239.896 3.40357 235.803 1.49416 231.572 2.27561ZM151.351 6.99255C156.975 8.08339 161.955 12.2372 164.001 17.5456C166.433 23.8546 164.836 32.1667 160.394 36.3179L159.967 36.7175L159.158 35.6699C158.713 35.0936 158.117 34.3413 157.834 33.9983C157.55 33.6553 157.014 32.9853 156.644 32.5106C156.273 32.035 155.246 30.7346 154.361 29.6208L152.753 27.5947H150.063C148.584 27.5947 147.373 27.646 147.373 27.7079C147.373 27.7706 147.622 28.1286 147.925 28.5043C148.229 28.8809 149.046 29.9072 149.74 30.7859C150.434 31.6646 151.528 33.0463 152.168 33.8569C154.072 36.2595 154.28 36.5504 154.176 36.6547C154.121 36.7095 154.157 36.7316 154.254 36.7051C154.351 36.6777 154.583 36.8651 154.769 37.1205C154.956 37.376 155.416 37.9815 155.794 38.466L156.479 39.3464L155.182 39.9626C149.816 42.5129 143.001 41.9833 138.091 38.6357C136.884 37.8127 134.824 35.86 134.948 35.6576C135.001 35.5745 134.976 35.5471 134.894 35.5974C134.609 35.7734 133.215 33.7932 132.254 31.8476C129.797 26.8734 130.097 19.9049 132.974 15.1084C133.23 14.6832 133.495 14.3349 133.564 14.3349C133.632 14.3349 133.654 14.2801 133.613 14.2129C133.511 14.0476 135.022 12.2293 136.029 11.3037C136.995 10.4162 138.159 9.47301 138.288 9.47301C138.338 9.47301 138.736 9.24583 139.172 8.96738C142.444 6.8741 146.961 6.14216 151.351 6.99255ZM122.685 17.4289C122.685 19.2525 122.706 19.9986 122.732 19.0864C122.757 18.175 122.757 16.6837 122.732 15.7714C122.706 14.86 122.685 15.6061 122.685 17.4289ZM306.054 56.1784C310.199 56.9643 312.036 61.7891 309.43 65.0457C308.889 65.721 308.872 65.6017 309.658 66.6032C310.48 67.6499 310.479 67.6702 309.621 67.6631C308.967 67.6578 308.89 67.6154 308.444 67.0081L307.966 66.3584L307.265 66.6704C305.735 67.3511 303.468 67.1398 302.021 66.1816C297.066 62.8993 300.223 55.0725 306.054 56.1784ZM318.896 56.1934C319.924 56.4082 321.271 57.1296 321.828 57.7643L322.275 58.2734L321.945 58.6244C321.517 59.0796 321.456 59.0717 320.752 58.4688C317.582 55.7559 312.979 57.9419 313.305 62.0065C313.594 65.6017 318.008 67.2026 320.822 64.7318L321.364 64.2554L321.81 64.5727C322.368 64.9705 322.365 65.0368 321.768 65.561C318.26 68.6408 312.765 66.9321 312.085 62.5502C311.456 58.4944 314.831 55.343 318.896 56.1934ZM327.859 56.4745C328.171 56.6336 328.609 57.004 328.834 57.2984L329.241 57.8332L328.834 58.1842C328.329 58.6182 328.237 58.6191 327.901 58.1974C327.21 57.3302 326.137 57.0854 325.526 57.6546C324.65 58.4706 325.027 59.305 326.941 60.7751C328.791 62.1966 329.229 62.818 329.297 64.1148C329.455 67.1381 325.544 68.1812 323.663 65.6185C323.127 64.8874 323.114 64.8459 323.379 64.6452C323.673 64.4216 324.172 64.22 324.224 64.304C325.448 66.2452 327.231 66.4556 327.956 64.7442C328.302 63.9256 327.801 63.1433 325.949 61.6061C324.245 60.1917 323.891 59.6816 323.882 58.6306C323.864 56.5523 325.875 55.4624 327.859 56.4745ZM297.504 57.568V58.9585L298.056 59.0045L298.609 59.0505L298.652 59.8876L298.696 60.7256L298.137 60.7716L297.577 60.8184L297.537 63.8019L297.497 66.7853H296.469H295.44V63.7648V60.7442H294.991H294.542L294.586 59.8973C294.628 59.0956 294.652 59.0478 295.036 59.0036L295.44 58.9568V57.6653C295.44 56.1245 295.401 56.1775 296.57 56.1775H297.504V57.568ZM304.207 57.3391C300.948 58.1948 299.744 62.0613 301.969 64.5241C302.996 65.6609 304.782 66.1701 306.277 65.752C307.218 65.4885 307.213 65.4523 306.058 63.9884C304.835 62.4379 304.818 62.3654 305.66 62.3654C306.284 62.3654 306.327 62.3964 307.168 63.4704C308.145 64.7177 308.18 64.7248 308.735 63.8266C310.659 60.7141 307.669 56.4295 304.207 57.3391ZM235.53 60.5232C235.351 60.9926 235.592 61.1862 236.357 61.1862H237.097V64.2651V67.3431L237.675 67.3988C237.994 67.4289 238.251 67.4192 238.247 67.3776C238.244 67.3352 238.249 65.9252 238.259 64.2439L238.277 61.1862H239.013C239.733 61.1862 239.749 61.1765 239.749 60.7442V60.3022H237.683C235.981 60.3022 235.6 60.342 235.53 60.5232ZM241.151 60.6337C240.989 61.3347 240.194 66.5847 240.193 66.9692C240.191 67.4041 241.218 67.6234 241.226 67.1902C241.236 66.7226 241.773 63.3864 241.851 63.3086C241.899 63.26 242.391 64.1572 242.944 65.3029C244.239 67.9867 244.199 67.9893 245.584 65.1721C246.774 62.7491 246.599 62.6845 247.052 65.7166L247.299 67.3741H247.813C248.271 67.3741 248.318 67.3387 248.248 67.0426C248.147 66.6147 247.885 64.7301 247.783 63.6914C247.587 61.7068 247.279 60.3022 247.039 60.3022C246.921 60.3022 246.287 61.4204 245.535 62.9559L244.235 65.6088L243.107 63.3608C242.485 62.1241 241.909 60.9307 241.825 60.7079C241.64 60.2182 241.258 60.1767 241.151 60.6337ZM50.6904 66.3062L50.6507 71.8073L51.3136 71.764L51.9766 71.7206L52.05 70.2214L52.1234 68.723L52.591 69.1412C52.8474 69.371 53.0135 69.6088 52.9587 69.6689C52.9048 69.729 52.9375 69.7352 53.0312 69.6813C53.1293 69.6247 53.4688 69.8811 53.8286 70.2833C54.1733 70.6687 54.3988 70.8844 54.3298 70.7633C54.2608 70.6413 54.4712 70.7739 54.7974 71.0576C55.1236 71.3414 55.3641 71.6234 55.3322 71.6835C55.3004 71.7445 55.7088 71.794 56.2401 71.794C57.4591 71.794 57.4635 71.6588 56.2772 70.6501C55.7751 70.2232 54.8116 69.3613 54.1362 68.7345L52.9075 67.5951L54.4668 66.2328C55.3243 65.4832 56.0545 64.8697 56.0898 64.8697C56.1711 64.8697 57.0595 63.9822 57.0595 63.9009C57.0595 63.5464 55.1457 63.8903 54.6224 64.3385C54.3015 64.6125 53.5749 65.2348 53.0074 65.7193L51.9766 66.6006L52.0199 64.0043C52.0739 60.7875 52.0809 60.8202 51.3225 60.8114L50.7311 60.8043L50.6904 66.3062ZM99.2522 60.9581C98.8376 61.0553 98.2002 61.3099 97.8351 61.5239C97.4709 61.7378 97.1306 61.8713 97.0793 61.82C97.0281 61.7687 96.9856 61.8297 96.9856 61.9561C96.9856 62.0825 96.8919 62.2222 96.7761 62.2664C95.5642 62.7323 94.4521 66.346 95.0603 67.8461C95.1354 68.0326 95.2345 68.3509 95.2795 68.5533C95.4121 69.1509 96.6038 70.605 97.3755 71.1089C99.3636 72.4084 102.929 72.2272 104.518 70.7456C104.745 70.5334 104.956 70.384 104.986 70.4141C105.015 70.4433 105.129 70.3018 105.238 70.0976C105.413 69.7706 105.403 69.7034 105.152 69.5062C104.459 68.9644 104.408 68.9688 103.642 69.622C100.315 72.4614 95.3874 69.3021 96.6055 65.1111C97.4762 62.1144 101.814 61.2215 103.933 63.603L104.324 64.0423L104.854 63.6384C105.521 63.1292 105.521 63.1177 104.711 62.3716C103.278 61.0509 101.172 60.5055 99.2522 60.9581ZM0.0424805 61.3152C0.0424805 61.4673 0.145023 61.8819 0.271433 62.2364C0.396959 62.5908 0.72315 63.7099 0.995418 64.7221C1.52051 66.6757 2.05797 68.5869 2.64228 70.5785C3.00825 71.8294 3.26638 72.0822 3.57842 71.4996C3.66505 71.3379 3.70306 71.2053 3.66329 71.2053C3.62351 71.2053 3.79411 70.7571 4.04251 70.2108C4.29091 69.6636 4.71169 68.6523 4.97866 67.9637C5.77159 65.9146 6.39303 64.3623 6.44077 64.3155C6.46552 64.2907 6.63348 64.6876 6.81558 65.1968C6.9968 65.7051 7.39989 66.7517 7.71105 67.5217C8.02133 68.2916 8.52874 69.5664 8.83725 70.3558C9.50731 72.0716 9.74069 72.1812 10.0934 70.9471C10.226 70.4813 10.5628 69.3047 10.8412 68.3323C11.1197 67.3599 11.5228 65.9341 11.7385 65.1641C11.9533 64.3942 12.2945 63.2308 12.4952 62.5776C12.9823 60.9917 12.9876 61.0147 12.1805 61.0677L11.4998 61.1128L11.0092 62.6598C10.7387 63.5102 10.5142 64.3119 10.5106 64.4401C10.5062 64.5683 10.2649 65.4249 9.97406 66.3425L9.44543 68.0114L9.1493 67.3617C8.98664 67.0037 8.6693 66.2143 8.44476 65.6061C8.22023 64.9988 7.83835 64.0043 7.59525 63.3961C7.35304 62.7888 7.05337 62.026 6.93049 61.7024C6.63171 60.9166 6.15524 60.8158 6.00319 61.5062C5.94485 61.7731 5.64783 62.5891 5.34374 63.3201C4.16804 66.1427 3.65445 67.4519 3.6845 67.5447C3.70218 67.5977 3.62881 67.7135 3.52096 67.8028C3.31941 67.9699 3.28494 67.8735 2.40537 64.6487C2.22858 64.0008 1.91476 62.9232 1.70879 62.2549L1.3331 61.0394H0.687789C0.154746 61.0394 0.0424805 61.0872 0.0424805 61.3152ZM28.8533 61.2233C28.7738 61.4814 28.6111 62.7278 28.5307 63.6914C28.4936 64.1369 28.2628 65.7608 28.0189 67.3007C27.774 68.8406 27.5362 70.4857 27.4885 70.9569L27.4027 71.8135L28.0498 71.7666C28.6924 71.7206 28.6978 71.7162 28.8056 71.0576C28.9294 70.2992 29.6533 65.0907 29.6595 64.9131C29.6648 64.7584 30.8379 66.9418 30.9024 67.2273C30.9307 67.3484 31.1835 67.8541 31.4646 68.35C31.7457 68.8468 32.0348 69.4099 32.1064 69.6026C32.4697 70.5821 33.2211 71.8099 33.4297 71.7666C33.6366 71.7242 33.9106 71.2557 35.0501 68.9953C35.2746 68.5489 35.5433 68.0194 35.6468 67.8161C35.7493 67.6136 36.1232 66.8499 36.4768 66.1197L37.1204 64.7911L37.3811 66.6351C37.5243 67.6499 37.7312 69.2083 37.8408 70.1003C37.9513 70.9913 38.0433 71.741 38.0468 71.7657C38.083 72.015 39.4488 71.6773 39.4214 71.4263C39.3418 70.7032 39.1924 69.683 38.9334 68.1113C38.6868 66.6085 38.4304 64.7787 38.2837 63.4704C38.0424 61.317 37.9655 61.05 37.58 61.0412C37.5217 61.0403 36.9984 62.0171 36.4167 63.2123C34.2165 67.7321 33.4395 69.2914 33.4067 69.2543C33.3457 69.1854 32.2169 66.9135 30.7707 63.9486C29.4403 61.2233 29.0319 60.6416 28.8533 61.2233ZM72.3817 61.3868C72.3817 61.5902 72.1562 63.169 71.8813 64.8963C71.6064 66.6245 71.373 68.137 71.3624 68.2581C71.2475 69.653 71.0875 70.91 70.9558 71.4625C70.8824 71.7692 70.9266 71.794 71.5454 71.794C72.3525 71.794 72.303 71.9116 72.6 69.2897C72.6327 69.0059 72.7238 68.3765 72.8033 67.8903C72.882 67.4041 72.9934 66.4768 73.0491 65.8298L73.1498 64.6532L73.4575 65.2401C73.6263 65.5628 73.7784 65.8934 73.7943 65.9747C73.8102 66.0561 74.0621 66.5431 74.3547 67.0567C74.6473 67.5712 74.886 68.0353 74.8851 68.0883C74.8816 68.4914 76.7335 71.794 76.9634 71.794C77.1791 71.794 78.5457 69.3958 78.6412 68.8477C78.688 68.5798 80.5674 65.0174 80.662 65.0174C80.7265 65.0174 80.784 65.2985 80.7901 65.6432C80.8025 66.3787 80.8299 66.6032 81.2684 69.5107L81.6016 71.7206L82.1683 71.7675C82.9488 71.832 82.9904 71.7357 82.772 70.3947C82.6668 69.7467 82.5033 68.5533 82.4087 67.7427C81.9623 63.908 81.4328 61.035 81.1747 61.0474C81.0226 61.0545 77.385 68.2006 77.3046 68.6497C77.134 69.5991 76.9298 69.3648 75.6966 66.8012C73.1808 61.5734 72.3817 60.2677 72.3817 61.3868ZM88.22 61.9597C87.8081 62.8896 87.0823 64.4357 85.7696 67.1796C83.4819 71.962 83.511 71.847 84.6222 71.7666L85.264 71.7206L85.79 70.5423C86.0799 69.8934 86.4317 69.1482 86.5723 68.8848L86.8278 68.4057L88.9237 68.4092L91.0187 68.4128L91.8293 70.0667C92.6391 71.7206 92.64 71.7206 93.2119 71.7675C94.0879 71.8391 94.1295 71.6641 93.5284 70.415C93.2331 69.8006 92.9989 69.2605 93.0077 69.2154C93.0165 69.1703 92.8247 68.7549 92.5807 68.2908C92.3376 67.8276 91.8762 66.8843 91.5544 66.1957C90.5688 64.083 89.8934 62.6218 89.5292 61.8129C89.0457 60.7389 88.746 60.7725 88.22 61.9597ZM107.075 61.2153C107.034 61.3223 107.018 63.7294 107.039 66.5652L107.078 71.7206L107.778 71.7657L108.477 71.8108V69.2976V66.7853H110.908H113.339V69.2967V71.809L114.039 71.7772L114.74 71.7454L114.699 66.392L114.658 61.0394H113.999H113.339V63.2494V65.4594H110.872H108.404V63.2856V61.1128L107.776 61.0677C107.359 61.0377 107.124 61.0872 107.075 61.2153ZM116.834 61.1305C116.775 61.1879 116.729 63.6145 116.729 66.5228V71.8108L117.428 71.7657L118.128 71.7206V66.4167V61.1128L117.533 61.0686C117.206 61.0447 116.891 61.073 116.834 61.1305ZM120.152 66.3796L120.19 71.7206H120.853H121.516L121.59 68.0494L121.664 64.3791L123.653 66.6404C124.746 67.885 125.973 69.2738 126.378 69.7272C126.784 70.1807 127.357 70.8411 127.653 71.1947C128.665 72.4039 128.671 72.3748 128.627 66.384L128.588 61.1128H127.953H127.317L127.331 64.83C127.343 67.801 127.307 68.5303 127.157 68.4649C126.863 68.3359 125.341 66.4406 125.396 66.2726C125.423 66.1895 125.402 66.1657 125.349 66.2178C125.296 66.2709 124.976 66.0057 124.637 65.6291C124.298 65.2516 123.988 64.9104 123.947 64.8697C123.907 64.8291 123.477 64.3323 122.992 63.7648C122.507 63.1972 122.075 62.7004 122.032 62.6598C121.989 62.6191 121.667 62.2381 121.316 61.8129C120.09 60.3261 120.107 60.2589 120.152 66.3796ZM130.907 66.3769L130.946 71.7206H133.966H136.986V71.0576V70.3947L134.588 70.354L132.189 70.3133L132.23 68.5126L132.272 66.7111L134.629 66.6854L136.986 66.6589V66.0225V65.3851L134.592 65.3453L132.198 65.3047V63.9124V62.5201L134.592 62.4794L136.986 62.4388V61.7758V61.1128L133.927 61.073L130.869 61.0332L130.907 66.3769ZM143.477 61.2233C143.365 61.5884 142.783 65.5548 142.704 66.4901C142.66 67.0169 142.474 68.3765 142.291 69.5107C141.909 71.8674 141.897 71.794 142.665 71.794C143.349 71.794 143.253 72.0813 143.767 68.4791C144.347 64.4083 144.099 64.4198 146.051 68.3712C147.26 70.8163 147.813 71.7914 147.992 71.7922C148.171 71.794 148.729 70.8119 149.978 68.2952L151.714 64.7964L151.884 65.9933C152.061 67.2432 152.229 68.617 152.251 68.9953C152.27 69.3392 152.523 71.0939 152.607 71.4625C152.671 71.7463 152.778 71.794 153.344 71.794H154.005L153.92 70.9471C153.873 70.4813 153.573 68.4013 153.256 66.3257C152.938 64.2492 152.677 62.3389 152.677 62.0799C152.677 61.5707 152.453 61.0394 152.238 61.0394C152.086 61.0394 151.111 62.8118 151.167 62.9869C151.187 63.0505 151.138 63.1018 151.056 63.1018C150.975 63.1018 150.906 63.1849 150.903 63.2856C150.9 63.3873 150.248 64.7849 149.455 66.392L148.014 69.3135L145.962 65.18C144.09 61.4063 143.64 60.6911 143.477 61.2233ZM183.027 66.4167V71.794H183.69H184.353V69.2897V66.7853H186.784H189.215V69.2976V71.8108L189.915 71.7657L190.615 71.7206V66.4167V61.1128L189.915 61.0677L189.215 61.0226V63.2414V65.4594H186.784H184.353V63.2494V61.0394H183.69H183.027V66.4167ZM192.804 61.2595C192.541 61.9464 192.839 69.516 193.154 70.1135C194.489 72.6568 198.29 72.6886 199.604 70.1675C199.989 69.4285 200.11 67.9999 200.077 64.5754L200.044 61.1128H199.381H198.718L198.644 65.0907C198.555 69.9359 198.298 70.6156 196.563 70.6156C194.479 70.6156 194.307 70.2117 194.255 65.2012L194.212 61.0394H193.55C193.099 61.0394 192.862 61.1093 192.804 61.2595ZM203.212 61.3409C203.212 61.5186 202.984 63.1645 202.708 64.9979C202.059 69.2861 201.767 71.5447 201.842 71.6835C202 71.9734 203.032 71.794 203.113 71.4625C203.256 70.8747 203.818 66.9842 203.78 66.8455C203.76 66.7721 203.797 66.2479 203.861 65.6821L203.979 64.6523L205.744 68.2236C207.077 70.9206 207.574 71.794 207.776 71.794C207.976 71.794 208.398 71.0691 209.468 68.8848C211.518 64.7027 211.359 64.9855 211.506 65.249C211.576 65.3736 211.694 66.0852 211.769 66.8304C211.845 67.5747 212.023 68.9803 212.165 69.9527L212.424 71.7206L212.994 71.7675C213.746 71.8294 213.818 71.7215 213.658 70.7633C213.582 70.3169 213.456 69.3887 213.376 68.7001C212.914 64.7203 212.283 61.1172 212.043 61.0819C211.879 61.0571 209.285 65.9438 209.172 66.4901C209.164 66.5308 208.85 67.1831 208.475 67.9389L207.792 69.3144L205.757 65.2154C203.804 61.2808 203.212 60.3791 203.212 61.3409ZM219.44 61.2339C219.35 61.3418 219.053 61.9217 218.778 62.5236C218.162 63.8744 217.4 65.4983 216.433 67.5217C214.253 72.0822 214.33 71.794 215.292 71.794H216.028L216.83 70.1003L217.633 68.4057H219.744H221.856L222.093 68.8848C222.223 69.1482 222.587 69.9102 222.9 70.5785L223.47 71.794H224.169C224.554 71.794 224.869 71.7357 224.869 71.6632C224.869 71.4766 224.072 69.7043 223.389 68.3747C223.068 67.7506 222.807 67.1372 222.807 67.0125C222.807 66.887 222.729 66.7853 222.634 66.7853C222.54 66.7853 222.504 66.7447 222.552 66.6952C222.602 66.6457 222.4 66.1321 222.104 65.5531C221.807 64.9749 221.552 64.4348 221.537 64.3544C221.521 64.2731 221.171 63.4943 220.76 62.6227C220.032 61.0801 219.784 60.8193 219.44 61.2339ZM226.083 66.3796L226.122 71.7206H226.785H227.448L227.521 68.0494L227.594 64.3782L230.467 67.672C232.048 69.4841 233.513 71.1637 233.723 71.4051C234.575 72.3836 234.601 72.2307 234.558 66.384L234.52 61.1128H233.857H233.194L233.119 64.7858L233.046 68.4587L232.58 67.9531C232.051 67.3785 229.489 64.4269 227.761 62.3999C225.943 60.2695 226.037 60.0476 226.083 66.3796ZM17.3536 63.6366C15.2285 64.1705 14.0386 65.6459 14.0386 67.7462C14.0386 71.2159 17.6258 73.1987 20.4281 71.2786C21.1503 70.7836 22.158 69.5292 21.9653 69.3648C21.9406 69.3445 21.7081 69.219 21.4482 69.0872C20.9372 68.8273 20.9682 68.8114 20.3582 69.6256C18.9863 71.4545 15.9984 70.7801 15.4565 68.5188L15.3602 68.1166L18.7883 68.0768L22.2155 68.0371L22.1713 67.4483C21.9865 64.9988 19.5626 63.0806 17.3536 63.6366ZM43.5257 63.7126C40.453 64.5966 39.47 68.4278 41.7233 70.735C43.1509 72.198 45.5288 72.3845 46.9945 71.1487L47.463 70.7535L47.5098 71.2371C47.554 71.695 47.5876 71.7206 48.1454 71.7206H48.7351L48.7739 67.7798L48.8137 63.8381H48.1481C47.509 63.8381 47.4824 63.8558 47.4824 64.2739V64.7106L46.7629 64.2624C45.6694 63.5827 44.6051 63.4023 43.5257 63.7126ZM60.6689 63.6737C57.193 64.5869 56.3753 69.1827 59.319 71.2627L60.1747 71.8683H61.674C63.3845 71.8683 64.1341 71.5138 65.0234 70.2859C65.8561 69.1367 64.9261 68.3836 64.0041 69.4594C62.2874 71.4607 58.8275 70.6086 58.8275 68.1847C58.8275 68.1467 60.3683 68.0989 62.253 68.0768L65.6784 68.0371L65.6581 67.3741C65.5838 64.9413 63.0371 63.0523 60.6689 63.6737ZM158.202 63.748C153.637 65.317 154.467 71.802 159.249 71.9284C163.696 72.0459 165.128 66.0508 161.142 63.9999C160.37 63.6021 158.974 63.4828 158.202 63.748ZM167.041 63.7533C166.798 63.862 166.451 64.0945 166.268 64.2686L165.936 64.5869V64.2121C165.936 63.8673 165.885 63.8381 165.273 63.8381H164.611V67.8161V71.794H165.273H165.936V69.592C165.936 66.1179 166.494 64.6929 167.76 64.9307C168.224 65.0174 168.884 64.4401 168.884 63.946C168.884 63.6154 167.64 63.4854 167.041 63.7533ZM171.885 63.8072C168.347 65.066 168.04 69.8572 171.388 71.5633C172.239 71.9964 174.017 72.0778 174.87 71.7224C175.676 71.3865 177.388 69.5991 177.114 69.3781C176.706 69.0492 176.017 68.8583 175.884 69.0368C174.168 71.3467 171.593 71.2283 170.576 68.7929C170.284 68.0936 170.198 68.1113 173.937 68.1113H177.322L177.242 67.2273C177.012 64.6868 174.291 62.9506 171.885 63.8072ZM89.6344 65.4134C90.445 67.1168 90.4609 67.0797 88.9069 67.0797C87.2751 67.0797 87.3281 67.2079 88.2085 65.394C88.6196 64.5462 88.9803 63.9327 89.0086 64.03C89.0377 64.1272 89.3188 64.7495 89.6344 65.4134ZM221.039 66.8596C221.039 67.07 218.567 67.2105 218.367 67.0116C218.33 66.9745 218.624 66.2682 219.019 65.4426L219.739 63.9407L220.388 65.2905C220.746 66.0322 221.039 66.7385 221.039 66.8596ZM19.3434 65.165C19.8508 65.424 20.6685 66.354 20.6685 66.6722C20.6685 66.7341 19.5414 66.7853 18.1642 66.7853C15.3292 66.7853 15.1728 66.7049 16.1328 65.7449C17.0362 64.8415 18.272 64.6178 19.3434 65.165ZM46.2793 65.4222C48.0067 66.8207 47.8634 69.4594 46.0115 70.3363C42.5631 71.9699 40.1303 66.9586 43.5134 65.1906C44.4079 64.723 45.5315 64.8176 46.2793 65.4222ZM62.6233 65.0978C63.2713 65.3683 63.7849 65.8227 64.0749 66.3796L64.2861 66.7853H61.704C60.2834 66.7853 59.1219 66.7482 59.1219 66.704C59.1219 65.4664 61.2125 64.5082 62.6233 65.0978ZM160.304 65.0978C163.139 66.2824 162.356 70.6307 159.313 70.6112C157.284 70.5989 155.962 68.5162 156.805 66.6589C157.456 65.2233 158.979 64.5444 160.304 65.0978ZM174.232 65.1075C174.849 65.4205 175.344 65.8784 175.605 66.3796L175.816 66.7853H173.234C171.813 66.7853 170.652 66.7341 170.652 66.6722C170.652 65.5336 173.023 64.4976 174.232 65.1075Z" fill="#151D21"/>
<path fill-rule="evenodd" clip-rule="evenodd" d="M303.756 56.3145C299.076 57.4345 298.237 64.0512 302.486 66.3159C303.935 67.0876 306.085 67.1787 307.349 66.5201L307.933 66.2152L308.501 66.8808C309.014 67.4819 309.123 67.542 309.622 67.4969L310.177 67.4474L309.512 66.6023C308.731 65.6105 308.748 65.6936 309.224 65.127C312.594 61.1225 308.854 55.0937 303.756 56.3145ZM315.993 56.3826C310.424 58.1488 310.982 66.2187 316.722 66.91C318.836 67.1646 322.108 66.0065 322.108 65.0041C322.108 64.4799 321.362 64.4039 320.827 64.8741C317.371 67.908 312.051 64.647 313.322 60.273C314.209 57.2224 318.756 56.128 320.918 58.4458C321.554 59.1274 322.386 58.6332 321.818 57.9101C320.75 56.5523 317.855 55.793 315.993 56.3826ZM325.109 56.5435C323.429 57.5503 323.616 59.6268 325.52 61.1146C328.253 63.252 328.768 64.2792 327.659 65.3877C326.702 66.3442 325.481 66.1586 324.524 64.9104C324.075 64.3234 324.062 64.319 323.677 64.5524C323.191 64.8467 323.191 64.8282 323.743 65.5787C325.323 67.7277 328.524 67.3033 329.182 64.8582C329.572 63.4103 328.891 62.3389 326.399 60.4869C325.378 59.7276 325.056 59.2829 325.055 58.6341C325.053 57.1516 326.616 56.7167 327.778 57.8774C328.368 58.4688 328.454 58.4865 328.808 58.0949C329.78 57.0208 326.563 55.6727 325.109 56.5435ZM306.694 57.5088C309.267 58.4714 310.295 61.9075 308.678 64.1396C308.129 64.898 308.144 64.9033 307.159 63.6162C306.33 62.5351 306.298 62.5113 305.66 62.5113H305.008L306.13 63.9062C307.387 65.47 307.389 65.5071 306.237 65.8421C303.533 66.628 300.745 64.5108 300.744 61.6697C300.744 58.4653 303.709 56.3914 306.694 57.5088Z" fill="white"/>
<path fill-rule="evenodd" clip-rule="evenodd" d="M313.479 57.8346L313.046 58.3128L313.525 57.8806C313.971 57.4775 314.071 57.3555 313.957 57.3555C313.932 57.3555 313.717 57.5712 313.479 57.8346ZM320.813 58.4622C321.114 58.7769 321.385 59.005 321.414 58.9687C321.443 58.9325 321.196 58.6744 320.866 58.3959L320.265 57.8894L320.813 58.4622ZM299.605 61.481C299.605 61.8452 299.634 61.9946 299.67 61.8125C299.704 61.6295 299.704 61.3316 299.67 61.1495C299.634 60.9665 299.605 61.1159 299.605 61.481ZM310.505 61.702C310.506 62.0256 310.536 62.1414 310.572 61.9575C310.607 61.7745 310.606 61.5093 310.569 61.3688C310.532 61.2273 310.504 61.3776 310.505 61.702ZM320.845 64.7588L320.412 65.238L320.879 64.8163C321.162 64.5617 321.418 64.4397 321.529 64.5078C321.645 64.5803 321.673 64.5591 321.606 64.4503C321.443 64.1878 321.314 64.2408 320.845 64.7588Z" fill="#151D21"/>
<path fill-rule="evenodd" clip-rule="evenodd" d="M304.686 56.1348C304.868 56.1693 305.166 56.1693 305.349 56.1348C305.531 56.0995 305.382 56.0703 305.018 56.0703C304.653 56.0703 304.503 56.0995 304.686 56.1348ZM317.432 56.1366C317.656 56.1702 317.988 56.1693 318.169 56.134C318.35 56.0995 318.167 56.0712 317.761 56.073C317.356 56.0738 317.208 56.1021 317.432 56.1366ZM295.471 57.6049L295.441 58.9574L295.036 59.0193L294.631 59.0803L295.04 59.1024C295.566 59.1307 295.611 58.9884 295.551 57.4918L295.501 56.2515L295.471 57.6049ZM321.224 57.2549C321.224 57.2805 321.439 57.4962 321.703 57.734L322.181 58.1671L321.749 57.688C321.346 57.2416 321.224 57.1417 321.224 57.2549ZM297.763 59.0812C297.947 59.1165 298.212 59.1156 298.352 59.0785C298.493 59.0414 298.344 59.0131 298.019 59.014C297.695 59.0158 297.58 59.0458 297.763 59.0812ZM295.503 63.8388C295.503 65.4998 295.525 66.1796 295.551 65.3495C295.577 64.5186 295.577 63.1599 295.551 62.3289C295.525 61.498 295.503 62.1778 295.503 63.8388ZM311.979 61.5554C311.981 61.8799 312.011 61.9948 312.046 61.8118C312.082 61.6279 312.08 61.3627 312.044 61.2222C312.006 61.0816 311.977 61.231 311.979 61.5554ZM127.253 64.9438C127.253 66.9699 127.274 67.8194 127.299 66.8311C127.324 65.8428 127.324 64.1853 127.299 63.1475C127.274 62.1097 127.253 62.9186 127.253 64.9438ZM305.604 62.4757C305.967 62.5075 306.365 62.6118 306.488 62.7073C306.683 62.8593 306.686 62.8487 306.51 62.6233C306.362 62.4359 306.122 62.3731 305.626 62.3917L304.943 62.4173L305.604 62.4757ZM321.954 64.7652C322.127 64.995 322.099 65.0878 321.729 65.5016L321.304 65.9754L321.813 65.498C322.31 65.0304 322.315 65.0145 322.038 64.7608C321.768 64.5133 321.765 64.5141 321.954 64.7652ZM301.04 65.3858C301.315 65.6695 301.573 65.902 301.613 65.902C301.653 65.902 301.461 65.6695 301.187 65.3858C300.912 65.1029 300.653 64.8704 300.614 64.8704C300.573 64.8704 300.765 65.1029 301.04 65.3858ZM309.143 65.2381C308.953 65.4406 308.826 65.6306 308.859 65.6607C308.894 65.6907 309.076 65.5254 309.264 65.2929C309.686 64.7731 309.612 64.7396 309.143 65.2381ZM317.506 66.0063C317.689 66.0408 317.954 66.0399 318.094 66.0028C318.236 65.9656 318.086 65.9374 317.761 65.9391C317.438 65.9409 317.322 65.971 317.506 66.0063ZM133.414 66.748C134.042 66.7754 135.07 66.7754 135.697 66.748C136.325 66.7206 135.811 66.6976 134.555 66.6976C133.299 66.6976 132.785 66.7206 133.414 66.748ZM88.1831 67.0415C88.5677 67.0715 89.1979 67.0715 89.5825 67.0415C89.9679 67.0114 89.6523 66.9858 88.8832 66.9858C88.1133 66.9858 87.7986 67.0114 88.1831 67.0415ZM219.013 67.0415C219.398 67.0715 220.028 67.0715 220.412 67.0415C220.798 67.0114 220.482 66.9858 219.713 66.9858C218.943 66.9858 218.628 67.0114 219.013 67.0415ZM309.18 67.6275C309.402 67.662 309.767 67.662 309.99 67.6275C310.213 67.594 310.03 67.5665 309.584 67.5665C309.139 67.5665 308.957 67.594 309.18 67.6275Z" fill="#151D21"/>
</svg>
