<svg width="556" height="335" viewBox="0 0 556 335" fill="none" xmlns="http://www.w3.org/2000/svg">
<rect width="556" height="335" rx="8" fill="#F2F4FF"/>
<g clip-path="url(#clip0_48_73485)">
<path d="M277.665 162.935C269.475 162.935 262.805 156.275 262.805 148.085V142.095H240.065V123.005H245.925C251.915 123.005 256.785 118.135 256.785 112.145C256.785 106.155 251.915 101.295 245.925 101.295H240.065V82.2051H315.255V101.295H309.395C303.415 101.295 298.545 106.165 298.545 112.145C298.545 118.125 303.415 123.005 309.395 123.005H315.255V142.095H292.515V148.085C292.515 156.275 285.855 162.935 277.665 162.935ZM244.065 138.095H266.805V148.085C266.805 154.065 271.675 158.935 277.665 158.935C283.655 158.935 288.515 154.065 288.515 148.085V138.095H311.255V127.005H309.395C301.205 127.005 294.545 120.335 294.545 112.145C294.545 103.955 301.205 97.2951 309.395 97.2951H311.255V86.2051H244.065V97.2951H245.925C254.115 97.2951 260.785 103.955 260.785 112.145C260.785 120.335 254.115 127.005 245.925 127.005H244.065V138.095Z" fill="#0C67E8"/>
<path d="M243.945 221.786H217.205V211.776C217.205 205.786 212.335 200.916 206.345 200.916C200.355 200.916 195.495 205.786 195.495 211.776V221.786H168.755V162.516H243.945V177.056H249.955C258.145 177.056 264.805 183.716 264.805 191.906C264.805 200.106 258.145 206.766 249.955 206.766H243.945V221.786ZM221.205 217.786H239.945V202.766H249.955C255.935 202.766 260.805 197.896 260.805 191.916C260.805 185.926 255.935 181.056 249.955 181.056H239.945V166.516H172.755V217.786H191.495V211.776C191.495 203.586 198.155 196.916 206.345 196.916C214.535 196.916 221.205 203.586 221.205 211.776V217.786Z" fill="#0C67E8"/>
<path d="M243.945 262.274H233.545C225.355 262.274 218.685 255.614 218.685 247.424C218.685 239.234 225.355 232.564 233.545 232.564H243.945V236.564H233.545C227.555 236.564 222.685 241.434 222.685 247.424C222.685 253.414 227.555 258.274 233.545 258.274H243.945V262.274Z" fill="#0C67E8"/>
<path d="M243.945 277.055H168.755V217.785H193.495V221.785H172.755V273.055H239.945V260.275H243.945V277.055Z" fill="#0C67E8"/>
<path d="M243.945 234.565H239.945V221.785H219.205V217.785H243.945V234.565Z" fill="#0C67E8"/>
<path d="M387.245 221.786H360.505V211.776C360.505 205.786 355.635 200.916 349.655 200.916C343.675 200.916 338.795 205.786 338.795 211.776V221.786H312.055V206.766H306.045C297.855 206.766 291.195 200.106 291.195 191.916C291.195 183.716 297.855 177.056 306.045 177.056H312.055V162.516H387.245V221.786ZM364.505 217.786H383.245V166.516H316.055V181.056H306.045C300.065 181.056 295.195 185.926 295.195 191.906C295.195 197.896 300.065 202.766 306.045 202.766H316.055V217.786H334.795V211.776C334.795 203.586 341.465 196.916 349.655 196.916C357.845 196.916 364.505 203.586 364.505 211.776V217.786Z" fill="#0C67E8"/>
<path d="M313.255 277.055H240.065V260.275H244.065V273.055H313.255V277.055Z" fill="#0C67E8"/>
<path d="M277.655 242.655C269.465 242.655 262.805 235.985 262.805 227.795V221.785H244.065V236.535H240.065V217.785H266.805V227.795C266.805 233.785 271.675 238.655 277.655 238.655C283.635 238.655 288.515 233.785 288.515 227.795V217.785H313.255V221.785H292.515V227.795C292.515 235.985 285.845 242.655 277.655 242.655Z" fill="#0C67E8"/>
<path d="M322.455 262.274H312.055V258.274H322.455C328.445 258.274 333.315 253.404 333.315 247.424C333.315 241.444 328.445 236.564 322.455 236.564H312.055V232.564H322.455C330.645 232.564 337.315 239.234 337.315 247.424C337.315 255.614 330.645 262.274 322.455 262.274Z" fill="#0C67E8"/>
<path d="M387.245 277.055H312.055V260.275H316.055V273.055H383.245V221.785H362.505V217.785H387.245V277.055Z" fill="#0C67E8"/>
<path d="M316.055 234.565H312.055V217.785H336.795V221.785H316.055V234.565Z" fill="#0C67E8"/>
<path d="M335.125 112.135H327.295C326.195 112.135 325.295 111.235 325.295 110.135C325.295 109.035 326.195 108.135 327.295 108.135H335.125C336.225 108.135 337.125 109.035 337.125 110.135C337.125 111.235 336.225 112.135 335.125 112.135Z" fill="#0C67E8"/>
<path d="M228.415 112.135H220.585C219.485 112.135 218.585 111.235 218.585 110.135C218.585 109.035 219.485 108.135 220.585 108.135H228.415C229.515 108.135 230.415 109.035 230.415 110.135C230.415 111.235 229.515 112.135 228.415 112.135Z" fill="#0C67E8"/>
<path d="M278.685 72.3153C277.585 72.3153 276.685 71.4153 276.685 70.3153V59.9453C276.685 58.8453 277.585 57.9453 278.685 57.9453C279.785 57.9453 280.685 58.8453 280.685 59.9453V70.3253C280.685 71.4253 279.785 72.3253 278.685 72.3253V72.3153Z" fill="#0C67E8"/>
<path d="M322.425 75.086C321.915 75.086 321.405 74.886 321.015 74.496C320.235 73.716 320.235 72.446 321.015 71.666L326.555 66.126C327.335 65.346 328.605 65.346 329.385 66.126C330.165 66.906 330.165 68.176 329.385 68.956L323.845 74.496C323.455 74.886 322.945 75.086 322.435 75.086H322.425Z" fill="#0C67E8"/>
<path d="M234.955 75.086C234.445 75.086 233.935 74.886 233.545 74.496L228.005 68.956C227.225 68.176 227.225 66.906 228.005 66.126C228.785 65.346 230.055 65.346 230.835 66.126L236.375 71.666C237.155 72.446 237.155 73.716 236.375 74.496C235.985 74.886 235.475 75.086 234.965 75.086H234.955Z" fill="#0C67E8"/>
</g>
<defs>
<clipPath id="clip0_48_73485">
<rect width="218.49" height="219.11" fill="white" transform="translate(168.755 57.9453)"/>
</clipPath>
</defs>
</svg>
