<svg width="260" height="56" viewBox="0 0 260 56" fill="none" xmlns="http://www.w3.org/2000/svg">
<g clip-path="url(#clip0_234_23279)">
<mask id="mask0_234_23279" style="mask-type:luminance" maskUnits="userSpaceOnUse" x="0" y="0" width="260" height="56">
<path d="M0 0H260V56H0V0Z" fill="white"/>
</mask>
<g mask="url(#mask0_234_23279)">
<path d="M248 0H12C5.373 0 0 5.373 0 12V44C0 50.627 5.373 56 12 56H248C254.627 56 260 50.627 260 44V12C260 5.373 254.627 0 248 0Z" fill="white"/>
<path d="M50 28C50 18.059 41.941 10 32 10C22.059 10 14 18.059 14 28C14 37.941 22.059 46 32 46C41.941 46 50 37.941 50 28Z" fill="#E74A36"/>
<path d="M24.6706 29.078C25.3166 27.943 26.1186 26.971 27.2296 26.302C27.3566 26.224 27.5896 26.256 27.7396 26.31C29.8256 27.119 31.8596 27.002 33.8326 25.952C34.7556 25.462 35.4906 24.762 35.8726 23.72C35.9856 23.409 35.9486 23.222 35.6706 23.012C33.9606 21.736 32.0986 21.565 30.1326 22.164C25.8036 23.479 22.8556 26.388 21.1136 30.657C21.0616 30.79 21.0156 30.93 20.9566 31.054C20.7616 31.458 20.4316 31.645 20.1166 31.536C19.8086 31.428 19.5686 31.006 19.6366 30.619C19.7036 30.253 19.7866 29.879 19.8986 29.529C20.6046 27.289 21.8646 25.384 23.2826 23.572C25.1806 21.169 27.6046 19.699 30.5306 19.17C33.9296 18.556 36.8636 19.629 39.3996 22C39.5126 22.11 39.5796 22.351 39.5576 22.507C39.2726 24.56 38.3796 26.247 36.7136 27.461C35.3556 28.449 33.9146 29.226 32.2566 29.475C31.7386 29.553 31.2066 29.506 30.6886 29.522H30.0956C30.2236 29.662 30.2836 29.748 30.3656 29.817C32.3246 31.505 34.5076 32.75 37.0136 33.309C37.7736 33.487 38.5646 33.474 39.3176 33.271C39.5796 33.201 39.8426 33.091 40.0826 32.96C41.4256 32.213 41.6806 31.178 40.8106 29.887C40.5026 29.437 40.1276 29.032 39.7446 28.565C39.9326 28.293 40.1496 27.982 40.3606 27.671C42.0186 28.34 43.2716 30.121 43.2496 31.785C43.2336 33.216 42.5436 34.266 41.4116 35.02C40.3376 35.728 39.1216 35.915 37.8846 35.868C32.5946 35.674 28.3246 33.294 24.8206 29.281C24.7686 29.219 24.7306 29.156 24.6706 29.078Z" fill="white"/>
<path d="M66.4506 25H64.3096L67.5736 15.546H70.1496L73.4096 25H71.2666L68.8986 17.706H68.8246L66.4506 25ZM66.3176 21.284H71.3776V22.844H66.3176V21.284ZM76.4756 20.901V25H74.5086V17.91H76.3836V19.16H76.4666C76.6236 18.748 76.8866 18.422 77.2566 18.181C77.6246 17.938 78.0726 17.817 78.5996 17.817C79.0916 17.817 79.5206 17.924 79.8876 18.14C80.2536 18.355 80.5376 18.663 80.7416 19.063C80.9446 19.46 81.0456 19.934 81.0456 20.485V25H79.0796V20.836C79.0826 20.402 78.9716 20.063 78.7466 19.82C78.5226 19.574 78.2126 19.451 77.8186 19.451C77.5741 19.4459 77.3325 19.5045 77.1176 19.621C76.9176 19.736 76.7606 19.901 76.6466 20.121C76.5356 20.336 76.4786 20.596 76.4756 20.901ZM84.5626 20.901V25H82.5956V17.91H84.4706V19.16H84.5536C84.7106 18.748 84.9736 18.422 85.3436 18.181C85.7116 17.938 86.1596 17.817 86.6866 17.817C87.1786 17.817 87.6076 17.924 87.9746 18.14C88.3406 18.355 88.6246 18.663 88.8286 19.063C89.0316 19.46 89.1326 19.934 89.1326 20.485V25H87.1666V20.836C87.1696 20.402 87.0586 20.063 86.8336 19.82C86.6096 19.574 86.2996 19.451 85.9056 19.451C85.6611 19.4459 85.4195 19.5045 85.2046 19.621C85.0046 19.736 84.8476 19.901 84.7336 20.121C84.6226 20.336 84.5656 20.596 84.5626 20.901ZM95.2306 21.981V17.909H97.1966V25H95.3096V23.712H95.2356C95.0756 24.128 94.8096 24.462 94.4366 24.714C94.0676 24.966 93.6166 25.092 93.0846 25.092C92.6458 25.1012 92.213 24.9895 91.8336 24.769C91.47 24.55 91.1768 24.2314 90.9886 23.851C90.7886 23.453 90.6866 22.978 90.6836 22.424V17.909H92.6506V22.073C92.6536 22.492 92.7656 22.823 92.9876 23.066C93.2096 23.309 93.5056 23.43 93.8776 23.43C94.1156 23.43 94.3376 23.377 94.5436 23.269C94.7496 23.158 94.9156 22.995 95.0416 22.779C95.1716 22.564 95.2336 22.298 95.2306 21.981ZM100.792 25.134C100.34 25.134 99.9366 25.055 99.5816 24.898C99.2396 24.7481 98.9481 24.5031 98.7416 24.192C98.5386 23.878 98.4376 23.487 98.4376 23.02C98.4376 22.626 98.5096 22.295 98.6546 22.027C98.7986 21.759 98.9956 21.544 99.2446 21.381C99.4946 21.218 99.7776 21.094 100.095 21.011C100.425 20.9264 100.761 20.8678 101.101 20.836C101.514 20.793 101.846 20.753 102.099 20.716C102.351 20.676 102.534 20.617 102.648 20.541C102.703 20.5038 102.749 20.4527 102.779 20.3927C102.809 20.3328 102.822 20.266 102.819 20.199V20.171C102.819 19.879 102.726 19.653 102.542 19.493C102.36 19.333 102.102 19.253 101.766 19.253C101.412 19.253 101.131 19.331 100.921 19.488C100.72 19.6296 100.574 19.8347 100.506 20.07L98.6866 19.922C98.7786 19.491 98.9606 19.119 99.2316 18.805C99.5016 18.488 99.8516 18.245 100.28 18.075C100.711 17.903 101.209 17.817 101.775 17.817C102.169 17.817 102.546 17.863 102.907 17.955C103.27 18.048 103.591 18.191 103.871 18.385C104.155 18.578 104.378 18.828 104.541 19.132C104.704 19.434 104.785 19.796 104.785 20.217V25H102.92V24.017H102.865C102.75 24.2392 102.595 24.4379 102.408 24.603C102.217 24.769 101.988 24.9 101.72 24.995C101.42 25.0924 101.106 25.1394 100.792 25.134ZM101.355 23.777C101.645 23.777 101.9 23.72 102.122 23.606C102.343 23.489 102.517 23.332 102.643 23.135C102.77 22.938 102.833 22.715 102.833 22.465V21.713C102.771 21.753 102.686 21.79 102.579 21.823C102.461 21.8574 102.342 21.887 102.223 21.912C102.091 21.936 101.959 21.959 101.826 21.981L101.466 22.031C101.258 22.0588 101.054 22.1133 100.861 22.193C100.703 22.2559 100.564 22.3594 100.46 22.493C100.361 22.6262 100.31 22.7892 100.317 22.955C100.317 23.223 100.414 23.427 100.608 23.569C100.804 23.707 101.054 23.777 101.355 23.777ZM108.278 15.545V25H106.311V15.546L108.278 15.545ZM112.899 25V15.546H116.629C117.343 15.546 117.952 15.673 118.457 15.929C118.965 16.181 119.351 16.539 119.616 17.004C119.884 17.466 120.017 18.009 120.017 18.634C120.017 19.262 119.882 19.802 119.611 20.254C119.34 20.704 118.948 21.048 118.434 21.288C117.923 21.528 117.305 21.648 116.578 21.648H114.081V20.042H116.255C116.637 20.042 116.954 19.99 117.206 19.885C117.458 19.78 117.646 19.623 117.769 19.415C117.895 19.205 117.959 18.945 117.959 18.634C117.959 18.32 117.895 18.055 117.769 17.84C117.639 17.6182 117.439 17.4458 117.201 17.35C116.949 17.237 116.631 17.18 116.246 17.18H114.898V25H112.899ZM118.005 20.697L120.354 25H118.148L115.849 20.697H118.005ZM130.118 20.273C130.118 21.303 129.923 22.181 129.532 22.904C129.144 23.627 128.615 24.18 127.944 24.561C127.276 24.94 126.525 25.129 125.691 25.129C124.851 25.129 124.097 24.939 123.429 24.557C122.761 24.175 122.233 23.623 121.846 22.9C121.458 22.176 121.264 21.3 121.264 20.273C121.264 19.242 121.458 18.365 121.846 17.641C122.233 16.918 122.761 16.367 123.429 15.989C124.097 15.607 124.851 15.416 125.691 15.416C126.525 15.416 127.276 15.607 127.944 15.989C128.615 16.367 129.144 16.919 129.532 17.641C129.923 18.365 130.118 19.241 130.118 20.273ZM128.092 20.273C128.092 19.605 127.992 19.042 127.792 18.583C127.595 18.125 127.316 17.777 126.956 17.54C126.596 17.303 126.174 17.184 125.691 17.184C125.208 17.184 124.786 17.303 124.426 17.54C124.066 17.777 123.786 18.125 123.586 18.583C123.389 19.042 123.291 19.605 123.291 20.273C123.291 20.941 123.389 21.503 123.586 21.963C123.786 22.421 124.066 22.769 124.426 23.006C124.786 23.243 125.208 23.361 125.691 23.361C126.174 23.361 126.596 23.243 126.956 23.006C127.316 22.769 127.595 22.421 127.792 21.962C127.992 21.504 128.092 20.941 128.092 20.272V20.273ZM136.728 18.265C136.691 17.892 136.533 17.603 136.252 17.397C135.972 17.191 135.592 17.087 135.112 17.087C134.786 17.087 134.511 17.134 134.286 17.226C134.082 17.2999 133.903 17.4295 133.769 17.6C133.652 17.7574 133.591 17.9484 133.593 18.144C133.583 18.2994 133.62 18.454 133.7 18.588C133.78 18.714 133.889 18.823 134.027 18.916C134.166 19.005 134.326 19.083 134.507 19.151C134.689 19.216 134.883 19.271 135.089 19.317L135.939 19.52C136.351 19.613 136.73 19.736 137.074 19.89C137.419 20.043 137.717 20.233 137.97 20.457C138.222 20.682 138.418 20.947 138.556 21.251C138.703 21.5806 138.777 21.9381 138.773 22.299C138.77 22.878 138.622 23.379 138.33 23.804C138.041 24.226 137.622 24.554 137.074 24.788C136.529 25.018 135.872 25.134 135.103 25.134C134.34 25.134 133.675 25.017 133.109 24.783C132.545 24.549 132.105 24.203 131.788 23.744C131.474 23.283 131.31 22.712 131.294 22.032H133.229C133.25 22.349 133.341 22.613 133.501 22.826C133.664 23.035 133.881 23.193 134.152 23.301C134.426 23.406 134.735 23.458 135.08 23.458C135.38 23.4644 135.679 23.4142 135.962 23.31C136.214 23.212 136.409 23.075 136.548 22.9C136.685 22.7284 136.758 22.5146 136.756 22.295C136.762 22.0988 136.694 21.9075 136.566 21.759C136.415 21.5951 136.229 21.4685 136.022 21.389C135.739 21.2731 135.447 21.1808 135.149 21.113L134.12 20.854C133.323 20.66 132.693 20.357 132.232 19.945C131.77 19.533 131.541 18.977 131.544 18.278C131.541 17.706 131.693 17.206 132.001 16.778C132.312 16.35 132.738 16.016 133.279 15.776C133.821 15.536 134.437 15.416 135.126 15.416C135.828 15.416 136.44 15.536 136.963 15.776C137.49 16.016 137.899 16.35 138.191 16.778C138.484 17.206 138.635 17.701 138.644 18.265H136.728ZM145.247 18.265C145.21 17.892 145.051 17.603 144.771 17.397C144.491 17.191 144.111 17.087 143.631 17.087C143.305 17.087 143.029 17.134 142.804 17.226C142.58 17.316 142.407 17.44 142.287 17.6C142.171 17.7575 142.109 17.9485 142.112 18.144C142.102 18.2993 142.139 18.4539 142.218 18.588C142.298 18.714 142.407 18.823 142.546 18.916C142.684 19.005 142.844 19.083 143.026 19.151C143.208 19.216 143.401 19.271 143.608 19.317L144.457 19.52C144.87 19.613 145.248 19.736 145.593 19.89C145.937 20.043 146.236 20.233 146.488 20.457C146.741 20.682 146.936 20.947 147.075 21.251C147.216 21.556 147.289 21.905 147.292 22.299C147.289 22.878 147.141 23.379 146.848 23.804C146.559 24.226 146.141 24.554 145.593 24.788C145.048 25.018 144.391 25.134 143.622 25.134C142.858 25.134 142.194 25.017 141.627 24.783C141.064 24.549 140.624 24.203 140.307 23.744C139.993 23.283 139.828 22.712 139.813 22.032H141.747C141.769 22.349 141.86 22.613 142.02 22.826C142.183 23.035 142.4 23.193 142.671 23.301C142.944 23.406 143.254 23.458 143.598 23.458C143.937 23.458 144.231 23.408 144.48 23.31C144.733 23.212 144.928 23.075 145.066 22.9C145.203 22.7286 145.277 22.5147 145.274 22.295C145.28 22.099 145.212 21.9079 145.085 21.759C144.962 21.615 144.78 21.491 144.54 21.389C144.257 21.2732 143.965 21.1809 143.668 21.113L142.638 20.854C141.841 20.66 141.212 20.357 140.75 19.945C140.288 19.533 140.059 18.977 140.062 18.278C140.059 17.706 140.211 17.206 140.519 16.778C140.83 16.35 141.256 16.016 141.798 15.776C142.34 15.536 142.955 15.416 143.645 15.416C144.346 15.416 144.959 15.536 145.482 15.776C146.008 16.016 146.418 16.35 146.71 16.778C147.002 17.206 147.153 17.701 147.162 18.265H145.247ZM153.644 15.545V25H151.645V15.546L153.644 15.545ZM157.218 20.901V25H155.252V17.91H157.126V19.16H157.209C157.358 18.7566 157.635 18.413 157.998 18.181C158.368 17.938 158.816 17.817 159.342 17.817C159.834 17.817 160.264 17.924 160.63 18.14C160.996 18.355 161.281 18.663 161.484 19.063C161.687 19.46 161.789 19.934 161.789 20.485V25H159.822V20.836C159.825 20.402 159.714 20.063 159.49 19.82C159.265 19.574 158.956 19.451 158.562 19.451C158.317 19.4458 158.075 19.5044 157.86 19.621C157.66 19.736 157.503 19.901 157.389 20.121C157.271 20.364 157.213 20.6312 157.218 20.901ZM165.951 25.115C165.433 25.121 164.925 24.9769 164.488 24.7C164.054 24.42 163.709 24.009 163.454 23.467C163.202 22.923 163.075 22.255 163.075 21.464C163.075 20.651 163.206 19.976 163.468 19.437C163.729 18.895 164.077 18.491 164.511 18.223C164.948 17.953 165.427 17.817 165.947 17.817C166.344 17.817 166.675 17.884 166.939 18.02C167.207 18.152 167.423 18.318 167.586 18.518C167.752 18.715 167.878 18.909 167.964 19.1H168.024V15.545H169.986V25H168.047V23.864H167.964C167.861 24.077 167.729 24.2746 167.572 24.451C167.406 24.641 167.189 24.8 166.921 24.926C166.656 25.052 166.333 25.115 165.951 25.115ZM166.575 23.55C166.892 23.55 167.159 23.464 167.378 23.292C167.6 23.116 167.769 22.872 167.886 22.558C168.006 22.244 168.066 21.876 168.066 21.454C168.066 21.033 168.007 20.667 167.89 20.356C167.792 20.0728 167.616 19.8231 167.383 19.636C167.149 19.463 166.865 19.3736 166.575 19.382C166.252 19.382 165.979 19.469 165.758 19.645C165.536 19.82 165.368 20.063 165.254 20.375C165.14 20.685 165.084 21.045 165.084 21.455C165.084 21.867 165.14 22.232 165.254 22.549C165.371 22.863 165.539 23.109 165.758 23.287C165.979 23.463 166.252 23.55 166.575 23.55ZM174.835 25.138C174.105 25.138 173.477 24.991 172.951 24.695C172.432 24.4012 172.012 23.9613 171.742 23.43C171.459 22.883 171.317 22.235 171.317 21.487C171.317 20.757 171.459 20.117 171.742 19.567C172.025 19.015 172.423 18.587 172.937 18.278C173.454 17.971 174.061 17.817 174.756 17.817C175.224 17.817 175.66 17.892 176.063 18.043C176.469 18.191 176.823 18.413 177.124 18.713C177.429 19.011 177.666 19.386 177.835 19.839C178.005 20.289 178.089 20.814 178.089 21.418V21.958H172.102V20.739H176.238C176.238 20.456 176.177 20.205 176.053 19.986C175.933 19.7709 175.756 19.5935 175.541 19.474C175.312 19.344 175.052 19.2783 174.789 19.284C174.49 19.284 174.225 19.354 173.994 19.493C173.77 19.6251 173.585 19.8146 173.459 20.042C173.328 20.2749 173.26 20.5372 173.26 20.804V21.962C173.26 22.313 173.325 22.616 173.454 22.872C173.587 23.127 173.773 23.324 174.013 23.462C174.253 23.602 174.538 23.671 174.867 23.671C175.086 23.671 175.286 23.64 175.467 23.578C175.641 23.5224 175.8 23.4278 175.932 23.3013C176.064 23.1747 176.166 23.0197 176.229 22.848L178.048 22.968C177.961 23.3929 177.765 23.7879 177.48 24.114C177.178 24.4499 176.802 24.7094 176.381 24.871C175.935 25.049 175.419 25.138 174.835 25.138ZM180.889 17.909L182.191 20.389L183.525 17.909H185.543L183.488 21.455L185.598 25H183.59L182.191 22.549L180.815 25H178.784L180.889 21.454L178.858 17.909H180.889ZM189.701 25V23.56L193.066 20.444C193.353 20.167 193.593 19.917 193.786 19.696C193.983 19.474 194.133 19.257 194.234 19.045C194.336 18.829 194.387 18.597 194.387 18.348C194.387 18.071 194.324 17.832 194.197 17.632C194.072 17.4305 193.893 17.2688 193.68 17.166C193.449 17.0524 193.194 16.9955 192.937 17C192.648 17 192.395 17.058 192.18 17.175C191.967 17.2893 191.793 17.4644 191.681 17.678C191.558 17.9195 191.498 18.1875 191.506 18.458H189.609C189.609 17.84 189.749 17.303 190.029 16.848C190.309 16.392 190.701 16.039 191.206 15.79C191.711 15.54 192.292 15.416 192.951 15.416C193.628 15.416 194.217 15.536 194.719 15.776C195.224 16.013 195.616 16.343 195.896 16.764C196.176 17.186 196.316 17.669 196.316 18.214C196.316 18.571 196.246 18.924 196.104 19.271C195.965 19.619 195.718 20.005 195.361 20.43C195.004 20.851 194.501 21.358 193.851 21.948L192.471 23.301V23.366H196.441V25H189.701ZM201.596 25.208C200.802 25.205 200.119 25.009 199.547 24.621C198.977 24.234 198.539 23.672 198.231 22.936C197.926 22.201 197.776 21.316 197.779 20.282C197.779 19.251 197.931 18.372 198.236 17.646C198.543 16.92 198.982 16.367 199.551 15.989C200.124 15.607 200.805 15.416 201.596 15.416C202.387 15.416 203.068 15.607 203.637 15.989C204.209 16.37 204.649 16.924 204.957 17.651C205.265 18.374 205.417 19.251 205.414 20.282C205.414 21.319 205.26 22.206 204.953 22.942C204.648 23.677 204.211 24.238 203.642 24.626C203.072 25.014 202.39 25.208 201.596 25.208ZM201.596 23.55C202.138 23.55 202.57 23.278 202.894 22.733C203.217 22.189 203.377 21.371 203.374 20.282C203.374 19.565 203.3 18.968 203.152 18.491C203.008 18.014 202.801 17.655 202.534 17.415C202.279 17.179 201.943 17.0501 201.596 17.055C201.058 17.055 200.627 17.325 200.304 17.863C199.981 18.401 199.818 19.208 199.814 20.282C199.814 21.008 199.887 21.615 200.031 22.101C200.179 22.584 200.387 22.947 200.655 23.191C200.922 23.431 201.236 23.551 201.596 23.551V23.55ZM206.84 25V23.56L210.205 20.444C210.491 20.167 210.731 19.917 210.925 19.696C211.122 19.474 211.271 19.257 211.373 19.045C211.475 18.829 211.525 18.597 211.525 18.348C211.525 18.071 211.462 17.832 211.336 17.632C211.211 17.4307 211.032 17.269 210.819 17.166C210.588 17.0524 210.333 16.9955 210.076 17C209.786 17 209.534 17.058 209.319 17.175C209.106 17.289 208.932 17.4642 208.82 17.678C208.697 17.9195 208.637 18.1875 208.645 18.458H206.747C206.747 17.84 206.887 17.303 207.167 16.848C207.447 16.392 207.84 16.039 208.345 15.79C208.849 15.54 209.431 15.416 210.09 15.416C210.767 15.416 211.356 15.536 211.858 15.776C212.334 15.9896 212.742 16.3317 213.035 16.764C213.315 17.186 213.455 17.669 213.455 18.214C213.455 18.571 213.384 18.924 213.243 19.271C213.104 19.619 212.856 20.005 212.499 20.43C212.142 20.851 211.639 21.358 210.99 21.948L209.609 23.301V23.366H213.58V25H206.84ZM215.028 25V23.56L218.393 20.444C218.68 20.167 218.92 19.917 219.114 19.696C219.311 19.474 219.46 19.257 219.561 19.045C219.663 18.829 219.714 18.597 219.714 18.348C219.714 18.071 219.651 17.832 219.525 17.632C219.4 17.4307 219.22 17.269 219.007 17.166C218.776 17.0524 218.521 16.9955 218.264 17C217.975 17 217.723 17.058 217.507 17.175C217.294 17.289 217.12 17.4643 217.009 17.678C216.886 17.9194 216.826 18.1874 216.833 18.458H214.936C214.936 17.84 215.076 17.303 215.356 16.848C215.636 16.392 216.028 16.039 216.533 15.79C217.038 15.54 217.619 15.416 218.278 15.416C218.955 15.416 219.545 15.536 220.046 15.776C220.551 16.013 220.943 16.343 221.223 16.764C221.503 17.186 221.643 17.669 221.643 18.214C221.643 18.571 221.573 18.924 221.431 19.271C221.293 19.619 221.045 20.005 220.688 20.43C220.331 20.851 219.828 21.358 219.178 21.948L217.798 23.301V23.366H221.768V25H215.028ZM64.4826 36.508V35.728H69.9366V36.508H67.6506V43H66.7696V36.508H64.4826ZM72.6076 43.114C72.1146 43.114 71.6826 42.996 71.3116 42.762C70.9364 42.5213 70.6361 42.1805 70.4446 41.778C70.2386 41.357 70.1356 40.865 70.1356 40.301C70.1356 39.733 70.2386 39.237 70.4456 38.813C70.6536 38.389 70.9416 38.06 71.3116 37.826C71.6826 37.592 72.1146 37.474 72.6076 37.474C73.0996 37.474 73.5306 37.592 73.9006 37.826C74.2716 38.06 74.5606 38.389 74.7666 38.813C74.9746 39.237 75.0796 39.733 75.0796 40.301C75.0796 40.865 74.9746 41.357 74.7666 41.778C74.5606 42.2 74.2716 42.528 73.9006 42.762C73.5306 42.996 73.1006 43.114 72.6076 43.114ZM72.6076 42.361C72.9816 42.361 73.2896 42.265 73.5306 42.073C73.7726 41.881 73.9506 41.629 74.0666 41.317C74.1836 41.004 74.2416 40.666 74.2416 40.301C74.2416 39.937 74.1826 39.597 74.0666 39.282C73.9617 38.9831 73.7762 38.719 73.5306 38.519C73.2896 38.324 72.9816 38.227 72.6076 38.227C72.2336 38.227 71.9256 38.324 71.6846 38.519C71.4426 38.713 71.2646 38.967 71.1476 39.282C71.0294 39.609 70.9705 39.9544 70.9736 40.302C70.9736 40.666 71.0316 41.004 71.1476 41.317C71.2636 41.629 71.4426 41.881 71.6846 42.073C71.9256 42.265 72.2336 42.361 72.6076 42.361ZM76.3576 45.045V37.545H77.1676V38.412H77.2676C77.3493 38.2889 77.4347 38.1681 77.5236 38.05C77.6525 37.8857 77.8143 37.7502 77.9986 37.652C78.2076 37.534 78.4886 37.474 78.8446 37.474C79.3036 37.474 79.7086 37.589 80.0586 37.819C80.4086 38.049 80.6826 38.374 80.8786 38.795C81.0756 39.217 81.1736 39.714 81.1736 40.287C81.1736 40.865 81.0756 41.365 80.8786 41.789C80.7032 42.1853 80.4206 42.5247 80.0626 42.769C79.7146 42.999 79.3126 43.114 78.8586 43.114C78.5086 43.114 78.2276 43.056 78.0166 42.94C77.8289 42.8405 77.6635 42.7037 77.5306 42.538C77.4376 42.4165 77.3499 42.291 77.2676 42.162H77.1966V45.045H76.3576ZM77.1826 40.273C77.1826 40.685 77.2426 41.048 77.3626 41.363C77.4846 41.675 77.6606 41.92 77.8926 42.098C78.1246 42.273 78.4086 42.361 78.7446 42.361C79.0946 42.361 79.3876 42.269 79.6216 42.084C79.8586 41.897 80.0366 41.646 80.1546 41.331C80.2746 41.014 80.3356 40.661 80.3356 40.273C80.3356 39.889 80.2756 39.543 80.1586 39.236C80.0563 38.9451 79.8723 38.6899 79.6286 38.501C79.3946 38.318 79.0996 38.227 78.7446 38.227C78.4046 38.227 78.1176 38.314 77.8846 38.487C77.6536 38.657 77.4786 38.897 77.3596 39.204C77.235 39.5464 77.175 39.9088 77.1826 40.273ZM85.5776 39.491V40.273H82.3956V39.491H85.5776ZM89.3096 43.1C88.8926 43.1 88.5176 43.018 88.1836 42.852C87.8621 42.697 87.5856 42.4622 87.3806 42.17C87.1787 41.8792 87.0643 41.5367 87.0506 41.183H87.9026C87.9366 41.512 88.0856 41.784 88.3506 42C88.6176 42.213 88.9376 42.32 89.3096 42.32C89.6076 42.32 89.8726 42.25 90.1046 42.11C90.3371 41.9719 90.5273 41.7727 90.6546 41.534C90.7896 41.288 90.8576 41.01 90.8576 40.7C90.8576 40.383 90.7876 40.1 90.6476 39.851C90.5155 39.6055 90.3192 39.4006 90.0796 39.258C89.8289 39.1112 89.5431 39.0352 89.2526 39.038C89.02 39.0371 88.7886 39.0718 88.5666 39.141C88.3604 39.1967 88.165 39.2866 87.9886 39.407L87.1646 39.307L87.6046 35.728H91.3836V36.51H88.3436L88.0876 38.654H88.1306C88.2796 38.536 88.4666 38.438 88.6906 38.36C88.9166 38.282 89.1506 38.243 89.3946 38.243C89.8396 38.243 90.2366 38.349 90.5846 38.563C90.9346 38.773 91.2096 39.062 91.4076 39.429C91.6096 39.796 91.7096 40.215 91.7096 40.686C91.7096 41.15 91.6056 41.564 91.3976 41.929C91.1916 42.291 90.9076 42.577 90.5446 42.788C90.1679 42.9998 89.7416 43.1075 89.3096 43.1ZM95.4926 43.1C94.9576 43.1 94.5026 42.955 94.1256 42.664C93.7496 42.37 93.4616 41.945 93.2626 41.389C93.0636 40.83 92.9646 40.155 92.9646 39.365C92.9646 38.579 93.0646 37.908 93.2626 37.351C93.4636 36.792 93.7526 36.366 94.1296 36.073C94.5076 35.777 94.9626 35.629 95.4926 35.629C96.0226 35.629 96.4766 35.777 96.8526 36.073C97.2316 36.366 97.5206 36.793 97.7196 37.351C97.9196 37.907 98.0206 38.579 98.0206 39.365C98.0206 40.155 97.9216 40.83 97.7226 41.389C97.5236 41.945 97.2366 42.37 96.8596 42.664C96.4836 42.954 96.0276 43.1 95.4926 43.1ZM95.4926 42.32C96.0226 42.32 96.4346 42.063 96.7286 41.552C97.0216 41.041 97.1686 40.312 97.1686 39.365C97.1686 38.735 97.1016 38.199 96.9666 37.756C96.8336 37.313 96.6416 36.976 96.3916 36.744C96.1493 36.5144 95.8263 36.3894 95.4926 36.396C94.9676 36.396 94.5566 36.656 94.2606 37.174C93.9646 37.69 93.8166 38.42 93.8166 39.364C93.8166 39.994 93.8826 40.529 94.0156 40.97C94.1476 41.41 94.3386 41.745 94.5876 41.975C94.8376 42.205 95.1396 42.32 95.4926 42.32ZM104.627 37.546V38.256H101.686V37.546H104.627ZM102.568 43V36.793C102.568 36.48 102.641 36.22 102.788 36.011C102.935 35.803 103.126 35.647 103.36 35.543C103.594 35.438 103.842 35.386 104.102 35.386C104.374 35.377 104.645 35.4254 104.898 35.528L104.656 36.253C104.597 36.2342 104.538 36.2165 104.479 36.2C104.383 36.1762 104.285 36.1654 104.187 36.168C103.91 36.168 103.71 36.238 103.587 36.378C103.466 36.517 103.406 36.722 103.406 36.992V43H102.568ZM107.251 43.128C106.905 43.128 106.592 43.063 106.31 42.932C106.037 42.8076 105.805 42.6099 105.639 42.361C105.473 42.11 105.39 41.807 105.39 41.451C105.39 41.139 105.452 40.886 105.575 40.691C105.698 40.495 105.863 40.341 106.069 40.231C106.275 40.119 106.502 40.036 106.75 39.981C107.001 39.925 107.253 39.88 107.507 39.847C107.838 39.804 108.107 39.772 108.313 39.751C108.521 39.727 108.673 39.688 108.767 39.634C108.864 39.579 108.913 39.484 108.913 39.349V39.321C108.913 38.971 108.817 38.698 108.625 38.504C108.436 38.31 108.148 38.214 107.762 38.214C107.362 38.214 107.049 38.301 106.821 38.476C106.594 38.651 106.434 38.838 106.342 39.036L105.547 38.753C105.689 38.421 105.878 38.163 106.115 37.979C106.354 37.792 106.614 37.661 106.896 37.589C107.18 37.512 107.459 37.474 107.734 37.474C107.909 37.474 108.11 37.496 108.338 37.538C108.567 37.578 108.789 37.663 109.002 37.791C109.217 37.918 109.396 38.111 109.538 38.369C109.68 38.627 109.751 38.973 109.751 39.406V43H108.913V42.261H108.87C108.796 42.4024 108.701 42.5308 108.586 42.641C108.454 42.776 108.277 42.891 108.057 42.986C107.837 43.081 107.568 43.128 107.251 43.128ZM107.379 42.375C107.71 42.375 107.99 42.31 108.217 42.18C108.425 42.0674 108.6 41.901 108.722 41.698C108.845 41.4951 108.91 41.263 108.913 41.026V40.258C108.877 40.301 108.799 40.34 108.679 40.376C108.543 40.4129 108.405 40.4426 108.267 40.465C108 40.506 107.732 40.5414 107.464 40.571C107.256 40.5973 107.051 40.6439 106.853 40.71C106.68 40.7628 106.523 40.8592 106.399 40.99C106.285 41.113 106.228 41.281 106.228 41.494C106.228 41.785 106.336 42.006 106.551 42.154C106.769 42.302 107.045 42.375 107.379 42.375ZM115.144 38.767L114.392 38.98C114.34 38.8483 114.269 38.725 114.182 38.614C114.092 38.494 113.969 38.394 113.813 38.316C113.624 38.2314 113.419 38.1914 113.213 38.199C112.879 38.199 112.601 38.276 112.378 38.429C112.158 38.581 112.048 38.774 112.048 39.009C112.048 39.217 112.124 39.381 112.275 39.502C112.427 39.622 112.663 39.723 112.985 39.804L113.795 40.003C114.283 40.121 114.646 40.303 114.885 40.546C115.124 40.788 115.244 41.099 115.244 41.48C115.244 41.793 115.154 42.072 114.974 42.318C114.796 42.564 114.548 42.758 114.228 42.901C113.875 43.0496 113.495 43.1222 113.113 43.114C112.557 43.114 112.096 42.993 111.732 42.751C111.367 42.51 111.136 42.157 111.039 41.693L111.835 41.494C111.91 41.788 112.054 42.008 112.264 42.154C112.477 42.302 112.756 42.375 113.099 42.375C113.49 42.375 113.8 42.292 114.029 42.126C114.261 41.958 114.377 41.757 114.377 41.523C114.379 41.4341 114.362 41.3458 114.328 41.2638C114.293 41.1818 114.242 41.1079 114.178 41.047C114.046 40.917 113.842 40.82 113.568 40.756L112.659 40.543C112.159 40.424 111.792 40.241 111.558 39.993C111.326 39.741 111.21 39.428 111.21 39.051C111.21 38.743 111.296 38.471 111.469 38.234C111.644 37.998 111.882 37.812 112.183 37.677C112.508 37.5374 112.859 37.4682 113.213 37.474C113.752 37.474 114.176 37.593 114.484 37.83C114.794 38.066 115.014 38.379 115.144 38.767ZM118.877 37.545V38.255H116.051V37.545H118.877ZM116.875 36.239H117.713V41.438C117.713 41.674 117.747 41.852 117.816 41.97C117.876 42.0771 117.971 42.1602 118.086 42.205C118.197 42.242 118.314 42.261 118.437 42.261C118.561 42.2624 118.685 42.2483 118.806 42.219L118.977 42.972C118.899 42.9987 118.819 43.0198 118.739 43.035C118.611 43.0613 118.482 43.0734 118.352 43.071C118.115 43.071 117.883 43.021 117.656 42.918C117.43 42.8161 117.237 42.6555 117.095 42.453C116.948 42.245 116.875 41.982 116.875 41.665V36.239ZM122.366 43.114C121.841 43.114 121.388 42.998 121.006 42.766C120.626 42.5299 120.321 42.1898 120.129 41.786C119.926 41.364 119.824 40.874 119.824 40.316C119.824 39.756 119.926 39.264 120.129 38.838C120.335 38.41 120.622 38.076 120.989 37.837C121.358 37.595 121.789 37.474 122.281 37.474C122.565 37.474 122.846 37.522 123.123 37.617C123.4 37.711 123.652 37.865 123.879 38.078C124.107 38.288 124.288 38.568 124.423 38.916C124.558 39.264 124.625 39.693 124.625 40.202V40.557H120.42V39.832H123.773C123.778 39.5465 123.714 39.264 123.588 39.008C123.472 38.7727 123.293 38.5747 123.07 38.437C122.832 38.2931 122.558 38.2203 122.281 38.227C121.947 38.227 121.659 38.31 121.415 38.476C121.175 38.6363 120.983 38.8571 120.857 39.116C120.727 39.3783 120.66 39.6673 120.662 39.96V40.443C120.662 40.855 120.733 41.204 120.875 41.491C121.019 41.775 121.219 41.991 121.475 42.141C121.731 42.287 122.028 42.361 122.366 42.361C122.587 42.361 122.786 42.33 122.963 42.269C123.143 42.205 123.298 42.109 123.428 41.984C123.558 41.856 123.659 41.698 123.73 41.508L124.54 41.736C124.456 42.008 124.308 42.2562 124.11 42.46C123.909 42.666 123.66 42.827 123.364 42.943C123.068 43.057 122.736 43.114 122.366 43.114ZM129.763 38.767L129.011 38.98C128.959 38.8483 128.888 38.725 128.801 38.614C128.711 38.494 128.588 38.394 128.432 38.316C128.243 38.2312 128.038 38.1912 127.832 38.199C127.498 38.199 127.22 38.276 126.997 38.429C126.777 38.581 126.667 38.774 126.667 39.009C126.667 39.217 126.743 39.381 126.894 39.502C127.046 39.622 127.282 39.723 127.604 39.804L128.414 40.003C128.902 40.121 129.265 40.303 129.504 40.546C129.743 40.788 129.863 41.099 129.863 41.48C129.863 41.793 129.773 42.072 129.593 42.318C129.415 42.564 129.167 42.758 128.847 42.901C128.494 43.0496 128.114 43.1222 127.732 43.114C127.176 43.114 126.715 42.993 126.351 42.751C125.986 42.51 125.755 42.157 125.658 41.693L126.454 41.494C126.53 41.788 126.673 42.008 126.884 42.154C127.097 42.302 127.375 42.375 127.718 42.375C128.109 42.375 128.419 42.292 128.648 42.126C128.88 41.958 128.996 41.757 128.996 41.523C128.998 41.4342 128.981 41.346 128.947 41.2641C128.913 41.1821 128.862 41.1081 128.798 41.047C128.665 40.917 128.461 40.82 128.187 40.756L127.278 40.543C126.778 40.424 126.411 40.241 126.177 39.993C125.945 39.741 125.829 39.428 125.829 39.051C125.829 38.743 125.915 38.471 126.088 38.234C126.263 37.998 126.501 37.812 126.802 37.677C127.127 37.5374 127.478 37.4682 127.832 37.474C128.371 37.474 128.795 37.593 129.103 37.83C129.413 38.066 129.633 38.379 129.763 38.767ZM133.497 37.545V38.255H130.67V37.545H133.497ZM131.494 36.239H132.332V41.438C132.332 41.674 132.366 41.852 132.435 41.97C132.495 42.0771 132.59 42.1602 132.705 42.205C132.816 42.242 132.933 42.261 133.056 42.261C133.149 42.261 133.224 42.257 133.284 42.247L133.426 42.219L133.596 42.972C133.518 42.9987 133.438 43.0198 133.358 43.035C133.23 43.0613 133.101 43.0734 132.971 43.071C132.734 43.071 132.502 43.021 132.275 42.918C132.049 42.8161 131.856 42.6555 131.714 42.453C131.567 42.245 131.494 41.982 131.494 41.665V36.239ZM137.687 39.492V40.272H134.505V39.492H137.687ZM141.363 45.159C140.958 45.159 140.61 45.107 140.319 45.003C140.052 44.9153 139.805 44.7778 139.591 44.598C139.411 44.4456 139.256 44.2657 139.133 44.065L139.801 43.597C139.877 43.696 139.972 43.81 140.088 43.937C140.204 44.067 140.363 44.18 140.564 44.275C140.768 44.372 141.034 44.42 141.363 44.42C141.804 44.42 142.167 44.314 142.453 44.1C142.74 43.888 142.883 43.554 142.883 43.1V41.992H142.812C142.751 42.091 142.663 42.214 142.549 42.361C142.417 42.5225 142.252 42.6544 142.066 42.748C141.858 42.859 141.576 42.915 141.221 42.915C140.781 42.915 140.386 42.811 140.035 42.602C139.678 42.3842 139.391 42.0688 139.208 41.693C139.007 41.295 138.906 40.813 138.906 40.244C138.906 39.686 139.004 39.199 139.201 38.784C139.397 38.368 139.671 38.046 140.021 37.819C140.371 37.589 140.776 37.474 141.235 37.474C141.591 37.474 141.872 37.534 142.081 37.652C142.291 37.768 142.452 37.901 142.564 38.05C142.677 38.197 142.765 38.317 142.826 38.412H142.912V37.545H143.721V43.156C143.721 43.625 143.615 44.006 143.402 44.3C143.189 44.5974 142.892 44.8239 142.549 44.95C142.194 45.09 141.799 45.159 141.363 45.159ZM141.335 42.162C141.671 42.162 141.955 42.085 142.187 41.932C142.426 41.7691 142.611 41.5372 142.716 41.267C142.837 40.978 142.897 40.633 142.897 40.23C142.897 39.837 142.838 39.49 142.72 39.19C142.616 38.9089 142.433 38.6635 142.194 38.483C141.962 38.313 141.676 38.227 141.335 38.227C140.98 38.227 140.684 38.317 140.447 38.497C140.213 38.677 140.036 38.919 139.918 39.222C139.798 39.5445 139.739 39.8862 139.744 40.23C139.744 40.609 139.803 40.944 139.922 41.235C140.042 41.524 140.22 41.751 140.454 41.917C140.691 42.08 140.984 42.162 141.335 42.162ZM145.255 43V37.545H146.065V38.369H146.122C146.221 38.099 146.401 37.88 146.662 37.712C146.922 37.544 147.216 37.46 147.542 37.46C147.689 37.4611 147.836 37.4658 147.983 37.474V38.327C147.918 38.3138 147.852 38.3031 147.787 38.295C147.682 38.278 147.576 38.2696 147.471 38.27C147.206 38.27 146.969 38.325 146.761 38.437C146.557 38.5416 146.386 38.701 146.268 38.8973C146.15 39.0936 146.089 39.319 146.093 39.548V43H145.255ZM151.026 43.114C150.533 43.114 150.101 42.996 149.73 42.762C149.354 42.5213 149.054 42.1804 148.863 41.778C148.657 41.357 148.554 40.865 148.554 40.301C148.554 39.733 148.657 39.237 148.863 38.813C149.072 38.389 149.36 38.06 149.73 37.826C150.101 37.592 150.533 37.474 151.026 37.474C151.518 37.474 151.949 37.592 152.319 37.826C152.69 38.06 152.979 38.389 153.185 38.813C153.393 39.237 153.498 39.733 153.498 40.301C153.498 40.865 153.393 41.357 153.185 41.778C152.995 42.1812 152.694 42.5224 152.319 42.762C151.949 42.996 151.518 43.114 151.026 43.114ZM151.026 42.361C151.4 42.361 151.708 42.265 151.949 42.073C152.191 41.881 152.369 41.629 152.485 41.317C152.601 41.004 152.659 40.666 152.659 40.301C152.659 39.937 152.601 39.597 152.485 39.282C152.38 38.983 152.194 38.7189 151.949 38.519C151.708 38.324 151.4 38.227 151.026 38.227C150.652 38.227 150.344 38.324 150.103 38.519C149.856 38.7188 149.671 38.9829 149.566 39.282C149.447 39.609 149.388 39.9544 149.392 40.302C149.392 40.666 149.45 41.004 149.566 41.317C149.682 41.629 149.861 41.881 150.103 42.073C150.344 42.265 150.652 42.361 151.026 42.361ZM155.827 43L154.165 37.545H155.046L156.225 41.722H156.282L157.446 37.545H158.341L159.492 41.707H159.549L160.728 37.545H161.608L159.946 43H159.123L157.929 38.81H157.844L156.651 43H155.827ZM162.716 43V37.545H163.554V43H162.716ZM163.142 36.636C162.984 36.6383 162.833 36.5783 162.72 36.469C162.664 36.4183 162.62 36.3564 162.59 36.2875C162.56 36.2186 162.545 36.1442 162.546 36.069C162.546 35.912 162.604 35.779 162.72 35.667C162.833 35.5577 162.984 35.4976 163.142 35.5C163.306 35.5 163.445 35.556 163.561 35.667C163.617 35.7173 163.662 35.7791 163.693 35.8482C163.724 35.9174 163.739 35.9923 163.739 36.068C163.739 36.1437 163.724 36.2186 163.693 36.2878C163.662 36.357 163.617 36.4188 163.561 36.469C163.505 36.5233 163.44 36.566 163.368 36.5947C163.296 36.6234 163.219 36.6374 163.142 36.636ZM165.927 39.719V43H165.089V37.545H165.899V38.398H165.97C166.098 38.121 166.292 37.898 166.552 37.73C166.813 37.56 167.149 37.474 167.561 37.474C167.93 37.474 168.253 37.55 168.53 37.702C168.807 37.851 169.023 38.078 169.177 38.383C169.331 38.687 169.407 39.07 169.407 39.534V43H168.569V39.59C168.569 39.162 168.458 38.829 168.236 38.59C168.013 38.348 167.708 38.227 167.319 38.227C167.052 38.227 166.813 38.285 166.602 38.401C166.391 38.5192 166.22 38.6956 166.108 38.909C165.988 39.132 165.927 39.401 165.927 39.719ZM173.141 45.159C172.736 45.159 172.388 45.107 172.097 45.003C171.603 44.8398 171.183 44.5076 170.911 44.065L171.578 43.597C171.654 43.696 171.75 43.81 171.866 43.937C171.982 44.067 172.14 44.18 172.342 44.275C172.545 44.372 172.812 44.42 173.141 44.42C173.581 44.42 173.944 44.314 174.231 44.1C174.517 43.888 174.661 43.554 174.661 43.1V41.992H174.589C174.528 42.091 174.44 42.214 174.327 42.361C174.194 42.522 174.03 42.6538 173.844 42.748C173.635 42.859 173.354 42.915 172.999 42.915C172.582 42.9212 172.171 42.8129 171.812 42.602C171.455 42.3839 171.168 42.0686 170.985 41.693C170.784 41.295 170.683 40.813 170.683 40.244C170.683 39.686 170.781 39.199 170.978 38.784C171.174 38.368 171.448 38.046 171.798 37.819C172.159 37.5861 172.582 37.466 173.013 37.474C173.368 37.474 173.65 37.534 173.858 37.652C174.069 37.768 174.23 37.901 174.341 38.05C174.455 38.197 174.542 38.317 174.604 38.412H174.689V37.545H175.499V43.156C175.499 43.625 175.392 44.006 175.179 44.3C174.966 44.5971 174.669 44.8236 174.327 44.95C173.972 45.09 173.576 45.159 173.141 45.159ZM173.112 42.162C173.448 42.162 173.732 42.085 173.964 41.932C174.196 41.777 174.373 41.556 174.494 41.267C174.614 40.978 174.675 40.633 174.675 40.23C174.675 39.837 174.616 39.49 174.497 39.19C174.393 38.9087 174.211 38.6633 173.972 38.483C173.74 38.313 173.453 38.227 173.112 38.227C172.757 38.227 172.461 38.317 172.224 38.497C171.984 38.6852 171.801 38.9361 171.695 39.222C171.575 39.5445 171.516 39.8862 171.521 40.23C171.521 40.609 171.58 40.944 171.699 41.235C171.82 41.524 171.997 41.751 172.232 41.917C172.468 42.08 172.762 42.162 173.112 42.162ZM186.095 39.364C186.095 40.131 185.957 40.794 185.68 41.352C185.403 41.911 185.023 42.342 184.54 42.645C184.057 42.948 183.505 43.099 182.885 43.099C182.265 43.099 181.713 42.948 181.23 42.645C180.747 42.342 180.367 41.911 180.09 41.352C179.813 40.794 179.675 40.131 179.675 39.364C179.675 38.597 179.813 37.934 180.09 37.375C180.367 36.816 180.747 36.385 181.23 36.082C181.713 35.779 182.265 35.628 182.885 35.628C183.505 35.628 184.057 35.779 184.54 36.082C185.023 36.385 185.403 36.816 185.68 37.375C185.957 37.934 186.095 38.597 186.095 39.364ZM185.243 39.364C185.243 38.734 185.138 38.202 184.927 37.769C184.719 37.336 184.436 37.008 184.078 36.786C183.72 36.5628 183.306 36.4468 182.885 36.452C182.445 36.452 182.046 36.563 181.688 36.786C181.333 37.008 181.05 37.336 180.839 37.769C180.631 38.202 180.527 38.734 180.527 39.364C180.527 39.994 180.631 40.524 180.839 40.958C181.05 41.391 181.333 41.719 181.688 41.942C182.046 42.164 182.445 42.276 182.885 42.276C183.325 42.276 183.723 42.164 184.078 41.942C184.436 41.719 184.719 41.392 184.927 40.958C185.138 40.525 185.243 39.993 185.243 39.364ZM191.553 37.545C191.536 37.3749 191.481 37.2109 191.391 37.0655C191.302 36.9202 191.179 36.7975 191.035 36.707C190.732 36.508 190.36 36.409 189.92 36.409C189.598 36.409 189.316 36.461 189.075 36.565C188.835 36.67 188.648 36.813 188.513 36.995C188.381 37.177 188.315 37.385 188.315 37.617C188.31 37.7937 188.358 37.9677 188.453 38.117C188.548 38.255 188.669 38.369 188.815 38.462C188.962 38.552 189.116 38.626 189.277 38.685C189.438 38.742 189.586 38.788 189.721 38.824L190.46 39.023C190.649 39.073 190.86 39.141 191.092 39.229C191.326 39.316 191.55 39.436 191.763 39.587C191.978 39.737 192.156 39.928 192.295 40.163C192.435 40.397 192.505 40.685 192.505 41.026C192.505 41.419 192.402 41.774 192.196 42.091C191.992 42.408 191.694 42.661 191.301 42.847C190.911 43.034 190.436 43.127 189.877 43.127C189.356 43.127 188.905 43.044 188.524 42.876C188.168 42.726 187.859 42.4832 187.629 42.173C187.414 41.872 187.292 41.523 187.263 41.125H188.173C188.196 41.4 188.289 41.627 188.45 41.807C188.613 41.984 188.819 42.117 189.067 42.205C189.318 42.29 189.588 42.332 189.877 42.332C190.213 42.332 190.515 42.278 190.783 42.169C191.05 42.058 191.262 41.904 191.418 41.707C191.574 41.5092 191.657 41.2632 191.653 41.011C191.662 40.7958 191.589 40.585 191.45 40.421C191.301 40.2607 191.12 40.1351 190.918 40.053C190.685 39.9541 190.447 39.8709 190.204 39.804L189.309 39.548C188.741 39.385 188.291 39.152 187.96 38.848C187.628 38.546 187.462 38.149 187.462 37.659C187.462 37.252 187.572 36.897 187.793 36.594C188.015 36.288 188.313 36.052 188.688 35.884C189.064 35.714 189.484 35.628 189.948 35.628C190.417 35.628 190.834 35.712 191.198 35.88C191.563 36.046 191.852 36.273 192.065 36.562C192.28 36.851 192.394 37.179 192.406 37.545H191.553ZM200.515 38.767L199.763 38.98C199.711 38.8483 199.64 38.725 199.553 38.614C199.463 38.494 199.34 38.394 199.184 38.316C198.995 38.2313 198.79 38.1913 198.584 38.199C198.25 38.199 197.972 38.276 197.749 38.429C197.529 38.581 197.419 38.774 197.419 39.009C197.419 39.217 197.495 39.381 197.646 39.502C197.798 39.622 198.034 39.723 198.356 39.804L199.166 40.003C199.654 40.121 200.017 40.303 200.256 40.546C200.495 40.788 200.615 41.099 200.615 41.48C200.615 41.793 200.525 42.072 200.345 42.318C200.167 42.564 199.919 42.758 199.599 42.901C199.246 43.0496 198.866 43.1222 198.484 43.114C197.928 43.114 197.467 42.993 197.103 42.751C196.738 42.51 196.507 42.157 196.41 41.693L197.206 41.494C197.282 41.788 197.425 42.008 197.635 42.154C197.849 42.302 198.127 42.375 198.47 42.375C198.861 42.375 199.171 42.292 199.4 42.126C199.632 41.958 199.748 41.757 199.748 41.523C199.75 41.4342 199.733 41.346 199.699 41.2641C199.665 41.1821 199.614 41.1081 199.55 41.047C199.417 40.917 199.213 40.82 198.939 40.756L198.03 40.543C197.53 40.424 197.163 40.241 196.929 39.993C196.697 39.741 196.581 39.428 196.581 39.051C196.581 38.743 196.667 38.471 196.84 38.234C197.015 37.998 197.253 37.812 197.554 37.677C197.879 37.5374 198.23 37.4682 198.584 37.474C199.123 37.474 199.547 37.593 199.855 37.83C200.165 38.066 200.385 38.379 200.515 38.767ZM204.249 37.545V38.255H201.422V37.545H204.249ZM202.246 36.239H203.084V41.438C203.084 41.674 203.118 41.852 203.187 41.97C203.247 42.0771 203.342 42.1602 203.457 42.205C203.568 42.242 203.685 42.261 203.808 42.261C203.901 42.261 203.976 42.257 204.036 42.247L204.178 42.219L204.348 42.972C204.27 42.9987 204.19 43.0198 204.11 43.035C203.982 43.0613 203.853 43.0734 203.723 43.071C203.486 43.071 203.254 43.021 203.027 42.918C202.801 42.8161 202.608 42.6555 202.466 42.453C202.319 42.245 202.246 41.982 202.246 41.665V36.239ZM207.114 43.128C206.789 43.1322 206.468 43.0653 206.173 42.932C205.9 42.8073 205.668 42.6097 205.502 42.361C205.336 42.11 205.254 41.807 205.254 41.451C205.254 41.139 205.315 40.886 205.438 40.691C205.561 40.495 205.726 40.341 205.932 40.231C206.138 40.119 206.365 40.036 206.614 39.981C206.865 39.925 207.117 39.88 207.37 39.847C207.701 39.804 207.97 39.772 208.176 39.751C208.384 39.727 208.536 39.688 208.631 39.634C208.728 39.579 208.776 39.484 208.776 39.349V39.321C208.776 38.971 208.68 38.698 208.489 38.504C208.299 38.31 208.012 38.214 207.626 38.214C207.226 38.214 206.912 38.301 206.685 38.476C206.482 38.6215 206.317 38.8136 206.205 39.036L205.41 38.753C205.552 38.421 205.741 38.163 205.978 37.979C206.217 37.792 206.478 37.661 206.759 37.589C207.043 37.512 207.323 37.474 207.597 37.474C207.772 37.474 207.974 37.496 208.201 37.538C208.431 37.578 208.652 37.663 208.865 37.791C209.08 37.918 209.259 38.111 209.401 38.369C209.543 38.627 209.614 38.973 209.614 39.406V43H208.776V42.261H208.734C208.66 42.402 208.564 42.5303 208.45 42.641C208.317 42.776 208.141 42.891 207.92 42.986C207.7 43.081 207.432 43.128 207.114 43.128ZM207.242 42.375C207.574 42.375 207.853 42.31 208.08 42.18C208.288 42.0672 208.462 41.9007 208.585 41.6978C208.707 41.4949 208.773 41.2629 208.776 41.026V40.258C208.741 40.301 208.663 40.34 208.542 40.376C208.406 40.413 208.268 40.4427 208.13 40.465C207.863 40.5063 207.595 40.5416 207.327 40.571C207.119 40.5973 206.915 40.6439 206.717 40.71C206.543 40.7628 206.387 40.8592 206.262 40.99C206.148 41.113 206.092 41.281 206.092 41.494C206.092 41.785 206.199 42.006 206.415 42.154C206.633 42.302 206.908 42.375 207.242 42.375ZM211.144 43V37.545H211.954V38.369H212.01C212.11 38.099 212.29 37.88 212.55 37.712C212.812 37.5434 213.119 37.4557 213.431 37.46C213.577 37.4612 213.724 37.4659 213.871 37.474V38.327C213.806 38.3137 213.741 38.303 213.676 38.295C213.571 38.278 213.465 38.2697 213.36 38.27C213.095 38.27 212.858 38.325 212.65 38.437C212.445 38.5407 212.274 38.6999 212.156 38.8965C212.038 39.093 211.977 39.3188 211.982 39.548V43H211.144ZM217.579 37.545V38.255H214.752V37.545H217.579ZM215.576 36.239H216.414V41.438C216.414 41.674 216.448 41.852 216.517 41.97C216.577 42.0771 216.672 42.1602 216.787 42.205C216.898 42.242 217.015 42.261 217.138 42.261C217.231 42.261 217.306 42.257 217.366 42.247L217.508 42.219L217.678 42.972C217.6 42.9987 217.52 43.0198 217.44 43.035C217.312 43.0613 217.182 43.0734 217.053 43.071C216.816 43.071 216.584 43.021 216.357 42.918C216.131 42.8161 215.938 42.6555 215.796 42.453C215.649 42.245 215.576 41.982 215.576 41.665V36.239ZM222.277 40.769V37.545H223.115V43H222.277V42.077H222.22C222.086 42.3606 221.88 42.604 221.623 42.783C221.354 42.975 221.013 43.071 220.601 43.071C220.26 43.071 219.957 42.996 219.692 42.847C219.419 42.6885 219.201 42.451 219.067 42.166C218.915 41.86 218.839 41.476 218.839 41.011V37.545H219.677V40.955C219.677 41.352 219.789 41.67 220.011 41.906C220.236 42.143 220.523 42.261 220.871 42.261C221.079 42.261 221.291 42.208 221.506 42.101C221.724 41.995 221.906 41.831 222.053 41.611C222.202 41.391 222.277 41.11 222.277 40.769ZM224.65 45.045V37.545H225.46V38.412H225.559C225.621 38.317 225.706 38.197 225.815 38.05C225.926 37.9 226.085 37.768 226.29 37.652C226.499 37.534 226.781 37.474 227.136 37.474C227.595 37.474 228 37.589 228.35 37.819C228.701 38.049 228.974 38.374 229.17 38.795C229.367 39.217 229.465 39.714 229.465 40.287C229.465 40.865 229.367 41.365 229.17 41.789C228.994 42.1855 228.712 42.525 228.354 42.769C228.006 42.999 227.604 43.114 227.15 43.114C226.799 43.114 226.519 43.056 226.308 42.94C226.12 42.8405 225.954 42.7037 225.822 42.538C225.729 42.4164 225.641 42.291 225.559 42.162H225.488V45.045H224.65ZM225.474 40.273C225.474 40.685 225.534 41.048 225.655 41.363C225.776 41.675 225.952 41.92 226.184 42.098C226.416 42.273 226.7 42.361 227.036 42.361C227.387 42.361 227.679 42.269 227.913 42.084C228.157 41.8873 228.341 41.6266 228.446 41.331C228.57 40.9924 228.631 40.6338 228.627 40.273C228.627 39.889 228.568 39.543 228.45 39.236C228.347 38.9451 228.163 38.6899 227.92 38.501C227.686 38.318 227.391 38.227 227.036 38.227C226.695 38.227 226.409 38.314 226.177 38.487C225.945 38.657 225.77 38.897 225.651 39.204C225.526 39.5464 225.466 39.9088 225.474 40.273ZM234.607 38.767L233.854 38.98C233.803 38.8481 233.732 38.7247 233.645 38.614C233.555 38.494 233.432 38.394 233.276 38.316C233.087 38.2314 232.881 38.1913 232.675 38.199C232.342 38.199 232.063 38.276 231.841 38.429C231.621 38.581 231.511 38.774 231.511 39.009C231.511 39.217 231.586 39.381 231.738 39.502C231.889 39.622 232.126 39.723 232.448 39.804L233.258 40.003C233.746 40.121 234.109 40.303 234.348 40.546C234.587 40.788 234.707 41.099 234.707 41.48C234.707 41.793 234.617 42.072 234.437 42.318C234.259 42.564 234.011 42.758 233.691 42.901C233.371 43.043 233 43.114 232.576 43.114C232.02 43.114 231.559 42.993 231.195 42.751C230.83 42.51 230.599 42.157 230.502 41.693L231.298 41.494C231.373 41.788 231.517 42.008 231.727 42.154C231.94 42.302 232.219 42.375 232.562 42.375C232.952 42.375 233.263 42.292 233.492 42.126C233.724 41.958 233.84 41.757 233.84 41.523C233.842 41.4341 233.825 41.3458 233.791 41.2638C233.756 41.1818 233.705 41.1079 233.641 41.047C233.509 40.917 233.305 40.82 233.031 40.756L232.121 40.543C231.622 40.424 231.255 40.241 231.021 39.993C230.789 39.741 230.673 39.428 230.673 39.051C230.673 38.743 230.759 38.471 230.932 38.234C231.107 37.998 231.345 37.812 231.646 37.677C231.97 37.5375 232.321 37.4683 232.675 37.474C233.215 37.474 233.639 37.593 233.947 37.83C234.257 38.066 234.477 38.379 234.607 38.767Z" fill="black"/>
</g>
</g>
<defs>
<clipPath id="clip0_234_23279">
<rect width="260" height="56" fill="white"/>
</clipPath>
</defs>
</svg>
