<svg width="556" height="475" viewBox="0 0 556 475" fill="none" xmlns="http://www.w3.org/2000/svg">
<rect width="556" height="475" rx="8" fill="#F2F4FF"/>
<g clip-path="url(#clip0_48_73511)">
<path d="M182.455 247.027C182.245 247.027 182.035 246.997 181.835 246.937C181.065 246.717 180.495 246.127 180.285 245.387L170.905 224.527H159.965C147.215 224.527 136.835 214.147 136.835 201.397V171.857C136.835 159.107 147.215 148.727 159.965 148.727H243.105V180.207H226.315C219.025 180.207 213.085 186.137 213.085 193.427V214.717C213.085 217.127 213.725 219.467 214.945 221.497L216.765 224.527H193.615L184.345 245.957C183.925 246.637 183.205 247.027 182.445 247.027H182.455ZM159.965 152.727C149.415 152.727 140.835 161.307 140.835 171.857V201.397C140.835 211.947 149.415 220.527 159.965 220.527H173.485L182.415 240.387L190.985 220.527H210.085C209.425 218.677 209.085 216.717 209.085 214.717V193.427C209.085 183.927 216.815 176.207 226.315 176.207H239.105V152.727H159.965Z" fill="#0C67E8"/>
<path d="M374.715 247.156C373.975 247.156 373.275 246.796 372.845 246.146L372.655 245.856L362.125 203.066H335.965V193.436C335.965 186.146 330.025 180.206 322.735 180.206H239.105V150.386C239.105 137.636 249.485 127.266 262.235 127.266H396.035C408.785 127.266 419.165 137.646 419.165 150.396V179.936C419.165 192.686 408.785 203.066 396.035 203.066H385.445L376.945 245.196C376.835 246.066 376.225 246.796 375.365 247.056C375.145 247.126 374.925 247.156 374.705 247.156H374.715ZM339.965 199.066H365.265L374.565 236.846L382.185 199.066H396.055C406.605 199.066 415.185 190.486 415.185 179.936V150.396C415.185 139.846 406.605 131.266 396.055 131.266H262.235C251.685 131.266 243.105 139.846 243.105 150.386V176.206H322.725C332.225 176.206 339.955 183.936 339.955 193.436V199.066H339.965Z" fill="#0C67E8"/>
<path d="M275.315 247.325C274.595 247.325 273.915 246.975 273.505 246.345L273.385 246.145L266.195 231.945H226.325C220.305 231.945 214.635 228.725 211.525 223.555C209.935 220.905 209.095 217.845 209.095 214.715V193.425C209.095 183.925 216.825 176.205 226.325 176.205H322.735C332.235 176.205 339.965 183.935 339.965 193.435V214.715C339.965 224.215 332.235 231.945 322.735 231.945H283.255L277.425 245.755C277.225 246.455 276.685 247.015 275.965 247.235C275.755 247.295 275.535 247.325 275.325 247.325H275.315ZM226.315 180.205C219.025 180.205 213.085 186.135 213.085 193.425V214.715C213.085 217.125 213.725 219.465 214.945 221.495C217.365 225.535 221.615 227.945 226.315 227.945H268.645L275.155 240.805L280.585 227.945H322.725C330.015 227.945 335.955 222.005 335.955 214.715V193.435C335.955 186.145 330.015 180.205 322.725 180.205H226.315Z" fill="#0C67E8"/>
<path d="M206.195 347.737H157.225C151.215 347.737 146.325 342.847 146.325 336.837V327.307C146.325 313.657 157.435 302.547 171.085 302.547H192.335C205.985 302.547 217.095 313.657 217.095 327.307V336.837C217.095 342.847 212.205 347.737 206.195 347.737ZM171.085 306.547C159.635 306.547 150.325 315.857 150.325 327.307V336.837C150.325 340.637 153.425 343.737 157.225 343.737H206.195C209.995 343.737 213.095 340.637 213.095 336.837V327.307C213.095 315.857 203.785 306.547 192.335 306.547H171.085Z" fill="#0C67E8"/>
<path d="M181.705 306.546C168.665 306.546 158.055 295.936 158.055 282.896C158.055 269.856 168.665 259.246 181.705 259.246C194.745 259.246 205.355 269.856 205.355 282.896C205.355 295.936 194.745 306.546 181.705 306.546ZM181.705 263.236C170.865 263.236 162.055 272.056 162.055 282.886C162.055 293.716 170.875 302.536 181.705 302.536C192.535 302.536 201.355 293.716 201.355 282.886C201.355 272.056 192.535 263.236 181.705 263.236Z" fill="#0C67E8"/>
<path d="M393.725 347.737H344.755C338.745 347.737 333.855 342.847 333.855 336.837V327.307C333.855 313.657 344.965 302.547 358.615 302.547H379.865C393.515 302.547 404.625 313.657 404.625 327.307V336.837C404.625 342.847 399.735 347.737 393.725 347.737ZM358.615 306.547C347.165 306.547 337.855 315.857 337.855 327.307V336.837C337.855 340.637 340.955 343.737 344.755 343.737H393.725C397.535 343.737 400.625 340.637 400.625 336.837V327.307C400.625 315.857 391.315 306.547 379.865 306.547H358.615Z" fill="#0C67E8"/>
<path d="M369.245 306.546C356.205 306.546 345.595 295.936 345.595 282.896C345.595 269.856 356.205 259.246 369.245 259.246C382.285 259.246 392.895 269.856 392.895 282.896C392.895 295.936 382.285 306.546 369.245 306.546ZM369.245 263.236C358.405 263.236 349.595 272.056 349.595 282.886C349.595 293.716 358.415 302.536 369.245 302.536C380.075 302.536 388.895 293.716 388.895 282.886C388.895 272.056 380.075 263.236 369.245 263.236Z" fill="#0C67E8"/>
<path d="M299.965 347.737H250.995C244.985 347.737 240.095 342.847 240.095 336.837V327.307C240.095 313.657 251.205 302.547 264.855 302.547H286.105C299.755 302.547 310.865 313.657 310.865 327.307V336.837C310.865 342.847 305.975 347.737 299.965 347.737ZM264.855 306.547C253.405 306.547 244.095 315.857 244.095 327.307V336.837C244.095 340.637 247.195 343.737 250.995 343.737H299.965C303.765 343.737 306.865 340.637 306.865 336.837V327.307C306.865 315.857 297.555 306.547 286.105 306.547H264.855Z" fill="#0C67E8"/>
<path d="M275.475 306.546C262.435 306.546 251.825 295.936 251.825 282.896C251.825 269.856 262.435 259.246 275.475 259.246C288.515 259.246 299.125 269.856 299.125 282.896C299.125 295.936 288.515 306.546 275.475 306.546ZM275.475 263.236C264.635 263.236 255.825 272.056 255.825 282.886C255.825 293.716 264.645 302.536 275.475 302.536C286.305 302.536 295.125 293.716 295.125 282.886C295.125 272.056 286.305 263.236 275.475 263.236Z" fill="#0C67E8"/>
</g>
<defs>
<clipPath id="clip0_48_73511">
<rect width="282.33" height="220.47" fill="white" transform="translate(136.835 127.266)"/>
</clipPath>
</defs>
</svg>
