<svg width="174" height="168" viewBox="0 0 174 168" fill="none" xmlns="http://www.w3.org/2000/svg">
<rect width="173.333" height="168" rx="8" fill="url(#paint0_linear_146_103143)"/>
<path fill-rule="evenodd" clip-rule="evenodd" d="M69.5 57.7493C67.8892 57.7493 66.5833 59.0552 66.5833 60.666V107.333C66.5833 108.944 67.8892 110.249 69.5 110.249H104.5C106.111 110.249 107.417 108.944 107.417 107.333V60.666C107.417 59.0552 106.111 57.7493 104.5 57.7493H69.5ZM60.75 60.666C60.75 55.8335 64.6675 51.916 69.5 51.916H104.5C109.332 51.916 113.25 55.8335 113.25 60.666V107.333C113.25 112.165 109.332 116.083 104.5 116.083H69.5C64.6675 116.083 60.75 112.165 60.75 107.333V60.666Z" fill="white"/>
<path fill-rule="evenodd" clip-rule="evenodd" d="M84.0835 101.501C84.0835 99.8898 85.3893 98.584 87.0002 98.584H87.0293C88.6402 98.584 89.946 99.8898 89.946 101.501C89.946 103.111 88.6402 104.417 87.0293 104.417H87.0002C85.3893 104.417 84.0835 103.111 84.0835 101.501Z" fill="white"/>
<defs>
<linearGradient id="paint0_linear_146_103143" x1="63.536" y1="-87.7612" x2="148.154" y2="-66.3531" gradientUnits="userSpaceOnUse">
<stop stop-color="#578BFF"/>
<stop offset="1" stop-color="#944BFF"/>
</linearGradient>
</defs>
</svg>
