<svg width="45" height="44" viewBox="0 0 45 44" fill="none" xmlns="http://www.w3.org/2000/svg">
<path d="M29.5 26H28.5V17C28.5 16.7348 28.3946 16.4804 28.2071 16.2929C28.0196 16.1054 27.7652 16 27.5 16H18.5V15C18.5 14.7348 18.3946 14.4804 18.2071 14.2929C18.0196 14.1054 17.7652 14 17.5 14C17.2348 14 16.9804 14.1054 16.7929 14.2929C16.6054 14.4804 16.5 14.7348 16.5 15V16H15.5C15.2348 16 14.9804 16.1054 14.7929 16.2929C14.6054 16.4804 14.5 16.7348 14.5 17C14.5 17.2652 14.6054 17.5196 14.7929 17.7071C14.9804 17.8946 15.2348 18 15.5 18H16.5V27C16.5 27.2652 16.6054 27.5196 16.7929 27.7071C16.9804 27.8946 17.2348 28 17.5 28H26.5V29C26.5 29.2652 26.6054 29.5196 26.7929 29.7071C26.9804 29.8946 27.2348 30 27.5 30C27.7652 30 28.0196 29.8946 28.2071 29.7071C28.3946 29.5196 28.5 29.2652 28.5 29V28H29.5C29.7652 28 30.0196 27.8946 30.2071 27.7071C30.3946 27.5196 30.5 27.2652 30.5 27C30.5 26.7348 30.3946 26.4804 30.2071 26.2929C30.0196 26.1054 29.7652 26 29.5 26ZM26.5 26H18.5V18H26.5V26Z" fill="#99A8FF"/>
</svg>
