<svg width="45" height="44" viewBox="0 0 45 44" fill="none" xmlns="http://www.w3.org/2000/svg">
<path fill-rule="evenodd" clip-rule="evenodd" d="M27.7929 17.2929C28.1834 16.9024 28.8166 16.9024 29.2071 17.2929L33.2071 21.2929C33.5976 21.6834 33.5976 22.3166 33.2071 22.7071L29.2071 26.7071C28.8166 27.0976 28.1834 27.0976 27.7929 26.7071C27.4024 26.3166 27.4024 25.6834 27.7929 25.2929L31.0858 22L27.7929 18.7071C27.4024 18.3166 27.4024 17.6834 27.7929 17.2929Z" fill="#6B0DFF"/>
<path fill-rule="evenodd" clip-rule="evenodd" d="M17.2071 17.2929C17.5976 17.6834 17.5976 18.3166 17.2071 18.7071L13.9142 22L17.2071 25.2929C17.5976 25.6834 17.5976 26.3166 17.2071 26.7071C16.8166 27.0976 16.1834 27.0976 15.7929 26.7071L11.7929 22.7071C11.4024 22.3166 11.4024 21.6834 11.7929 21.2929L15.7929 17.2929C16.1834 16.9024 16.8166 16.9024 17.2071 17.2929Z" fill="#6B0DFF"/>
<path fill-rule="evenodd" clip-rule="evenodd" d="M25.2985 13.0455C25.8257 13.2103 26.1195 13.7712 25.9547 14.2983L20.9547 30.2983C20.79 30.8254 20.2291 31.1192 19.702 30.9545C19.1748 30.7898 18.8811 30.2289 19.0458 29.7017L24.0458 13.7017C24.2105 13.1746 24.7714 12.8808 25.2985 13.0455Z" fill="#6B0DFF"/>
</svg>
