<svg width="40" height="40" viewBox="0 0 40 40" fill="none" xmlns="http://www.w3.org/2000/svg">
<rect width="40" height="40" rx="20" fill="#0C67E8"/>
<path d="M20 10.2461C17.6255 10.2462 15.3285 11.0912 13.52 12.6299C11.7115 14.1687 10.5095 16.3007 10.1292 18.6446C9.74879 20.9884 10.2148 23.3912 11.4439 25.4228C12.673 27.4545 14.5849 28.9826 16.8375 29.7336C17.3375 29.8211 17.525 29.5211 17.525 29.2586C17.525 29.0211 17.5125 28.2336 17.5125 27.3961C15 27.8586 14.35 26.7836 14.15 26.2211C13.9281 25.674 13.5763 25.1892 13.125 24.8086C12.775 24.6211 12.275 24.1586 13.1125 24.1461C13.4323 24.1808 13.739 24.2921 14.0067 24.4705C14.2743 24.6489 14.495 24.8892 14.65 25.1711C14.7868 25.4168 14.9707 25.6331 15.1912 25.8076C15.4117 25.9821 15.6645 26.1114 15.9351 26.188C16.2056 26.2646 16.4886 26.2871 16.7679 26.2542C17.0472 26.2213 17.3172 26.1336 17.5625 25.9961C17.6058 25.4877 17.8324 25.0124 18.2 24.6586C15.975 24.4086 13.65 23.5461 13.65 19.7211C13.636 18.7273 14.0027 17.7657 14.675 17.0336C14.3693 16.1698 14.4051 15.2219 14.775 14.3836C14.775 14.3836 15.6125 14.1211 17.525 15.4086C19.1613 14.9586 20.8887 14.9586 22.525 15.4086C24.4375 14.1086 25.275 14.3836 25.275 14.3836C25.645 15.2219 25.6808 16.1699 25.375 17.0336C26.0494 17.7644 26.4164 18.7269 26.4 19.7211C26.4 23.5586 24.0625 24.4086 21.8375 24.6586C22.0762 24.9005 22.26 25.1909 22.3764 25.5101C22.4929 25.8293 22.5393 26.1699 22.5125 26.5086C22.5125 27.8461 22.5 28.9211 22.5 29.2586C22.5 29.5211 22.6875 29.8336 23.1875 29.7336C25.4362 28.9765 27.3426 27.4449 28.5664 25.4121C29.7903 23.3794 30.2519 20.9779 29.8689 18.6363C29.4859 16.2947 28.2832 14.1655 26.4755 12.6286C24.6678 11.0917 22.3727 10.2473 20 10.2461Z" fill="white"/>
</svg>
