<svg width="40" height="40" viewBox="0 0 40 40" fill="none" xmlns="http://www.w3.org/2000/svg">
<rect width="40" height="40" rx="20" fill="#0C67E8"/>
<path d="M28.0127 14.2426C27.7636 12.0229 26.1518 10.2732 24.2409 9.93431C23.9183 9.87694 22.6967 9.66797 19.8671 9.66797H19.846C17.0155 9.66797 16.4083 9.87694 16.0857 9.93431C14.2281 10.2639 12.5313 11.8356 12.1195 14.0822C11.9217 15.1886 11.9006 16.4149 11.9371 17.54C11.9899 19.1538 11.9995 20.7642 12.1219 22.371C12.2063 23.4387 12.3536 24.4976 12.5625 25.5396C12.9537 27.4654 14.5377 29.067 16.0895 29.7208C17.7528 30.4025 19.5374 30.5155 21.2495 30.0475C21.4382 29.9948 21.6239 29.9339 21.8083 29.8643C22.2239 29.7062 22.7116 29.5283 23.0702 29.2163C23.075 29.2119 23.079 29.2063 23.0818 29.1998C23.0847 29.1933 23.0863 29.1861 23.0865 29.1788V27.6217C23.0864 27.6149 23.085 27.6083 23.0826 27.6022C23.0801 27.5961 23.0765 27.5908 23.0721 27.5866C23.0675 27.5823 23.0622 27.5792 23.0566 27.5777C23.051 27.5762 23.0451 27.5762 23.0395 27.5778C21.942 27.8923 20.8183 28.0498 19.691 28.0473C17.7503 28.0473 17.2286 26.9421 17.0788 26.4814C16.9587 26.0842 16.8824 25.6692 16.8518 25.2475C16.8515 25.2404 16.8527 25.2334 16.8551 25.227C16.8575 25.2206 16.8612 25.215 16.8657 25.2106C16.8703 25.2061 16.8757 25.203 16.8814 25.2015C16.8872 25.2 16.8931 25.2001 16.8988 25.2018C17.9774 25.5138 19.0828 25.6713 20.1926 25.6713C20.4595 25.6713 20.7254 25.6713 20.9923 25.6625C22.1083 25.625 23.2843 25.5571 24.3825 25.2996C24.4099 25.2926 24.4372 25.2873 24.4607 25.2785C26.1926 24.8793 27.8404 23.6266 28.0079 20.4545C28.0142 20.3292 28.03 19.1462 28.03 19.0163C28.0305 18.5761 28.1481 15.8922 28.0127 14.2426ZM25.3473 22.1597H23.5262V16.8065C23.5262 15.6791 23.135 15.1048 22.3391 15.1048C21.4641 15.1048 21.0259 15.7845 21.0259 17.1273V20.0576H19.2163V17.1273C19.2163 15.7845 18.7771 15.1048 17.902 15.1048C17.111 15.1048 16.7155 15.6791 16.715 16.8065V22.1597H14.8958V16.6438C14.8958 15.5169 15.1353 14.6213 15.6143 13.9581C16.1087 13.2961 16.7577 12.956 17.5631 12.956C18.4953 12.956 19.1995 13.3862 19.6689 14.2455L20.122 15.1581L20.5761 14.2449C21.0455 13.3862 21.7497 12.956 22.6804 12.956C23.4849 12.956 24.1334 13.2955 24.6292 13.9581C25.1092 14.6207 25.3492 15.5164 25.3492 16.6438L25.3473 22.1597Z" fill="white"/>
</svg>
