<svg width="40" height="40" viewBox="0 0 40 40" fill="none" xmlns="http://www.w3.org/2000/svg">
<rect width="40" height="40" rx="20" fill="#0C67E8"/>
<path d="M28.4701 10.0001H11.5301C11.3396 9.9975 11.1506 10.0324 10.9736 10.1028C10.7967 10.1733 10.6354 10.2779 10.4989 10.4107C10.3624 10.5434 10.2533 10.7018 10.1781 10.8767C10.1028 11.0517 10.0627 11.2397 10.0601 11.4301V28.5701C10.0627 28.7606 10.1028 28.9486 10.1781 29.1235C10.2533 29.2985 10.3624 29.4568 10.4989 29.5896C10.6354 29.7224 10.7967 29.827 10.9736 29.8975C11.1506 29.9679 11.3396 30.0028 11.5301 30.0001H28.4701C28.6605 30.0028 28.8496 29.9679 29.0265 29.8975C29.2034 29.827 29.3648 29.7224 29.5013 29.5896C29.6378 29.4568 29.7468 29.2985 29.8221 29.1235C29.8974 28.9486 29.9375 28.7606 29.9401 28.5701V11.4301C29.9375 11.2397 29.8974 11.0517 29.8221 10.8767C29.7468 10.7018 29.6378 10.5434 29.5013 10.4107C29.3648 10.2779 29.2034 10.1733 29.0265 10.1028C28.8496 10.0324 28.6605 9.9975 28.4701 10.0001ZM16.0901 26.7401H13.0901V17.7401H16.0901V26.7401ZM14.5901 16.4801C14.1763 16.4801 13.7795 16.3158 13.487 16.0232C13.1944 15.7307 13.0301 15.3339 13.0301 14.9201C13.0301 14.5064 13.1944 14.1096 13.487 13.8171C13.7795 13.5245 14.1763 13.3601 14.5901 13.3601C14.8098 13.3352 15.0322 13.357 15.2429 13.424C15.4536 13.4911 15.6478 13.6018 15.8127 13.7491C15.9776 13.8964 16.1096 14.0768 16.1999 14.2786C16.2903 14.4804 16.337 14.699 16.337 14.9201C16.337 15.1412 16.2903 15.3599 16.1999 15.5617C16.1096 15.7635 15.9776 15.9439 15.8127 16.0912C15.6478 16.2385 15.4536 16.3492 15.2429 16.4163C15.0322 16.4833 14.8098 16.5051 14.5901 16.4801ZM26.9101 26.7401H23.9101V21.9101C23.9101 20.7001 23.4801 19.9101 22.3901 19.9101C22.0527 19.9126 21.7242 20.0184 21.4489 20.2133C21.1735 20.4082 20.9645 20.6828 20.8501 21.0001C20.7718 21.2352 20.7379 21.4827 20.7501 21.7301V26.7301H17.7501C17.7501 26.7301 17.7501 18.5501 17.7501 17.7301H20.7501V19.0001C21.0226 18.5272 21.419 18.1377 21.8965 17.8733C22.374 17.609 22.9146 17.48 23.4601 17.5001C25.4601 17.5001 26.9101 18.7901 26.9101 21.5601V26.7401Z" fill="white"/>
</svg>
