<svg width="175" height="168" viewBox="0 0 175 168" fill="none" xmlns="http://www.w3.org/2000/svg">
<rect x="1" width="173.333" height="168" rx="8" fill="url(#paint0_linear_146_103151)"/>
<path d="M116.32 94.4421L103.137 81.288C103.413 79.9445 103.549 78.5762 103.545 77.2046C103.544 73.444 102.595 69.7444 100.786 66.4476C98.9764 63.1509 96.3652 60.3634 93.1935 58.343C90.0218 56.3225 86.3919 55.1342 82.6394 54.8879C78.8869 54.6416 75.1328 55.3452 71.7242 56.9338C71.2924 57.1311 70.9152 57.4308 70.6255 57.8069C70.3358 58.1831 70.1422 58.6242 70.0617 59.0921C69.9815 59.5541 70.0139 60.0286 70.156 60.4754C70.2982 60.9222 70.546 61.3281 70.8784 61.6588L83.5659 74.3171L78.3159 79.5671L65.6575 66.8796C65.3241 66.5524 64.9169 66.3101 64.4702 66.173C64.0235 66.036 63.5505 66.0082 63.0909 66.0921C62.6259 66.1697 62.1867 66.3588 61.8108 66.6433C61.4349 66.9277 61.1335 67.2991 60.9325 67.7255C59.3387 71.1453 58.6356 74.9127 58.8888 78.6772C59.142 82.4417 60.3432 86.081 62.3807 89.2565C64.4182 92.4321 67.2258 95.0407 70.5422 96.8398C73.8587 98.6389 77.5763 99.5699 81.3492 99.5463C82.7207 99.5507 84.0891 99.4139 85.4325 99.138L98.5867 112.321C98.8579 112.595 99.1804 112.812 99.5359 112.96C99.8913 113.108 100.273 113.184 100.658 113.184C101.043 113.184 101.424 113.108 101.779 112.96C102.135 112.812 102.457 112.595 102.728 112.321C103.002 112.05 103.219 111.728 103.367 111.372C103.515 111.017 103.591 110.636 103.591 110.25C103.591 109.865 103.515 109.484 103.367 109.129C103.219 108.773 103.002 108.451 102.728 108.18L88.4367 93.888C88.0796 93.5332 87.6367 93.2769 87.1511 93.144C86.6656 93.0111 86.1539 93.0062 85.6659 93.1296C84.2576 93.5068 82.807 93.7028 81.3492 93.713C79.1677 93.7322 77.0039 93.3196 74.9825 92.499C72.9612 91.6783 71.1221 90.4659 69.5714 88.9314C68.0206 87.3969 66.7888 85.5708 65.9469 83.5582C65.105 81.5455 64.6696 79.3862 64.6659 77.2046C64.6621 76.2276 64.7401 75.252 64.8992 74.288L76.3325 85.7505C76.6037 86.0238 76.9263 86.2408 77.2817 86.3889C77.6371 86.537 78.0183 86.6132 78.4034 86.6132C78.7884 86.6132 79.1696 86.537 79.5251 86.3889C79.8805 86.2408 80.2031 86.0238 80.4742 85.7505L89.7492 76.388C90.2749 75.8441 90.5688 75.1173 90.5688 74.3609C90.5688 73.6045 90.2749 72.8777 89.7492 72.3338L78.4034 60.9005C79.3676 60.743 80.3431 60.665 81.32 60.6671C85.701 60.6749 89.8999 62.4206 92.995 65.5212C96.09 68.6217 97.8284 72.8237 97.8284 77.2046C97.8182 78.6625 97.6222 80.1131 97.245 81.5213C97.1216 82.0093 97.1265 82.521 97.2594 83.0066C97.3923 83.4921 97.6486 83.935 98.0034 84.2921L112.295 98.5838C112.844 99.133 113.589 99.4416 114.366 99.4416C115.143 99.4416 115.887 99.133 116.437 98.5838C116.986 98.0346 117.294 97.2897 117.294 96.513C117.294 95.7363 116.986 94.9914 116.437 94.4421H116.32Z" fill="white"/>
<defs>
<linearGradient id="paint0_linear_146_103151" x1="64.536" y1="-87.7612" x2="149.154" y2="-66.3531" gradientUnits="userSpaceOnUse">
<stop stop-color="#578BFF"/>
<stop offset="1" stop-color="#944BFF"/>
</linearGradient>
</defs>
</svg>
