<svg width="317" height="249" viewBox="0 0 317 249" fill="none" xmlns="http://www.w3.org/2000/svg">
<path d="M1.27098 156.573C2.68368 162.292 8.46518 165.783 14.1843 164.37C19.9035 162.958 23.3945 157.176 21.9818 151.457C20.5691 145.738 14.7876 142.247 9.06849 143.66C3.34935 145.072 -0.141717 150.854 1.27098 156.573ZM290.448 85.1427C291.861 90.8619 297.642 94.3529 303.361 92.9402C309.081 91.5275 312.572 85.746 311.159 80.0269C309.746 74.3077 303.965 70.8167 298.246 72.2294C292.526 73.6421 289.035 79.4236 290.448 85.1427ZM10.2122 155.429C27.8225 173.04 42.5849 185.211 55.3274 192.974C68.074 200.739 78.9098 204.159 88.6264 204.099C108.107 203.979 122.127 189.873 137.219 172.264C152.478 154.458 169.164 132.619 194.189 115.134C219.134 97.7042 252.422 84.5848 300.803 84.5848L300.803 80.5848C251.615 80.5848 217.525 93.9484 191.898 111.855C166.35 129.706 149.269 152.055 134.181 169.661C118.925 187.463 106.017 199.992 88.6017 200.099C79.8705 200.153 69.7666 197.086 57.4084 189.557C45.0462 182.027 30.5386 170.099 13.0406 152.601L10.2122 155.429Z" fill="#0DB1FF"/>
<path d="M8.512 150.47C6.7115 152.289 6.7261 155.223 8.5446 157.023C10.3631 158.824 13.2969 158.809 15.0974 156.99C16.8979 155.172 16.8833 152.238 15.0648 150.438C13.2463 148.637 10.3125 148.652 8.512 150.47ZM106.621 248.547L106.621 241.453L99.5275 241.453L99.5275 248.547L106.621 248.547ZM11.1904 154.345L102.46 245.614L103.689 244.386L12.419 153.116L11.1904 154.345Z" fill="#151D21"/>
<path d="M304.339 85.7871C302.538 87.6056 299.604 87.6202 297.786 85.8197C295.967 84.0192 295.953 81.0854 297.753 79.2669C299.554 77.4484 302.487 77.4338 304.306 79.2343C306.124 81.0348 306.139 83.9686 304.339 85.7871ZM130.423 82.527L135.439 77.511L140.455 82.527L135.439 87.543L130.423 82.527ZM301.046 83.3958L135.439 83.3958L135.439 81.6582L301.046 81.6582L301.046 83.3958Z" fill="#151D21"/>
</svg>
