<svg width="556" height="335" viewBox="0 0 556 335" fill="none" xmlns="http://www.w3.org/2000/svg">
<rect width="556" height="335" rx="8" fill="#F2F4FF"/>
<g clip-path="url(#clip0_48_73545)">
<path d="M301.62 199.504H254.39C248.84 199.504 244.33 194.994 244.33 189.444V179.034C244.33 166.564 254.47 156.424 266.93 156.424H289.07C301.54 156.424 311.68 166.564 311.68 179.034V189.444C311.68 194.994 307.17 199.504 301.62 199.504ZM266.93 160.424C256.67 160.424 248.33 168.774 248.33 179.034V189.444C248.33 192.784 251.05 195.504 254.39 195.504H301.62C304.96 195.504 307.68 192.784 307.68 189.444V179.034C307.68 168.774 299.33 160.424 289.07 160.424H266.93Z" fill="#0C67E8"/>
<path d="M248.33 182.224H232.98C227.43 182.224 222.92 177.714 222.92 172.174V161.754C222.92 149.294 233.06 139.154 245.53 139.154H259.43L259.7 140.844C260.62 146.594 264.26 151.634 269.46 154.334C272.09 155.724 274.97 156.424 278 156.424V160.424H266.93C256.67 160.424 248.33 168.774 248.33 179.034V182.224ZM245.53 143.154C235.27 143.154 226.92 151.494 226.92 161.754V172.174C226.92 175.514 229.64 178.224 232.98 178.224H244.34C244.75 166.684 253.85 157.314 265.28 156.484C260.69 153.334 257.38 148.564 256.08 143.154H245.53Z" fill="#0C67E8"/>
<path d="M290.35 160.425H277.99V156.425C280.99 156.425 283.94 155.705 286.54 154.335L288.71 153.195L289.39 155.555C289.63 156.375 289.82 157.215 289.96 158.105L290.34 160.425H290.35Z" fill="#0C67E8"/>
<path d="M278 160.424C274.36 160.424 270.77 159.544 267.6 157.874C261.3 154.604 256.86 148.464 255.75 141.474L255.73 141.284C255.56 140.154 255.47 139.014 255.47 137.884C255.47 125.894 264.83 116.004 276.78 115.364C277.62 115.314 278.48 115.314 279.3 115.374C291.2 116.014 300.56 125.894 300.56 137.874C300.56 138.994 300.47 140.144 300.3 141.274L300.28 141.464C299.16 148.454 294.73 154.584 288.42 157.874C285.26 159.534 281.66 160.424 278.02 160.424H278ZM259.72 140.994C260.68 146.684 264.31 151.664 269.45 154.334C272.09 155.724 274.97 156.424 278 156.424C281.03 156.424 283.95 155.704 286.55 154.334C291.71 151.644 295.34 146.664 296.29 140.974L296.31 140.804C296.47 139.834 296.54 138.844 296.54 137.884C296.54 128.034 288.84 119.894 279.01 119.374C278.25 119.314 277.63 119.324 276.98 119.364C267.15 119.894 259.45 128.024 259.45 137.884C259.45 138.854 259.53 139.834 259.68 140.804L259.71 140.984L259.72 140.994Z" fill="#0C67E8"/>
<path d="M256.6 143.154C244.17 143.154 234.05 133.034 234.05 120.604C234.05 108.174 244.16 98.0645 256.6 98.0645C267.76 98.0645 277.12 106.054 278.86 117.054L279.21 119.244L277 119.364C267.17 119.894 259.47 128.024 259.47 137.884C259.47 138.854 259.55 139.834 259.7 140.804L260.05 142.994L257.83 143.114C257.42 143.134 257.01 143.144 256.6 143.144V143.154ZM256.6 102.074C246.37 102.074 238.05 110.394 238.05 120.614C238.05 130.834 245.78 138.554 255.49 139.134C255.47 138.724 255.46 138.304 255.46 137.894C255.46 126.694 263.64 117.324 274.46 115.624C272.27 107.664 265.06 102.074 256.6 102.074Z" fill="#0C67E8"/>
<path d="M278 160.423H265.65L266.03 158.103C266.18 157.203 266.36 156.373 266.6 155.553L267.28 153.193L269.45 154.333C272.08 155.723 274.96 156.423 277.99 156.423V160.423H278Z" fill="#0C67E8"/>
<path d="M323.03 182.225H307.68V179.035C307.68 168.775 299.33 160.425 289.07 160.425H278V156.425C281 156.425 283.95 155.705 286.55 154.335C291.75 151.625 295.4 146.585 296.32 140.835L296.59 139.145H310.49C322.96 139.145 333.1 149.285 333.1 161.745V172.165C333.1 177.705 328.59 182.215 323.04 182.215H323.03V182.225ZM311.67 178.235H323.03C326.37 178.235 329.09 175.525 329.09 172.185V161.765C329.09 151.505 320.74 143.165 310.48 143.165H299.93C298.63 148.575 295.32 153.345 290.73 156.495C302.16 157.325 311.26 166.695 311.67 178.235Z" fill="#0C67E8"/>
<path d="M299.41 143.154C299 143.154 298.59 143.154 298.18 143.124L295.96 143.004L296.31 140.814C296.47 139.844 296.54 138.854 296.54 137.894C296.54 128.044 288.84 119.904 279.01 119.384L276.8 119.264L277.14 117.074C278.87 106.064 288.23 98.0742 299.4 98.0742C311.83 98.0742 321.95 108.184 321.95 120.614C321.95 133.044 311.83 143.164 299.4 143.164H299.41V143.154ZM281.55 115.614C292.37 117.314 300.55 126.684 300.55 137.874C300.55 138.284 300.54 138.694 300.52 139.114C310.24 138.544 317.96 130.454 317.96 120.594C317.96 110.734 309.64 102.054 299.41 102.054C290.94 102.054 283.73 107.644 281.55 115.614Z" fill="#0C67E8"/>
<path d="M365.05 181.874C364.94 180.774 364.83 179.664 364.75 178.574C364.5 175.064 364.27 171.554 364.04 168.064C363.66 162.344 363.28 156.644 362.86 150.934C362.58 147.024 359.54 144.064 355.8 144.064C352.09 144.064 349.04 147.034 348.72 150.964C348.36 155.374 348.02 159.764 347.68 164.174L347.29 169.184C347.26 169.714 347.19 170.694 345.95 171.064C344.24 171.574 342.86 172.734 341.75 174.584C340.21 177.134 338.19 180.474 336.03 183.814C335.59 184.504 334.78 185.094 333.97 185.334C330.27 186.434 326.05 188.004 322.82 191.254C319.05 195.034 317.03 199.934 316.46 206.704C316.26 209.074 316.21 211.514 316.15 213.884C316.12 214.974 316.1 216.074 316.06 217.184L316.04 217.714L315.55 217.924C313.27 218.904 312.13 220.464 312.08 222.694C311.99 226.254 312 228.954 312.08 231.484C312.19 234.434 314.29 236.424 317.29 236.424C326.21 236.444 335.13 236.424 344.05 236.424C347.09 236.424 349.25 234.304 349.32 231.284C349.38 228.844 349.38 226.214 349.32 222.834C349.29 220.994 348.53 219.594 346.99 218.554C346.88 218.474 346.75 218.394 346.63 218.314C346.14 218.024 345.53 217.664 345.31 217.024C345.05 216.264 345.24 215.384 345.49 214.554L345.53 214.424C345.78 213.564 346.07 212.604 346.66 211.814L347.14 211.164C348.42 209.424 349.75 207.624 351.32 206.064C353.17 204.244 355.14 202.484 357.04 200.784C358.3 199.644 359.56 198.514 360.8 197.364C363 195.314 364.38 192.774 364.89 189.804C364.95 189.444 365.03 189.094 365.11 188.744L365.19 188.384V183.294C365.15 182.874 365.1 182.364 365.05 181.864V181.874ZM346.33 223.574V230.644C346.33 232.744 345.63 233.434 343.56 233.434H317.88C315.76 233.434 315.07 232.764 315.06 230.694V223.504C315.06 221.434 315.76 220.754 317.88 220.754H343.56C345.62 220.754 346.32 221.464 346.33 223.564V223.574ZM362.13 187.564C362 190.694 360.81 193.314 358.59 195.364C357.41 196.454 356.22 197.514 355.03 198.574C353.52 199.924 351.97 201.304 350.47 202.714C348.8 204.294 347.3 205.874 346.01 207.424C343.46 210.494 342.23 213.504 342.16 216.864L342.14 217.694H319.84L319.59 217.394C319.5 217.314 319.24 217.084 319.23 216.684C319.13 211.994 319.12 207.404 320.05 202.894C321.59 195.414 326.16 190.634 333.66 188.694C336.3 188.004 338.04 186.674 339.31 184.374C340.53 182.154 341.91 179.974 343.24 177.874C343.68 177.174 344.12 176.484 344.56 175.784C345.55 174.204 347.11 173.504 348.94 173.774C350.63 174.034 351.83 175.124 352.35 176.834C352.84 178.474 352.15 179.874 351.59 180.774C348.95 185.024 346.33 189.294 343.71 193.564L342.29 195.854C342.1 196.164 341.93 196.424 341.83 196.694C341.58 197.354 341.81 198.064 342.42 198.464C343.07 198.884 343.82 198.774 344.33 198.214C344.53 198.004 344.69 197.714 344.87 197.414L344.96 197.274C347.97 192.394 350.98 187.514 353.98 182.614C355.37 180.344 355.84 178.224 355.37 176.274C354.89 174.334 353.49 172.654 351.21 171.284C350.59 170.924 350.26 170.014 350.3 169.384C350.58 165.234 350.9 161.074 351.23 156.924L351.42 154.484C351.5 153.424 351.58 152.344 351.7 151.254C351.97 148.854 353.6 147.154 355.68 147.124C357.93 147.054 359.64 148.834 359.83 151.244C360.14 155.314 360.42 159.454 360.69 163.444L361.21 171.104C361.5 175.314 361.79 179.504 362.06 183.704C362.14 185.064 362.16 186.354 362.11 187.564H362.13Z" fill="#0C67E8" stroke="#0C67E8" stroke-miterlimit="10"/>
<path d="M190.81 183.294V188.384L190.89 188.744C190.97 189.094 191.05 189.444 191.11 189.804C191.62 192.774 193 195.324 195.2 197.364C196.44 198.514 197.7 199.644 198.96 200.784C200.86 202.484 202.83 204.234 204.68 206.064C206.25 207.624 207.58 209.424 208.86 211.164L209.34 211.814C209.93 212.604 210.21 213.574 210.47 214.424L210.51 214.554C210.76 215.384 210.95 216.264 210.69 217.024C210.47 217.674 209.86 218.024 209.37 218.314C209.24 218.394 209.12 218.464 209.01 218.554C207.47 219.594 206.72 220.994 206.68 222.834C206.63 226.224 206.63 228.844 206.68 231.284C206.75 234.304 208.91 236.424 211.95 236.424C220.87 236.424 229.79 236.444 238.71 236.424C241.71 236.424 243.81 234.434 243.92 231.484C244.01 228.954 244.02 226.244 243.92 222.694C243.87 220.464 242.73 218.904 240.45 217.924L239.96 217.714L239.94 217.184C239.9 216.074 239.87 214.964 239.85 213.884C239.8 211.514 239.74 209.074 239.54 206.704C238.97 199.944 236.95 195.034 233.18 191.254C229.95 188.004 225.73 186.434 222.03 185.334C221.22 185.094 220.41 184.504 219.97 183.814C217.81 180.474 215.79 177.124 214.25 174.584C213.14 172.734 211.76 171.574 210.05 171.064C208.81 170.694 208.74 169.704 208.71 169.184L208.32 164.174C207.98 159.764 207.65 155.374 207.28 150.964C206.96 147.034 203.91 144.064 200.2 144.064C196.46 144.064 193.42 147.014 193.14 150.934C192.72 156.634 192.34 162.344 191.96 168.064C191.72 171.554 191.49 175.064 191.25 178.574C191.17 179.664 191.06 180.774 190.95 181.874C190.9 182.374 190.85 182.874 190.81 183.304V183.294ZM212.44 220.744H238.12C240.24 220.744 240.93 221.424 240.94 223.494V230.684C240.94 232.754 240.24 233.414 238.12 233.414H212.44C210.38 233.414 209.68 232.714 209.67 230.614V223.544C209.67 221.444 210.37 220.734 212.44 220.734V220.744ZM193.92 183.684C194.19 179.484 194.48 175.294 194.77 171.084L195.29 163.424C195.56 159.434 195.84 155.294 196.15 151.224C196.34 148.804 198.05 147.034 200.3 147.104C202.38 147.134 204.01 148.834 204.28 151.234C204.4 152.324 204.48 153.394 204.56 154.464L204.75 156.904C205.07 161.054 205.4 165.214 205.68 169.364C205.72 169.994 205.39 170.904 204.77 171.264C202.49 172.634 201.09 174.324 200.61 176.254C200.14 178.204 200.61 180.324 202 182.594C205 187.494 208.01 192.374 211.02 197.254L211.11 197.394C211.29 197.694 211.46 197.984 211.65 198.194C212.16 198.764 212.91 198.864 213.56 198.444C214.16 198.054 214.4 197.344 214.15 196.674C214.05 196.404 213.88 196.144 213.69 195.834L212.27 193.544C209.65 189.274 207.02 185.004 204.39 180.754C203.83 179.854 203.14 178.454 203.63 176.814C204.15 175.104 205.35 174.024 207.04 173.754C208.87 173.484 210.43 174.184 211.42 175.764C211.85 176.464 212.29 177.154 212.74 177.854C214.07 179.954 215.45 182.134 216.67 184.354C217.94 186.654 219.68 187.984 222.32 188.674C229.82 190.614 234.4 195.394 235.93 202.874C236.86 207.394 236.86 211.974 236.75 216.664C236.75 217.064 236.49 217.304 236.39 217.374L236.14 217.674H213.86L213.84 216.844C213.76 213.484 212.54 210.474 209.99 207.404C208.71 205.854 207.21 204.274 205.53 202.694C204.04 201.284 202.48 199.904 200.97 198.554C199.77 197.494 198.59 196.434 197.41 195.344C195.19 193.294 194 190.674 193.87 187.544C193.82 186.334 193.84 185.044 193.92 183.684Z" fill="#0C67E8" stroke="#0C67E8" stroke-miterlimit="10"/>
</g>
<defs>
<clipPath id="clip0_48_73545">
<rect width="175.38" height="138.87" fill="white" transform="translate(190.31 98.0645)"/>
</clipPath>
</defs>
</svg>
