<svg width="100" height="100" viewBox="0 0 100 100" fill="none" xmlns="http://www.w3.org/2000/svg">
<mask id="path-1-inside-1_161_113322" fill="white">
<path fill-rule="evenodd" clip-rule="evenodd" d="M39.1028 33.654C37.5443 33.0046 35.7479 33.36 34.554 34.5539C33.3601 35.7478 33.0047 37.5442 33.6541 39.1027L54.4875 89.1027C55.1542 90.7028 56.7419 91.723 58.4743 91.6645C60.2067 91.6059 61.722 90.4809 62.2792 88.8395L67.517 73.4094L81.6956 87.5879C83.3228 89.2151 85.961 89.2151 87.5882 87.5879C89.2153 85.9608 89.2153 83.3226 87.5882 81.6954L73.4096 67.5169L88.8396 62.279C90.4811 61.7218 91.6061 60.2066 91.6646 58.4742C91.7231 56.7417 90.7029 55.154 89.1029 54.4873L39.1028 33.654ZM57.9353 75.711L45.2384 45.2383L75.7111 57.9352L64.3859 61.7796C63.1593 62.196 62.1961 63.1592 61.7797 64.3858L57.9353 75.711Z"/>
</mask>
<path fill-rule="evenodd" clip-rule="evenodd" d="M39.1028 33.654C37.5443 33.0046 35.7479 33.36 34.554 34.5539C33.3601 35.7478 33.0047 37.5442 33.6541 39.1027L54.4875 89.1027C55.1542 90.7028 56.7419 91.723 58.4743 91.6645C60.2067 91.6059 61.722 90.4809 62.2792 88.8395L67.517 73.4094L81.6956 87.5879C83.3228 89.2151 85.961 89.2151 87.5882 87.5879C89.2153 85.9608 89.2153 83.3226 87.5882 81.6954L73.4096 67.5169L88.8396 62.279C90.4811 61.7218 91.6061 60.2066 91.6646 58.4742C91.7231 56.7417 90.7029 55.154 89.1029 54.4873L39.1028 33.654ZM57.9353 75.711L45.2384 45.2383L75.7111 57.9352L64.3859 61.7796C63.1593 62.196 62.1961 63.1592 61.7797 64.3858L57.9353 75.711Z" fill="white"/>
<path d="M34.554 34.5539L35.4379 35.4378L34.554 34.5539ZM39.1028 33.654L38.6221 34.8079L39.1028 33.654ZM33.6541 39.1027L34.808 38.622L33.6541 39.1027ZM54.4875 89.1027L55.6413 88.622L54.4875 89.1027ZM58.4743 91.6645L58.4321 90.4152H58.4321L58.4743 91.6645ZM62.2792 88.8395L61.0955 88.4377L62.2792 88.8395ZM67.517 73.4094L68.4009 72.5255C68.0954 72.22 67.6539 72.0939 67.2332 72.192C66.8125 72.2901 66.4722 72.5985 66.3334 73.0076L67.517 73.4094ZM81.6956 87.5879L82.5795 86.7041V86.7041L81.6956 87.5879ZM87.5882 81.6954L88.472 80.8115V80.8115L87.5882 81.6954ZM73.4096 67.5169L73.0078 66.3332C72.5988 66.4721 72.2904 66.8123 72.1923 67.233C72.0942 67.6537 72.2203 68.0953 72.5257 68.4007L73.4096 67.5169ZM88.8396 62.279L88.4378 61.0954L88.8396 62.279ZM91.6646 58.4742L90.4153 58.432V58.432L91.6646 58.4742ZM89.1029 54.4873L88.6221 55.6412L89.1029 54.4873ZM45.2384 45.2383L45.7192 44.0844C45.2516 43.8896 44.7127 43.9962 44.3545 44.3544C43.9963 44.7125 43.8897 45.2515 44.0845 45.719L45.2384 45.2383ZM57.9353 75.711L56.7815 76.1918C56.9815 76.6718 57.4578 76.9778 57.9776 76.9603C58.4973 76.9427 58.9519 76.6052 59.119 76.1128L57.9353 75.711ZM75.7111 57.9352L76.1129 59.1189C76.6053 58.9517 76.9428 58.4972 76.9604 57.9774C76.978 57.4577 76.6719 56.9814 76.1919 56.7814L75.7111 57.9352ZM64.3859 61.7796L64.7877 62.9633H64.7877L64.3859 61.7796ZM61.7797 64.3858L62.9634 64.7876V64.7876L61.7797 64.3858ZM35.4379 35.4378C36.2736 34.602 37.5311 34.3533 38.6221 34.8079L39.5836 32.5002C37.5575 31.6559 35.2222 32.1179 33.6701 33.67L35.4379 35.4378ZM34.808 38.622C34.3534 37.531 34.6022 36.2735 35.4379 35.4378L33.6701 33.67C32.118 35.2221 31.6561 37.5574 32.5003 39.5835L34.808 38.622ZM55.6413 88.622L34.808 38.622L32.5003 39.5835L53.3336 89.5835L55.6413 88.622ZM58.4321 90.4152C57.2194 90.4561 56.108 89.742 55.6413 88.622L53.3336 89.5835C54.2003 91.6636 56.2643 92.9898 58.5165 92.9137L58.4321 90.4152ZM61.0955 88.4377C60.7055 89.5867 59.6448 90.3742 58.4321 90.4152L58.5165 92.9137C60.7687 92.8377 62.7385 91.3752 63.4628 89.2413L61.0955 88.4377ZM66.3334 73.0076L61.0955 88.4377L63.4628 89.2413L68.7007 73.8112L66.3334 73.0076ZM82.5795 86.7041L68.4009 72.5255L66.6331 74.2932L80.8117 88.4718L82.5795 86.7041ZM86.7043 86.7041C85.5652 87.8431 83.7185 87.8431 82.5795 86.7041L80.8117 88.4718C82.9271 90.5872 86.3567 90.5872 88.472 88.4718L86.7043 86.7041ZM86.7043 82.5793C87.8433 83.7183 87.8433 85.565 86.7043 86.7041L88.472 88.4718C90.5874 86.3565 90.5874 82.9268 88.472 80.8115L86.7043 82.5793ZM72.5257 68.4007L86.7043 82.5793L88.472 80.8115L74.2935 66.633L72.5257 68.4007ZM88.4378 61.0954L73.0078 66.3332L73.8114 68.7005L89.2414 63.4627L88.4378 61.0954ZM90.4153 58.432C90.3743 59.6447 89.5868 60.7053 88.4378 61.0954L89.2414 63.4627C91.3753 62.7383 92.8378 60.7685 92.9139 58.5164L90.4153 58.432ZM88.6221 55.6412C89.7421 56.1079 90.4563 57.2193 90.4153 58.432L92.9139 58.5164C92.99 56.2642 91.6637 54.2002 89.5836 53.3335L88.6221 55.6412ZM38.6221 34.8079L88.6221 55.6412L89.5836 53.3335L39.5836 32.5002L38.6221 34.8079ZM44.0845 45.719L56.7815 76.1918L59.0892 75.2302L46.3922 44.7575L44.0845 45.719ZM76.1919 56.7814L45.7192 44.0844L44.7576 46.3921L75.2303 59.0891L76.1919 56.7814ZM64.7877 62.9633L76.1129 59.1189L75.3093 56.7516L63.9841 60.596L64.7877 62.9633ZM62.9634 64.7876C63.2549 63.929 63.9291 63.2548 64.7877 62.9633L63.9841 60.596C62.3895 61.1373 61.1374 62.3894 60.5961 63.984L62.9634 64.7876ZM59.119 76.1128L62.9634 64.7876L60.5961 63.984L56.7517 75.3092L59.119 76.1128Z" fill="#151D21" mask="url(#path-1-inside-1_161_113322)"/>
<path d="M29.0324 5.90844C30.9217 5.40173 32.864 6.52249 33.3707 8.41172L36.6082 20.4826C37.1149 22.3718 35.9941 24.3141 34.1049 24.8208C32.2157 25.3275 30.2734 24.2067 29.7667 22.3175L26.5292 10.2467C26.0225 8.35744 27.1432 6.41514 29.0324 5.90844ZM60.6293 14.3707C62.0124 15.7538 62.0124 17.9963 60.6293 19.3794L51.7876 28.221C50.4045 29.6041 48.162 29.6041 46.7789 28.221C45.3958 26.8379 45.3958 24.5955 46.7789 23.2124L55.6206 14.3707C57.0037 12.9876 59.2462 12.9876 60.6293 14.3707ZM5.90408 29.0329C6.41063 27.1436 8.35283 26.0226 10.2421 26.5292L22.3171 29.7667C24.2064 30.2732 25.3273 32.2154 24.8208 34.1047C24.3142 35.994 22.372 37.1149 20.4827 36.6084L8.40775 33.3709C6.51846 32.8643 5.39754 30.9221 5.90408 29.0329ZM28.2156 46.7778C29.5993 48.1603 29.6004 50.4028 28.2179 51.7865L19.3846 60.6282C18.0022 62.0119 15.7597 62.013 14.3759 60.6305C12.9922 59.2481 12.9911 57.0056 14.3736 55.6219L23.2069 46.7802C24.5894 45.3965 26.8318 45.3954 28.2156 46.7778Z" fill="#954CFF" stroke="#151D21" stroke-width="1.25" stroke-linecap="round" stroke-linejoin="round"/>
</svg>
