<svg width="100" height="100" viewBox="0 0 100 100" fill="none" xmlns="http://www.w3.org/2000/svg">
<mask id="path-1-inside-1_1_7640" fill="white">
<path fill-rule="evenodd" clip-rule="evenodd" d="M39.1024 33.654C37.5438 33.0046 35.7474 33.36 34.5535 34.5539C33.3596 35.7478 33.0042 37.5442 33.6536 39.1027L54.487 89.1027C55.1537 90.7028 56.7414 91.723 58.4738 91.6645C60.2062 91.6059 61.7215 90.4809 62.2787 88.8395L67.5165 73.4094L81.6951 87.5879C83.3223 89.2151 85.9605 89.2151 87.5877 87.5879C89.2149 85.9608 89.2149 83.3226 87.5877 81.6954L73.4091 67.5169L88.8391 62.279C90.4806 61.7218 91.6056 60.2066 91.6641 58.4742C91.7226 56.7417 90.7024 55.154 89.1024 54.4873L39.1024 33.654ZM57.9349 75.711L45.2379 45.2383L75.7106 57.9352L64.3855 61.7796C63.1588 62.196 62.1956 63.1592 61.7793 64.3858L57.9349 75.711Z"/>
</mask>
<path fill-rule="evenodd" clip-rule="evenodd" d="M39.1024 33.654C37.5438 33.0046 35.7474 33.36 34.5535 34.5539C33.3596 35.7478 33.0042 37.5442 33.6536 39.1027L54.487 89.1027C55.1537 90.7028 56.7414 91.723 58.4738 91.6645C60.2062 91.6059 61.7215 90.4809 62.2787 88.8395L67.5165 73.4094L81.6951 87.5879C83.3223 89.2151 85.9605 89.2151 87.5877 87.5879C89.2149 85.9608 89.2149 83.3226 87.5877 81.6954L73.4091 67.5169L88.8391 62.279C90.4806 61.7218 91.6056 60.2066 91.6641 58.4742C91.7226 56.7417 90.7024 55.154 89.1024 54.4873L39.1024 33.654ZM57.9349 75.711L45.2379 45.2383L75.7106 57.9352L64.3855 61.7796C63.1588 62.196 62.1956 63.1592 61.7793 64.3858L57.9349 75.711Z" fill="black"/>
<path d="M34.5535 34.5539L35.4374 35.4378L34.5535 34.5539ZM39.1024 33.654L38.6216 34.8079L39.1024 33.654ZM33.6536 39.1027L34.8075 38.622L33.6536 39.1027ZM54.487 89.1027L55.6408 88.622L54.487 89.1027ZM58.4738 91.6645L58.4316 90.4152H58.4316L58.4738 91.6645ZM62.2787 88.8395L61.095 88.4377L62.2787 88.8395ZM67.5165 73.4094L68.4004 72.5255C68.095 72.22 67.6534 72.0939 67.2327 72.192C66.812 72.2901 66.4717 72.5985 66.3329 73.0076L67.5165 73.4094ZM81.6951 87.5879L82.579 86.7041V86.7041L81.6951 87.5879ZM87.5877 81.6954L88.4716 80.8115V80.8115L87.5877 81.6954ZM73.4091 67.5169L73.0073 66.3332C72.5983 66.4721 72.2899 66.8123 72.1918 67.233C72.0937 67.6537 72.2198 68.0953 72.5253 68.4007L73.4091 67.5169ZM88.8391 62.279L88.4373 61.0954L88.8391 62.279ZM91.6641 58.4742L90.4148 58.432V58.432L91.6641 58.4742ZM89.1024 54.4873L88.6216 55.6412L89.1024 54.4873ZM45.2379 45.2383L45.7187 44.0844C45.2511 43.8896 44.7122 43.9962 44.354 44.3544C43.9958 44.7125 43.8892 45.2515 44.084 45.719L45.2379 45.2383ZM57.9349 75.711L56.781 76.1918C56.981 76.6718 57.4573 76.9778 57.9771 76.9603C58.4968 76.9427 58.9514 76.6052 59.1185 76.1128L57.9349 75.711ZM75.7106 57.9352L76.1124 59.1189C76.6048 58.9517 76.9423 58.4972 76.9599 57.9774C76.9775 57.4577 76.6714 56.9814 76.1914 56.7814L75.7106 57.9352ZM64.3855 61.7796L64.7873 62.9633H64.7873L64.3855 61.7796ZM61.7793 64.3858L62.9629 64.7876V64.7876L61.7793 64.3858ZM35.4374 35.4378C36.2731 34.602 37.5306 34.3533 38.6216 34.8079L39.5831 32.5002C37.557 31.6559 35.2217 32.1179 33.6696 33.67L35.4374 35.4378ZM34.8075 38.622C34.3529 37.531 34.6017 36.2735 35.4374 35.4378L33.6696 33.67C32.1176 35.2221 31.6556 37.5574 32.4998 39.5835L34.8075 38.622ZM55.6408 88.622L34.8075 38.622L32.4998 39.5835L53.3331 89.5835L55.6408 88.622ZM58.4316 90.4152C57.2189 90.4561 56.1075 89.742 55.6408 88.622L53.3331 89.5835C54.1998 91.6636 56.2639 92.9898 58.516 92.9137L58.4316 90.4152ZM61.095 88.4377C60.705 89.5867 59.6443 90.3742 58.4316 90.4152L58.516 92.9137C60.7682 92.8377 62.738 91.3752 63.4623 89.2413L61.095 88.4377ZM66.3329 73.0076L61.095 88.4377L63.4623 89.2413L68.7002 73.8112L66.3329 73.0076ZM82.579 86.7041L68.4004 72.5255L66.6327 74.2932L80.8112 88.4718L82.579 86.7041ZM86.7038 86.7041C85.5648 87.8431 83.718 87.8431 82.579 86.7041L80.8112 88.4718C82.9266 90.5872 86.3562 90.5872 88.4716 88.4718L86.7038 86.7041ZM86.7038 82.5793C87.8428 83.7183 87.8428 85.565 86.7038 86.7041L88.4716 88.4718C90.5869 86.3565 90.5869 82.9268 88.4716 80.8115L86.7038 82.5793ZM72.5253 68.4007L86.7038 82.5793L88.4716 80.8115L74.293 66.633L72.5253 68.4007ZM88.4373 61.0954L73.0073 66.3332L73.8109 68.7005L89.2409 63.4627L88.4373 61.0954ZM90.4148 58.432C90.3738 59.6447 89.5863 60.7053 88.4373 61.0954L89.2409 63.4627C91.3748 62.7383 92.8373 60.7685 92.9134 58.5164L90.4148 58.432ZM88.6216 55.6412C89.7417 56.1079 90.4558 57.2193 90.4148 58.432L92.9134 58.5164C92.9895 56.2642 91.6632 54.2002 89.5831 53.3335L88.6216 55.6412ZM38.6216 34.8079L88.6216 55.6412L89.5831 53.3335L39.5831 32.5002L38.6216 34.8079ZM44.084 45.719L56.781 76.1918L59.0887 75.2302L46.3917 44.7575L44.084 45.719ZM76.1914 56.7814L45.7187 44.0844L44.7571 46.3921L75.2298 59.0891L76.1914 56.7814ZM64.7873 62.9633L76.1124 59.1189L75.3088 56.7516L63.9837 60.596L64.7873 62.9633ZM62.9629 64.7876C63.2544 63.929 63.9286 63.2548 64.7873 62.9633L63.9837 60.596C62.389 61.1373 61.1369 62.3894 60.5956 63.984L62.9629 64.7876ZM59.1185 76.1128L62.9629 64.7876L60.5956 63.984L56.7512 75.3092L59.1185 76.1128Z" fill="white" mask="url(#path-1-inside-1_1_7640)"/>
<path d="M29.0325 5.90844C30.9217 5.40173 32.864 6.52249 33.3707 8.41172L36.6082 20.4826C37.1149 22.3718 35.9941 24.3141 34.1049 24.8208C32.2157 25.3275 30.2734 24.2067 29.7667 22.3175L26.5292 10.2467C26.0225 8.35744 27.1432 6.41514 29.0325 5.90844ZM60.6293 14.3707C62.0124 15.7538 62.0124 17.9963 60.6293 19.3794L51.7876 28.221C50.4045 29.6041 48.162 29.6041 46.7789 28.221C45.3958 26.8379 45.3958 24.5955 46.7789 23.2124L55.6206 14.3707C57.0037 12.9876 59.2462 12.9876 60.6293 14.3707ZM5.90408 29.0329C6.41063 27.1436 8.35283 26.0226 10.2421 26.5292L22.3171 29.7667C24.2064 30.2732 25.3273 32.2154 24.8208 34.1047C24.3142 35.994 22.372 37.1149 20.4827 36.6084L8.40775 33.3709C6.51847 32.8643 5.39754 30.9221 5.90408 29.0329ZM28.2156 46.7778C29.5993 48.1603 29.6004 50.4028 28.2179 51.7865L19.3846 60.6282C18.0022 62.0119 15.7597 62.013 14.3759 60.6305C12.9922 59.2481 12.9911 57.0056 14.3736 55.6219L23.2069 46.7802C24.5894 45.3965 26.8318 45.3954 28.2156 46.7778Z" fill="#6B0DFF" stroke="white" stroke-width="1.25" stroke-linecap="round" stroke-linejoin="round"/>
</svg>
