<svg width="24" height="24" viewBox="0 0 24 24" fill="none" xmlns="http://www.w3.org/2000/svg">
<path d="M21.7104 20.29L18.0004 16.61C19.4405 14.8144 20.1379 12.5353 19.9492 10.2413C19.7605 7.94733 18.7001 5.81281 16.9859 4.27667C15.2718 2.74053 13.0342 1.91954 10.7333 1.9825C8.43243 2.04546 6.24311 2.98759 4.61553 4.61517C2.98795 6.24275 2.04582 8.43207 1.98286 10.7329C1.9199 13.0338 2.7409 15.2714 4.27704 16.9855C5.81318 18.6997 7.94769 19.7601 10.2417 19.9488C12.5357 20.1375 14.8148 19.4401 16.6104 18L20.2904 21.68C20.3834 21.7738 20.494 21.8482 20.6158 21.8989C20.7377 21.9497 20.8684 21.9758 21.0004 21.9758C21.1324 21.9758 21.2631 21.9497 21.385 21.8989C21.5068 21.8482 21.6174 21.7738 21.7104 21.68C21.8906 21.4936 21.9914 21.2444 21.9914 20.985C21.9914 20.7257 21.8906 20.4765 21.7104 20.29ZM11.0004 18C9.61592 18 8.26255 17.5895 7.1114 16.8203C5.96026 16.0511 5.06305 14.9579 4.53324 13.6788C4.00342 12.3997 3.8648 10.9923 4.1349 9.63439C4.40499 8.27653 5.07168 7.02925 6.05065 6.05028C7.02961 5.07131 8.27689 4.40463 9.63476 4.13453C10.9926 3.86443 12.4001 4.00306 13.6792 4.53287C14.9583 5.06268 16.0515 5.95989 16.8207 7.11103C17.5899 8.26218 18.0004 9.61556 18.0004 11C18.0004 12.8565 17.2629 14.637 15.9501 15.9498C14.6374 17.2625 12.8569 18 11.0004 18Z" fill="black"/>
</svg>
