<svg width="324" height="150" viewBox="0 0 324 150" fill="none" xmlns="http://www.w3.org/2000/svg">
<rect x="0.666992" width="322.667" height="150" rx="8" fill="#F2F4FF"/>
<g clip-path="url(#clip0_57_66556)">
<g clip-path="url(#clip1_57_66556)">
<path d="M106.197 83.4737L128.197 68.1303C128.197 68.1303 129.189 67.5564 129.189 66.6507C129.189 65.4445 127.934 65.0522 127.934 65.0522L115.831 60.2322C115.399 60.0618 114.805 60.5393 115.361 61.1446L119.368 65.18C119.368 65.18 120.481 66.2807 120.481 67.0026C120.481 67.7245 119.798 68.3679 119.798 68.3679L105.217 82.5456C104.699 83.05 105.4 83.9647 106.197 83.4737Z" fill="#0C67E8"/>
<path d="M123.967 44.5751L101.967 59.9163C101.967 59.9163 100.975 60.4902 100.975 61.3959C100.975 62.6021 102.23 62.9944 102.23 62.9944L114.333 67.8167C114.765 67.9848 115.361 67.5073 114.803 66.9042L110.796 62.8554C110.796 62.8554 109.683 61.7569 109.683 61.0328C109.683 60.3086 110.366 59.6675 110.366 59.6675L124.938 45.501C125.465 44.9966 124.766 44.0819 123.967 44.5751Z" fill="#0C67E8"/>
<path d="M157.48 66.3072C156.278 65.3984 154.594 64.8006 152.427 64.5137L148.434 64.0003C147.362 63.8672 146.54 63.6236 145.967 63.2694C145.696 63.1146 145.472 62.8876 145.32 62.6131C145.168 62.3387 145.094 62.0275 145.106 61.7135C145.106 60.1084 146.62 59.3065 149.647 59.308C151.368 59.2839 153.08 59.5709 154.7 60.1554C155.197 60.3313 155.676 60.5566 156.129 60.828C156.371 60.9712 156.6 61.1363 156.813 61.3212C156.941 61.2638 157.06 61.1883 157.167 61.097C157.333 60.9669 157.483 60.8162 157.612 60.6487C157.763 60.4515 157.894 60.2397 158.004 60.0164C158.126 59.7585 158.186 59.475 158.179 59.1892C158.179 58.2162 157.429 57.4271 155.929 56.8218C154.429 56.2165 152.321 55.9175 149.605 55.925C148.212 55.8965 146.821 56.0625 145.473 56.4182C144.471 56.6797 143.533 57.1426 142.713 57.779C142.042 58.3068 141.508 58.9897 141.155 59.7698C140.827 60.5216 140.661 61.3343 140.665 62.1552C140.641 63.0205 140.823 63.8791 141.195 64.6594C141.542 65.351 142.044 65.952 142.662 66.4148C143.344 66.9145 144.106 67.2936 144.915 67.5357C145.852 67.8251 146.816 68.0167 147.793 68.1074L150.847 68.4638C152.257 68.6133 153.235 68.8823 153.783 69.2709C154.051 69.4561 154.268 69.7076 154.411 70.0012C154.555 70.2949 154.622 70.6209 154.604 70.9478C154.604 71.8162 154.174 72.4275 153.313 72.7817C152.453 73.1359 151.34 73.313 149.974 73.313C149.005 73.3188 148.037 73.24 147.08 73.0776C146.279 72.9397 145.488 72.7488 144.712 72.5059C144.12 72.3196 143.538 72.1018 142.969 71.8536C142.628 71.7138 142.3 71.5427 141.99 71.3424L140.307 74.3779C140.626 74.6076 140.967 74.8057 141.324 74.9698C141.99 75.2884 142.677 75.5589 143.381 75.7791C144.362 76.0873 145.362 76.3306 146.375 76.5077C147.642 76.7284 148.926 76.8342 150.212 76.8238C153.134 76.8238 155.373 76.2319 156.928 75.0482C157.671 74.5113 158.272 73.7992 158.679 72.9741C159.085 72.149 159.284 71.2362 159.259 70.3156C159.274 68.552 158.681 67.2159 157.48 66.3072Z" fill="black"/>
<path d="M166.564 47.1994C165.807 47.1994 165.229 47.3721 164.801 47.7128C164.374 48.0536 164.176 48.5804 164.176 49.2821V76.2654H168.639V47.6344C168.508 47.5828 168.247 47.4954 167.855 47.3788C167.436 47.2555 167.001 47.1951 166.564 47.1994Z" fill="black"/>
<path d="M176.877 47.5943C176.521 47.5901 176.168 47.6576 175.838 47.7929C175.509 47.9282 175.209 48.1285 174.957 48.382C174.705 48.6356 174.507 48.9373 174.372 49.2694C174.238 49.6015 174.171 49.9573 174.175 50.3159C174.177 50.7626 174.289 51.2018 174.499 51.5948C174.71 51.9879 175.013 52.3226 175.383 52.5697C175.752 52.8167 176.177 52.9683 176.618 53.0112C177.059 53.054 177.505 52.9868 177.914 52.8155C178.324 52.6441 178.685 52.3739 178.966 52.0286C179.248 51.6834 179.44 51.2737 179.527 50.8357C179.614 50.3977 179.593 49.9449 179.465 49.5173C179.337 49.0896 179.107 48.7002 178.794 48.3834C178.545 48.1271 178.246 47.9249 177.917 47.7891C177.587 47.6534 177.233 47.5871 176.877 47.5943Z" fill="black"/>
<path d="M177.026 56.4731C176.27 56.4731 175.691 56.639 175.263 56.9663C174.836 57.2936 174.645 57.8182 174.645 58.558V76.2689H179.108V56.9035C178.976 56.8497 178.716 56.7645 178.324 56.6457C177.902 56.5253 177.465 56.4671 177.026 56.4731Z" fill="black"/>
<path d="M201.306 58.1451C200.413 57.3966 199.382 56.8335 198.272 56.4884C197.03 56.0973 195.736 55.9044 194.435 55.9167C193.14 55.9031 191.852 56.0961 190.617 56.4884C189.514 56.8366 188.489 57.3995 187.601 58.1451C186.749 58.8676 186.066 59.769 185.597 60.786C185.102 61.896 184.857 63.1026 184.88 64.3192V76.2685H189.344V65.4626C189.344 63.6691 189.768 62.3083 190.617 61.3801C191.466 60.452 192.738 59.9857 194.435 59.9812C196.104 59.9812 197.37 60.4475 198.232 61.3801C199.094 62.3128 199.525 63.6736 199.525 65.4626V76.2685H203.989V64.3192C204.013 63.1049 203.776 61.8997 203.294 60.786C202.836 59.7668 202.157 58.8643 201.306 58.1451Z" fill="black"/>
<path d="M220.394 71.8093C219.955 72.0941 219.481 72.3202 218.985 72.4818C218.306 72.7225 217.592 72.8431 216.872 72.8383C216.417 72.8403 215.964 72.7877 215.521 72.6814C215.107 72.5838 214.719 72.3955 214.386 72.1298C214.048 71.8511 213.785 71.491 213.622 71.0829C213.422 70.5484 213.329 69.9792 213.348 69.4082V60.6088H220.866C220.986 60.346 221.09 60.0766 221.18 59.8018C221.313 59.4007 221.379 58.9803 221.376 58.5575C221.376 57.885 221.2 57.3559 220.846 57.0017C220.492 56.6474 219.884 56.4726 219.023 56.4726H213.346V51.3162C213.215 51.2624 212.948 51.1773 212.543 51.0584C212.116 50.9381 211.675 50.8785 211.232 50.8813C210.619 50.8465 210.012 51.0202 209.509 51.3745C209.081 51.6906 208.881 52.213 208.881 52.9595V70.3094C208.881 72.2524 209.469 73.8217 210.644 75.0174C211.819 76.2131 213.556 76.8109 215.853 76.8109C216.6 76.8135 217.346 76.7384 218.079 76.5867C218.705 76.4565 219.32 76.2788 219.92 76.0554C220.402 75.8751 220.868 75.65 221.309 75.3828C221.687 75.1452 221.984 74.9479 222.199 74.791L220.394 71.8093Z" fill="black"/>
</g>
</g>
<rect x="140.5" y="84.3672" width="43" height="22" fill="#0C67E8"/>
<path d="M148.003 99.3672V91.1352H153.835V92.1192H149.143V94.7592H153.415V95.7312H149.143V99.3672H148.003ZM155.35 99.3672V91.1352H156.49V98.3712H160.582V99.3672H155.35ZM161.784 99.3672V91.1352H168.12V92.1192H162.924V94.6632H167.592V95.6472H162.924V98.3832H168.192V99.3672H161.784ZM169.005 99.3672L172.221 95.0472L169.305 91.1352H170.709L172.953 94.1952H173.013L175.233 91.1352H176.565L173.685 95.0352L176.901 99.3672H175.497L172.953 95.8992H172.893L170.361 99.3672H169.005Z" fill="white"/>
<rect x="140.5" y="84.3672" width="43" height="22" stroke="white"/>
<defs>
<clipPath id="clip0_57_66556">
<rect width="122.2" height="40.7333" fill="white" transform="translate(100.9 43.6328)"/>
</clipPath>
<clipPath id="clip1_57_66556">
<rect width="121.495" height="39.486" fill="white" transform="translate(100.9 44.418)"/>
</clipPath>
</defs>
</svg>
