<svg width="288" height="68" viewBox="0 0 288 68" fill="none" xmlns="http://www.w3.org/2000/svg">
<g clip-path="url(#clip0_57_104503)">
<path d="M286.218 46.7309C283.529 46.7309 281.679 46.6097 280.674 46.3628C279.664 46.1159 279.004 45.5727 278.694 44.7243C278.384 43.8759 278.227 42.3181 278.227 40.0421V22.7859H285.154V18.1038H278.227V6.65201L277.931 6.67894C274.151 7.00665 271.247 10.167 271.247 13.9648V18.1038H258.125V10.7461C258.125 7.62615 259.728 6.06393 262.933 6.06393C263.103 6.06393 263.265 6.0774 263.431 6.08638C264.073 3.972 265.689 2.28857 267.754 1.54338C266.03 0.995706 264.064 0.712891 261.846 0.712891C258.381 0.712891 255.732 1.57031 253.896 3.28965C252.06 5.00899 251.14 7.36129 251.14 10.3466V18.1038H245.479L244.55 22.7859H251.144V50.8789H258.125V22.7859H271.247V43.7232C271.247 45.9094 272.064 47.759 273.689 49.2763C275.318 50.7936 277.814 51.5523 281.177 51.5523H287.461L288.005 46.7354H286.222L286.218 46.7309Z" fill="#151D21"/>
<path d="M4.52037 49.999L4.45303 49.9811C1.4902 49.182 -0.377272 46.2596 0.0671512 43.2205L0.215292 42.2059C1.24779 43.0095 2.84143 43.7681 4.98724 44.4819C7.13304 45.1957 9.49881 45.5503 12.0845 45.5503C14.5132 45.5503 16.3896 45.1957 17.7094 44.4819C19.0292 43.7681 19.6891 42.7671 19.6891 41.4742C19.6891 39.9569 18.9664 38.8076 17.5164 38.031C16.0664 37.2499 14.2573 36.5945 12.0845 36.0558C9.70531 35.5216 7.70316 34.9515 6.0736 34.3499C4.44405 33.7484 3.04793 32.8236 1.88525 31.5757C0.722564 30.3277 0.138977 28.6757 0.138977 26.6242C0.138977 23.814 1.30166 21.4751 3.62703 19.6032C5.95689 17.7312 9.54819 16.793 14.4099 16.793C16.632 16.793 18.522 16.9815 20.0707 17.3586C21.6239 17.7357 23.1727 18.2609 24.7259 18.9298L23.873 24.4155C22.634 23.5222 21.2603 22.8219 19.761 22.3101C18.2616 21.7983 16.5288 21.5425 14.5625 21.5425C12.2866 21.5425 10.4909 21.9106 9.1711 22.6468C7.8513 23.383 7.1914 24.4873 7.1914 25.9598C7.1914 26.9384 7.50115 27.733 8.12065 28.3345C8.74015 28.9361 9.62002 29.4388 10.7558 29.8384C11.8915 30.2379 13.6513 30.7542 16.0305 31.3781C18.9798 32.1368 21.5252 33.2052 23.671 34.5879C25.8168 35.9705 26.8897 38.1567 26.8897 41.142C26.8897 43.8175 25.7899 46.116 23.5947 48.0328C21.395 49.9497 17.66 50.9103 12.3853 50.9103C9.38658 50.9103 6.76044 50.6096 4.51139 50.008L4.52037 49.999Z" fill="#151D21"/>
<path d="M223.442 17.1797C213.862 17.1797 206.096 24.9459 206.096 34.5257C206.096 44.1055 213.862 51.8717 223.442 51.8717C233.021 51.8717 240.788 44.1055 240.788 34.5257C240.788 24.9459 233.021 17.1797 223.442 17.1797ZM223.442 45.3041C217.417 45.3041 212.533 40.4199 212.533 34.3955C212.533 28.3711 217.417 23.4869 223.442 23.4869C229.466 23.4869 234.35 28.3711 234.35 34.3955C234.35 40.4199 229.466 45.3041 223.442 45.3041Z" fill="#151D21"/>
<path d="M178.914 50.6807L178.847 50.6627C175.884 49.8637 174.016 46.9412 174.461 43.9021L174.609 42.8876C175.641 43.6911 177.235 44.4498 179.381 45.1635C181.527 45.8773 183.892 46.232 186.478 46.232C188.907 46.232 190.783 45.8773 192.103 45.1635C193.423 44.4498 194.083 43.4487 194.083 42.1558C194.083 40.6385 193.36 39.4893 191.91 38.7127C190.46 37.9316 188.651 37.2762 186.478 36.7375C184.099 36.2033 182.097 35.6331 180.467 35.0316C178.838 34.43 177.441 33.5053 176.279 32.2573C175.116 31.0093 174.533 29.3573 174.533 27.3058C174.533 24.4956 175.695 22.1568 178.021 20.2848C180.35 18.4128 183.942 17.4746 188.803 17.4746C191.026 17.4746 192.916 17.6632 194.464 18.0402C196.017 18.4173 197.566 18.9426 199.119 19.6114L198.267 25.0971C197.028 24.2038 195.654 23.5035 194.155 22.9917C192.655 22.48 190.922 22.2241 188.956 22.2241C186.68 22.2241 184.884 22.5922 183.565 23.3284C182.245 24.0646 181.585 25.169 181.585 26.6414C181.585 27.62 181.895 28.4146 182.514 29.0162C183.134 29.6177 184.014 30.1205 185.149 30.52C186.285 30.9195 188.045 31.4358 190.424 32.0598C193.373 32.8184 195.919 33.8869 198.065 35.2695C200.21 36.6522 201.283 38.8384 201.283 41.8236C201.283 44.4992 200.183 46.7976 197.988 48.7144C195.789 50.6313 192.054 51.592 186.779 51.592C183.78 51.592 181.154 51.2912 178.905 50.6897L178.914 50.6807Z" fill="#151D21"/>
<path d="M153.501 17.1439L141.825 12.8523C139.881 12.1386 137.892 13.795 138.247 15.8331L139.558 21.5388C140.222 21.6196 141.196 21.6555 141.955 22.1224C142.987 22.7643 143.629 23.5948 143.683 24.6498C143.697 25.6059 143.598 25.9247 143.549 26.414C143.513 26.7462 143.436 27.5048 143.441 27.6665C143.468 28.7842 143.495 28.8246 143.616 29.4037C143.858 30.553 144.446 31.4059 144.446 31.4059L154.417 22.4187C156.244 20.8968 155.737 17.9654 153.505 17.1439H153.501Z" fill="#151D21"/>
<path d="M158.875 19.9395C159.378 20.7251 159.71 21.6453 159.647 22.5746C159.611 23.1133 159.481 23.643 159.355 24.1682C159.238 24.6575 159.189 25.0975 159.175 25.506C159.135 26.4891 159.58 27.7281 160.266 28.5092C161.869 30.3228 162.699 32.4462 162.686 35.0364C162.664 40.2258 158.628 45.3614 153.497 46.1604C146.817 47.2019 141.147 42.3043 140.694 35.8759C140.595 35.216 140.496 33.6448 140.528 32.8816C140.599 29.9861 140.757 30.2644 141.25 27.4543C141.524 25.0256 139.98 24.3253 138.4 24.1951V24.1727C135.266 27.8448 133.637 32.8277 134.481 38.1922C135.652 45.6532 141.421 51.3948 148.886 52.5305C159.674 54.1691 168.957 45.8642 168.957 35.391C168.957 28.2084 165.025 22.5027 158.879 19.9439L158.875 19.9395Z" fill="#151D21"/>
<path d="M112.282 18.3368H118.023L118.876 23.7552C120.843 21.6588 122.714 20.1235 124.501 19.1404C126.283 18.1618 128.16 17.668 130.126 17.668C130.746 17.668 131.343 17.7353 131.913 17.87L131.212 24.4914C130.539 24.3568 129.762 24.2894 128.887 24.2894C126.975 24.2894 125.166 24.6575 123.455 25.3938C121.749 26.13 120.506 26.9874 119.734 27.9705V51.112H112.286V18.3368H112.282Z" fill="#151D21"/>
<path d="M83.5019 49.6269L67.6777 18.3242H75.4349L87.3042 42.6733L98.0108 18.3242H105.768L84.6377 62.7845C83.3313 65.5319 80.557 67.2871 77.5134 67.2871H74.7391L83.5064 49.6314L83.5019 49.6269Z" fill="#151D21"/>
<path d="M48.9178 16.4961C39.338 16.4961 31.5718 24.2623 31.5718 33.8421C31.5718 33.9139 31.5763 33.9812 31.5763 34.0531C31.5763 34.089 31.5718 34.1249 31.5718 34.1563V67.2187C35.3875 67.2187 38.485 64.1257 38.485 60.3055V47.6955C41.3895 49.8862 45.0032 51.1881 48.9223 51.1881C58.5021 51.1881 66.2682 43.4219 66.2682 33.8421C66.2682 24.2623 58.5021 16.4961 48.9223 16.4961H48.9178ZM48.9178 44.6205C42.8934 44.6205 38.0092 39.7363 38.0092 33.7119C38.0092 27.6875 42.8934 22.8033 48.9178 22.8033C54.9422 22.8033 59.8263 27.6875 59.8263 33.7119C59.8263 39.7363 54.9422 44.6205 48.9178 44.6205Z" fill="#151D21"/>
</g>
<defs>
<clipPath id="clip0_57_104503">
<rect width="288" height="66.5738" fill="white" transform="translate(0 0.712891)"/>
</clipPath>
</defs>
</svg>
