<?xml version="1.0" encoding="utf-8"?>
<!-- Generator: Adobe Illustrator 23.1.0, SVG Export Plug-In . SVG Version: 6.00 Build 0)  -->
<svg version="1.1" id="Logo_1_" xmlns="http://www.w3.org/2000/svg" xmlns:xlink="http://www.w3.org/1999/xlink" x="0px" y="0px"
	 viewBox="0 0 318.53 209.54" style="enable-background:new 0 0 318.53 209.54;" xml:space="preserve">
<g>
	<path d="M270.27,47.13l-156.74,0.01c0,0,0.01,0.01,0.01,0.01c-11.89,0-22.11,7.11-26.55,17.25l-30.94,74.53
		c-0.08,0.2-0.13,0.4-0.13,0.63c0,0.89,0.74,1.62,1.64,1.62l70.77,0c5.03,0,7.22-4.84,3.3-8.71l-25.99-24.32
		c-13.66-13.39-7.8-44.44,20.57-44.44h138.55c0.72,0,1.33-0.46,1.55-1.09l5.48-13.25c0.08-0.19,0.12-0.4,0.12-0.62
		C271.9,47.85,271.18,47.13,270.27,47.13z"/>
	<path d="M254.65,85.06l-26.61,0.03c-1.79,0-3.34,1.08-3.98,2.63l-29.81,72.03c-0.12,0.22-0.19,0.48-0.19,0.75
		c0,0.89,0.73,1.61,1.63,1.61l9.93,0l0-0.01c12.06,0,22.47-7.3,26.81-17.67c0,0,0.02,0.01,0.03,0.02l23.69-57.19
		c0.07-0.19,0.12-0.39,0.12-0.6C256.29,85.78,255.55,85.06,254.65,85.06z"/>
	<path d="M202.35,86.68c0-0.9-0.74-1.62-1.64-1.62h-75.44c-4.09,0-7.67,5.03-3.34,9.02l24.92,23.19c0,0,10.09,9.3,7.93,22.61
		c-1.91,11.72-9.9,18.89-15.69,21.47l-0.02,0c-0.14,0.07-0.23,0.21-0.23,0.36c0,0.22,0.18,0.41,0.41,0.41l29.07,0
		c1.8,0,3.34-1.08,3.98-2.63l29.92-72.24C202.31,87.07,202.35,86.88,202.35,86.68z"/>
</g>
</svg>
