<svg width="32" height="32" viewBox="0 0 32 32" fill="none" xmlns="http://www.w3.org/2000/svg">
<path fill-rule="evenodd" clip-rule="evenodd" d="M16.0811 6.50898C16.2746 6.85236 16.2484 7.27739 16.0141 7.59436C15.1598 8.75002 14.7488 10.1739 14.8557 11.607C14.9625 13.0401 15.5802 14.3873 16.5964 15.4034C17.6126 16.4196 18.9597 17.0373 20.3929 17.1442C21.826 17.2511 23.2498 16.84 24.4055 15.9858L24.9999 16.79L25.9957 16.882C25.8209 18.7733 25.1111 20.5758 23.9493 22.0784C22.7875 23.5811 21.2218 24.7218 19.4353 25.367C17.6489 26.0123 15.7156 26.1354 13.8618 25.7221C12.0079 25.3087 10.3101 24.3759 8.96702 23.0328C7.62394 21.6898 6.69115 19.992 6.27778 18.1381C5.86441 16.2842 5.98757 14.351 6.63284 12.5645C7.27811 10.7781 8.4188 9.21238 9.92145 8.05059C11.4241 6.8888 13.2265 6.17898 15.1179 6.0042C15.5104 5.96793 15.8876 6.1656 16.0811 6.50898ZM23.5608 18.6836C22.5077 19.0646 21.3781 19.2232 20.2441 19.1387C18.3333 18.9962 16.5371 18.1726 15.1822 16.8177C13.8273 15.4628 13.0037 13.6666 12.8612 11.7557C12.7766 10.6218 12.9353 9.49214 13.3163 8.43902C12.5387 8.72037 11.8055 9.12198 11.1448 9.63283C9.94266 10.5623 9.0301 11.8148 8.51389 13.244C7.99767 14.6731 7.89914 16.2197 8.22984 17.7028C8.56054 19.1859 9.30677 20.5442 10.3812 21.6186C11.4557 22.6931 12.8139 23.4393 14.297 23.77C15.7801 24.1007 17.3267 24.0022 18.7559 23.486C20.185 22.9698 21.4376 22.0572 22.367 20.8551C22.8779 20.1944 23.2795 19.4612 23.5608 18.6836Z" fill="#151D21"/>
</svg>
