<?xml version="1.0" encoding="utf-8"?>
<!-- Generator: Adobe Illustrator 23.0.3, SVG Export Plug-In . SVG Version: 6.00 Build 0)  -->
<svg version="1.1" id="Layer_1" xmlns="http://www.w3.org/2000/svg" xmlns:xlink="http://www.w3.org/1999/xlink" x="0px" y="0px"
	 viewBox="0 0 300 80" style="enable-background:new 0 0 300 80;" xml:space="preserve">
<style type="text/css">
	.st0{fill-rule:evenodd;clip-rule:evenodd;fill:#96C837;}
	.st1{fill:#00508C;}
</style>
<title>Toradex-logo-without-tagline</title>
<path class="st0" d="M31.6,48.6c-2.5,0-4.5-2-4.5-4.5c0-2.5,2-4.5,4.5-4.5c2.3,0,4.3,1.8,4.4,4.1c-0.2-8.7-7.5-15.6-16.2-15.4
	C13,28.6,7.1,33.1,5.1,39.7c-0.2,0-0.4,0-0.6,0c-2.5,0-4.5,2-4.5,4.5c0,2.5,2,4.5,4.5,4.5c0.2,0,0.4,0,0.6,0C7,55.4,13.2,60,20.3,60
	C29,60.1,36,53.1,36.1,44.4C36,46.8,34,48.6,31.6,48.6z M18.1,48.6c-2.5,0-4.5-2-4.4-4.5s2-4.5,4.5-4.4c2.5,0,4.4,2,4.4,4.5
	C22.6,46.6,20.5,48.6,18.1,48.6C18.1,48.6,18.1,48.6,18.1,48.6z"/>
<path class="st1" d="M45.2,39.7c-2.5,0-4.5,2-4.4,4.5c0,2.5,2,4.5,4.5,4.4c2.5,0,4.4-2,4.5-4.5C49.7,41.7,47.7,39.7,45.2,39.7
	C45.2,39.7,45.2,39.7,45.2,39.7z"/>
<path class="st1" d="M58.8,39.7c-2.5,0-4.5,2-4.5,4.5c0,2.5,2,4.5,4.5,4.5c2.5,0,4.5-2,4.5-4.5C63.3,41.7,61.3,39.7,58.8,39.7z"/>
<polygon class="st1" points="73.7,59 79.1,59 79.1,25 94.1,25 94.1,20 60.7,20 56.8,25 73.7,25 "/>
<path class="st1" d="M103.1,28.3c-8.8,0-15.9,7.1-15.9,15.8c0,8.8,7.1,15.9,15.8,15.9c8.7,0,15.8-7.1,15.9-15.8
	c0.1-8.7-6.9-15.8-15.7-15.9C103.2,28.3,103.1,28.3,103.1,28.3z M103.1,55.3c-6.3,0-10.7-5-10.7-11.1S96.7,33,103.1,33
	s10.7,5,10.7,11.1S109.4,55.3,103.1,55.3L103.1,55.3z"/>
<polygon class="st1" points="270,43 281,29 274.6,29 266.7,39.2 258.8,29 252.6,29 263.5,43 250.7,59 257.1,59 266.7,46.8 276.3,59 
	282.5,59 "/>
<path class="st1" d="M144.1,33.8c0.8-1.4,1.8-2.7,3-3.8c-7.8-3.9-17.4-0.8-21.3,7c-1.1,2.2-1.7,4.6-1.7,7.1V59h5.1V44.1
	c0-6.1,4.4-11.1,10.7-11.1C141.4,33,142.8,33.3,144.1,33.8z"/>
<path class="st1" d="M162.2,60c4,0,7.8-1.4,10.7-4.1V59h5.1V44.2c0-8.7-7.1-15.9-15.8-15.9c-8.7,0-15.9,7.1-15.9,15.8
	S153.4,60,162.2,60C162.2,60,162.2,60,162.2,60z M162.2,33c6.3,0,10.7,5,10.7,11.2s-4.4,11.1-10.7,11.1s-10.7-5-10.7-11.1
	S155.9,33,162.2,33z"/>
<path class="st1" d="M214.1,44V20h-5.1v12.4c-6.5-5.9-16.5-5.5-22.4,0.9c-5.9,6.5-5.5,16.5,0.9,22.4s16.5,5.5,22.4-0.9
	c2.7-2.9,4.2-6.7,4.2-10.7V44z M198.2,55.3c-6.4,0-10.7-5-10.7-11.1S191.9,33,198.2,33s10.7,5,10.7,11.1S204.6,55.3,198.2,55.3z"/>
<path class="st1" d="M243.1,51.9c-4,4.3-10.8,4.5-15.1,0.5c-1.6-1.5-2.7-3.5-3.2-5.7h26.1c0.1-0.8,0.2-1.7,0.2-2.5
	c0-8.7-7-15.7-15.7-15.7s-15.7,7-15.7,15.7s7,15.7,15.7,15.7c5.7,0,10.9-3.1,13.7-8H243.1z M235.2,33c5.1-0.1,9.5,3.5,10.4,8.5
	h-20.9C225.7,36.5,230.1,32.9,235.2,33z"/>
</svg>
