<svg version="1.1" id="Ebene_1" style="max-width: 225px;height:93px;" xmlns="http://www.w3.org/2000/svg" x="0" y="0" viewBox="0 0 400.6 160.3" xml:space="preserve"><style>.st0{fill:#0063ae}.st1{fill:#333}</style><linearGradient id="SVGID_1_" gradientUnits="userSpaceOnUse" x1="-220.792" y1="374.652" x2="-220.085" y2="373.945"><stop offset="0" stop-color="#339a2a"></stop><stop offset=".983" stop-color="#121e0d"></stop></linearGradient><path class="st0" d="M55.4 81.8c-6 3.3-12.8 5-21.6 5C13 86.8 1 74.8 1 54.2 1 36 10.6 21 30.2 21 53.4 21.1 60 37 60 59H16.6c.7 10.1 7.8 15.9 17.9 15.9 7.9 0 14.8-2.9 20.9-6.3v13.2zm-11-34C43.9 39.9 40.2 33 31.1 33c-9.2 0-13.8 6.3-14.5 14.8h27.8zM71.9 22.5h15.3v8.8h.2C92.5 23.6 100 21 106.1 21c8.8 0 15 3.3 18.6 11.1 3.8-7.6 12-11.1 19.7-11.1 15.5 0 19.9 10.6 19.9 24.7v39.7h-16.4V47.9c0-5.9 0-14.2-9.4-14.2-10.9 0-12.2 12.9-12.2 21.1v30.5h-16.4V47.9c0-5.9 0-14.2-9.4-14.2-10.9 0-12.2 12.9-12.2 21.1v30.5H71.9V22.5zM302.2 81.8c-6 3.3-12.8 5-21.6 5-20.8 0-32.8-12-32.8-32.6C247.8 36 257.4 21 277 21c23.3 0 29.9 16 29.9 38h-43.5c.7 10.1 7.8 15.9 17.9 15.9 7.9 0 14.8-2.9 20.9-6.3v13.2zm-11-34c-.5-7.9-4.2-14.8-13.3-14.8-9.2 0-13.8 6.3-14.5 14.8h27.8z"></path><path class="st1" d="M7.7 145.6L0 132.8h5l5 8.9 5.1-8.9h4.5L12 145.6v8.4H7.7v-8.4zM29.4 137.9c4.6 0 8.2 3.1 8.2 8.3 0 4.5-3 8.1-8.2 8.1-5.2 0-8.2-3.6-8.2-8.1.1-5.1 3.6-8.3 8.2-8.3zm0 13.2c3.1 0 3.9-2.8 3.9-5.4 0-2.4-1.3-4.6-3.9-4.6-2.6 0-3.9 2.3-3.9 4.6 0 2.6.8 5.4 3.9 5.4zM58.2 153.9h-3.9v-2.1h-.1c-1.2 1.5-3 2.5-5.1 2.5-3.7 0-5.3-2.6-5.3-6.1v-9.9h4.1v8.3c0 1.9 0 4.5 2.6 4.5 2.9 0 3.6-3.2 3.6-5.2v-7.6h4.1v15.6zM65.5 138.3h3.6v3.6h.1c.2-1.5 1.9-3.9 4.3-3.9.4 0 .8 0 1.2.1v4.1c-.4-.2-1.1-.3-1.8-.3-3.3 0-3.3 4.1-3.3 6.4v5.7h-4.1v-15.7zM104.3 153.1c-1.5.8-3.2 1.2-5.4 1.2-5.2 0-8.2-3-8.2-8.1 0-4.5 2.4-8.3 7.3-8.3 5.8 0 7.4 4 7.4 9.4H94.6c.2 2.5 1.9 3.9 4.5 3.9 2 0 3.7-.7 5.2-1.6v3.5zm-2.8-8.5c-.1-2-1-3.7-3.3-3.7s-3.4 1.6-3.6 3.7h6.9zM111.6 138.3h3.8v2.2h.1c1.3-1.9 3.1-2.5 4.6-2.5 2.2 0 3.7.8 4.6 2.8.9-1.9 3-2.8 4.9-2.8 3.9 0 4.9 2.6 4.9 6.1v9.9h-4.1v-9.3c0-1.5 0-3.5-2.3-3.5-2.7 0-3 3.2-3 5.3v7.6H121v-9.3c0-1.5 0-3.5-2.3-3.5-2.7 0-3 3.2-3 5.3v7.6h-4.1v-15.9zM141.6 131.2h4.1v9.1h.1c1.1-1.5 2.6-2.4 4.7-2.4 4.8 0 6.6 3.8 6.6 8.1s-1.8 8.2-6.6 8.2c-1.7 0-3.6-.6-4.8-2.3h-.1v1.9h-3.9v-22.6zm7.7 19.9c2.7 0 3.4-2.9 3.4-5.1 0-2.1-.7-5-3.4-5-2.6 0-3.6 2.8-3.6 5 0 2.3.9 5.1 3.6 5.1zM175.8 153.1c-1.5.8-3.2 1.2-5.4 1.2-5.2 0-8.2-3-8.2-8.1 0-4.5 2.4-8.3 7.3-8.3 5.8 0 7.4 4 7.4 9.4h-10.8c.2 2.5 1.9 3.9 4.5 3.9 2 0 3.7-.7 5.2-1.6v3.5zm-2.8-8.5c-.1-2-1-3.7-3.3-3.7s-3.4 1.6-3.6 3.7h6.9zM193.5 152.2c-1.3 1.5-2.9 2.1-4.9 2.1-4.8 0-6.6-3.9-6.6-8.2 0-4.3 1.8-8.1 6.6-8.1 2 0 3.5.7 4.7 2.2h.1v-9h4.1V154h-3.9v-1.8zm-3.7-1.1c2.7 0 3.6-2.9 3.6-5.1 0-2.2-1-5-3.6-5s-3.4 2.9-3.4 5c0 2.2.7 5.1 3.4 5.1zM215.1 152.2c-1.3 1.5-2.9 2.1-4.9 2.1-4.8 0-6.6-3.9-6.6-8.2 0-4.3 1.8-8.1 6.6-8.1 2 0 3.5.7 4.7 2.2h.1v-9h4.1V154h-3.9v-1.8zm-3.7-1.1c2.7 0 3.6-2.9 3.6-5.1 0-2.2-1-5-3.6-5s-3.4 2.9-3.4 5c0 2.2.7 5.1 3.4 5.1zM238.8 153.1c-1.5.8-3.2 1.2-5.4 1.2-5.2 0-8.2-3-8.2-8.1 0-4.5 2.4-8.3 7.3-8.3 5.8 0 7.4 4 7.4 9.4h-10.8c.2 2.5 1.9 3.9 4.5 3.9 2 0 3.7-.7 5.2-1.6v3.5zm-2.7-8.5c-.1-2-1-3.7-3.3-3.7s-3.4 1.6-3.6 3.7h6.9zM256.6 152.2c-1.3 1.5-2.9 2.1-4.9 2.1-4.8 0-6.6-3.9-6.6-8.2 0-4.3 1.8-8.1 6.6-8.1 2 0 3.5.7 4.7 2.2h.1v-9h4.1V154h-3.9v-1.8zm-3.7-1.1c2.7 0 3.6-2.9 3.6-5.1 0-2.2-1-5-3.6-5s-3.4 2.9-3.4 5c0 2.2.7 5.1 3.4 5.1zM291.8 153.1c-1.5.8-3.2 1.2-5.4 1.2-5.2 0-8.2-3-8.2-8.1 0-4.5 2.4-8.3 7.3-8.3 5.8 0 7.4 4 7.4 9.4h-10.8c.2 2.5 1.9 3.9 4.5 3.9 2 0 3.7-.7 5.2-1.6v3.5zm-2.7-8.5c-.1-2-1-3.7-3.3-3.7s-3.4 1.6-3.6 3.7h6.9zM297.9 138.3h4.8l3.1 5.1 3-5.1h4.3l-4.7 7.4 5.3 8.2h-4.9l-3.5-5.8-3.5 5.8h-4.5l5.4-8.2-4.8-7.4zM319.1 138.3h3.9v2.2h.1c.9-1.5 2.5-2.6 4.9-2.6 4.8 0 6.6 3.8 6.6 8.1s-1.8 8.2-6.6 8.2c-1.7 0-3.2-.4-4.6-2.2h-.1v8.2h-4.1v-21.9zm4.1 7.8c0 2.2.9 5.1 3.6 5.1s3.4-2.9 3.4-5.1c0-2.1-.7-5-3.4-5-2.6 0-3.6 2.8-3.6 5zM353.2 153.1c-1.5.8-3.2 1.2-5.4 1.2-5.2 0-8.2-3-8.2-8.1 0-4.5 2.4-8.3 7.3-8.3 5.8 0 7.4 4 7.4 9.4h-10.8c.2 2.5 1.9 3.9 4.5 3.9 2 0 3.7-.7 5.2-1.6v3.5zm-2.7-8.5c-.1-2-1-3.7-3.3-3.7s-3.4 1.6-3.6 3.7h6.9zM360.7 138.3h3.6v3.6h.1c.2-1.5 1.8-3.9 4.3-3.9.4 0 .8 0 1.2.1v4.1c-.4-.2-1.1-.3-1.8-.3-3.3 0-3.3 4.1-3.3 6.4v5.7h-4.1v-15.7zM376.7 141.3h-3v-3h3v-3.1l4.1-1.3v4.4h3.6v3h-3.6v7.3c0 1.3.4 2.6 1.9 2.6.7 0 1.4-.2 1.9-.4l.1 3.2c-.8.2-1.8.4-3 .4-3.2 0-4.9-2-4.9-5.1v-8zM399.5 141.6c-1.2-.4-2.2-.7-3.6-.7-1.1 0-2.4.4-2.4 1.7 0 2.5 7.1.9 7.1 6.6 0 3.6-3.2 5.1-6.6 5.1-1.5 0-3.1-.3-4.6-.7l.2-3.3c1.3.6 2.6 1 4 1 1 0 2.7-.4 2.7-1.9 0-3.1-7.1-1-7.1-6.6 0-3.4 2.9-4.9 6.1-4.9 1.9 0 3.2.3 4.4.6l-.2 3.1z"></path><path class="st0" d="M395 0h-24.4l-22 34.5L327.1 0h-24.3l34.7 55.6-28.7 45.2H1.8v17.1h320.5l26.2-41.1 25.6 41.1h24.3l-38.8-62.2z"></path><path class="st0" d="M213.1 21.1c-8.5 0-14.3 3.5-18.8 9.5h-.2V0h-16.4v85.4h15.9v-7.7h.2c4.8 6.7 12.3 9.2 19.3 9.2 19.3 0 26.4-15.9 26.4-33.1 0-17.4-7.1-32.7-26.4-32.7zm-4.5 53.1c-10.9 0-14.4-11.5-14.4-20.4 0-8.8 4.2-20 14.6-20 10.6 0 13.6 11.6 13.6 20 0 8.6-3.1 20.4-13.8 20.4z"></path></svg>