<?xml version="1.0" encoding="UTF-8" standalone="no"?>
<!DOCTYPE svg PUBLIC "-//W3C//DTD SVG 1.1//EN" "http://www.w3.org/Graphics/SVG/1.1/DTD/svg11.dtd">
<!-- Created with Vectornator (http://vectornator.io/) -->
<svg height="100%" stroke-miterlimit="10" style="fill-rule:nonzero;clip-rule:evenodd;stroke-linecap:round;stroke-linejoin:round;" version="1.1" viewBox="0 0 500 500" width="100%" xml:space="preserve" xmlns="http://www.w3.org/2000/svg" xmlns:vectornator="http://vectornator.io" xmlns:xlink="http://www.w3.org/1999/xlink">
<defs>
<path d="M50 124L50 371L452 371L452 124L344 255L250.5 124L157 255L50 124ZM244 155L244 234L222 248L244 262L244 359L240 359L165 267L244 155ZM257 155L336 266.281L261 359L257 359L257 262L279 248L257 234L257 155ZM62 159L150 267L83 359L62 359L62 159ZM437.375 159L438.938 359L417 359L351.969 267L437.375 159ZM158 277L225 359L100 359L158 277ZM343 277L401.406 359L276 359L343 277Z" id="Fill"/>
<path d="M62 159L62 359L83 359L150 267L62 159Z" id="Fill_2"/>
<path d="M158 277L100 359L225 359L158 277Z" id="Fill_3"/>
<path d="M244 155L165 267L240 359L244 359L244 262L222 248L244 234L244 155Z" id="Fill_4"/>
<path d="M257 155L257 234L279 248L257 262L257 359L261 359L336 266.281L257 155Z" id="Fill_5"/>
<path d="M437.375 159L351.969 267L417 359L438.938 359L437.375 159Z" id="Fill_6"/>
<path d="M343 277L276 359L401.406 359L343 277Z" id="Fill_7"/>
</defs>
<g id="레이어-1" vectornator:layerName="레이어 1">
<g opacity="1">
<use fill="#000000" fill-rule="nonzero" stroke="none" xlink:href="#Fill"/>
<mask height="247" id="StrokeMask" maskUnits="userSpaceOnUse" width="402" x="50" y="124">
<rect fill="#000000" height="247" stroke="none" width="402" x="50" y="124"/>
<use fill="#ffffff" fill-rule="evenodd" stroke="none" xlink:href="#Fill"/>
</mask>
<use fill="none" mask="url(#StrokeMask)" stroke="#000000" stroke-linecap="butt" stroke-linejoin="miter" stroke-width="2.49" xlink:href="#Fill"/>
</g>
<g opacity="1">
<use fill="#ffffff" fill-opacity="0" fill-rule="nonzero" stroke="none" xlink:href="#Fill_2"/>
<mask height="200" id="StrokeMask_2" maskUnits="userSpaceOnUse" width="88" x="62" y="159">
<rect fill="#000000" height="200" stroke="none" width="88" x="62" y="159"/>
<use fill="#ffffff" fill-rule="evenodd" stroke="none" xlink:href="#Fill_2"/>
</mask>
<use fill="none" mask="url(#StrokeMask_2)" stroke="#000000" stroke-linecap="butt" stroke-linejoin="miter" stroke-width="2.49" xlink:href="#Fill_2"/>
</g>
<g opacity="1">
<use fill="#ffffff" fill-opacity="0" fill-rule="nonzero" stroke="none" xlink:href="#Fill_3"/>
<mask height="82" id="StrokeMask_3" maskUnits="userSpaceOnUse" width="125" x="100" y="277">
<rect fill="#000000" height="82" stroke="none" width="125" x="100" y="277"/>
<use fill="#ffffff" fill-rule="evenodd" stroke="none" xlink:href="#Fill_3"/>
</mask>
<use fill="none" mask="url(#StrokeMask_3)" stroke="#000000" stroke-linecap="butt" stroke-linejoin="miter" stroke-width="2.49" xlink:href="#Fill_3"/>
</g>
<g opacity="1">
<use fill="#ffffff" fill-opacity="0" fill-rule="nonzero" stroke="none" xlink:href="#Fill_4"/>
<mask height="204" id="StrokeMask_4" maskUnits="userSpaceOnUse" width="79" x="165" y="155">
<rect fill="#000000" height="204" stroke="none" width="79" x="165" y="155"/>
<use fill="#ffffff" fill-rule="evenodd" stroke="none" xlink:href="#Fill_4"/>
</mask>
<use fill="none" mask="url(#StrokeMask_4)" stroke="#000000" stroke-linecap="butt" stroke-linejoin="miter" stroke-width="2.49" xlink:href="#Fill_4"/>
</g>
<g opacity="1">
<use fill="#ffffff" fill-opacity="0" fill-rule="nonzero" stroke="none" xlink:href="#Fill_5"/>
<mask height="204" id="StrokeMask_5" maskUnits="userSpaceOnUse" width="79" x="257" y="155">
<rect fill="#000000" height="204" stroke="none" width="79" x="257" y="155"/>
<use fill="#ffffff" fill-rule="evenodd" stroke="none" xlink:href="#Fill_5"/>
</mask>
<use fill="none" mask="url(#StrokeMask_5)" stroke="#000000" stroke-linecap="butt" stroke-linejoin="miter" stroke-width="2.49" xlink:href="#Fill_5"/>
</g>
<g opacity="1">
<use fill="#ffffff" fill-opacity="0" fill-rule="nonzero" stroke="none" xlink:href="#Fill_6"/>
<mask height="200" id="StrokeMask_6" maskUnits="userSpaceOnUse" width="86.9688" x="351.969" y="159">
<rect fill="#000000" height="200" stroke="none" width="86.9688" x="351.969" y="159"/>
<use fill="#ffffff" fill-rule="evenodd" stroke="none" xlink:href="#Fill_6"/>
</mask>
<use fill="none" mask="url(#StrokeMask_6)" stroke="#000000" stroke-linecap="butt" stroke-linejoin="miter" stroke-width="2.49" xlink:href="#Fill_6"/>
</g>
<g opacity="1">
<use fill="#ffffff" fill-opacity="0" fill-rule="nonzero" stroke="none" xlink:href="#Fill_7"/>
<mask height="82" id="StrokeMask_7" maskUnits="userSpaceOnUse" width="125.406" x="276" y="277">
<rect fill="#000000" height="82" stroke="none" width="125.406" x="276" y="277"/>
<use fill="#ffffff" fill-rule="evenodd" stroke="none" xlink:href="#Fill_7"/>
</mask>
<use fill="none" mask="url(#StrokeMask_7)" stroke="#000000" stroke-linecap="butt" stroke-linejoin="miter" stroke-width="2.49" xlink:href="#Fill_7"/>
</g>
</g>
</svg>
