<?xml version="1.0" encoding="UTF-8" standalone="no"?><!DOCTYPE svg PUBLIC "-//W3C//DTD SVG 1.1//EN" "http://www.w3.org/Graphics/SVG/1.1/DTD/svg11.dtd"><svg width="100%" height="100%" viewBox="0 0 1200 740" version="1.1" xmlns="http://www.w3.org/2000/svg" xmlns:xlink="http://www.w3.org/1999/xlink" xml:space="preserve" xmlns:serif="http://www.serif.com/" style="fill-rule:evenodd;clip-rule:evenodd;stroke-miterlimit:3.47561;"><g><path d="M937.921,456.671c31.308,1.653 61.847,-10.063 84.016,-32.233c0,0 0.001,0 0.001,0c40.154,-40.155 40.154,-105.259 0,-145.413c0,-0.001 -0.001,-0.001 -0.001,-0.001c-22.169,-22.169 -52.708,-33.885 -84.016,-32.232c-31.309,1.653 -60.444,16.519 -80.156,40.899c-27.496,34.009 -76.056,94.147 -103.553,128.156c-19.712,24.381 -48.847,39.247 -80.155,40.9c-31.309,1.653 -61.847,-10.063 -84.017,-32.232c0,-0.001 0,-0.001 0,-0.001c-40.155,-40.155 -40.155,-105.258 0,-145.413c0,0 0,-0.001 0,-0.001c22.17,-22.169 52.708,-33.885 84.017,-32.232c20.733,1.095 40.513,7.984 57.234,19.593" style="fill:none;stroke:#000;stroke-width:59.54px;"/><circle cx="269.572" cy="330.561" r="84.98" style="fill:none;stroke:#000;stroke-width:59.54px;stroke-linecap:square;"/><path d="M456.453,420.051l0,36.85" style="fill:none;stroke:#000;stroke-width:59.89px;stroke-linecap:square;"/><path d="M174.869,246.148l0,210.753" style="fill:none;stroke:#000;stroke-width:59.54px;stroke-linecap:square;"/><path d="M946.922,246.638c58.024,0 105.132,47.108 105.132,105.131c0,58.024 -47.108,105.132 -105.132,105.132c-58.023,0 -105.131,-47.108 -105.131,-105.132" style="fill:none;stroke:#000;stroke-width:59.41px;"/><path d="M873.664,314.775l-75.827,94.186l27.55,22.18l75.828,-94.186l-27.551,-22.18Z" style="fill:#fff;"/><circle cx="456.453" cy="323.486" r="42.659"/></g><text x="142.944px" y="613.414px" style="font-family:'AvenirNext-Bold', 'Avenir Next', sans-serif;font-weight:700;font-size:68.53px;fill-opacity:0.75;">P<tspan x="187.458px 208.398px 243.524px 287.49px 327.619px 348.559px 391.429px 412.369px 438.517px 478.029px 495.817px 518.265px 561.135px 596.26px " y="613.414px 613.414px 613.414px 613.414px 613.414px 613.414px 613.414px 613.414px 613.414px 613.414px 613.414px 613.414px 613.414px 613.414px ">icoFinity Inc.</tspan></text></svg>